/* XPM */
static char * about_xpm[] = {
"16 16 50 1",
" 	c None",
".	c #4D651F",
"+	c #FFFFFF",
"@	c #B3FD28",
"#	c #B0FD20",
"$	c #C2FD53",
"%	c #BEFD49",
"&	c #B8FD37",
"*	c #C8FD65",
"=	c #CEFD74",
"-	c #CEFD76",
";	c #869767",
">	c #748751",
",	c #5E7434",
"'	c #D2FD80",
")	c #DAFE96",
"!	c #DAFE97",
"~	c #9CA983",
"{	c #BDFD45",
"]	c #4F6722",
"^	c #CAFD6A",
"/	c #D6FD8D",
"(	c #E2FEAF",
"_	c #E4FEB3",
":	c #D8FE91",
"<	c #CCFD6F",
"[	c #BFFD4B",
"}	c #536B27",
"|	c #D4FD87",
"1	c #DDFEA1",
"2	c #DEFEA4",
"3	c #D5FD8A",
"4	c #CAFD6B",
"5	c #6D8047",
"6	c #516925",
"7	c #C3FD57",
"8	c #CCFD71",
"9	c #D2FD81",
"0	c #D3FD82",
"a	c #CDFD73",
"b	c #7B8D59",
"c	c #63783B",
"d	c #BBFD3F",
"e	c #C6FD60",
"f	c #C3FD56",
"g	c #BCFD42",
"h	c #B7FD34",
"i	c #BAFD3D",
"j	c #BAFD3E",
"k	c #B7FD35",
"     ......     ",
"   ..++++++..   ",
"  .+++@###+++.  ",
" .++$$%&####++. ",
" .+*=-;>,.###+. ",
".++')!~*{].##++.",
".+^/(_:<[}.###+.",
".+*|123456####+.",
".+7890abc#####+.",
".+d$eefg@#####+.",
".++hijk6.####++.",
" .+####..####+. ",
" .++########++. ",
"  .+++####+++.  ",
"   ..++++++..   ",
"     ......     "};
