/* XPM */
static char const * anticlockwise_xpm[] = {
"16 16 5 1",
" 	c None",
".	c #372848",
"+	c #D6B2FF",
"@	c #BF87FF",
"#	c #996ACE",
"        ...     ",
"  .......+....  ",
" ..++++.+++++.. ",
" .++@@.@@@@@@#. ",
" .+@@##.###@@#. ",
" .+@#....#.+@#. ",
" .+@#.  ...+@#. ",
" .+@#.    .+@#. ",
" .+@#.    .+@#. ",
" .+@#...  .+@#. ",
" .+@#.+....+@#. ",
" .+@@+++.++@@#. ",
" .+@@@@@@.@@##. ",
" ..#####.####.. ",
"  ....#.......  ",
"     ...        "};
