/* XPM */
static char * bid_history_xpm[] = {
"16 16 108 2",
"  	c None",
". 	c #755332",
"+ 	c #89572B",
"@ 	c #945927",
"# 	c #8C572A",
"$ 	c #AC5E1E",
"% 	c #FF7600",
"& 	c #FF7200",
"* 	c #FF7901",
"= 	c #AC6321",
"- 	c #8C5B2C",
"; 	c #755533",
"> 	c #715334",
", 	c #8A572B",
"' 	c #AB5E1E",
") 	c #FF7000",
"! 	c #FF6C00",
"~ 	c #FF6A00",
"{ 	c #FF7406",
"] 	c #FF810B",
"^ 	c #FF890E",
"/ 	c #FF8C0C",
"( 	c #AC6C26",
"_ 	c #8B5E2E",
": 	c #715434",
"< 	c #FF7800",
"[ 	c #FF6900",
"} 	c #FF6800",
"| 	c #FF7205",
"1 	c #FF840E",
"2 	c #FF9217",
"3 	c #FF9C1B",
"4 	c #FFA01C",
"5 	c #FF9C18",
"6 	c #FF930E",
"7 	c #8B5F2F",
"8 	c #755333",
"9 	c #A85D20",
"0 	c #FF7100",
"a 	c #FF7D0C",
"b 	c #FF9016",
"c 	c #FFA11F",
"d 	c #FFB027",
"e 	c #FFB72B",
"f 	c #FFB328",
"g 	c #FFA41B",
"h 	c #A9702A",
"i 	c #755634",
"j 	c #7D552F",
"k 	c #FF7B00",
"l 	c #FF6E00",
"m 	c #FF7003",
"n 	c #FF991B",
"o 	c #FFAC26",
"p 	c #FFC030",
"q 	c #FFCD37",
"r 	c #FFC834",
"s 	c #FFB125",
"t 	c #FF980F",
"u 	c #7D5B32",
"v 	c #FF7105",
"w 	c #FF8710",
"x 	c #FF9C1D",
"y 	c #FFB228",
"z 	c #FFC734",
"A 	c #FFDB3F",
"B 	c #FFD138",
"C 	c #FFB224",
"D 	c #A9752D",
"E 	c #755735",
"F 	c #FF6F03",
"G 	c #FF840F",
"H 	c #FFAD25",
"I 	c #FFBE2E",
"J 	c #FFC631",
"K 	c #FFBB28",
"L 	c #FFA418",
"M 	c #8B6532",
"N 	c #FF7D0B",
"O 	c #FF9015",
"P 	c #FFA81E",
"Q 	c #FFA61A",
"R 	c #AC7C2F",
"S 	c #8B6632",
"T 	c #715736",
"U 	c #AE5F1E",
"V 	c #FF7400",
"W 	c #FF7505",
"X 	c #FF840D",
"Y 	c #FF900F",
"Z 	c #AF7429",
"` 	c #8C6432",
" .	c #755936",
"..	c #7A5431",
"+.	c #B05F1D",
"@.	c #FF7904",
"#.	c #AE6823",
"$.	c #7A5833",
"%.	c #985A26",
"&.	c #FF7500",
"*.	c #8C582B",
"=.	c #FF7C00",
"-.	c #9B5B24",
";.	c #775432",
">.	c #FF8200",
",.	c #8E5829",
"'.	c #6E5335",
").	c #685238",
"          . + @ @ + .           ",
"      . # $ % & & * = - ;       ",
"  > , ' % ) ! ~ { ] ^ / ( _ :   ",
"  , < ) ! [ } | 1 2 3 4 5 6 7   ",
"8 9 0 ~ } } ~ a b c d e f g h i ",
"j k l [ } } m 1 n o p q r s t u ",
"8 9 0 ~ } } v w x y z A B C D E ",
"  , < ) ! [ F G n H I J K L M   ",
"  > , ' % ) ! N O 4 P Q R S T   ",
"      . # U V W X Y Z `  .      ",
"          ..+.0 @.#.$.          ",
"            %.&.< *.            ",
"            %.=.-.              ",
"          ;.>.,.                ",
"          '.;.                  ",
"          ).                    "};
