/* XPM */
static char const * bubble_edge_left_xpm[] = {
"5 5 5 1",
" 	c None",
".	c #205A05",
"+	c #FFFFFF",
"@	c #D9FFC8",
"#	c #ADFF87",
".+@##",
".+@##",
".+@##",
".+@##",
".+@##"};
