/* XPM */
static char * bubble_corner_se_xpm[] = {
"5 5 5 1",
" 	c None",
".	c #ADFF87",
"+	c #D9FFC8",
"@	c #FFFFFF",
"#	c #205A05",
".++@#",
"++@# ",
"+@## ",
"@##  ",
"#    "};
