/* XPM */
static char * bubble_arrow_top_xpm[] = {
"12 12 5 1",
" 	c None",
".	c #205A05",
"+	c #FFFFFF",
"@	c #D9FFC8",
"#	c #ADFF87",
" ..         ",
" .+.        ",
"  .+.       ",
"  .++.      ",
"   .++.     ",
"   .+@+.    ",
"    .+@+.   ",
"    .+@@+.  ",
"     .+@@+. ",
"......+@#@+.",
"+++++++@#@++",
"@@@@@@@@#@@@"};
