/* XPM */
static char const * bubble_arrow_bottom_xpm[] = {
"12 12 5 1",
" 	c None",
".	c #D9FFC8",
"+	c #ADFF87",
"@	c #FFFFFF",
"#	c #205A05",
"........+...",
"@@@@@@@.+.@@",
"######@.+.@#",
"     #@..@# ",
"    #@..@#  ",
"    #@.@#   ",
"   #@.@#    ",
"   #@@#     ",
"  #@@#      ",
"  #@#       ",
" #@#        ",
" ##         "};
