/* XPM */
static char * bubble_corner_sw_xpm[] = {
"5 5 5 1",
" 	c None",
".	c #205A05",
"+	c #FFFFFF",
"@	c #D9FFC8",
"#	c #ADFF87",
".+@@#",
" .+@@",
" ..+@",
"  ..+",
"    ."};
