/* XPM */
static char * bubble_arrow_right_xpm[] = {
"12 12 5 1",
" 	c None",
".	c #D9FFC8",
"+	c #FFFFFF",
"@	c #205A05",
"#	c #ADFF87",
".+@         ",
".++@        ",
"...+@       ",
"###.+@      ",
".....+@     ",
".+++..+@    ",
".+@@++.+@   ",
".+@ @@+++@  ",
".+@   @@++@ ",
".+@     @@+@",
".+@       @@",
".+@         "};
