/* XPM */
static char const * bubble_arrow_left_xpm[] = {
"12 12 5 1",
" 	c None",
".	c #205A05",
"+	c #FFFFFF",
"@	c #D9FFC8",
"#	c #ADFF87",
"         .+@",
"..       .+@",
".+..     .+@",
" .++..   .+@",
"  .+++.. .+@",
"   .+@++..+@",
"    .+@@+++@",
"     .+@@@@@",
"      .+@###",
"       .+@@@",
"        .++@",
"         .+@"};
