/* XPM */
static char const * exit_xpm[] = {
"16 16 65 1",
" 	c None",
".	c #6D0729",
"+	c #FF9D00",
"@	c #FFA718",
"#	c #FFA20D",
"$	c #FF9E01",
"%	c #FF9E00",
"&	c #FFB135",
"*	c #FFAD29",
"=	c #FFA91F",
"-	c #FFA514",
";	c #FFA108",
">	c #FFB847",
",	c #FFB43C",
"'	c #FFB031",
")	c #FFAB26",
"!	c #FFA71B",
"~	c #FFA410",
"{	c #FF9F04",
"]	c #FFBC4F",
"^	c #FFB743",
"/	c #FFB338",
"(	c #FFAE2D",
"_	c #FFAB22",
":	c #FFA717",
"<	c #FFA20C",
"[	c #FFBC50",
"}	c #FFBA4A",
"|	c #FFB540",
"1	c #FFB134",
"2	c #FFAE29",
"3	c #FFA91E",
"4	c #FFA413",
"5	c #FFB033",
"6	c #FFB53E",
"7	c #FFB949",
"8	c #FFBD52",
"9	c #FFB947",
"0	c #FFAC25",
"a	c #FFA81B",
"b	c #FFA615",
"c	c #FFAA21",
"d	c #FFAE2B",
"e	c #FFB236",
"f	c #FFB642",
"g	c #FFBB4D",
"h	c #FFBB4E",
"i	c #FFAF2D",
"j	c #FF9E03",
"k	c #FFA30E",
"l	c #FFA719",
"m	c #FFAB25",
"n	c #FFAF2F",
"o	c #FFB43A",
"p	c #FFB845",
"q	c #FFBC51",
"r	c #FFB94B",
"s	c #FFB63F",
"t	c #FFA007",
"u	c #FFA412",
"v	c #FFA81D",
"w	c #FFB133",
"x	c #FFBA49",
"y	c #FFAE2C",
"z	c #FFB237",
"                ",
"                ",
"     ..   ..    ",
"    .++. .++.   ",
"   .@#$+.++%+.  ",
"  .&*=-;+++++%. ",
"  .>,')!~{+++%. ",
"   .]^/(_:<$+.  ",
"    .[}|1234.   ",
"   .56789,'0a.  ",
"  .bcdefgh^/ic. ",
"  .jklmnopqrs1. ",
"   .%tuv.w6x8.  ",
"    .++. .yz.   ",
"     ..   ..    ",
"                "};
