/* XPM */
static char const *face_24_xpm[] = {
/* width height num_colors chars_per_pixel */
"    72    96      256            2",
/* colors */
"`` c #000000",
"`. c #001084",
"`# c #081018",
"`a c #102129",
"`b c #10298c",
"`c c #291018",
"`d c #293131",
"`e c #293184",
"`f c #394239",
"`g c #394aa5",
"`h c #425a52",
"`i c #4263bd",
"`j c #521021",
"`k c #525a9c",
"`l c #5a2929",
"`m c #5a5221",
"`n c #5a5252",
"`o c #633173",
"`p c #637bad",
"`q c #73735a",
"`r c #7b1018",
"`s c #7b7329",
"`t c #7b94c6",
"`u c #947b21",
"`v c #947b84",
"`w c #949cbd",
"`x c #9c2929",
"`y c #9c9473",
"`z c #a55221",
"`A c #a59429",
"`B c #a5b5de",
"`C c #ad1018",
"`D c #ad5263",
"`E c #b57384",
"`F c #b57b21",
"`G c #bd3129",
"`H c #bd9c5a",
"`I c #bd9ca5",
"`J c #bdbdce",
"`K c #c69c21",
"`L c #c6def7",
"`M c #c6f7ff",
"`N c #ceb563",
"`O c #ceceb5",
"`P c #de524a",
"`Q c #deb521",
"`R c #e72929",
"`S c #e77b21",
"`T c #e7e7f7",
"`U c #f7dea5",
"`V c #ff0008",
"`W c #ff00ff",
"`X c #ff3131",
"`Y c #ff4a4a",
"`Z c #ff737b",
"`0 c #ff9c31",
"`1 c #ff9c9c",
"`2 c #ffbd21",
"`3 c #ffbdbd",
"`4 c #ffde18",
"`5 c #ffde63",
"`6 c #ffff29",
"`7 c #ffffa5",
"`8 c #ffffff",
".` c #ffffff",
".. c #ffffff",
".# c #ffffff",
".a c #ffffff",
".b c #ffffff",
".c c #ffffff",
".d c #ffffff",
".e c #ffffff",
".f c #ffffff",
".g c #ffffff",
".h c #ffffff",
".i c #ffffff",
".j c #ffffff",
".k c #ffffff",
".l c #ffffff",
".m c #ffffff",
".n c #ffffff",
".o c #ffffff",
".p c #ffffff",
".q c #ffffff",
".r c #ffffff",
".s c #ffffff",
".t c #ffffff",
".u c #ffffff",
".v c #ffffff",
".w c #ffffff",
".x c #ffffff",
".y c #ffffff",
".z c #ffffff",
".A c #ffffff",
".B c #ffffff",
".C c #ffffff",
".D c #ffffff",
".E c #ffffff",
".F c #ffffff",
".G c #ffffff",
".H c #ffffff",
".I c #ffffff",
".J c #ffffff",
".K c #ffffff",
".L c #ffffff",
".M c #ffffff",
".N c #ffffff",
".O c #ffffff",
".P c #ffffff",
".Q c #ffffff",
".R c #ffffff",
".S c #ffffff",
".T c #ffffff",
".U c #ffffff",
".V c #ffffff",
".W c #ffffff",
".X c #ffffff",
".Y c #ffffff",
".Z c #ffffff",
".0 c #ffffff",
".1 c #ffffff",
".2 c #ffffff",
".3 c #ffffff",
".4 c #ffffff",
".5 c #ffffff",
".6 c #ffffff",
".7 c #ffffff",
".8 c #ffffff",
"#` c #ffffff",
"#. c #ffffff",
"## c #ffffff",
"#a c #ffffff",
"#b c #ffffff",
"#c c #ffffff",
"#d c #ffffff",
"#e c #ffffff",
"#f c #ffffff",
"#g c #ffffff",
"#h c #ffffff",
"#i c #ffffff",
"#j c #ffffff",
"#k c #ffffff",
"#l c #ffffff",
"#m c #ffffff",
"#n c #ffffff",
"#o c #ffffff",
"#p c #ffffff",
"#q c #ffffff",
"#r c #ffffff",
"#s c #ffffff",
"#t c #ffffff",
"#u c #ffffff",
"#v c #ffffff",
"#w c #ffffff",
"#x c #ffffff",
"#y c #ffffff",
"#z c #ffffff",
"#A c #ffffff",
"#B c #ffffff",
"#C c #ffffff",
"#D c #ffffff",
"#E c #ffffff",
"#F c #ffffff",
"#G c #ffffff",
"#H c #ffffff",
"#I c #ffffff",
"#J c #ffffff",
"#K c #ffffff",
"#L c #ffffff",
"#M c #ffffff",
"#N c #ffffff",
"#O c #ffffff",
"#P c #ffffff",
"#Q c #ffffff",
"#R c #ffffff",
"#S c #ffffff",
"#T c #ffffff",
"#U c #ffffff",
"#V c #ffffff",
"#W c #ffffff",
"#X c #ffffff",
"#Y c #ffffff",
"#Z c #ffffff",
"#0 c #ffffff",
"#1 c #ffffff",
"#2 c #ffffff",
"#3 c #ffffff",
"#4 c #ffffff",
"#5 c #ffffff",
"#6 c #ffffff",
"#7 c #ffffff",
"#8 c #ffffff",
"a` c #ffffff",
"a. c #ffffff",
"a# c #ffffff",
"aa c #ffffff",
"ab c #ffffff",
"ac c #ffffff",
"ad c #ffffff",
"ae c #ffffff",
"af c #ffffff",
"ag c #ffffff",
"ah c #ffffff",
"ai c #ffffff",
"aj c #ffffff",
"ak c #ffffff",
"al c #ffffff",
"am c #ffffff",
"an c #ffffff",
"ao c #ffffff",
"ap c #ffffff",
"aq c #ffffff",
"ar c #ffffff",
"as c #ffffff",
"at c #ffffff",
"au c #ffffff",
"av c #ffffff",
"aw c #ffffff",
"ax c #ffffff",
"ay c #ffffff",
"az c #ffffff",
"aA c #ffffff",
"aB c #ffffff",
"aC c #ffffff",
"aD c #ffffff",
"aE c #ffffff",
"aF c #ffffff",
"aG c #ffffff",
"aH c #ffffff",
"aI c #ffffff",
"aJ c #ffffff",
"aK c #ffffff",
"aL c #ffffff",
"aM c #ffffff",
"aN c #ffffff",
"aO c #ffffff",
"aP c #ffffff",
"aQ c #ffffff",
"aR c #ffffff",
"aS c #ffffff",
"aT c #ffffff",
"aU c #ffffff",
"aV c #ffffff",
"aW c #ffffff",
"aX c #ffffff",
"aY c #ffffff",
"aZ c #ffffff",
"a0 c #ffffff",
"a1 c #ffffff",
"a2 c #ffffff",
"a3 c #ffffff",
"a4 c #ffffff",
"a5 c #ffffff",
"a6 c #ffffff",
"a7 c #ffffff",
"a8 c #ffffff",
/* pixels */
"`q```````````````````````````````````````````````````````````````````````````````````````````````````````````````````````````````````````````q``",
"```y`8`8`8`8`8`8`8`8`8`8`8`8`8`8`8`8`8`8`8`8`8`8`8`8`8`8`8`8`8`8`8`8`8`8`8`8`8`8`8`8`8`8`8`8`8`8`8`8`8`8`8`8`8`8`8`8`8`8`8`8`8`8`8`8`8`8`8`y````",
"```8`8`8`8`8`8`8`8`8`8`8`8`8`8`8`8`8`8`8`8`8`8`8`8`8`8`8`8`8`8`8`8`8`8`8`8`8`8`8`8`8`8`8`8`8`8`8`8`8`8`8`8`8`8`8`8`8`8`8`8`8`8`8`8`8`8`8`8`8````",
"```8`8`8`8`8`8`8`8`8`8`8`8`8`8`8`8`8`8`8`8`8`8`8`8`8`8`8`8`8`8`8`8`8`8`8`8`8`8`8`8`8`8`8`8`8`8`8`8`8`8`8`8`8`8`8`8`8`8`8`8`8`8`8`8`8`8`8`8`8````",
"```8`8`8`Z`V`V`V`Z`8`8`8`8`8`8`8`8`8`8`8`8`8`8`8`8`8`8`8`8`8`8`8`8`8`8`8`8`8`8`8`8`8`8`8`8`8`8`8`8`8`8`8`8`8`8`8`8`8`8`8`8`8`8`8`8`8`8`8`8`8````",
"```8`8`Z`V`V`V`V`V`Z`8`8`8`8`8`8`8`8`8`8`8`8`8`8`8`8`8`8`8`8`8`8`8`8`8`8`8`8`8`8`8`8`8`8`8`8`8`8`8`8`8`8`8`8`8`8`8`8`8`8`8`8`8`8`8`8`8`8`8`8````",
"```8`8`V`V`8`8`8`V`V`8`8`8`8`8`8`8`8`8`8`8`8`8`8`8`8`8`8`8`8`8`8`8`8`8`8`8`8`8`8`8`8`8`8`8`8`8`8`8`8`8`8`8`8`8`8`8`8`8`8`8`8`8`8`8`8`8`8`8`8````",
"```8`8`V`V`8`8`8`V`V`8`8`8`8`8`8`8`8`8`8`8`8`8`8`8`8`8`8`8`8`8`8`8`8`8`8`8`8`8`8`8`8`8`8`8`8`8`8`8`8`8`8`8`8`8`8`8`8`8`8`8`8`8`8`8`8`8`8`8`8````",
"```8`8`V`V`8`8`8`V`V`8`8`8`8`8`8`8`8`8`8`8`8`8`8`8`8`8`8`8`8`8`8`8`8`8`8`8`8`8`8`8`8`8`8`8`8`8`8`8`8`8`8`8`8`8`8`8`8`8`8`8`8`8`8`8`8`8`8`8`8````",
"```8`8`V`V`8`8`8`V`V`8`8`8`8`8`8`8`8`8`8`8`8`8`8`8`8`8`8`8`8`8`8`8`8`8`8`8`8`8`8`8`8`8`8`8`8`8`8`8`8`8`8`8`8`8`8`8`8`8`8`8`8`8`8`8`8`8`8`8`8````",
"```8`8`V`V`8`8`8`V`V`8`8```````````````````````````````````````````````````````````````````````````````````````````````8`8`8`8`8`8`8`8`8`8`8````",
"```8`8`V`V`8`8`8`V`V`8`8```8`8`8`8`8`8`8`8`8`8`8`8`8`8`8`8`8`8`8`8`y`K`L`L`B`8`L`t`L`t`V`V`f`v`t`D`G`P`4`5`4`5`4`6`J```8`8`8`8`8`8`8`8`8`8`8````",
"```8`8`V`V`8`8`8`V`V`8`8```8`8`8`8`3`8`8`8`8`8`8`8`8`8`8`8`8`8`8`B`4`y`L`w`8`8`8`T`p`L`k`V`V`x`a`q`p`m`2`2`4`K`2`Q`J```8`8`8`8`8`8`8`8`8`8`8````",
"```8`8`V`V`8`8`8`V`V`8`8```8`8`8`8`V`8`8`8`8`8`8`8`8`8`8`8`8`8`8`K`Q`t`t`8`8`8`8`8`8`B`B`l`V`V`j`#`y`f`2`Q`2`A`0`Q`N```8`8`8`8`8`8`8`8`8`8`8````",
"```8`8`Z`V`V`V`V`V`Z`8`8```8`8`8`Z`V`Z`8`8`8`8`8`8`8`8`8`8`8`8`w`4`d`v`8`8`8`8`8`8`8`8`8`8`r`V`V`d`#`y`#`H`K`0`4`Q`N```8`8`8`8`8`8`8`8`8`8`8````",
"```8`8`8`Z`V`V`V`Z`8`8`8```8`8`1`V`V`V`1`8`8`8`8`8`8`8`8`8`8`8`K`A`#`8`8`8`8`8`8`J`p`w`8`8`M`C`V`V`c`f`n`k`K`4`2`K`N```8`8`8`8`8`8`8`8`8`8`8````",
"```8`8`8`8`8`8`Z`V`1`8`8```8`3`V`V`V`V`V`3`8`8`8`8`8`8`8`8`8`w`4`#`#`t`t`t`w`8`T`t`J`B`t`J`8`J`V`V`R`c`n`n`d`4`2`K`N```8`8`8`8`8`8`8`8`8`8`8````",
"```8`8`8`8`8`8`8`Z`V`8`8```8`V`V`V`V`V`V`V`8`8`8`8`8`8`8`8`8`A`K`#`#`8`J`T`B`8`8`J`T`T`T`T`8`8`p`V`V`C`d`n`q`d`Q`4`K```8`8`8`8`8`8`8`8`8`8`8````",
"```8`8`8`8`8`3`8`8`8`8`8```8`3`V`V`V`V`V`3`8`8`8`8`8`8`8`8`B`4`#`a`r`w`e`p`p`8`B`i`b`J`w`T`8`8`8`x`V`X`j`#`w`h`I`0`K```8`8`8`8`8`8`8`8`8`8`8````",
"```8`8`8`8`8`V`8`8`8`8`8```8`8`1`V`V`V`1`8`8`8`8`8`8`8`8`8`v`Q`#`#`V`I`B`B`p`8`T`t`B`T`T`8`8`8`8`B`C`V`V`d`#`v`#`C`x```8`8`8`8`8`8`8`8`8`8`8````",
"```8`8`8`8`Z`V`Z`8`8`8`8```8`8`8`Z`V`Z`8`8`8`8`8`8`8`8`8`M`2`f`#`c`V`I`8`8`L`8`8`8`L`T`8`8`8`8`8`p`t`V`V`V`a`f`n`f`r```8`8`8`8`8`8`8`8`8`8`8````",
"```8`8`8`1`V`V`V`1`8`8`8```8`8`8`8`V`8`8`8`8`8`8`8`8`8`8`w`4`#`#`x`V`I`8`8`J`8`8`8`8`8`8`8`8`8`8`8`t`B`V`V`C`a`#`v`8```8`8`8`8`8`8`8`8`8`8`8````",
"```8`8`3`V`V`V`V`V`3`8`8```8`8`8`8`3`8`8`8`8`8`8`8`8`8`8`y`K`#`#`V`V`E`8`M`J`8`L`B`8`8`8`8`8`8`8`p`J`8`n`V`V`r`8`8`8```8`8`8`8`8`8`8`8`8`8`8````",
"```8`8`V`V`V`V`V`V`V`8`8```8`8`8`8`8`8`8`8`8`8`8`8`8`8`M`0`m`#`#`V`V`r`8`8`8`L`J`8`8`8`8`8`8`8`e`w`B`B`8`C`V`V`l`8`8```8`8`8`8`8`8`8`8`8`8`8````",
"```8`8`3`V`V`V`V`V`3`8`8```8`8`8`8`8`8`8`8`8`8`8`8`8`8`w`4`a`a`j`X`V`V`T`L`e`p`t`t`8`8`8`8`8`8`J`B`8`t`L`M`C`V`V`p`8```8`8`8`8`8`8`8`8`8`8`8````",
"```8`8`8`1`V`V`V`1`8`8`8```8`8`8`8`8`8`8`8`8`8`8`8`8`8`w`4`#`#`r`V`V`j`t`L`T`T`L`J`8`8`8`8`8`p`L`J`p`a`J`T`L`V`V`C`T```8`8`8`8`8`8`8`8`8`8`8````",
"```8`8`8`8`Z`V`Z`8`8`8`8```8`8`8`8`8`8`8`8`8`8`8`8`8`8`y`K`#`a`C`V`n`L`B`8`8`g`L`8`8`8`8`8`p`y`n`m`2`#`v`J`8`k`V`V`x```8`8`8`8`8`8`8`8`8`8`8````",
"```8`8`8`8`8`V`8`8`8`8`8```8`8`8`8`8`8`8`8`8`8`8`8`8`8`u`A`#`#`V`a`N`w`O`v`8`8`8`8`8`8`w`f`#`4`d`u`f`A`K`t`T`L`x`V`V```8`8`8`8`8`8`8`8`8`8`8````",
"```8`8`8`8`8`3`8`8`8`8`8```J`L`w`v`B`J`T`8`8`8`8`8`8`L`K`s`#`#`m`m`K`a`2`a`u`T`L`U`f`#`K`s`K`a`u`4`d`m`d`a`t`T`M`C`V```8`8`8`8`8`8`8`8`8`8`8````",
"```8`8`8`8`8`8`8`8`8`8`8```T`i`2`4`m`t`B`8`8`8`8`8`8`L`2`m`#`a`u`m`u`f`m`K`d`s`s`m`u`m`u`A`#`K`2`f`s`f`d`Q`K`m`t`8`v```8`8`8`8`8`8`8`8`8`8`8````",
"```8`8`8`8`8`8`8`8`8`8`8```k`m`4`4`K`s`n`8`8`8`8`8`8`L`u`s`u`f`F`a`d`4`d`a`4`m`#`2`A`#`A`A`f`s`#`u`4`d`m`4`4`m`k`t`B```8`8`8`8`8`8`8`8`8`8`8````",
"```8`8`8`8`8`8`8`8`8`8`8```5`4`4`A`2`6`A`8`8`8`8`8`L`L`d`F`u`#`m`2`f`a`K`u`a`A`Q`#`a`4`s`#`0`K`a`s`2`4`Q`d`b`8`#`k`t```8`8`8`8`8`8`8`8`8`8`8````",
"```8`8`8`8`8`8`8`8`8`8`8```H`6`2`A`2`4`K`8`8`8`8`8`t`#`2`2`2`K`K`Q`f`d`Q`s`a`A`K`d`m`K`F`Q`Q`2`K`H`c`#`.`T`g`g`7`#`k```8`8`8`8`8`8`8`8`8`8`8````",
"```8`8`8`8`8`8`8`8`8`8`8```B`.`4`4`2`u`f`8`8`8`8`p`#`#`#`#`a`n`s`u`K`Q`Q`K`Q`K`Q`K`A`s`n`d`#`#`7`w`h`#`#`T`B`.`k`U`#```8`8`8`8`8`8`8`8`8`8`8````",
"```8`8`8`8`8`8`8`8`8`8`8```B`p`F`6`s`K`2`K`Q`H`i`J`#`a`V`C`C`j`c`#`#`#`#`J`p`K`5`t`#`c`j`C`r`7`B`f`N`q`#`#`b`8`i`p`7```8`8`8`8`8`8`8`8`8`8`8````",
"```8`8`8`8`8`8`8`8`8`8`8```8`T`t`b`d`B`K`2`4`f`.`L`k`#`r`Y`Y`V`V`Y`V`o`d`T`u`2`O`i`c`V`Y`V`N`U`q`N`H`7`d`#`#`L`w`.`p```8`8`8`8`8`8`8`8`8`8`8````",
"```8`8`8`8`8`8`8`8`8`8`8```t`p`8`8`M`J`8`L`.`8`.`p`w`#`r`X`V`Y`Y`Y`R`#`y`w`0`N`w`a`G`Z`V`z`7`.`N`y`7`e`c`l`#`#`e`8`e```8`8`8`8`8`8`8`8`8`8`8````",
"```8`8`8`8`8`8`8`8`8`8`8```w`L`g`e`8`8`B`N`a`T`b`k`w`#`j`X`X`1`V`V`j`d`M`u`2`O`i`#`X`X`C`7`y`N`t`7`f`C`j`V`v`#`c`8`p```8`8`8`8`8`8`8`8`8`8`8````",
"```8`8`8`8`8`8`8`8`8`8`8```J`B`w`.`T`8`y`4`4`y`.`p`t`#`r`Y`Y`Z`V`V`#`y`B`K`K`B`a`x`Z`V`D`7`.`U`U`q`c`C`C`V`1`s`#`#`e```8`8`8`8`8`8`8`8`8`8`8````",
"```8`8`8`8`8`8`8`8`8`8`8```w`L`p`e`t`0`2`a`K`4`.`L`n`#`C`V`X`Y`V`r`a`8`q`4`O`p`#`X`Y`V`U`y`N`v`7`j`r`R`V`C`N`u`a`a`d```8`8`8`8`8`8`8`8`8`8`8````",
"```8`8`8`8`8`8`8`8`8`8`8```8`A`t`H`4`#`h`K`f`m`4`v`#`d`j`r`G`V`c`k`M`2`0`B`k`#`r`j`c`t`H`i`y`7`c`j`C`V`M`n`4`#`a`a`d```8`8`8`8`8`8`8`8`8`8`8````",
"```8`8`8`8`8`8`8`8`8`8`8```7`y`H`2`s`s`K`d`u`2`s`6`f`6`4`Q`A`s`m`f`d`f`f`m`u`K`2`6`5`B`y`y`y`N`C`C`V`B`k`a`4`s`2`#`5```8`8`8`8`8`8`8`8`8`8`8````",
"```8`8`8`8`8`8`8`8`8`8`8```T`K`2`m`4`Q`6`K`s`#`4`5`U`#`c`m`u`K`2`2`4`2`2`2`K`u`m`#`#`U`y`I`N`H`c`C`C`T`.`A`F`2`6`s`6```8`8`8`8`8`8`8`8`8`8`8````",
"```8`8`8`8`8`8`8`8`8`8`8```K`2`#`s`Q`0`K`m`#`4`0`k`7`y`d`c`#`#`#`#`#`#`#`#`#`#`#`c`d`7`e`y`J`y`C`V`C`L`e`4`f`a`a`a`H```8`8`8`8`8`8`8`8`8`8`8````",
"```8`8`8`8`8`8`8`8`8`8`8```Q`d`0`4`4`K`6`F`Q`4`w`7`e`7`m`4`4`2`0`K`F`K`K`Q`2`4`4`4`n`7`v`B`N`N`#`r`V`D`N`4`#`a`4`s`6```8`8`8`8`8`8`8`8`8`8`8````",
"```8`8`8`8`8`8`8`8`8`8`8```n`m`2`K`6`2`4`K`2`K`y`U`b`N`t`e`o`p`n`A`N`u`S`A`u`y`s`v`p`H`B`N`N`U`.`C`V`C`E`4`#`F`2`a`K```8`8`8`8`8`8`8`8`8`8`8````",
"```8`8`8`8`8`8`8`8`8`8`8```q`Q`#`#`Q`u`A`u`4`#`7`v`N`p`7`e`V`E`B`V`E`B`V`D`L`V`B`v`V`p`U`n`t`7`j`C`C`C`6`m`s`K`#`#`s```8`8`8`8`8`8`8`8`8`8`8````",
"```8`8`8`8`8`8`8`8`8`8`8```5`u`6`f`K`d`d`6`r`C`q`N`N`w`5`q`V`V`C`V`V`x`V`V`r`V`G`C`V`r`7`d`U`U`h`j`V`I`4`#`4`a`6`s`u```8`8`8`8`8`8`8`8`8`8`8````",
"```8`8`8`8`8`8`8`8`8`8`8```A`m`4`f`2`#`4`z`V`j`.`7`y`h`y`y`E`D`J`V`D`B`V`D`B`V`D`E`V`e`7`v`U`N`O`r`f`6`a`m`s`a`4`f`2```8`8`8`8`8`8`8`8`8`8`8````",
"```8`8`8`8`8`8`8`8`8`8`8```y`#`#`4`d`m`4`V`r`C`r`5`y`O`y`U`p`t`e`o`v`q`D`q`v`z`v`t`r`i`v`O`q`w`5`k`5`s`F`Q`4`#`#`2`f```8`8`8`8`8`8`8`8`8`8`8````",
"```8`8`8`8`8`8`8`8`8`8`8```6`u`4`d`#`2`N`x`V`r`#`N`J`N`q`7`n`4`6`4`2`2`Q`K`K`Q`Q`2`6`4`m`7`e`7`w`5`Q`K`4`K`4`4`Q`f`K```8`8`8`8`8`8`8`8`8`8`8````",
"```8`8`8`8`8`8`8`8`8`8`8```H`d`a`a`d`4`f`L`C`V`C`H`B`y`e`7`d`d`#`#`#`#`#`#`#`#`#`#`#`#`d`y`7`k`N`4`#`m`A`2`K`s`#`0`Q```8`8`8`8`8`8`8`8`8`8`8````",
"```8`8`8`8`8`8`8`8`8`8`8```6`s`4`2`A`A`.`M`C`C`c`H`N`B`v`7`#`#`m`u`K`0`2`2`2`2`2`K`u`m`c`#`U`U`4`#`s`K`6`Q`4`s`2`A`U```8`8`8`8`8`8`8`8`8`8`8````",
"```8`8`8`8`8`8`8`8`8`8`8```2`a`Q`u`4`#`k`J`V`C`C`N`y`H`y`B`5`4`2`K`u`m`f`f`d`m`m`s`F`2`6`6`f`6`s`2`u`d`K`u`s`2`A`y`7```8`8`8`8`8`8`8`8`8`8`8````",
"```8`8`8`8`8`8`8`8`8`8`8```d`a`a`#`4`h`8`C`C`r`c`7`y`k`N`t`c`j`r`#`k`B`0`2`T`p`c`V`G`j`c`j`#`v`4`m`f`K`f`#`4`F`t`H`8```8`8`8`8`8`8`8`8`8`8`8````",
"```8`8`8`8`8`8`8`8`8`8`8```a`d`a`m`U`M`C`V`V`c`p`N`U`p`7`c`l`r`c`e`t`u`F`t`p`#`C`C`l`j`f`d`#`y`4`Q`f`2`#`K`2`L`I`u`M```8`8`8`8`8`8`8`8`8`8`8````",
"```8`8`8`8`8`8`8`8`8`8`8```d`a`a`u`N`V`V`R`r`j`U`y`N`y`U`V`Y`X`#`p`U`4`s`8`a`r`V`Y`X`V`V`#`h`L`#`4`0`a`4`K`t`e`t`J`w```8`8`8`8`8`8`8`8`8`8`8````",
"```8`8`8`8`8`8`8`8`8`8`8```e`#`#`s`N`V`C`r`c`q`U`U`.`7`z`V`Z`x`a`B`A`K`B`w`#`V`V`Z`X`X`r`#`t`p`.`y`4`4`F`8`T`.`t`B`J```8`8`8`8`8`8`8`8`8`8`8````",
"```8`8`8`8`8`8`8`8`8`8`8```p`8`c`#`q`V`j`V`e`7`v`N`B`7`C`X`X`#`k`L`2`u`T`d`j`V`V`1`X`X`j`#`B`k`b`T`a`N`B`8`8`b`g`L`w```8`8`8`8`8`8`8`8`8`8`8````",
"```8`8`8`8`8`8`8`8`8`8`8```g`8`e`#`#`l`c`e`7`H`B`a`7`z`V`Z`G`a`t`N`Q`w`I`#`R`Y`Y`Y`V`Y`j`#`w`p`.`8`.`L`8`B`8`8`8`p`t```8`8`8`8`8`8`8`8`8`8`8````",
"```8`8`8`8`8`8`8`8`8`8`8```p`.`t`L`#`#`e`6`y`N`q`O`N`V`X`X`c`k`O`2`u`T`d`f`V`X`X`V`Y`Y`C`#`h`L`.`g`2`2`K`I`a`b`t`T`8```8`8`8`8`8`8`8`8`8`8`8````",
"```8`8`8`8`8`8`8`8`8`8`8```7`k`p`8`e`#`#`q`N`g`H`7`r`C`j`c`#`t`5`K`v`J`#`#`#`c`c`j`r`C`V`a`#`J`i`K`Q`K`2`K`s`4`K`p`J```8`8`8`8`8`8`8`8`8`8`8````",
"```8`8`8`8`8`8`8`8`8`8`8```#`U`k`.`B`T`#`#`n`t`7`#`#`d`m`m`A`H`K`K`Q`K`K`0`H`u`s`m`c`#`#`#`#`p`8`8`8`8`f`u`2`4`4`.`B```8`8`8`8`8`8`8`8`8`8`8````",
"```8`8`8`8`8`8`8`8`8`8`8```k`#`7`g`g`T`.`.`c`Q`K`2`2`K`A`Q`m`d`K`A`a`s`Q`d`f`Q`K`K`Q`2`2`#`t`8`8`8`8`8`K`6`2`A`2`6`y```8`8`8`8`8`8`8`8`8`8`8````",
"```8`8`8`8`8`8`8`8`8`8`8```p`k`#`8`b`e`K`4`2`s`a`A`Q`#`s`4`#`#`Q`F`a`u`K`a`f`2`m`#`u`F`a`L`T`8`8`8`8`8`u`4`4`u`4`6`2```8`8`8`8`8`8`8`8`8`8`8````",
"```8`8`8`8`8`8`8`8`8`8`8```L`t`k`n`4`2`m`f`4`F`#`s`f`A`F`#`A`2`#`n`4`a`d`4`d`a`K`d`A`s`u`T`8`8`8`8`8`8`q`m`K`6`4`m`k```8`8`8`8`8`8`8`8`8`8`8````",
"```8`8`8`8`8`8`8`8`8`8`8```p`8`t`m`K`2`c`f`m`d`4`K`#`F`u`s`s`s`s`s`d`Q`m`f`F`m`u`a`#`m`2`L`8`8`8`8`8`8`B`w`m`4`2`i`T```8`8`8`8`8`8`8`8`8`8`8````",
"```8`8`8`8`8`8`8`8`8`8`8```V`C`M`T`t`a`d`m`f`4`F`#`H`s`K`#`h`O`T`T`u`a`2`a`K`m`m`#`#`m`0`L`8`8`8`8`8`8`T`J`B`v`w`L`J```8`8`8`8`8`3`8`8`8`8`8````",
"```8`8`8`8`8`8`8`8`8`8`8```V`V`x`L`T`t`K`A`f`u`d`4`#`f`w`8`8`8`8`8`8`v`O`B`B`a`V`#`#`A`A`8`8`8`8`8`8`8`8`8`8`8`8`8`8```8`8`8`8`8`V`8`8`8`8`8````",
"```8`8`8`8`8`8`8`8`8`8`8```x`V`V`p`8`B`y`#`Q`m`m`y`p`8`8`8`8`8`L`k`8`8`w`L`n`V`C`a`#`K`v`8`8`8`8`8`8`8`8`8`8`8`8`8`8```8`8`8`8`Z`V`Z`8`8`8`8````",
"```8`8`8`8`8`8`8`8`8`8`8```M`C`V`V`B`T`L`#`v`O`L`p`8`8`8`8`8`J`L`L`T`L`t`j`V`V`r`a`#`4`t`8`8`8`8`8`8`8`8`8`8`8`8`8`8```8`8`8`1`V`V`V`1`8`8`8````",
"```8`8`8`8`8`8`8`8`8`8`8```8`v`V`V`C`M`L`t`8`w`L`8`8`8`8`8`8`t`t`p`g`L`T`V`V`V`j`#`#`4`B`8`8`8`8`8`8`8`8`8`8`8`8`8`8```8`8`3`V`V`V`V`V`3`8`8````",
"```8`8`8`8`8`8`8`8`8`8`8```8`8`l`V`V`C`8`B`B`w`b`8`8`8`8`8`8`8`L`L`8`8`8`r`V`V`a`#`s`Q`T`8`8`8`8`8`8`8`8`8`8`8`8`8`8```8`8`V`V`V`V`V`V`V`8`8````",
"```8`8`8`8`8`8`8`8`8`8`8```8`8`8`j`V`V`n`8`J`t`8`8`8`8`8`8`8`B`L`8`B`T`8`E`V`V`a`#`K`A`8`8`8`8`8`8`8`8`8`8`3`8`8`8`8```8`8`3`V`V`V`V`V`3`8`8````",
"```8`8`8`8`8`8`8`8`8`8`8```8`t`#`#`R`V`V`B`t`8`8`8`8`8`8`8`8`8`8`8`J`8`8`I`V`r`a`#`4`w`8`8`8`8`8`8`8`8`8`8`V`8`8`8`8```8`8`8`1`V`V`V`1`8`8`8````",
"```8`8`8`8`8`8`8`8`8`8`8```r`l`n`f`a`V`V`V`t`p`8`8`8`8`8`L`T`8`8`8`L`8`8`I`V`j`#`f`2`T`8`8`8`8`8`8`8`8`8`Z`V`Z`8`8`8```8`8`8`8`Z`V`Z`8`8`8`8````",
"```8`8`8`8`8`8`8`8`8`8`8```G`r`#`v`#`d`V`V`C`B`8`8`8`8`T`T`B`p`T`8`p`B`B`I`V`#`#`Q`u`8`8`8`8`8`8`8`8`8`1`V`V`V`1`8`8```8`8`8`8`8`V`8`8`8`8`8````",
"```8`8`8`8`8`8`8`8`8`8`8```K`S`0`h`w`#`r`V`V`o`8`8`8`T`t`J`b`i`B`8`p`p`b`B`j`a`#`4`B`8`8`8`8`8`8`8`8`3`V`V`V`V`V`3`8```8`8`8`8`8`3`8`8`8`8`8````",
"```8`8`8`8`8`8`8`8`8`8`8```K`6`Q`a`q`n`d`C`X`V`v`8`8`T`T`T`T`J`8`8`B`T`J`8`#`#`A`F`8`8`8`8`8`8`8`8`8`V`V`V`V`V`V`V`8```8`8`V`Z`8`8`8`8`8`8`8````",
"```8`8`8`8`8`8`8`8`8`8`8```N`A`2`4`d`k`f`d`V`V`V`B`8`J`t`J`L`t`T`8`w`p`t`t`#`#`4`w`8`8`8`8`8`8`8`8`8`3`V`V`V`V`V`3`8```8`8`1`V`Z`8`8`8`8`8`8````",
"```8`8`8`8`8`8`8`8`8`8`8```N`K`2`4`H`n`n`n`c`V`V`C`M`8`8`w`p`J`8`8`8`8`8`8`#`A`0`8`8`8`8`8`8`8`8`8`8`8`1`V`V`V`1`8`8```8`8`8`Z`V`V`V`Z`8`8`8````",
"```8`8`8`8`8`8`8`8`8`8`8```J`Q`4`Q`F`N`#`v`#`a`V`V`r`8`8`8`8`8`8`8`8`8`8`v`d`4`w`8`8`8`8`8`8`8`8`8`8`8`8`Z`V`Z`8`8`8```8`8`Z`V`V`V`V`V`Z`8`8````",
"```8`8`8`8`8`8`8`8`8`8`8```N`Q`0`A`2`Q`2`e`y`#`l`V`V`l`B`B`8`8`8`8`8`8`t`t`Q`K`8`8`8`8`8`8`8`8`8`8`8`8`8`8`V`8`8`8`8```8`8`V`V`8`8`8`V`V`8`8````",
"```8`8`8`8`8`8`8`8`8`8`8```J`Q`2`K`4`2`2`m`v`v`a`C`V`V`k`L`p`T`8`8`8`w`L`y`4`B`8`8`8`8`8`8`8`8`8`8`8`8`8`8`3`8`8`8`8```8`8`V`V`8`8`8`V`V`8`8````",
"```8`8`8`8`8`8`8`8`8`8`8```J`4`4`4`5`4`4`P`x`D`t`v`f`V`V`t`L`t`L`8`B`L`L`A`y`8`8`8`8`8`8`8`8`8`8`8`8`8`8`8`8`8`8`8`8```8`8`V`V`8`8`8`V`V`8`8````",
"```8`8`8`8`8`8`8`8`8`8`8```````````````````````````````````````````````````````````````````````````````````````````````8`8`V`V`8`8`8`V`V`8`8````",
"```8`8`8`8`8`8`8`8`8`8`8`8`8`8`8`8`8`8`8`8`8`8`8`8`8`8`8`8`8`8`8`8`8`8`8`8`8`8`8`8`8`8`8`8`8`8`8`8`8`8`8`8`8`8`8`8`8`8`8`8`V`V`8`8`8`V`V`8`8````",
"```8`8`8`8`8`8`8`8`8`8`8`8`8`8`8`8`8`8`8`8`8`8`8`8`8`8`8`8`8`8`8`8`8`8`8`8`8`8`8`8`8`8`8`8`8`8`8`8`8`8`8`8`8`8`8`8`8`8`8`8`V`V`8`8`8`V`V`8`8````",
"```8`8`8`8`8`8`8`8`8`8`8`8`8`8`8`8`8`8`8`8`8`8`8`8`8`8`8`8`8`8`8`8`8`8`8`8`8`8`8`8`8`8`8`8`8`8`8`8`8`8`8`8`8`8`8`8`8`8`8`8`V`V`8`8`8`V`V`8`8````",
"```8`8`8`8`8`8`8`8`8`8`8`8`8`8`8`8`8`8`8`8`8`8`8`8`8`8`8`8`8`8`8`8`8`8`8`8`8`8`8`8`8`8`8`8`8`8`8`8`8`8`8`8`8`8`8`8`8`8`8`8`V`V`8`8`8`V`V`8`8````",
"```8`8`8`8`8`8`8`8`8`8`8`8`8`8`8`8`8`8`8`8`8`8`8`8`8`8`8`8`8`8`8`8`8`8`8`8`8`8`8`8`8`8`8`8`8`8`8`8`8`8`8`8`8`8`8`8`8`8`8`8`Z`V`V`V`V`V`Z`8`8````",
"```8`8`8`8`8`8`8`8`8`8`8`8`8`8`8`8`8`8`8`8`8`8`8`8`8`8`8`8`8`8`8`8`8`8`8`8`8`8`8`8`8`8`8`8`8`8`8`8`8`8`8`8`8`8`8`8`8`8`8`8`8`Z`V`V`V`Z`8`8`8````",
"```8`8`8`8`8`8`8`8`8`8`8`8`8`8`8`8`8`8`8`8`8`8`8`8`8`8`8`8`8`8`8`8`8`8`8`8`8`8`8`8`8`8`8`8`8`8`8`8`8`8`8`8`8`8`8`8`8`8`8`8`8`8`8`8`8`8`8`8`8````",
"```8`8`8`8`8`8`8`8`8`8`8`8`8`8`8`8`8`8`8`8`8`8`8`8`8`8`8`8`8`8`8`8`8`8`8`8`8`8`8`8`8`8`8`8`8`8`8`8`8`8`8`8`8`8`8`8`8`8`8`8`8`8`8`8`8`8`8`8`8````",
"```y`8`8`8`8`8`8`8`8`8`8`8`8`8`8`8`8`8`8`8`8`8`8`8`8`8`8`8`8`8`8`8`8`8`8`8`8`8`8`8`8`8`8`8`8`8`8`8`8`8`8`8`8`8`8`8`8`8`8`8`8`8`8`8`8`8`8`8`y```q",
"`q```````````````````````````````````````````````````````````````````````````````````````````````````````````````````````````````````````````q``"
};
