/* XPM */
static char *face_37_xpm[] = {
/* width height num_colors chars_per_pixel */
"    72    96      256            2",
/* colors */
"`` c #000000",
"`. c #001084",
"`# c #081018",
"`a c #102129",
"`b c #10298c",
"`c c #291018",
"`d c #293131",
"`e c #293184",
"`f c #394239",
"`g c #394aa5",
"`h c #425a52",
"`i c #4263bd",
"`j c #521021",
"`k c #525a9c",
"`l c #5a2929",
"`m c #5a5221",
"`n c #5a5252",
"`o c #633173",
"`p c #637bad",
"`q c #73735a",
"`r c #7b1018",
"`s c #7b7329",
"`t c #7b94c6",
"`u c #947b21",
"`v c #947b84",
"`w c #949cbd",
"`x c #9c2929",
"`y c #9c9473",
"`z c #a55221",
"`A c #a59429",
"`B c #a5b5de",
"`C c #ad1018",
"`D c #ad5263",
"`E c #b57384",
"`F c #b57b21",
"`G c #bd3129",
"`H c #bd9c5a",
"`I c #bd9ca5",
"`J c #bdbdce",
"`K c #c69c21",
"`L c #c6def7",
"`M c #c6f7ff",
"`N c #ceb563",
"`O c #ceceb5",
"`P c #de524a",
"`Q c #deb521",
"`R c #e72929",
"`S c #e77b21",
"`T c #e7e7f7",
"`U c #f7dea5",
"`V c #ff0008",
"`W c #ff00ff",
"`X c #ff3131",
"`Y c #ff4a4a",
"`Z c #ff737b",
"`0 c #ff9c31",
"`1 c #ff9c9c",
"`2 c #ffbd21",
"`3 c #ffbdbd",
"`4 c #ffde18",
"`5 c #ffde63",
"`6 c #ffff29",
"`7 c #ffffa5",
"`8 c #ffffff",
".` c #ffffff",
".. c #ffffff",
".# c #ffffff",
".a c #ffffff",
".b c #ffffff",
".c c #ffffff",
".d c #ffffff",
".e c #ffffff",
".f c #ffffff",
".g c #ffffff",
".h c #ffffff",
".i c #ffffff",
".j c #ffffff",
".k c #ffffff",
".l c #ffffff",
".m c #ffffff",
".n c #ffffff",
".o c #ffffff",
".p c #ffffff",
".q c #ffffff",
".r c #ffffff",
".s c #ffffff",
".t c #ffffff",
".u c #ffffff",
".v c #ffffff",
".w c #ffffff",
".x c #ffffff",
".y c #ffffff",
".z c #ffffff",
".A c #ffffff",
".B c #ffffff",
".C c #ffffff",
".D c #ffffff",
".E c #ffffff",
".F c #ffffff",
".G c #ffffff",
".H c #ffffff",
".I c #ffffff",
".J c #ffffff",
".K c #ffffff",
".L c #ffffff",
".M c #ffffff",
".N c #ffffff",
".O c #ffffff",
".P c #ffffff",
".Q c #ffffff",
".R c #ffffff",
".S c #ffffff",
".T c #ffffff",
".U c #ffffff",
".V c #ffffff",
".W c #ffffff",
".X c #ffffff",
".Y c #ffffff",
".Z c #ffffff",
".0 c #ffffff",
".1 c #ffffff",
".2 c #ffffff",
".3 c #ffffff",
".4 c #ffffff",
".5 c #ffffff",
".6 c #ffffff",
".7 c #ffffff",
".8 c #ffffff",
"#` c #ffffff",
"#. c #ffffff",
"## c #ffffff",
"#a c #ffffff",
"#b c #ffffff",
"#c c #ffffff",
"#d c #ffffff",
"#e c #ffffff",
"#f c #ffffff",
"#g c #ffffff",
"#h c #ffffff",
"#i c #ffffff",
"#j c #ffffff",
"#k c #ffffff",
"#l c #ffffff",
"#m c #ffffff",
"#n c #ffffff",
"#o c #ffffff",
"#p c #ffffff",
"#q c #ffffff",
"#r c #ffffff",
"#s c #ffffff",
"#t c #ffffff",
"#u c #ffffff",
"#v c #ffffff",
"#w c #ffffff",
"#x c #ffffff",
"#y c #ffffff",
"#z c #ffffff",
"#A c #ffffff",
"#B c #ffffff",
"#C c #ffffff",
"#D c #ffffff",
"#E c #ffffff",
"#F c #ffffff",
"#G c #ffffff",
"#H c #ffffff",
"#I c #ffffff",
"#J c #ffffff",
"#K c #ffffff",
"#L c #ffffff",
"#M c #ffffff",
"#N c #ffffff",
"#O c #ffffff",
"#P c #ffffff",
"#Q c #ffffff",
"#R c #ffffff",
"#S c #ffffff",
"#T c #ffffff",
"#U c #ffffff",
"#V c #ffffff",
"#W c #ffffff",
"#X c #ffffff",
"#Y c #ffffff",
"#Z c #ffffff",
"#0 c #ffffff",
"#1 c #ffffff",
"#2 c #ffffff",
"#3 c #ffffff",
"#4 c #ffffff",
"#5 c #ffffff",
"#6 c #ffffff",
"#7 c #ffffff",
"#8 c #ffffff",
"a` c #ffffff",
"a. c #ffffff",
"a# c #ffffff",
"aa c #ffffff",
"ab c #ffffff",
"ac c #ffffff",
"ad c #ffffff",
"ae c #ffffff",
"af c #ffffff",
"ag c #ffffff",
"ah c #ffffff",
"ai c #ffffff",
"aj c #ffffff",
"ak c #ffffff",
"al c #ffffff",
"am c #ffffff",
"an c #ffffff",
"ao c #ffffff",
"ap c #ffffff",
"aq c #ffffff",
"ar c #ffffff",
"as c #ffffff",
"at c #ffffff",
"au c #ffffff",
"av c #ffffff",
"aw c #ffffff",
"ax c #ffffff",
"ay c #ffffff",
"az c #ffffff",
"aA c #ffffff",
"aB c #ffffff",
"aC c #ffffff",
"aD c #ffffff",
"aE c #ffffff",
"aF c #ffffff",
"aG c #ffffff",
"aH c #ffffff",
"aI c #ffffff",
"aJ c #ffffff",
"aK c #ffffff",
"aL c #ffffff",
"aM c #ffffff",
"aN c #ffffff",
"aO c #ffffff",
"aP c #ffffff",
"aQ c #ffffff",
"aR c #ffffff",
"aS c #ffffff",
"aT c #ffffff",
"aU c #ffffff",
"aV c #ffffff",
"aW c #ffffff",
"aX c #ffffff",
"aY c #ffffff",
"aZ c #ffffff",
"a0 c #ffffff",
"a1 c #ffffff",
"a2 c #ffffff",
"a3 c #ffffff",
"a4 c #ffffff",
"a5 c #ffffff",
"a6 c #ffffff",
"a7 c #ffffff",
"a8 c #ffffff",
/* pixels */
"`q```````````````````````````````````````````````````````````````````````````````````````````````````````````````````````````````````````````q``",
"```y`8`8`8`8`8`8`8`8`8`8`8`8`8`8`8`8`8`8`8`8`8`8`8`8`8`8`8`8`8`8`8`8`8`8`8`8`8`8`8`8`8`8`8`8`8`8`8`8`8`8`8`8`8`8`8`8`8`8`8`8`8`8`8`8`8`8`8`y````",
"```8`8`8`8`8`8`8`8`8`8`8`8`8`8`8`8`8`8`8`8`8`8`8`8`8`8`8`8`8`8`8`8`8`8`8`8`8`8`8`8`8`8`8`8`8`8`8`8`8`8`8`8`8`8`8`8`8`8`8`8`8`8`8`8`8`8`8`8`8````",
"```8`8`8`8`8`8`8`8`8`8`8`8`8`8`8`8`8`8`8`8`8`8`8`8`8`8`8`8`8`8`8`8`8`8`8`8`8`8`8`8`8`8`8`8`8`8`8`8`8`8`8`8`8`8`8`8`8`8`8`8`8`8`8`8`8`8`8`8`8````",
"```8`8`8`Z`V`V`V`Z`8`8`8`8`8`8`8`8`8`8`8`8`8`8`8`8`8`8`8`8`8`8`8`8`8`8`8`8`8`8`8`8`8`8`8`8`8`8`8`8`8`8`8`8`8`8`8`8`8`8`8`8`8`8`8`8`8`8`8`8`8````",
"```8`8`Z`V`V`V`V`V`Z`8`8`8`8`8`8`8`8`8`8`8`8`8`8`8`8`8`8`8`8`8`8`8`8`8`8`8`8`8`8`8`8`8`8`8`8`8`8`8`8`8`8`8`8`8`8`8`8`8`8`8`8`8`8`8`8`8`8`8`8````",
"```8`8`V`V`8`8`8`V`V`8`8`8`8`8`8`8`8`8`8`8`8`8`8`8`8`8`8`8`8`8`8`8`8`8`8`8`8`8`8`8`8`8`8`8`8`8`8`8`8`8`8`8`8`8`8`8`8`8`8`8`8`8`8`8`8`8`8`8`8````",
"```8`8`V`V`8`8`8`V`V`8`8`8`8`8`8`8`8`8`8`8`8`8`8`8`8`8`8`8`8`8`8`8`8`8`8`8`8`8`8`8`8`8`8`8`8`8`8`8`8`8`8`8`8`8`8`8`8`8`8`8`8`8`8`8`8`8`8`8`8````",
"```8`8`V`V`8`8`8`V`V`8`8`8`8`8`8`8`8`8`8`8`8`8`8`8`8`8`8`8`8`8`8`8`8`8`8`8`8`8`8`8`8`8`8`8`8`8`8`8`8`8`8`8`8`8`8`8`8`8`8`8`8`8`8`8`8`8`8`8`8````",
"```8`8`V`V`8`8`8`V`V`8`8`8`8`8`8`8`8`8`8`8`8`8`8`8`8`8`8`8`8`8`8`8`8`8`8`8`8`8`8`8`8`8`8`8`8`8`8`8`8`8`8`8`8`8`8`8`8`8`8`8`8`8`8`8`8`8`8`8`8````",
"```8`8`V`V`8`8`8`V`V`8`8```````````````````````````````````````````````````````````````````````````````````````````````8`8`8`8`8`8`8`8`8`8`8````",
"```8`8`V`V`8`8`8`V`V`8`8```8`8`8`8`8`8`8`8`8`8`8`8`8`8`L`w`t`p`8`8`t`B`w`#`d`a`V`Y`C`X`V`R`C`4`4`4`4`2`B`8`8`8`8`8`8```8`8`8`8`8`8`8`8`8`8`8````",
"```8`8`V`V`8`8`8`V`V`8`8```8`8`Y`Y`3`8`3`Y`Y`8`8`8`8`8`w`t`t`T`8`8`8`t`w`q`#`a`c`X`Y`C`V`C`C`5`4`4`4`F`8`8`8`8`8`8`8```8`8`8`8`8`8`8`8`8`8`8````",
"```8`8`V`V`8`8`8`V`V`8`8```8`Y`V`V`Y`3`Y`V`V`Y`8`8`8`8`n`t`L`8`8`8`8`8`L`t`l`a`a`r`Y`G`C`R`C`4`4`2`4`u`8`8`8`8`8`8`8```8`8`8`8`8`8`8`8`8`8`8````",
"```8`8`Z`V`V`V`V`V`Z`8`8```8`V`V`V`V`V`V`V`V`V`8`8`8`8`m`8`8`8`8`8`8`L`T`8`J`#`#`a`V`Y`C`V`A`4`4`4`4`y`8`8`8`8`8`8`8```8`8`8`8`8`8`8`8`8`8`8````",
"```8`8`8`Z`V`V`V`Z`8`8`8```8`Y`V`V`V`V`V`V`V`Y`8`8`8`L`K`L`t`p`B`8`L`B`L`B`T`d`#`a`c`Y`X`C`u`A`K`K`K`N`8`8`8`8`8`8`8```8`8`8`8`8`8`8`8`8`8`8````",
"```8`8`8`8`8`8`Z`V`1`8`8```8`3`V`V`V`V`V`V`V`3`8`8`8`U`l`p`p`J`t`8`T`p`p`B`8`w`d`c`a`C`Y`C`2`K`s`K`K`B`8`8`8`8`8`8`8```8`8`8`8`8`8`8`8`8`8`8````",
"```8`8`8`8`8`8`8`Z`V`8`8```8`8`Y`V`V`V`V`V`Y`8`8`8`8`N`c`i`b`g`t`8`w`k`b`t`i`B`w`#`#`a`V`Y`f`u`s`K`K`N`8`8`8`8`8`8`8```8`8`8`8`8`8`8`8`8`8`8````",
"```8`8`8`8`8`8`8`8`8`8`8```8`8`3`Y`V`V`V`Y`3`8`8`8`8`Q`#`w`g`L`B`8`8`p`g`B`8`T`t`k`#`#`a`X`G`u`Q`Q`K`H`8`8`8`8`8`8`8```8`8`8`8`8`8`8`8`8`8`8````",
"```8`8`Y`Y`3`8`3`Y`Y`8`8```8`8`8`3`Y`V`Y`3`8`8`8`8`8`F`#`I`T`8`B`8`8`8`8`T`8`8`k`L`d`c`#`r`X`D`A`K`H`A`8`8`8`8`8`8`8```8`8`8`8`8`8`8`8`8`8`8````",
"```8`Y`V`V`Y`3`Y`V`V`Y`8```8`8`8`8`3`Y`3`8`8`8`8`8`T`F`#`D`8`8`w`8`8`8`8`8`8`8`B`t`T`#`c`a`V`Y`C`C`C`K`T`8`8`8`8`8`8```8`8`8`8`8`8`8`8`8`8`8````",
"```8`V`V`V`V`V`V`V`V`V`8```8`8`8`8`8`3`8`8`8`8`8`8`O`m`j`l`8`8`t`8`8`J`8`8`8`8`8`g`L`n`#`a`a`V`D`C`C`V`t`8`8`L`8`8`8```8`8`8`8`8`8`8`8`8`8`8````",
"```8`Y`V`V`V`V`V`V`V`Y`8```8`8`8`8`8`8`8`8`8`8`8`8`N`d`C`m`T`8`T`p`w`w`8`8`8`8`8`t`t`T`c`#`a`r`V`r`v`T`8`8`T`F`T`8`8```8`8`8`8`8`8`8`8`8`8`8````",
"```8`3`V`V`V`V`V`V`V`3`8```8`8`8`8`8`8`8`8`8`8`8`8`Q`#`r`u`q`8`8`T`T`M`8`8`8`8`8`8`k`B`B`#`c`#`B`8`8`8`8`p`s`6`u`L`8```8`8`8`8`8`8`8`8`8`8`8````",
"```8`8`Y`V`V`V`V`V`Y`8`8```8`8`8`8`8`8`8`8`8`8`8`8`K`#`C`A`s`8`t`p`p`w`i`8`8`8`8`B`g`w`L`q`#`#`h`8`8`8`8`#`A`2`u`#`8```8`8`8`8`8`8`8`8`8`8`8````",
"```8`8`3`Y`V`V`V`Y`3`8`8```8`8`8`8`8`8`8`8`8`8`8`8`u`#`G`K`m`p`8`8`B`8`8`8`8`8`w`k`t`p`B`L`#`c`#`B`8`8`J`K`u`h`f`K`y```8`8`8`8`8`8`8`8`8`8`8````",
"```8`8`8`3`Y`V`Y`3`8`8`8```8`8`8`8`8`8`8`8`8`8`8`8`F`#`G`t`t`B`t`8`T`8`8`8`w`g`i`t`B`t`p`J`w`#`#`#`8`T`F`6`s`k`s`6`K```8`8`8`8`8`8`8`8`8`8`8````",
"```8`8`8`8`3`Y`3`8`8`8`8```8`8`8`8`8`8`8`8`8`8`8`O`F`#`A`u`p`t`t`p`T`8`B`t`t`t`t`H`K`K`u`B`B`f`#`#`e`8`8`f`m`K`m`#`L```8`8`8`8`8`8`8`8`8`8`8````",
"```8`8`8`8`8`3`8`8`8`8`8```8`8`8`8`8`8`8`8`8`8`8`J`d`A`6`K`2`u`K`N`s`s`A`Q`K`2`0`4`s`2`u`g`B`J`#`c`#`B`8`p`d`6`K`#`T```8`8`8`8`8`8`8`8`8`8`8````",
"```8`8`8`8`8`8`8`8`8`8`8```8`8`8`8`8`8`8`8`8`8`B`#`A`#`a`u`2`2`4`A`6`u`6`u`2`Q`K`u`m`d`f`K`t`B`w`#`c`#`8`8`T`Q`v`8`8```8`8`8`8`8`8`8`8`8`8`8````",
"```8`8`8`8`8`8`8`8`8`8`8```8`8`8`8`8`8`8`8`T`d`K`Q`2`Q`u`s`#`a`d`m`m`m`n`f`m`#`s`a`6`A`4`A`F`p`L`f`#`#`h`8`T`m`8`8`s```8`8`8`8`8`8`8`8`8`8`8````",
"```8`8`8`8`8`8`8`8`8`8`8```8`8`8`8`8`8`T`x`d`A`4`F`K`2`K`4`s`2`A`u`4`m`2`f`4`u`2`A`Q`K`Q`2`m`u`t`J`#`c`#`M`8`q`8`y`K```8`8`8`8`8`8`8`8`8`8`8````",
"```8`8`8`8`8`8`8`8`8`8`8```8`8`8`8`t`u`Q`a`a`#`#`j`C`P`m`A`Q`u`4`u`4`A`4`s`4`u`6`m`2`K`A`s`G`C`r`d`K`g`8`y`A`J`N`v`H```8`8`8`8`8`8`8`8`8`8`8````",
"```8`8`8`8`8`8`8`8`8`8`8```8`8`L`a`s`K`a`a`d`f`f`#`a`c`r`r`l`x`u`A`u`A`A`Q`u`A`f`F`l`G`C`C`c`#`#`F`P`R`v`8`N`u`d`A`k```8`8`8`8`8`8`8`8`8`8`8````",
"```8`8`8`8`8`8`8`8`8`8`8```8`d`#`#`4`#`2`f`f`2`m`a`#`a`c`a`#`j`r`C`C`C`C`C`C`C`C`C`z`c`#`#`#`x`V`Q`z`V`Y`s`t`B`w`p`L```8`8`8`8`8`8`8`8`8`8`8````",
"```8`8`8`8`8`8`8`8`8`8`8```#`a`Q`m`m`0`4`4`a`4`#`a`c`#`a`c`a`#`#`d`A`b`w`t`K`J`i`f`Q`#`j`R`V`C`#`Q`5`V`7`u`8`J`t`T`B```8`8`8`8`8`8`8`8`8`8`8````",
"```8`8`8`8`8`8`8`8`8`8`8```d`u`K`Q`m`Q`Q`m`2`f`m`f`c`x`j`c`a`#`a`#`4`.`t`B`K`M`g`F`m`c`V`V`#`d`n`2`v`N`N`A`8`b`B`B`M```8`8`8`8`8`8`8`8`8`8`8````",
"```8`8`8`8`8`8`8`8`8`8`8```a`d`2`m`u`s`F`Q`u`m`4`f`c`V`V`l`V`R`C`#`F`h`t`B`Q`L`b`2`a`r`Y`G`#`J`#`K`5`N`y`A`8`i`p`8`J```8`8`8`8`8`8`8`8`8`8`8````",
"```8`8`8`8`8`8`8`8`8`8`8```s`2`s`f`K`m`A`s`m`2`2`n`c`C`f`6`m`V`V`#`z`A`g`J`0`B`b`2`#`D`V`G`#`B`#`K`5`5`N`H`8`.`e`T`B```8`8`8`8`8`8`8`8`8`8`8````",
"```8`8`8`8`8`8`8`8`8`8`8```a`0`4`Q`m`F`m`K`Q`Z`V`l`c`C`K`4`6`C`V`x`#`4`b`w`Q`B`f`K`#`V`X`R`#`B`#`K`P`V`H`H`8`B`e`e`a```8`8`8`8`8`8`8`8`8`8`8````",
"```8`8`8`8`8`8`8`8`8`8`8```d`a`K`#`2`a`m`Q`H`B`5`m`#`V`V`K`u`C`V`C`#`4`b`t`0`t`n`A`#`Y`X`P`#`H`#`F`H`0`O`A`g`a`a`d`d```8`8`8`8`8`8`8`8`8`8`8````",
"```8`8`8`8`8`8`8`8`8`8`8```s`f`a`d`2`#`Q`H`7`H`v`u`a`#`r`V`C`C`V`G`#`2`b`B`Q`t`m`A`#`V`Y`V`#`B`#`u`u`v`q`Q`#`d`a`d`a```8`8`8`8`8`8`8`8`8`8`8````",
"```8`8`8`8`8`8`8`8`8`8`8```2`a`#`2`d`a`Q`5`1`7`N`m`y`h`#`#`#`#`#`#`#`2`b`w`0`B`s`u`#`Z`Y`V`#`u`H`F`H`7`O`u`a`d`d`a`s```8`8`8`8`8`8`8`8`8`8`8````",
"```8`8`8`8`8`8`8`8`8`8`8```s`#`Q`s`a`m`K`V`V`7`A`y`V`v`h`s`K`A`u`a`#`Q`b`J`K`w`m`y`#`X`X`l`N`C`z`x`O`5`H`F`a`d`a`h`6```8`8`8`8`8`8`8`8`8`8`8````",
"```8`8`8`8`8`8`8`8`8`8`8```d`2`s`#`a`F`G`V`V`H`K`K`A`z`H`z`x`n`z`Q`Q`m`.`w`0`L`f`H`#`X`r`H`x`Q`Q`K`z`V`C`2`a`a`h`6`f```8`8`8`8`8`8`8`8`8`8`8````",
"```8`8`8`8`8`8`8`8`8`8`8```K`f`f`6`a`K`N`5`1`Q`u`u`4`G`G`z`C`8`l`V`C`z`2`u`f`.`e`n`d`l`S`r`2`K`A`K`Q`V`C`2`#`f`6`m`a```8`8`8`8`8`8`8`8`8`8`8````",
"```8`8`8`8`8`8`8`8`8`8`8```u`#`a`s`#`Q`H`N`O`Q`c`s`F`K`j`u`M`J`8`D`V`V`d`m`S`Q`Q`Q`2`N`l`2`A`A`j`K`N`2`1`Q`d`6`m`a`a```8`8`8`8`8`8`8`8`8`8`8````",
"```8`8`8`8`8`8`8`8`8`8`8```2`K`a`#`u`K`N`N`y`K`C`x`u`4`x`v`r`T`l`R`C`L`J`r`V`V`j`j`C`y`C`Q`K`m`C`K`N`7`7`F`4`s`a`a`A```8`8`8`8`8`8`8`8`8`8`8````",
"```8`8`8`8`8`8`8`8`8`8`8```A`a`a`s`4`A`5`7`N`K`C`l`Q`K`C`y`V`j`j`V`V`r`J`L`C`V`l`T`C`v`l`2`A`x`C`K`y`N`N`K`u`#`a`A`2```8`8`8`8`8`8`8`8`8`8`8````",
"```8`8`8`8`8`8`8`8`8`8`8```a`a`m`6`d`Q`3`3`N`K`j`A`A`2`l`H`Q`Q`K`Q`S`m`o`V`V`D`8`J`M`s`r`K`F`s`c`K`U`B`y`0`#`s`a`a`u```8`8`8`8`8`8`8`8`8`8`8````",
"```8`8`8`8`8`8`8`8`8`8`8```a`f`6`f`#`Q`C`V`Q`K`A`K`2`r`K`l`d`h`d`b`f`u`Q`z`C`V`l`8`C`z`G`G`4`u`u`Q`0`5`U`K`a`6`f`f`A```8`8`8`8`8`8`8`8`8`8`8````",
"```8`8`8`8`8`8`8`8`8`8`8```f`6`m`a`a`Q`C`V`z`K`K`2`l`H`r`X`#`H`n`L`K`w`.`m`Q`K`z`q`r`P`B`z`A`K`K`H`V`V`G`F`a`#`s`2`d```8`8`8`8`8`8`8`8`8`8`8````",
"```8`8`8`8`8`8`8`8`8`8`8```4`m`a`a`a`K`H`5`N`z`z`C`N`x`X`X`#`y`m`t`0`B`e`Q`#`d`s`A`A`s`h`v`V`y`A`7`V`V`K`m`a`s`Q`#`s```8`8`8`8`8`8`8`8`8`8`8````",
"```8`8`8`8`8`8`8`8`8`8`8```u`a`a`f`a`u`U`5`H`F`H`A`#`V`Y`Z`#`u`s`B`K`w`b`2`#`#`#`#`#`#`#`f`y`m`N`7`0`3`2`a`a`2`#`a`2```8`8`8`8`8`8`8`8`8`8`8````",
"```8`8`8`8`8`8`8`8`8`8`8```a`d`a`a`a`Q`q`y`v`u`#`B`#`V`X`V`#`A`m`w`0`B`b`2`#`C`R`C`C`V`x`#`a`u`v`H`7`Q`K`#`Q`d`d`f`s```8`8`8`8`8`8`8`8`8`8`8````",
"```8`8`8`8`8`8`8`8`8`8`8```d`a`d`a`h`A`O`0`H`F`#`I`#`P`X`Z`#`A`n`t`Q`t`b`4`#`C`V`C`u`K`V`V`#`m`5`B`y`Q`m`a`4`#`K`a`d```8`8`8`8`8`8`8`8`8`8`8````",
"```8`8`8`8`8`8`8`8`8`8`8```a`f`e`B`8`H`H`V`G`Q`#`y`#`R`X`V`#`K`f`B`0`w`b`4`#`r`X`C`4`4`K`C`#`l`V`Z`Q`Q`m`u`m`Q`4`K`a```8`8`8`8`8`8`8`8`8`8`8````",
"```8`8`8`8`8`8`8`8`8`8`8```B`M`e`.`8`H`N`5`5`Q`#`B`#`G`V`z`#`2`.`B`Q`B`k`A`m`c`V`V`s`6`f`V`c`n`2`4`l`s`u`s`K`f`m`4`s```8`8`8`8`8`8`8`8`8`8`8````",
"```8`8`8`8`8`8`8`8`8`8`8```B`8`p`g`8`K`y`N`U`K`#`B`#`G`Y`r`a`2`b`L`Q`B`p`k`K`#`C`V`V`l`V`V`c`f`4`f`u`Q`A`s`u`s`2`d`#```8`8`8`8`8`8`8`8`8`8`8````",
"```8`8`8`8`8`8`8`8`8`8`8```M`J`B`b`8`A`B`N`v`2`n`d`#`C`V`c`m`F`g`T`0`B`t`.`4`#`#`a`#`c`j`x`c`f`m`f`4`f`2`0`m`K`0`u`d```8`8`8`8`8`8`8`8`8`8`8````",
"```8`8`8`8`8`8`8`8`8`8`8```B`T`t`L`8`u`7`V`5`Q`#`C`V`V`r`#`Q`n`i`L`A`B`w`b`A`d`#`a`a`a`#`#`a`#`#`4`a`4`4`0`m`m`Q`#`a```8`8`8`8`8`8`8`8`8`8`8````",
"```8`8`8`8`8`8`8`8`8`8`8```L`p`w`B`t`q`Y`V`G`Q`V`C`a`a`a`#`z`r`C`C`C`C`C`C`C`C`r`j`#`a`a`a`c`a`m`2`f`f`4`#`2`a`#`d`8```8`8`8`8`8`8`8`8`8`8`8````",
"```8`8`8`8`8`8`8`8`8`8`8```k`A`d`u`N`8`v`R`S`u`#`a`c`C`C`G`l`F`l`A`u`K`A`A`s`A`u`x`l`C`r`c`#`#`f`f`d`a`a`A`u`#`L`8`8```8`8`8`8`8`8`8`8`8`8`8````",
"```8`8`8`8`8`8`8`8`8`8`8```H`u`N`B`A`y`8`g`K`d`r`C`G`m`A`A`2`m`6`u`4`s`4`A`4`F`4`u`Q`u`m`S`C`j`#`#`a`a`Q`F`t`8`8`8`8```8`8`8`8`8`8`8`8`8`8`8````",
"```8`8`8`8`8`8`8`8`8`8`8```K`w`8`q`8`M`#`#`#`J`t`u`m`2`Q`K`2`F`2`u`6`m`2`m`4`u`A`2`s`4`K`2`K`A`4`u`d`D`O`8`8`8`8`8`8```8`8`8`8`8`8`8`8`8`8`8````",
"```8`8`8`8`8`8`8`8`8`8`8```s`8`8`m`T`8`g`c`#`f`L`p`F`K`4`A`6`a`s`#`f`f`f`s`m`f`d`a`#`s`u`K`4`K`K`f`T`8`8`8`8`8`8`8`8```8`8`8`8`8`8`8`8`8`8`8````",
"```8`8`8`8`8`8`8`8`8`8`8```8`8`v`Q`T`8`8`#`c`#`w`B`t`A`f`d`f`F`K`Q`2`u`6`u`6`A`4`2`2`u`a`#`u`a`I`8`8`8`8`8`8`8`8`8`8```8`8`8`8`8`8`8`8`8`8`8````",
"```8`8`8`8`8`8`8`8`8`8`8```T`#`K`6`f`p`8`B`#`a`#`J`B`h`u`4`s`4`K`2`Q`Q`A`s`s`Q`K`u`2`K`6`A`d`J`8`8`8`8`8`8`8`8`8`8`8```8`8`8`8`8`3`8`8`8`8`8````",
"```8`8`8`8`8`8`8`8`8`8`8```L`#`m`K`m`f`8`8`f`#`c`f`B`B`u`S`K`H`t`t`t`p`J`8`T`p`t`w`p`u`A`#`F`O`8`8`8`8`8`8`8`8`8`8`8```8`8`8`8`3`Y`3`8`8`8`8````",
"```8`8`8`8`8`8`8`8`8`8`8```K`6`s`h`s`6`F`T`8`#`#`#`w`J`p`p`B`t`p`g`w`8`8`8`L`8`t`w`t`t`G`#`F`8`8`8`8`8`8`8`8`8`8`8`8```8`8`8`3`Y`V`Y`3`8`8`8````",
"```8`8`8`8`8`8`8`8`8`8`8```y`Q`f`k`u`K`J`8`8`B`#`#`c`L`B`p`t`i`t`8`8`8`8`8`B`8`8`p`n`K`G`#`u`8`8`8`8`8`8`8`8`8`8`8`8```8`8`3`Y`V`V`V`Y`3`8`8````",
"```8`8`8`8`8`8`8`8`8`8`8```8`#`u`2`A`#`8`8`8`8`f`#`#`n`L`B`g`B`8`8`8`8`i`w`i`t`w`8`s`A`x`#`A`8`8`8`8`8`8`8`8`8`8`8`8```8`8`Y`V`V`V`V`V`Y`8`8````",
"```8`8`8`8`8`8`8`8`8`8`8```8`J`u`6`s`q`8`8`8`8`B`#`c`#`B`B`i`8`8`8`8`8`8`T`T`T`T`8`q`A`r`#`Q`8`8`8`8`8`8`8`8`8`8`8`8```8`3`V`V`V`V`V`V`V`3`8````",
"```8`8`8`8`8`8`8`8`8`8`8```8`8`T`F`T`8`8`T`v`j`V`r`a`#`c`T`t`t`8`8`8`8`8`B`w`t`T`8`L`s`r`d`N`8`8`8`8`8`8`8`8`8`8`8`8```8`Y`V`V`V`V`V`V`V`Y`8````",
"```8`8`8`8`8`8`8`8`8`8`8```8`8`8`J`8`8`t`V`C`C`D`V`c`a`#`n`L`g`8`8`8`8`8`J`8`8`t`8`8`l`j`m`O`8`8`8`8`8`8`3`8`8`8`8`8```8`V`V`V`V`V`V`V`V`V`8````",
"```8`8`8`8`8`8`8`8`8`8`8```8`8`8`8`8`8`M`A`C`V`C`Y`V`a`a`#`T`t`B`8`8`8`8`8`8`8`w`8`8`P`#`F`O`8`8`8`8`8`3`Y`3`8`8`8`8```8`Y`V`V`Y`3`Y`V`V`Y`8````",
"```8`8`8`8`8`8`8`8`8`8`8```8`8`8`8`8`8`8`F`K`H`A`o`Y`r`#`c`a`T`g`8`8`8`8`8`8`8`B`8`T`B`#`F`8`8`8`8`8`3`Y`V`Y`3`8`8`8```8`8`Y`Y`3`8`3`Y`Y`8`8````",
"```8`8`8`8`8`8`8`8`8`8`8```8`8`8`8`8`8`8`H`K`Q`2`s`G`X`c`a`#`q`p`T`8`B`e`p`8`8`w`T`g`w`#`K`8`8`8`8`3`Y`V`V`V`Y`3`8`8```8`8`8`8`8`8`8`8`8`8`8````",
"```8`8`8`8`8`8`8`8`8`8`8```8`8`8`8`8`8`8`B`K`K`m`A`f`Y`V`#`a`#`w`B`i`t`b`i`w`8`t`g`b`g`c`N`8`8`8`8`Y`V`V`V`V`V`Y`8`8```8`8`V`Z`8`8`8`8`8`8`8````",
"```8`8`8`8`8`8`8`8`8`8`8```8`8`8`8`8`8`8`N`Q`K`u`K`2`C`Y`r`#`c`d`w`8`B`p`t`L`8`t`J`p`t`l`U`8`8`8`3`V`V`V`V`V`V`V`3`8```8`8`1`V`Z`8`8`8`8`8`8````",
"```8`8`8`8`8`8`8`8`8`8`8```8`8`8`8`8`8`8`B`A`K`K`A`u`C`X`Y`c`a`#`d`T`B`L`B`J`8`B`p`t`L`K`L`8`8`8`Y`V`V`V`V`V`V`V`Y`8```8`8`8`Z`V`V`V`Z`8`8`8````",
"```8`8`8`8`8`8`8`8`8`8`8```8`8`8`8`8`8`8`y`4`4`4`4`K`V`C`Y`R`#`c`#`J`8`T`L`8`8`8`8`8`M`s`8`8`8`8`V`V`V`V`V`V`V`V`V`8```8`8`Z`V`V`V`V`V`Z`8`8````",
"```8`8`8`8`8`8`8`8`8`8`8```8`8`8`8`8`8`8`u`4`4`4`4`C`C`C`G`Y`r`a`a`d`w`J`8`8`8`8`8`L`w`n`8`8`8`8`Y`V`V`Y`3`Y`V`V`Y`8```8`8`V`V`8`8`8`V`V`8`8````",
"```8`8`8`8`8`8`8`8`8`8`8```8`8`8`8`8`8`8`F`4`4`4`4`C`C`V`C`Y`X`c`a`c`q`t`t`8`8`8`T`t`t`w`8`8`8`8`8`Y`Y`3`8`3`Y`Y`8`8```8`8`V`V`8`8`8`V`V`8`8````",
"```8`8`8`8`8`8`8`8`8`8`8```8`8`8`8`8`8`B`2`4`4`4`4`C`R`V`X`C`Y`V`a`a`#`w`B`t`8`8`p`w`t`L`8`8`8`8`8`8`8`8`8`8`8`8`8`8```8`8`V`V`8`8`8`V`V`8`8````",
"```8`8`8`8`8`8`8`8`8`8`8```````````````````````````````````````````````````````````````````````````````````````````````8`8`V`V`8`8`8`V`V`8`8````",
"```8`8`8`8`8`8`8`8`8`8`8`8`8`8`8`8`8`8`8`8`8`8`8`8`8`8`8`8`8`8`8`8`8`8`8`8`8`8`8`8`8`8`8`8`8`8`8`8`8`8`8`8`8`8`8`8`8`8`8`8`V`V`8`8`8`V`V`8`8````",
"```8`8`8`8`8`8`8`8`8`8`8`8`8`8`8`8`8`8`8`8`8`8`8`8`8`8`8`8`8`8`8`8`8`8`8`8`8`8`8`8`8`8`8`8`8`8`8`8`8`8`8`8`8`8`8`8`8`8`8`8`V`V`8`8`8`V`V`8`8````",
"```8`8`8`8`8`8`8`8`8`8`8`8`8`8`8`8`8`8`8`8`8`8`8`8`8`8`8`8`8`8`8`8`8`8`8`8`8`8`8`8`8`8`8`8`8`8`8`8`8`8`8`8`8`8`8`8`8`8`8`8`V`V`8`8`8`V`V`8`8````",
"```8`8`8`8`8`8`8`8`8`8`8`8`8`8`8`8`8`8`8`8`8`8`8`8`8`8`8`8`8`8`8`8`8`8`8`8`8`8`8`8`8`8`8`8`8`8`8`8`8`8`8`8`8`8`8`8`8`8`8`8`V`V`8`8`8`V`V`8`8````",
"```8`8`8`8`8`8`8`8`8`8`8`8`8`8`8`8`8`8`8`8`8`8`8`8`8`8`8`8`8`8`8`8`8`8`8`8`8`8`8`8`8`8`8`8`8`8`8`8`8`8`8`8`8`8`8`8`8`8`8`8`Z`V`V`V`V`V`Z`8`8````",
"```8`8`8`8`8`8`8`8`8`8`8`8`8`8`8`8`8`8`8`8`8`8`8`8`8`8`8`8`8`8`8`8`8`8`8`8`8`8`8`8`8`8`8`8`8`8`8`8`8`8`8`8`8`8`8`8`8`8`8`8`8`Z`V`V`V`Z`8`8`8````",
"```8`8`8`8`8`8`8`8`8`8`8`8`8`8`8`8`8`8`8`8`8`8`8`8`8`8`8`8`8`8`8`8`8`8`8`8`8`8`8`8`8`8`8`8`8`8`8`8`8`8`8`8`8`8`8`8`8`8`8`8`8`8`8`8`8`8`8`8`8````",
"```8`8`8`8`8`8`8`8`8`8`8`8`8`8`8`8`8`8`8`8`8`8`8`8`8`8`8`8`8`8`8`8`8`8`8`8`8`8`8`8`8`8`8`8`8`8`8`8`8`8`8`8`8`8`8`8`8`8`8`8`8`8`8`8`8`8`8`8`8````",
"```y`8`8`8`8`8`8`8`8`8`8`8`8`8`8`8`8`8`8`8`8`8`8`8`8`8`8`8`8`8`8`8`8`8`8`8`8`8`8`8`8`8`8`8`8`8`8`8`8`8`8`8`8`8`8`8`8`8`8`8`8`8`8`8`8`8`8`8`y```q",
"`q```````````````````````````````````````````````````````````````````````````````````````````````````````````````````````````````````````````q``"
};
