/* XPM */
static char *face_02_xpm[] = {
/* width height num_colors chars_per_pixel */
"    72    96       16            1",
/* colors */
"` c #ffffff",
". c #000000",
"# c #394239",
"a c #73735a",
"b c #ceceb5",
"c c #5a5252",
"d c #9c9473",
"e c #e7e7f7",
"f c #291018",
"g c #947b84",
"h c #bdbdce",
"i c #001084",
"j c #081018",
"k c #102129",
"l c #10298c",
"m c #293131",
/* pixels */
"a.....................................................................a.",
".d```````````````````````````````````````````````````````````````````d..",
".`````````````````````````````````````````````````````````````````````..",
".`````````````````````````````````````````````````````````````````````..",
".```.......```````````````````````````````````````````````````````````..",
".```.......```````````````````````````````````````````````````````````..",
".```..``c.g```````````````````````````````````````````````````````````..",
".``````c.g````````````````````````````````````````````````````````````..",
".`````c.g`````````````````````````````````````````````````````````````..",
".````c...c````````````````````````````````````````````````````````````..",
".````ffff.c``````````````````````ba#ab````````````````````````````````..",
".````````..`````````````````````b#...#b```````````````````````````````..",
".````````..`````````````````````a.....a```````````````````````````````..",
".```..```..`````````````````````#.....#```````````````````````````````..",
".```c.....c`````````````````````a.....a```````````````````````````````..",
".````c...c```````````````````````#...#````````````````````````````````..",
".````````````````````````````ba#d`a.a`d#ab````````````````````````````..",
".```````````````````````````b#...a...a...#b```````````````````````````..",
".```````````````````````````a.............a```````````````````````````..",
".`````###```````````````````#.............#```````````````````````````..",
".````#...#``````````````````a.....a.a.....a```````````````````````````..",
".````#...#``````````````````b#...#e.e#...#b```````````````````````````..",
".```ae...ea``````````````````ba#ab`.`ba#ab````````````````````````````..",
".``#.......#``````````````````````a.a`````````````````````````````````..",
".``.........`````````````````````h...h````````````````````````````````..",
".``#.......#``````````````````````````````````````````````````````````..",
".```##`.`##```````````````````````````````````````````````````````````..",
".`````b.b`````````````````````````````````````````````````````````````..",
".`````...`````````````````````````````````````````````````````````````..",
".`````````````````````````````````````````````````````````````````````..",
".`````````````````````````````````````````````````````````````````````..",
".`````````````````````````````````````````````````````````````````````..",
".`````````````````````````````````````````````````````````````````````..",
".`````````````````````````````````````````````````````````````````````..",
".`````````````````````````````````````````````````````````````````````..",
".`````````````````````````````````````````````````````````````````````..",
".`````````````````````````````````````````````````````````````````````..",
".`````````````````````````````````````````````````````````````````````..",
".`````````````````````````````````````````````````````````````````````..",
".`````````````````````````````````````````````````````````````````````..",
".````````````````````````````````ba#ab````````````````````````````````..",
".```````````````````````````````b#...#b```````````````````````````````..",
".```````````````````````````````a.....a```````````````````````````````..",
".```````````````````````````````#.....#```````````````````````````````..",
".```````````````````````````````a.....a```````````````````````````````..",
".````````````````````````````````#...#````````````````````````````````..",
".````````````````````````````ba#d`a.a`d#ab````````````````````````````..",
".```````````````````````````b#...a...a...#b```````````````````````````..",
".```````````````````````````a.............a```````````````````````````..",
".```````````````````````````#.............#```````````````````````````..",
".```````````````````````````a.....a.a.....a```````````````````````````..",
".```````````````````````````b#...#e.e#...#b```````````````````````````..",
".````````````````````````````ba#ab`.`ba#ab````````````````````````````..",
".`````````````````````````````````a.a`````````````````````````````````..",
".````````````````````````````````h...h````````````````````````````````..",
".`````````````````````````````````````````````````````````````````````..",
".`````````````````````````````````````````````````````````````````````..",
".`````````````````````````````````````````````````````````````````````..",
".`````````````````````````````````````````````````````````````````````..",
".`````````````````````````````````````````````````````````````````````..",
".`````````````````````````````````````````````````````````````````````..",
".`````````````````````````````````````````````````````````````````````..",
".`````````````````````````````````````````````````````````````````````..",
".`````````````````````````````````````````````````````````````````````..",
".`````````````````````````````````````````````````````````````````````..",
".`````````````````````````````````````````````````````````````````````..",
".`````````````````````````````````````````````````````````````````````..",
".`````````````````````````````````````````````````````````````...`````..",
".`````````````````````````````````````````````````````````````b.b`````..",
".```````````````````````````````````````````````````````````##`.`##```..",
".``````````````````````````````````````````````````````````#.......#``..",
".````````````````````````````````h...h`````````````````````.........``..",
".`````````````````````````````````a.a``````````````````````#.......#``..",
".````````````````````````````ba#ab`.`ba#ab``````````````````ae...ea```..",
".```````````````````````````b#...#e.e#...#b``````````````````#...#````..",
".```````````````````````````a.....a.a.....a``````````````````#...#````..",
".```````````````````````````#.............#```````````````````###`````..",
".```````````````````````````a.............a```````````````````````````..",
".```````````````````````````b#...a...a...#b```````````````````````````..",
".````````````````````````````ba#d`a.a`d#ab````````````````````````````..",
".````````````````````````````````#...#```````````````````````c...c````..",
".```````````````````````````````a.....a`````````````````````c.....c```..",
".```````````````````````````````#.....#`````````````````````..```..```..",
".```````````````````````````````a.....a`````````````````````..````````..",
".```````````````````````````````b#...#b`````````````````````..````````..",
".````````````````````````````````ba#ab``````````````````````c.ffff````..",
".````````````````````````````````````````````````````````````c...c````..",
".`````````````````````````````````````````````````````````````g.c`````..",
".````````````````````````````````````````````````````````````g.c``````..",
".```````````````````````````````````````````````````````````g.c``..```..",
".```````````````````````````````````````````````````````````.......```..",
".```````````````````````````````````````````````````````````.......```..",
".`````````````````````````````````````````````````````````````````````..",
".`````````````````````````````````````````````````````````````````````..",
".d```````````````````````````````````````````````````````````````````d.a",
"a.....................................................................a."
};
