/* XPM */
static char const *face_50_xpm[] = {
/* width height num_colors chars_per_pixel */
"    72    96      256            2",
/* colors */
"`` c #000000",
"`. c #001084",
"`# c #081018",
"`a c #102129",
"`b c #10298c",
"`c c #291018",
"`d c #293131",
"`e c #293184",
"`f c #394239",
"`g c #394aa5",
"`h c #425a52",
"`i c #4263bd",
"`j c #521021",
"`k c #525a9c",
"`l c #5a2929",
"`m c #5a5221",
"`n c #5a5252",
"`o c #633173",
"`p c #637bad",
"`q c #73735a",
"`r c #7b1018",
"`s c #7b7329",
"`t c #7b94c6",
"`u c #947b21",
"`v c #947b84",
"`w c #949cbd",
"`x c #9c2929",
"`y c #9c9473",
"`z c #a55221",
"`A c #a59429",
"`B c #a5b5de",
"`C c #ad1018",
"`D c #ad5263",
"`E c #b57384",
"`F c #b57b21",
"`G c #bd3129",
"`H c #bd9c5a",
"`I c #bd9ca5",
"`J c #bdbdce",
"`K c #c69c21",
"`L c #c6def7",
"`M c #c6f7ff",
"`N c #ceb563",
"`O c #ceceb5",
"`P c #de524a",
"`Q c #deb521",
"`R c #e72929",
"`S c #e77b21",
"`T c #e7e7f7",
"`U c #f7dea5",
"`V c #ff0008",
"`W c #ff00ff",
"`X c #ff3131",
"`Y c #ff4a4a",
"`Z c #ff737b",
"`0 c #ff9c31",
"`1 c #ff9c9c",
"`2 c #ffbd21",
"`3 c #ffbdbd",
"`4 c #ffde18",
"`5 c #ffde63",
"`6 c #ffff29",
"`7 c #ffffa5",
"`8 c #ffffff",
".` c #ffffff",
".. c #ffffff",
".# c #ffffff",
".a c #ffffff",
".b c #ffffff",
".c c #ffffff",
".d c #ffffff",
".e c #ffffff",
".f c #ffffff",
".g c #ffffff",
".h c #ffffff",
".i c #ffffff",
".j c #ffffff",
".k c #ffffff",
".l c #ffffff",
".m c #ffffff",
".n c #ffffff",
".o c #ffffff",
".p c #ffffff",
".q c #ffffff",
".r c #ffffff",
".s c #ffffff",
".t c #ffffff",
".u c #ffffff",
".v c #ffffff",
".w c #ffffff",
".x c #ffffff",
".y c #ffffff",
".z c #ffffff",
".A c #ffffff",
".B c #ffffff",
".C c #ffffff",
".D c #ffffff",
".E c #ffffff",
".F c #ffffff",
".G c #ffffff",
".H c #ffffff",
".I c #ffffff",
".J c #ffffff",
".K c #ffffff",
".L c #ffffff",
".M c #ffffff",
".N c #ffffff",
".O c #ffffff",
".P c #ffffff",
".Q c #ffffff",
".R c #ffffff",
".S c #ffffff",
".T c #ffffff",
".U c #ffffff",
".V c #ffffff",
".W c #ffffff",
".X c #ffffff",
".Y c #ffffff",
".Z c #ffffff",
".0 c #ffffff",
".1 c #ffffff",
".2 c #ffffff",
".3 c #ffffff",
".4 c #ffffff",
".5 c #ffffff",
".6 c #ffffff",
".7 c #ffffff",
".8 c #ffffff",
"#` c #ffffff",
"#. c #ffffff",
"## c #ffffff",
"#a c #ffffff",
"#b c #ffffff",
"#c c #ffffff",
"#d c #ffffff",
"#e c #ffffff",
"#f c #ffffff",
"#g c #ffffff",
"#h c #ffffff",
"#i c #ffffff",
"#j c #ffffff",
"#k c #ffffff",
"#l c #ffffff",
"#m c #ffffff",
"#n c #ffffff",
"#o c #ffffff",
"#p c #ffffff",
"#q c #ffffff",
"#r c #ffffff",
"#s c #ffffff",
"#t c #ffffff",
"#u c #ffffff",
"#v c #ffffff",
"#w c #ffffff",
"#x c #ffffff",
"#y c #ffffff",
"#z c #ffffff",
"#A c #ffffff",
"#B c #ffffff",
"#C c #ffffff",
"#D c #ffffff",
"#E c #ffffff",
"#F c #ffffff",
"#G c #ffffff",
"#H c #ffffff",
"#I c #ffffff",
"#J c #ffffff",
"#K c #ffffff",
"#L c #ffffff",
"#M c #ffffff",
"#N c #ffffff",
"#O c #ffffff",
"#P c #ffffff",
"#Q c #ffffff",
"#R c #ffffff",
"#S c #ffffff",
"#T c #ffffff",
"#U c #ffffff",
"#V c #ffffff",
"#W c #ffffff",
"#X c #ffffff",
"#Y c #ffffff",
"#Z c #ffffff",
"#0 c #ffffff",
"#1 c #ffffff",
"#2 c #ffffff",
"#3 c #ffffff",
"#4 c #ffffff",
"#5 c #ffffff",
"#6 c #ffffff",
"#7 c #ffffff",
"#8 c #ffffff",
"a` c #ffffff",
"a. c #ffffff",
"a# c #ffffff",
"aa c #ffffff",
"ab c #ffffff",
"ac c #ffffff",
"ad c #ffffff",
"ae c #ffffff",
"af c #ffffff",
"ag c #ffffff",
"ah c #ffffff",
"ai c #ffffff",
"aj c #ffffff",
"ak c #ffffff",
"al c #ffffff",
"am c #ffffff",
"an c #ffffff",
"ao c #ffffff",
"ap c #ffffff",
"aq c #ffffff",
"ar c #ffffff",
"as c #ffffff",
"at c #ffffff",
"au c #ffffff",
"av c #ffffff",
"aw c #ffffff",
"ax c #ffffff",
"ay c #ffffff",
"az c #ffffff",
"aA c #ffffff",
"aB c #ffffff",
"aC c #ffffff",
"aD c #ffffff",
"aE c #ffffff",
"aF c #ffffff",
"aG c #ffffff",
"aH c #ffffff",
"aI c #ffffff",
"aJ c #ffffff",
"aK c #ffffff",
"aL c #ffffff",
"aM c #ffffff",
"aN c #ffffff",
"aO c #ffffff",
"aP c #ffffff",
"aQ c #ffffff",
"aR c #ffffff",
"aS c #ffffff",
"aT c #ffffff",
"aU c #ffffff",
"aV c #ffffff",
"aW c #ffffff",
"aX c #ffffff",
"aY c #ffffff",
"aZ c #ffffff",
"a0 c #ffffff",
"a1 c #ffffff",
"a2 c #ffffff",
"a3 c #ffffff",
"a4 c #ffffff",
"a5 c #ffffff",
"a6 c #ffffff",
"a7 c #ffffff",
"a8 c #ffffff",
/* pixels */
"`q```````````````````````````````````````````````````````````````````````````````````````````````````````````````````````````````````````````q``",
"```y`8`8`8`8`8`8`8`8`8`8`8`8`8`8`8`8`8`8`8`8`8`8`8`8`8`8`8`8`8`8`8`8`8`8`8`8`8`8`8`8`8`8`8`8`8`8`8`8`8`8`8`8`8`8`8`8`8`8`8`8`8`8`8`8`8`8`8`y````",
"```8`8`8`8`8`8`8`8`8`8`8`8`8`8`8`8`8`8`8`8`8`8`8`8`8`8`8`8`8`8`8`8`8`8`8`8`8`8`8`8`8`8`8`8`8`8`8`8`8`8`8`8`8`8`8`8`8`8`8`8`8`8`8`8`8`8`8`8`8````",
"```8`8`8`8`8`8`8`8`8`8`8`8`8`8`8`8`8`8`8`8`8`8`8`8`8`8`8`8`8`8`8`8`8`8`8`8`8`8`8`8`8`8`8`8`8`8`8`8`8`8`8`8`8`8`8`8`8`8`8`8`8`8`8`8`8`8`8`8`8````",
"```8`8`8`q```````q`8`8`8`8`8`8`8`8`8`8`8`8`8`8`8`8`8`8`8`8`8`8`8`8`8`8`8`8`8`8`8`8`8`8`8`8`8`8`8`8`8`8`8`8`8`8`8`8`8`8`8`8`8`8`8`8`8`8`8`8`8````",
"```8`8`q```````````q`8`8`8`8`8`8`8`8`8`8`8`8`8`8`8`8`8`8`8`8`8`8`8`8`8`8`8`8`8`8`8`8`8`8`8`8`8`8`8`8`8`8`8`8`8`8`8`8`8`8`8`8`8`8`8`8`8`8`8`8````",
"```8`8`````8`8`8`````8`8`8`8`8`8`8`8`8`8`8`8`8`8`8`8`8`8`8`8`8`8`8`8`8`8`8`8`8`8`8`8`8`8`8`8`8`8`8`8`8`8`8`8`8`8`8`8`8`8`8`8`8`8`8`8`8`8`8`8````",
"```8`8`````8`8`8`````8`8`8`8`8`8`8`8`8`8`8`8`8`8`8`8`8`8`8`8`8`8`8`8`8`8`8`8`8`8`8`8`8`8`8`8`8`8`8`8`8`8`8`8`8`8`8`8`8`8`8`8`8`8`8`8`8`8`8`8````",
"```8`8`````8`8`8`````8`8`8`8`8`8`8`8`8`8`8`8`8`8`8`8`8`8`8`8`8`8`8`8`8`8`8`8`8`8`8`8`8`8`8`8`8`8`8`8`8`8`8`8`8`8`8`8`8`8`8`8`8`8`8`8`8`8`8`8````",
"```8`8`````8`8`8`````8`8`8`8`8`8`8`8`8`8`8`8`8`8`8`8`8`8`8`8`8`8`8`8`8`8`8`8`8`8`8`8`8`8`8`8`8`8`8`8`8`8`8`8`8`8`8`8`8`8`8`8`8`8`8`8`8`8`8`8````",
"```8`8`````8`8`8`````8`8```````````````````````````````````````````````````````````````````````````````````````````````8`8`8`8`8`8`8`8`8`8`8````",
"```8`8`````8`8`8`````8`8```8`8`8`8`8`8`8`8`8`8`8`8`8`8`8`H`2`H`N`6`6`o`Y`G`f`f`R`p`J`L`t`T`T`w`L`o`I`8`8`8`8`8`8`8`8```8`8`8`8`8`8`8`8`8`8`8````",
"```8`8`````8`8`8`````8`8```8`8`8`8`8`v`8`8`8`8`8`8`8`8`M`K`A`K`K`6`s`X`Y`#`a`j`V`t`t`t`T`8`8`p`t`o`E`8`8`8`8`8`T`T`8```8`8`8`8`8`8`8`8`8`8`8````",
"```8`8`````8`8`8`````8`8```8`8`8`8`v```v`8`8`8`8`8`8`8`T`Q`6`s`Q`Q`r`Y`r`a`a`V`o`t`T`8`8`8`8`8`B`g`C`8`8`8`8`8`q`t`8```8`8`8`8`8`8`8`8`8`8`8````",
"```8`8`q```````````q`8`8```8`8`8`v```````v`8`8`8`8`8`8`L`Q`A`u`n`m`X`X`#`a`j`V`t`t`i`p`p`8`8`k`t`t`C`8`8`8`8`B`2`Q`T```8`8`8`8`8`8`8`8`8`8`8````",
"```8`8`8`q```````q`8`8`8```8`8`v```````````v`8`8`8`8`8`B`A`2`2`y`D`X`c`a`a`V`q`8`B`w`L`L`8`i`J`w`L`r`L`8`8`T`A`Q`4`v```8`8`8`8`8`8`8`8`8`8`8````",
"```8`8`8`8`8`8`q```q`8`8```8`v```````````````v`8`8`8`8`B`s`A`6`x`Y`C`a`a`l`C`8`t`p`b`g`J`8`k`t`b`g`r`I`8`8`w`6`u`K`6```8`8`8`8`8`8`8`8`8`8`8````",
"```8`8`8`8`8`8`8`q```8`8```8```````````````````8`8`8`8`A`m`K`a`X`Y`#`a`f`V`w`8`B`J`e`g`8`8`t`B`b`B`#`G`8`8`B`K`u`A`u```8`8`8`8`8`8`8`8`8`8`8````",
"```8`8`8`8`8`v`8`8`8`8`8```8```````````````````8`8`8`8`u`2`h`P`V`j`a`a`G`C`8`8`8`T`J`8`8`8`w`8`L`8`#`C`8`8`8`t`A`y`B```8`8`8`8`8`8`8`8`8`8`8````",
"```8`8`8`8`v```v`8`8`8`8```8`q```````````````q`8`8`8`L`u`4`l`Y`x`a`a`m`V`L`8`8`8`8`8`8`8`8`J`8`8`T`#`C`M`8`A`K`2`K`Q```8`8`8`8`8`8`8`8`8`8`8````",
"```8`8`8`v```````v`8`8`8```8`8`q`q`8```8`q`q`8`8`8`8`v`A`#`X`V`a`a`d`V`c`8`8`8`8`8`8`w`J`t`T`L`8`J`#`j`J`8`s`n`2`q`F```8`8`8`8`8`8`8`8`8`8`8````",
"```8`8`v```````````v`8`8```8`8`8`8`O```O`8`8`8`8`8`8`s`s`X`X`a`#`a`C`r`8`8`8`8`8`8`8`8`8`T`L`8`8`y`#`j`E`8`8`8`A`y`8```8`8`8`8`8`8`8`8`8`8`8````",
"```8`v```````````````v`8```8`8`8`8```````8`8`8`8`8`B`s`C`V`j`a`a`r`V`t`i`J`8`8`8`8`8`k`b`g`g`p`8`d`a`c`P`8`8`8`u`I`8```8`8`8`8`8`8`8`8`8`8`8````",
"```8```````````````````8```8`8`8`8`8`8`8`8`8`8`8`8`8`L`E`r`#`a`j`V`i`B`B`p`8`8`8`8`8`M`T`T`T`8`T`#`a`a`G`8`8`J`K`y`8```8`8`8`8`8`8`8`8`8`8`8````",
"```8```````````````````8```8`8`8`8`8`8`8`8`8`8`8`8`8`8`8`#`a`d`V`o`B`t`t`t`L`8`8`8`8`8`T`t`T`8`d`c`a`c`G`8`8`y`Q`A`8```8`8`8`8`8`8`8`8`8`8`8````",
"```8`q```````````````q`8```8`8`8`8`8`8`8`8`8`8`8`8`8`8`h`d`c`V`z`N`N`N`H`2`s`B`8`8`8`8`8`8`8`q`#`d`a`c`R`8`8`m`Q`Q`T```8`8`8`8`8`8`8`8`8`8`8````",
"```8`8`q`q`8```8`q`q`8`8```8`8`8`8`8`8`8`8`8`8`8`8`8`B`C`V`C`t`s`s`m`A`s`u`A`m`d`f`J`8`8`8`w`#`c`d`a`c`P`8`8`f`2`4`w```8`8`8`8`8`8`8`8`8`8`8````",
"```8`8`8`8`O```O`8`8`8`8```8`8`8`8`8`8`8`8`8`8`8`8`J`c`C`d`V`Z`U`D`4`K`A`A`A`u`H`A`s`a`d`a`s`f`a`a`c`j`E`I`T`s`4`4`w```8`8`8`8`8`8`8`8`8`8`8````",
"```8`8`8`8```````8`8`8`8```8`8`8`8`8`8`8`8`8`8`8`T`#`#`4`4`x`V`X`3`v`Q`s`#`a`m`A`A`Q`A`q`Q`A`f`#`2`P`U`D`p`w`u`4`4`H```8`8`8`8`8`8`8`8`8`8`8````",
"```8`8`8`8`8`8`8`8`8`8`8```8`T`t`T`T`L`8`8`8`8`8`r`j`a`#`F`4`z`C`V`Z`E`Q`A`a`a`s`A`H`K`m`K`A`m`a`2`3`Z`V`#`j`u`4`4`H```8`8`8`8`8`8`8`8`8`8`8````",
"```8`8`8`8`8`8`8`8`8`8`8```t`u`4`k`i`T`8`8`8`B`c`V`V`x`#`#`l`4`K`C`X`Z`I`S`H`a`f`m`A`K`A`s`A`h`d`5`R`Y`R`a`j`u`6`4`Q```8`8`8`8`8`8`8`8`8`8`8````",
"```8`8`8`8`8`8`8`8`8`8`8```v`4`4`u`p`T`8`8`B`.`b`d`V`V`R`a`#`d`2`2`C`X`Y`3`A`Q`#`s`u`A`Q`m`K`h`d`Q`Z`U`R`#`r`u`4`4`K```8`8`8`8`8`8`8`8`8`8`8````",
"```8`8`8`8`8`8`8`8`8`8`8```4`A`m`4`Q`L`8`w`.`.`e`b`b`C`V`R`c`#`c`4`4`r`X`X`I`F`Q`#`s`K`K`s`K`s`f`Q`3`1`V`a`C`f`s`A`d```8`8`8`8`8`8`8`8`8`8`8````",
"```8`8`8`8`8`8`8`8`8`8`8```4`A`s`4`2`L`t`.`b`b`b`e`b`b`C`X`X`c`#`#`2`6`r`V`Z`1`y`K`#`n`K`K`u`A`m`H`Z`X`C`a`R`r`d`d`C```8`8`8`8`8`8`8`8`8`8`8````",
"```8`8`8`8`8`8`8`8`8`8`8```q`6`4`q`g`q`f`b`b`b`b`b`e`b`a`r`X`Z`r`#`#`2`6`x`V`Z`Z`N`A`#`q`K`s`m`s`A`X`3`C`#`V`x`Q`2`s```8`8`8`8`8`8`8`8`8`8`8````",
"```8`8`8`8`8`8`8`8`8`8`8```p`A`A`i`q`4`f`.`e`b`b`b`b`a`Q`s`C`V`Y`G`#`#`2`6`x`V`1`E`2`s`a`u`u`s`A`P`1`3`r`a`V`h`4`6`A```8`8`8`8`8`8`8`8`8`8`8````",
"```8`8`8`8`8`8`8`8`8`8`8```8`T`A`p`K`4`.`b`b`b`b`.`o`5`4`Q`d`V`Z`X`P`#`#`0`6`x`V`Z`I`2`f`d`s`f`Q`D`3`X`r`a`V`x`f`f`l```8`8`8`8`8`8`8`8`8`8`8````",
"```8`8`8`8`8`8`8`8`8`8`8```8`w`n`s`2`m`b`b`b`c`.`n`7`5`K`0`Q`C`Y`Y`V`R`#`#`Q`6`x`X`Z`w`4`a`f`#`4`E`Y`Y`c`a`V`r`s`K`m```8`8`8`8`8`8`8`8`8`8`8````",
"```8`8`8`8`8`8`8`8`8`8`8```B`A`K`A`m`.`b`b`b`.`n`7`#`#`A`N`Q`c`V`Y`X`V`V`a`#`0`6`r`X`1`v`4`f`f`4`P`Z`X`#`j`V`m`Q`6`4```8`8`8`8`8`8`8`8`8`8`8````",
"```8`8`8`8`8`8`8`8`8`8`8```s`.`.`.`A`u`b`b`.`n`7`5`#`#`5`A`c`n`I`E`J`E`V`V`#`#`2`4`C`X`3`K`A`f`Q`X`U`V`a`l`V`f`Q`4`4```8`8`8`8`8`8`8`8`8`8`8````",
"```8`8`8`8`8`8`8`8`8`8`8```0`K`k`e`.`s`n`.`o`7`7`N`s`5`7`Q`e`u`#`.`#`b`E`V`R`#`#`4`2`C`X`3`K`m`z`3`Z`r`a`r`V`m`Q`4`4```8`8`8`8`8`8`8`8`8`8`8````",
"```8`8`8`8`8`8`8`8`8`8`8```z`u`M`8`8`8`8`8`w`7`5`5`y`n`7`K`.`n`7`6`7`K`b`E`V`R`#`#`4`0`C`C`t`B`w`r`C`a`l`C`j`K`H`Q`u```8`8`8`8`8`8`8`8`8`8`8````",
"```8`8`8`8`8`8`8`8`8`8`8```Q`y`L`8`8`8`8`p`8`B`7`d`#`n`U`K`Q`d`T`J`8`4`u`g`E`V`C`#`d`6`S`t`g`.`e`w`j`a`C`j`K`H`5`5`K```8`8`8`8`8`8`8`8`8`8`8````",
"```8`8`8`8`8`8`8`8`8`8`8```G`H`M`8`8`8`t`T`B`t`7`d`#`q`2`K`m`c`#`#`m`8`6`f`t`D`V`l`#`m`2`w`Q`A`4`w`#`#`r`A`u`#`d`q`7```8`8`8`8`8`8`8`8`8`8`8````",
"```8`8`8`8`8`8`8`8`8`8`8```6`q`p`B`8`w`T`B`p`5`7`N`5`A`K`s`h`A`K`m`#`N`8`4`a`B`R`X`c`#`d`B`u`k`s`p`#`m`A`H`y`#`#`u`7```8`8`8`8`8`8`8`8`8`8`8````",
"```8`8`8`8`8`8`8`8`8`8`8```s`5`7`5`n`L`p`t`U`O`H`7`A`K`u`C`V`V`V`A`d`#`7`6`6`.`B`V`V`a`#`B`u`q`K`p`l`A`K`7`q`#`#`N`7```8`8`8`8`8`8`8`8`8`8`8````",
"```8`8`8`8`8`8`8`8`8`8`8```7`7`7`7`7`n`y`7`#`#`n`H`K`u`j`C`C`r`C`r`x`r`r`x`x`r`r`r`r`r`l`J`F`m`z`O`Q`K`7`7`7`U`7`u`d```8`8`8`8`8`8`8`8`8`8`8````",
"```8`8`8`8`8`8`8`8`8`8`8```7`U`7`y`#`#`N`U`n`d`s`K`d`c`d`a`a`a`h`#`d`m`e`#`d`n`a`d`f`f`#`n`B`.`e`w`Q`7`7`n`m`#`7`#`c```8`8`8`8`8`8`8`8`8`8`8````",
"```8`8`8`8`8`8`8`8`8`8`8```a`#`7`#`m`l`7`7`Q`I`e`.`t`k`#`f`f`d`a`n`f`#`d`n`d`#`n`a`#`d`d`a`c`A`s`d`n`U`N`#`#`y`7`U`7```8`8`8`8`8`8`8`8`8`8`8````",
"```8`8`8`8`8`8`8`8`8`8`8```d`u`7`U`7`7`7`H`Q`J`m`n`S`J`j`r`r`r`r`r`x`x`r`r`x`r`C`r`x`C`j`u`K`H`s`#`#`7`y`n`7`7`7`7`7```8`8`8`8`8`8`8`8`8`8`8````",
"```8`8`8`8`8`8`8`8`8`8`8```7`N`#`#`q`7`H`A`l`p`Q`q`u`B`#`a`V`V`J`.`4`6`8`#`d`K`V`V`V`C`s`K`A`7`y`N`N`w`t`J`f`U`7`5`q```8`8`8`8`8`8`8`8`8`8`8````",
"```8`8`8`8`8`8`8`8`8`8`8```7`u`#`#`y`H`A`s`#`p`s`k`u`B`d`a`a`X`G`B`a`4`7`N`#`m`A`A`h`u`K`A`U`N`7`7`p`B`T`w`8`B`p`s`4```8`8`8`8`8`8`8`8`8`8`8````",
"```8`8`8`8`8`8`8`8`8`8`8```7`q`d`#`u`K`j`#`#`w`4`A`Q`w`2`m`#`r`V`P`t`f`6`8`m`#`#`a`m`K`Q`q`#`d`7`t`B`T`t`8`8`8`T`B`G```8`8`8`8`8`8`8`8`8`8`8````",
"```8`8`8`8`8`8`8`8`8`8`8```K`5`5`H`K`j`C`c`j`y`e`.`f`w`S`6`d`#`x`V`E`g`u`4`8`J`U`d`Q`K`U`s`#`d`7`J`8`p`8`8`8`8`T`y`Q```8`8`8`8`8`8`8`8`8`8`8````",
"```8`8`8`8`8`8`8`8`8`8`8```A`Q`H`K`c`C`r`a`x`r`w`B`t`C`C`0`6`#`#`G`V`E`b`Q`7`6`8`m`.`K`7`n`v`5`7`7`v`8`8`8`8`8`T`u`z```8`8`8`8`8`8`8`8`8`8`8````",
"```8`8`8`8`8`8`8`8`8`8`8```4`4`Q`m`V`C`a`j`Y`3`z`f`K`3`X`C`2`4`#`#`V`V`E`b`#`#`#`s`e`K`7`5`u`N`7`7`f`.`n`s`.`e`k`K`0```8`8`8`8`8`8`8`8`8`8`8````",
"```8`8`8`8`8`8`8`8`8`8`8```4`4`Q`f`V`l`#`V`T`X`Q`m`u`K`3`V`C`4`2`#`#`R`V`v`J`E`I`n`c`A`7`#`#`5`7`n`.`b`b`F`A`.`.`.`s```8`8`8`8`8`8`8`8`8`8`8````",
"```8`8`8`8`8`8`8`8`8`8`8```4`4`K`h`V`j`a`X`Z`P`4`f`m`2`v`3`X`C`6`0`#`#`R`V`X`Y`V`j`Q`N`A`#`#`6`o`.`b`b`b`.`n`A`A`A`B```8`8`8`8`8`8`8`8`8`8`8````",
"```8`8`8`8`8`8`8`8`8`8`8```z`H`s`j`V`a`c`Y`Y`E`4`#`d`d`4`w`Z`X`r`6`Q`#`#`R`V`X`Y`C`Q`Q`K`5`7`f`.`b`b`e`.`n`2`s`s`w`8```8`8`8`8`8`8`8`8`8`8`8````",
"```8`8`8`8`8`8`8`8`8`8`8```d`f`m`x`V`a`r`X`3`E`K`f`u`d`f`4`E`Z`V`x`6`0`#`#`P`X`Z`V`a`K`2`5`o`b`b`b`e`b`.`4`K`q`A`T`8```8`8`8`8`8`8`8`8`8`8`8````",
"```8`8`8`8`8`8`8`8`8`8`8```K`6`4`m`V`a`r`3`1`z`A`s`u`u`#`s`2`E`1`V`x`6`2`#`#`x`X`X`C`u`2`a`b`b`b`b`b`b`d`4`s`i`A`A`p```8`8`8`8`8`8`8`8`8`8`8````",
"```8`8`8`8`8`8`8`8`8`8`8```m`2`Q`x`V`a`C`3`X`K`s`s`m`Q`s`#`A`N`Z`1`V`l`6`2`#`#`r`Z`X`r`a`b`b`e`b`b`c`b`n`p`k`q`4`6`q```8`8`8`8`8`8`8`8`8`8`8````",
"```8`8`8`8`8`8`8`8`8`8`8```C`d`d`r`R`#`C`Y`Z`H`m`u`u`H`K`n`#`K`H`I`Y`V`r`6`2`#`#`j`V`X`C`b`b`b`e`b`b`.`t`L`2`4`s`A`4```8`8`8`8`8`8`8`8`8`8`8````",
"```8`8`8`8`8`8`8`8`8`8`8```d`A`s`f`C`a`V`1`3`0`f`s`K`s`K`K`s`#`Q`F`1`Y`V`C`4`4`#`#`a`V`X`C`b`b`b`b`.`w`8`J`Q`4`m`u`6```8`8`8`8`8`8`8`8`8`8`8````",
"```8`8`8`8`8`8`8`8`8`8`8```K`4`4`u`r`a`C`U`Z`Q`d`m`A`m`K`A`F`s`#`Q`u`3`Y`X`C`2`4`c`#`a`R`V`V`d`b`.`w`8`8`T`p`u`4`6`v```8`8`8`8`8`8`8`8`8`8`8````",
"```8`8`8`8`8`8`8`8`8`8`8```N`4`6`u`l`#`R`Y`V`5`a`n`A`u`A`K`A`n`f`#`Q`F`I`Z`X`C`K`4`m`#`#`x`V`V`j`B`8`8`8`T`i`k`2`u`t```8`8`8`8`8`8`8`8`8`8`8````",
"```8`8`8`8`8`8`8`8`8`8`8```K`4`4`s`j`#`R`Z`3`N`a`m`K`H`m`Q`H`A`s`a`#`H`Q`E`Z`V`V`z`2`F`#`a`c`C`M`8`8`8`8`L`T`T`w`T`8```8`8`8`8`8`8`8`8`8`8`8````",
"```8`8`8`8`8`8`8`8`8`8`8```y`4`4`u`B`q`n`3`Y`2`a`d`A`Q`s`A`Q`A`A`s`a`#`s`Q`E`3`X`V`x`6`2`a`#`T`8`8`8`8`8`8`8`8`8`8`8```8`8`8`8```````8`8`8`8````",
"```8`8`8`8`8`8`8`8`8`8`8```B`4`4`s`T`I`E`j`a`a`a`h`s`a`d`a`s`A`A`u`A`A`A`H`4`D`U`Z`V`c`G`c`I`8`8`8`8`8`8`8`8`8`8`8`8```8`8`8`8`O```O`8`8`8`8````",
"```8`8`8`8`8`8`8`8`8`8`8```w`4`2`f`8`8`P`c`d`a`a`#`w`8`8`8`J`e`f`m`u`u`m`A`m`q`s`t`C`V`C`w`8`8`8`8`8`8`8`8`8`8`8`8`8```8`8`q`q`8```8`q`q`8`8````",
"```8`8`8`8`8`8`8`8`8`8`8```T`Q`Q`m`8`8`R`a`d`c`#`q`8`8`8`8`8`8`8`B`s`2`N`H`Q`N`z`V`c`d`h`8`8`8`8`8`8`8`8`8`8`8`8`8`8```8`q```````````````q`8````",
"```8`8`8`8`8`8`8`8`8`8`8```8`A`Q`y`8`8`G`c`a`a`d`8`T`t`M`8`8`8`8`8`T`t`t`B`B`g`V`c`a`#`8`8`8`8`8`8`8`8`8`8`8`8`8`8`8```8```````````````````8````",
"```8`8`8`8`8`8`8`8`8`8`8```8`y`K`J`8`8`G`a`d`#`U`8`T`M`T`M`8`8`8`8`8`p`B`w`i`V`j`a`a`j`v`L`8`8`8`8`8`8`8`8`8`8`8`8`8```8```````````````````8````",
"```8`8`8`8`8`8`8`8`8`8`8```8`I`u`8`8`8`G`c`a`c`8`t`g`e`b`k`8`8`8`8`8`J`i`t`V`r`a`a`c`V`V`m`J`8`8`8`8`8```````8`8`8`8```8`v```````````````v`8````",
"```8`8`8`8`8`8`8`8`8`8`8```8`w`F`8`8`8`I`j`a`w`8`8`L`T`8`8`8`8`8`8`8`8`8`r`C`a`a`#`X`X`s`m`8`8`8`8`8`8`O```O`8`8`8`8```8`8`v```````````v`8`8````",
"```8`8`8`8`8`8`8`8`8`8`8```F`s`2`n`s`8`J`r`#`J`8`J`T`w`J`w`8`8`8`8`8`8`.`V`d`a`a`V`X`#`K`y`8`8`8`8`q`q`8```8`q`q`8`8```8`8`8`v```````v`8`8`8````",
"```8`8`8`8`8`8`8`8`8`8`8```Q`K`2`K`A`8`T`C`#`T`8`8`L`8`8`8`8`8`8`8`8`L`V`m`a`a`x`Y`l`4`s`O`8`8`8`q```````````````q`8```8`8`8`8`v```v`8`8`8`8````",
"```8`8`8`8`8`8`8`8`8`8`8```B`y`A`t`8`8`8`C`#`8`L`8`w`8`8`8`J`T`8`8`8`C`G`a`c`c`V`P`m`2`u`8`8`8`8```````````````````8```8`8`8`8`8`v`8`8`8`8`8````",
"```8`8`8`8`8`8`8`8`8`8`8```A`A`u`K`B`8`8`D`#`B`b`B`t`8`8`g`e`B`J`8`B`V`f`#`a`Y`X`a`A`s`y`8`8`8`8```````````````````8```8`8```q`8`8`8`8`8`8`8````",
"```8`8`8`8`8`8`8`8`8`8`8```6`K`u`6`t`8`8`I`r`e`b`p`k`8`B`g`b`p`w`8`C`l`#`a`C`Y`x`6`A`s`B`8`8`8`8`v```````````````v`8```8`8`q```q`8`8`8`8`8`8````",
"```8`8`8`8`8`8`8`8`8`8`8```v`4`H`A`M`8`8`L`r`L`w`J`i`8`T`O`w`B`8`p`V`c`a`c`X`P`u`2`Q`K`w`8`8`8`8`8`v```````````v`8`8```8`8`8`q```````q`8`8`8````",
"```8`8`8`8`8`8`8`8`8`8`8```T`Q`2`B`8`8`8`8`C`t`t`k`8`8`p`p`i`t`t`V`j`a`#`X`X`m`h`A`A`Q`L`8`8`8`8`8`8`v```````v`8`8`8```8`8`q```````````q`8`8````",
"```8`8`8`8`8`8`8`8`8`8`8```8`p`q`8`8`8`8`8`C`g`L`8`8`8`8`8`T`t`o`V`a`#`r`Y`r`Q`Q`m`6`Q`T`8`8`8`8`8`8`8`v```v`8`8`8`8```8`8`````8`8`8`````8`8````",
"```8`8`8`8`8`8`8`8`8`8`8```8`T`T`8`8`8`8`8`E`o`t`i`8`8`8`p`t`t`V`c`#`a`X`X`s`6`K`K`A`K`8`8`8`8`8`8`8`8`8`v`8`8`8`8`8```8`8`````8`8`8`````8`8````",
"```8`8`8`8`8`8`8`8`8`8`8```8`8`8`8`8`8`8`8`I`x`B`B`L`T`t`L`B`p`R`f`f`G`Y`n`6`5`N`N`2`A`8`8`8`8`8`8`8`8`8`8`8`8`8`8`8```8`8`````8`8`8`````8`8````",
"```8`8`8`8`8`8`8`8`8`8`8```````````````````````````````````````````````````````````````````````````````````````````````8`8`````8`8`8`````8`8````",
"```8`8`8`8`8`8`8`8`8`8`8`8`8`8`8`8`8`8`8`8`8`8`8`8`8`8`8`8`8`8`8`8`8`8`8`8`8`8`8`8`8`8`8`8`8`8`8`8`8`8`8`8`8`8`8`8`8`8`8`8`````8`8`8`````8`8````",
"```8`8`8`8`8`8`8`8`8`8`8`8`8`8`8`8`8`8`8`8`8`8`8`8`8`8`8`8`8`8`8`8`8`8`8`8`8`8`8`8`8`8`8`8`8`8`8`8`8`8`8`8`8`8`8`8`8`8`8`8`````8`8`8`````8`8````",
"```8`8`8`8`8`8`8`8`8`8`8`8`8`8`8`8`8`8`8`8`8`8`8`8`8`8`8`8`8`8`8`8`8`8`8`8`8`8`8`8`8`8`8`8`8`8`8`8`8`8`8`8`8`8`8`8`8`8`8`8`````8`8`8`````8`8````",
"```8`8`8`8`8`8`8`8`8`8`8`8`8`8`8`8`8`8`8`8`8`8`8`8`8`8`8`8`8`8`8`8`8`8`8`8`8`8`8`8`8`8`8`8`8`8`8`8`8`8`8`8`8`8`8`8`8`8`8`8`````8`8`8`````8`8````",
"```8`8`8`8`8`8`8`8`8`8`8`8`8`8`8`8`8`8`8`8`8`8`8`8`8`8`8`8`8`8`8`8`8`8`8`8`8`8`8`8`8`8`8`8`8`8`8`8`8`8`8`8`8`8`8`8`8`8`8`8`q```````````q`8`8````",
"```8`8`8`8`8`8`8`8`8`8`8`8`8`8`8`8`8`8`8`8`8`8`8`8`8`8`8`8`8`8`8`8`8`8`8`8`8`8`8`8`8`8`8`8`8`8`8`8`8`8`8`8`8`8`8`8`8`8`8`8`8`q```````q`8`8`8````",
"```8`8`8`8`8`8`8`8`8`8`8`8`8`8`8`8`8`8`8`8`8`8`8`8`8`8`8`8`8`8`8`8`8`8`8`8`8`8`8`8`8`8`8`8`8`8`8`8`8`8`8`8`8`8`8`8`8`8`8`8`8`8`8`8`8`8`8`8`8````",
"```8`8`8`8`8`8`8`8`8`8`8`8`8`8`8`8`8`8`8`8`8`8`8`8`8`8`8`8`8`8`8`8`8`8`8`8`8`8`8`8`8`8`8`8`8`8`8`8`8`8`8`8`8`8`8`8`8`8`8`8`8`8`8`8`8`8`8`8`8````",
"```y`8`8`8`8`8`8`8`8`8`8`8`8`8`8`8`8`8`8`8`8`8`8`8`8`8`8`8`8`8`8`8`8`8`8`8`8`8`8`8`8`8`8`8`8`8`8`8`8`8`8`8`8`8`8`8`8`8`8`8`8`8`8`8`8`8`8`8`y```q",
"`q```````````````````````````````````````````````````````````````````````````````````````````````````````````````````````````````````````````q``"
};
