/* XPM */
static char const *face_38_xpm[] = {
/* width height num_colors chars_per_pixel */
"    72    96      256            2",
/* colors */
"`` c #000000",
"`. c #001084",
"`# c #081018",
"`a c #102129",
"`b c #10298c",
"`c c #291018",
"`d c #293131",
"`e c #293184",
"`f c #394239",
"`g c #394aa5",
"`h c #425a52",
"`i c #4263bd",
"`j c #521021",
"`k c #525a9c",
"`l c #5a2929",
"`m c #5a5221",
"`n c #5a5252",
"`o c #633173",
"`p c #637bad",
"`q c #73735a",
"`r c #7b1018",
"`s c #7b7329",
"`t c #7b94c6",
"`u c #947b21",
"`v c #947b84",
"`w c #949cbd",
"`x c #9c2929",
"`y c #9c9473",
"`z c #a55221",
"`A c #a59429",
"`B c #a5b5de",
"`C c #ad1018",
"`D c #ad5263",
"`E c #b57384",
"`F c #b57b21",
"`G c #bd3129",
"`H c #bd9c5a",
"`I c #bd9ca5",
"`J c #bdbdce",
"`K c #c69c21",
"`L c #c6def7",
"`M c #c6f7ff",
"`N c #ceb563",
"`O c #ceceb5",
"`P c #de524a",
"`Q c #deb521",
"`R c #e72929",
"`S c #e77b21",
"`T c #e7e7f7",
"`U c #f7dea5",
"`V c #ff0008",
"`W c #ff00ff",
"`X c #ff3131",
"`Y c #ff4a4a",
"`Z c #ff737b",
"`0 c #ff9c31",
"`1 c #ff9c9c",
"`2 c #ffbd21",
"`3 c #ffbdbd",
"`4 c #ffde18",
"`5 c #ffde63",
"`6 c #ffff29",
"`7 c #ffffa5",
"`8 c #ffffff",
".` c #ffffff",
".. c #ffffff",
".# c #ffffff",
".a c #ffffff",
".b c #ffffff",
".c c #ffffff",
".d c #ffffff",
".e c #ffffff",
".f c #ffffff",
".g c #ffffff",
".h c #ffffff",
".i c #ffffff",
".j c #ffffff",
".k c #ffffff",
".l c #ffffff",
".m c #ffffff",
".n c #ffffff",
".o c #ffffff",
".p c #ffffff",
".q c #ffffff",
".r c #ffffff",
".s c #ffffff",
".t c #ffffff",
".u c #ffffff",
".v c #ffffff",
".w c #ffffff",
".x c #ffffff",
".y c #ffffff",
".z c #ffffff",
".A c #ffffff",
".B c #ffffff",
".C c #ffffff",
".D c #ffffff",
".E c #ffffff",
".F c #ffffff",
".G c #ffffff",
".H c #ffffff",
".I c #ffffff",
".J c #ffffff",
".K c #ffffff",
".L c #ffffff",
".M c #ffffff",
".N c #ffffff",
".O c #ffffff",
".P c #ffffff",
".Q c #ffffff",
".R c #ffffff",
".S c #ffffff",
".T c #ffffff",
".U c #ffffff",
".V c #ffffff",
".W c #ffffff",
".X c #ffffff",
".Y c #ffffff",
".Z c #ffffff",
".0 c #ffffff",
".1 c #ffffff",
".2 c #ffffff",
".3 c #ffffff",
".4 c #ffffff",
".5 c #ffffff",
".6 c #ffffff",
".7 c #ffffff",
".8 c #ffffff",
"#` c #ffffff",
"#. c #ffffff",
"## c #ffffff",
"#a c #ffffff",
"#b c #ffffff",
"#c c #ffffff",
"#d c #ffffff",
"#e c #ffffff",
"#f c #ffffff",
"#g c #ffffff",
"#h c #ffffff",
"#i c #ffffff",
"#j c #ffffff",
"#k c #ffffff",
"#l c #ffffff",
"#m c #ffffff",
"#n c #ffffff",
"#o c #ffffff",
"#p c #ffffff",
"#q c #ffffff",
"#r c #ffffff",
"#s c #ffffff",
"#t c #ffffff",
"#u c #ffffff",
"#v c #ffffff",
"#w c #ffffff",
"#x c #ffffff",
"#y c #ffffff",
"#z c #ffffff",
"#A c #ffffff",
"#B c #ffffff",
"#C c #ffffff",
"#D c #ffffff",
"#E c #ffffff",
"#F c #ffffff",
"#G c #ffffff",
"#H c #ffffff",
"#I c #ffffff",
"#J c #ffffff",
"#K c #ffffff",
"#L c #ffffff",
"#M c #ffffff",
"#N c #ffffff",
"#O c #ffffff",
"#P c #ffffff",
"#Q c #ffffff",
"#R c #ffffff",
"#S c #ffffff",
"#T c #ffffff",
"#U c #ffffff",
"#V c #ffffff",
"#W c #ffffff",
"#X c #ffffff",
"#Y c #ffffff",
"#Z c #ffffff",
"#0 c #ffffff",
"#1 c #ffffff",
"#2 c #ffffff",
"#3 c #ffffff",
"#4 c #ffffff",
"#5 c #ffffff",
"#6 c #ffffff",
"#7 c #ffffff",
"#8 c #ffffff",
"a` c #ffffff",
"a. c #ffffff",
"a# c #ffffff",
"aa c #ffffff",
"ab c #ffffff",
"ac c #ffffff",
"ad c #ffffff",
"ae c #ffffff",
"af c #ffffff",
"ag c #ffffff",
"ah c #ffffff",
"ai c #ffffff",
"aj c #ffffff",
"ak c #ffffff",
"al c #ffffff",
"am c #ffffff",
"an c #ffffff",
"ao c #ffffff",
"ap c #ffffff",
"aq c #ffffff",
"ar c #ffffff",
"as c #ffffff",
"at c #ffffff",
"au c #ffffff",
"av c #ffffff",
"aw c #ffffff",
"ax c #ffffff",
"ay c #ffffff",
"az c #ffffff",
"aA c #ffffff",
"aB c #ffffff",
"aC c #ffffff",
"aD c #ffffff",
"aE c #ffffff",
"aF c #ffffff",
"aG c #ffffff",
"aH c #ffffff",
"aI c #ffffff",
"aJ c #ffffff",
"aK c #ffffff",
"aL c #ffffff",
"aM c #ffffff",
"aN c #ffffff",
"aO c #ffffff",
"aP c #ffffff",
"aQ c #ffffff",
"aR c #ffffff",
"aS c #ffffff",
"aT c #ffffff",
"aU c #ffffff",
"aV c #ffffff",
"aW c #ffffff",
"aX c #ffffff",
"aY c #ffffff",
"aZ c #ffffff",
"a0 c #ffffff",
"a1 c #ffffff",
"a2 c #ffffff",
"a3 c #ffffff",
"a4 c #ffffff",
"a5 c #ffffff",
"a6 c #ffffff",
"a7 c #ffffff",
"a8 c #ffffff",
/* pixels */
"`q```````````````````````````````````````````````````````````````````````````````````````````````````````````````````````````````````````````q``",
"```y`8`8`8`8`8`8`8`8`8`8`8`8`8`8`8`8`8`8`8`8`8`8`8`8`8`8`8`8`8`8`8`8`8`8`8`8`8`8`8`8`8`8`8`8`8`8`8`8`8`8`8`8`8`8`8`8`8`8`8`8`8`8`8`8`8`8`8`y````",
"```8`8`8`8`8`8`8`8`8`8`8`8`8`8`8`8`8`8`8`8`8`8`8`8`8`8`8`8`8`8`8`8`8`8`8`8`8`8`8`8`8`8`8`8`8`8`8`8`8`8`8`8`8`8`8`8`8`8`8`8`8`8`8`8`8`8`8`8`8````",
"```8`8`8`8`8`8`8`8`8`8`8`8`8`8`8`8`8`8`8`8`8`8`8`8`8`8`8`8`8`8`8`8`8`8`8`8`8`8`8`8`8`8`8`8`8`8`8`8`8`8`8`8`8`8`8`8`8`8`8`8`8`8`8`8`8`8`8`8`8````",
"```8`V`V`V`V`8`V`V`V`V`8`8`8`8`8`8`8`8`8`8`8`8`8`8`8`8`8`8`8`8`8`8`8`8`8`8`8`8`8`8`8`8`8`8`8`8`8`8`8`8`8`8`8`8`8`8`8`8`8`8`8`8`8`8`8`8`8`8`8````",
"```8`V`V`V`V`8`V`V`V`V`8`8`8`8`8`8`8`8`8`8`8`8`8`8`8`8`8`8`8`8`8`8`8`8`8`8`8`8`8`8`8`8`8`8`8`8`8`8`8`8`8`8`8`8`8`8`8`8`8`8`8`8`8`8`8`8`8`8`8````",
"```8`8`V`V`8`8`Z`V`Z`8`8`8`8`8`8`8`8`8`8`8`8`8`8`8`8`8`8`8`8`8`8`8`8`8`8`8`8`8`8`8`8`8`8`8`8`8`8`8`8`8`8`8`8`8`8`8`8`8`8`8`8`8`8`8`8`8`8`8`8````",
"```8`8`V`V`8`Y`V`Z`8`8`8`8`8`8`8`8`8`8`8`8`8`8`8`8`8`8`8`8`8`8`8`8`8`8`8`8`8`8`8`8`8`8`8`8`8`8`8`8`8`8`8`8`8`8`8`8`8`8`8`8`8`8`8`8`8`8`8`8`8````",
"```8`8`V`V`Y`V`Z`8`8`8`8`8`8`8`8`8`8`8`8`8`8`8`8`8`8`8`8`8`8`8`8`8`8`8`8`8`8`8`8`8`8`8`8`8`8`8`8`8`8`8`8`8`8`8`8`8`8`8`8`8`8`8`8`8`8`8`8`8`8````",
"```8`8`V`V`V`Z`8`8`8`8`8`8`8`8`8`8`8`8`8`8`8`8`8`8`8`8`8`8`8`8`8`8`8`8`8`8`8`8`8`8`8`8`8`8`8`8`8`8`8`8`8`8`8`8`8`8`8`8`8`8`8`8`8`8`8`8`8`8`8````",
"```8`8`V`V`Y`V`Z`8`8`8`8```````````````````````````````````````````````````````````````````````````````````````````````8`8`8`8`8`8`8`8`8`8`8````",
"```8`8`V`V`8`Y`V`Z`8`8`8```8`8`8`8`8`8`8`8`8`8`v`u`4`4`4`4`4`s`2`4`4`4`Q`z`6`4`4`4`s`K`4`4`2`4`6`m`8`8`8`8`8`8`8`8`8```8`8`8`8`8`8`8`8`8`8`8````",
"```8`8`V`V`8`8`Y`V`Z`8`8```8`8`Y`Y`3`8`3`Y`Y`8`8`j`r`K`4`2`u`4`K`Q`4`Q`C`V`l`Q`4`s`4`0`K`4`4`Q`C`B`8`8`8`8`8`8`8`8`8```8`8`8`8`8`8`8`8`8`8`8````",
"```8`8`V`V`8`8`8`Y`Z`8`8```8`Y`V`V`Y`3`Y`V`V`Y`8`T`r`x`6`F`K`2`F`u`6`C`C`C`V`z`K`2`2`4`F`4`F`V`j`8`8`8`y`T`8`8`8`8`8```8`8`8`8`8`8`8`8`8`8`8````",
"```8`V`V`V`V`8`V`V`V`V`8```8`V`V`V`V`V`V`V`V`V`8`8`z`C`K`K`A`m`K`u`Q`C`R`V`C`z`Q`u`s`s`m`4`C`r`L`8`8`u`4`u`8`8`8`8`8```8`8`8`8`8`8`8`8`8`8`8````",
"```8`V`V`V`V`8`V`V`V`V`8```8`Y`V`V`V`V`V`V`V`Y`8`8`8`j`r`l`l`l`j`d`j`c`c`j`j`j`o`o`x`z`n`r`C`o`8`8`8`H`u`e`8`8`8`8`8```8`8`8`8`8`8`8`8`8`8`8````",
"```8`8`8`8`8`8`8`8`8`8`8```8`3`V`V`V`V`V`V`V`3`8`8`8`l`c`c`r`j`j`C`C`r`C`C`r`r`r`c`#`c`c`j`j`L`T`L`T`y`u`8`e`w`p`M`8```8`8`8`8`8`8`8`8`8`8`8````",
"```8`8`8`8`8`8`8`8`8`8`8```8`8`Y`V`V`V`V`V`Y`8`8`8`8`B`C`C`x`D`E`E`I`E`y`E`o`x`x`C`V`V`V`r`d`N`H`N`7`u`u`g`i`L`T`k`8```8`8`8`8`8`8`8`8`8`8`8````",
"```8`8`Y`Y`3`8`3`Y`Y`8`8```8`8`3`Y`V`V`V`Y`3`8`8`8`8`k`8`8`8`8`8`8`8`8`8`8`B`L`J`B`t`t`n`x`H`q`a`q`I`A`F`b`T`8`L`T`p```8`8`8`8`8`8`8`8`8`8`8````",
"```8`Y`V`V`Y`3`Y`V`V`Y`8```8`8`8`3`Y`V`Y`3`8`8`8`8`T`t`J`B`L`8`J`B`p`t`T`8`w`w`B`L`t`L`B`t`A`q`f`v`y`u`K`b`t`w`w`B`s```8`8`8`8`8`8`8`8`8`8`8````",
"```8`V`V`V`V`V`V`V`V`V`8```8`8`8`8`3`Y`3`8`8`8`8`8`J`B`T`J`w`T`8`J`L`L`L`T`J`B`w`L`t`T`t`y`n`m`n`h`n`h`Q`e`.`b`t`b`B```8`8`8`8`8`8`8`8`8`8`8````",
"```8`Y`V`V`V`V`V`V`V`Y`8```8`8`8`8`8`3`8`8`8`8`8`8`p`t`g`b`e`B`8`k`.`i`T`T`L`B`w`L`w`J`w`t`8`8`8`8`8`T`F`8`8`B`8`w`8```8`8`8`8`8`8`8`8`8`8`8````",
"```8`3`V`V`V`V`V`V`V`3`8```8`8`8`8`8`8`8`8`8`8`8`t`B`t`T`e`T`B`8`B`p`B`8`T`J`t`L`w`J`t`T`w`M`8`8`T`F`s`F`i`J`J`t`L`8```8`8`8`8`8`8`8`8`8`8`8````",
"```8`8`Y`V`V`V`V`V`Y`8`8```8`8`8`8`8`8`8`8`8`8`8`t`p`t`8`8`T`8`8`8`8`8`8`T`B`B`B`J`B`L`B`B`B`8`8`T`A`K`p`Q`F`u`s`8`8```8`8`8`8`8`8`8`8`8`8`8````",
"```8`8`3`Y`V`V`V`Y`3`8`8```8`8`8`8`8`8`8`8`8`8`8`8`w`g`8`8`B`8`8`8`8`8`8`8`p`J`w`M`B`B`B`B`t`8`8`8`T`8`I`m`m`s`m`8`8```8`8`8`8`8`8`8`8`8`8`8````",
"```8`8`8`3`Y`V`Y`3`8`8`8```8`8`8`8`8`8`8`8`8`8`8`8`8`e`8`8`k`w`B`p`T`8`8`8`w`w`L`w`J`L`B`B`J`w`8`8`8`8`v`4`4`4`F`8`8```8`8`8`8`8`8`8`8`8`8`8````",
"```8`8`8`8`3`Y`3`8`8`8`8```8`8`8`8`8`8`8`8`8`8`8`t`p`t`T`T`T`w`t`T`B`8`8`8`p`J`t`L`B`t`L`L`B`t`8`8`8`8`m`d`m`a`u`J`8```8`8`8`8`8`8`8`8`8`8`8````",
"```8`8`8`8`8`3`8`8`8`8`8```8`8`8`8`8`8`8`8`8`8`J`B`t`k`B`8`B`B`T`T`L`8`8`w`w`B`L`w`B`L`B`w`T`J`B`8`8`L`m`s`s`u`m`y`8```8`8`8`8`8`8`8`8`8`8`8````",
"```8`8`8`8`8`8`8`8`8`8`8```8`8`8`8`8`8`8`8`8`L`J`p`t`k`i`8`8`8`8`8`8`8`T`t`t`t`w`B`L`w`L`L`B`L`B`8`8`q`m`6`m`A`2`m`M```8`8`8`8`8`8`8`8`8`8`8````",
"```8`8`8`8`8`8`8`8`8`8`8```8`8`8`8`8`8`8`B`k`T`J`t`t`B`p`w`8`8`8`8`T`T`w`t`T`t`B`t`B`L`t`L`w`T`t`8`T`s`2`m`F`K`F`F`y```8`8`8`8`8`8`8`8`8`8`8````",
"```8`8`8`8`8`8`8`8`8`8`8```8`8`8`8`8`w`g`8`8`8`w`J`w`B`g`t`B`t`8`t`B`w`B`B`w`B`w`k`t`p`i`t`k`g`t`B`N`F`d`f`K`2`#`a`K```8`8`8`8`8`8`8`8`8`8`8````",
"```8`8`8`8`8`8`8`8`8`8`8```8`8`8`t`w`L`B`8`8`8`w`w`t`t`p`p`d`#`h`8`p`w`8`t`q`t`b`p`p`t`t`w`w`T`8`q`z`p`d`q`l`z`y`d`n```8`8`8`8`8`8`8`8`8`8`8````",
"```8`8`8`8`8`8`8`8`8`8`8```8`O`s`2`k`T`p`t`8`L`8`B`t`c`d`#`r`V`c`f`M`T`8`#`0`F`i`8`L`8`8`T`T`8`p`c`2`f`#`#`q`a`q`#`f```8`8`8`8`8`8`8`8`8`8`8````",
"```8`8`8`8`8`8`8`8`8`8`8```H`u`4`m`c`p`8`8`8`T`B`8`L`p`C`V`V`V`V`C`c`c`#`2`u`s`t`t`J`8`8`p`L`t`F`V`#`2`l`x`x`x`x`r`G```8`8`8`8`8`8`8`8`8`8`8````",
"```8`8`8`8`8`8`8`8`8`8`8```Q`Q`d`c`q`#`t`B`8`T`e`8`8`t`C`V`X`V`X`V`V`C`4`u`K`d`J`p`B`8`T`b`J`g`K`K`V`#`4`c`c`#`#`#`f```8`8`8`8`8`8`8`8`8`8`8````",
"```8`8`8`8`8`8`8`8`8`8`8```u`d`q`d`a`s`F`B`L`8`8`L`T`J`p`V`V`V`V`V`C`4`s`F`F`q`B`T`8`8`J`T`t`n`#`4`G`V`#`2`c`V`C`C`R```8`8`8`8`8`8`8`8`8`8`8````",
"```8`8`8`8`8`8`8`8`8`8`8```a`d`a`m`F`4`2`h`t`B`T`8`L`B`t`r`V`R`V`C`4`m`K`A`0`q`B`8`B`T`8`B`e`f`C`d`4`V`C`a`2`x`F`z`F```8`8`8`8`8`8`8`8`8`8`8````",
"```8`8`8`8`8`8`8`8`8`8`8```f`c`u`A`4`A`c`C`p`J`t`8`8`k`t`y`V`V`C`4`s`F`Q`0`u`h`M`8`b`8`8`k`#`c`V`c`2`x`V`G`m`F`h`i`p```8`8`8`8`8`8`8`8`8`8`8````",
"```8`8`8`8`8`8`8`8`8`8`8```m`A`2`4`l`j`C`V`r`B`p`p`8`8`B`t`V`C`4`m`K`0`u`A`2`p`8`8`t`8`J`g`V`#`h`t`q`K`V`X`#`4`u`m`t```8`8`8`8`8`8`8`8`8`8`8````",
"```8`8`8`8`8`8`8`8`8`8`8```u`6`F`j`C`r`C`C`C`o`M`t`8`8`8`B`n`4`f`4`m`Q`F`2`l`p`8`8`T`8`J`m`C`j`d`x`c`2`V`X`a`m`4`m`v```8`8`8`8`8`8`8`8`8`8`8````",
"```8`8`8`8`8`8`8`8`8`8`8```2`c`j`C`m`C`C`C`G`C`p`B`8`J`8`T`t`m`F`0`K`s`2`m`c`p`L`8`8`L`i`A`z`C`a`C`j`2`r`X`d`F`a`4`s```8`8`8`8`8`8`8`8`8`8`8````",
"```8`8`8`8`8`8`8`8`8`8`8```#`C`C`r`x`4`m`C`r`C`c`g`p`i`t`B`t`F`Q`F`F`Q`z`#`V`w`B`T`T`w`t`K`m`C`#`y`p`K`C`X`f`F`.`n`4```8`8`8`8`8`8`8`8`8`8`8````",
"```8`8`8`8`8`8`8`8`8`8`8```C`C`x`r`r`4`Q`A`F`T`8`8`8`L`T`J`p`q`2`u`Q`s`#`V`V`t`.`8`t`t`I`F`f`V`#`h`h`K`x`V`m`u`J`A`v```8`8`8`8`8`8`8`8`8`8`8````",
"```8`8`8`8`8`8`8`8`8`8`8```C`C`r`Q`Q`K`F`K`B`8`8`8`8`B`T`T`L`g`z`Q`F`#`V`V`V`t`t`8`J`t`2`A`u`V`#`r`j`K`G`X`f`N`8`u`8```8`8`8`8`8`8`8`8`8`8`8````",
"```8`8`8`8`8`8`8`8`8`8`8```r`F`A`Q`0`K`K`K`B`8`8`8`8`J`J`B`B`g`K`S`#`V`V`V`V`t`8`8`8`B`A`u`a`C`#`j`r`Q`x`X`m`z`B`H`y```8`8`8`8`8`8`8`8`8`8`8````",
"```8`8`8`8`8`8`8`8`8`8`8```F`4`4`2`m`4`2`K`N`8`8`8`8`8`B`J`t`B`h`k`#`#`#`#`g`h`8`L`8`w`u`K`r`r`f`n`a`4`C`Y`l`s`u`8`Q```8`8`8`8`8`8`8`8`8`8`8````",
"```8`8`8`8`8`8`8`8`8`8`8```A`0`K`0`A`Q`S`C`f`A`p`p`p`B`t`8`B`L`B`4`4`4`4`4`4`4`B`T`T`B`s`s`R`#`d`d`f`S`V`Y`m`m`8`u`I```8`8`8`8`8`8`8`8`8`8`8````",
"```8`8`8`8`8`8`8`8`8`8`8```y`s`t`m`K`y`m`Y`V`0`C`c`p`y`M`T`8`B`q`K`F`A`F`A`F`K`q`8`B`8`C`#`q`y`t`Q`z`V`Y`f`A`m`i`J`Q```8`8`8`8`8`8`8`8`8`8`8````",
"```8`8`8`8`8`8`8`8`8`8`8```Q`J`i`m`K`f`X`X`z`Q`r`j`C`n`L`8`8`8`v`2`K`F`K`A`K`2`q`J`8`B`q`r`C`n`m`2`V`Y`m`v`K`m`t`u`v```8`8`8`8`8`8`8`8`8`8`8````",
"```8`8`8`8`8`8`8`8`8`8`8```I`A`8`m`l`Y`V`F`f`d`a`c`R`s`m`B`T`T`B`4`4`4`4`4`4`4`B`L`B`8`t`B`p`p`t`u`f`r`S`Q`A`0`K`K`K```8`8`8`8`8`8`8`8`8`8`8````",
"```8`8`8`8`8`8`8`8`8`8`8```Q`8`u`z`m`Y`C`4`a`n`f`r`r`A`F`B`8`L`8`k`h`#`#`#`#`k`k`B`t`J`J`T`8`8`8`8`N`K`2`4`s`2`4`4`F```8`8`8`8`8`8`8`8`8`8`8````",
"```8`8`8`8`8`8`8`8`8`8`8```y`H`B`s`m`X`C`Q`r`j`#`C`c`A`F`B`8`8`8`t`V`V`V`G`#`F`K`g`B`B`J`L`8`8`8`8`B`K`K`K`K`Q`F`F`r```8`8`8`8`8`8`8`8`8`8`8````",
"```8`8`8`8`8`8`8`8`8`8`8```8`u`8`N`f`X`G`K`j`r`#`V`u`A`Q`B`B`8`t`t`V`V`V`#`F`Q`u`g`O`T`T`B`8`8`8`8`J`F`K`F`2`Q`r`C`C```8`8`8`8`8`8`8`8`8`8`8````",
"```8`8`8`8`8`8`8`8`8`8`8```v`A`J`u`d`V`G`K`h`h`#`V`d`A`N`t`p`8`.`t`V`V`#`z`Q`z`Q`q`p`J`T`L`8`8`8`T`A`A`Q`4`x`r`C`C`C```8`8`8`8`8`8`8`8`8`8`8````",
"```8`8`8`8`8`8`8`8`8`8`8```4`q`.`F`f`X`C`K`t`y`#`C`m`K`t`w`T`T`B`B`V`c`m`Q`u`K`0`u`t`B`t`k`p`g`c`C`r`C`z`2`l`C`r`C`a```8`8`8`8`8`8`8`8`8`8`8````",
"```8`8`8`8`8`8`8`8`8`8`8```s`4`.`F`f`X`C`2`c`C`#`C`z`A`k`L`8`8`L`t`#`l`2`u`K`Q`F`s`t`T`8`J`8`B`t`C`C`C`C`r`z`C`j`c`4```8`8`8`8`8`8`8`8`8`8`8````",
"```8`8`8`8`8`8`8`8`8`8`8```p`m`4`s`#`Y`C`2`c`C`d`j`C`m`L`8`T`8`8`i`l`4`F`Q`m`4`l`4`n`B`8`8`8`t`L`o`C`C`C`x`C`c`F`4`u```8`8`8`8`8`8`8`8`8`8`8````",
"```8`8`8`8`8`8`8`8`8`8`8```t`q`z`4`#`X`V`S`s`t`h`a`V`f`J`8`t`8`8`p`2`F`u`0`K`m`4`C`C`t`B`8`8`p`p`B`r`R`C`j`l`4`2`A`m```8`8`8`8`8`8`8`8`8`8`8````",
"```8`8`8`8`8`8`8`8`8`8`8```k`i`h`K`f`G`V`G`2`d`C`c`#`i`8`8`b`8`T`g`F`K`Q`F`m`4`C`V`V`E`t`k`8`8`t`J`p`C`c`F`4`A`u`c`f```8`8`8`8`8`8`8`8`8`8`8````",
"```8`8`8`8`8`8`8`8`8`8`8```F`F`F`x`2`a`V`C`4`d`V`f`d`B`8`T`B`8`B`v`K`K`K`m`4`C`V`V`V`C`t`B`L`8`T`J`t`h`2`4`A`m`#`f`a```8`8`8`8`8`8`8`8`8`8`8````",
"```8`8`8`8`8`8`8`8`8`8`8```R`C`C`V`#`2`a`V`G`4`#`h`t`T`J`8`8`L`B`q`F`A`s`4`C`V`V`R`V`V`p`L`L`T`8`8`L`B`F`s`c`d`q`a`A```8`8`8`8`8`8`8`8`8`8`8````",
"```8`8`8`8`8`8`8`8`8`8`8```f`#`#`#`c`c`4`#`V`K`K`g`B`b`T`8`B`t`B`f`K`u`4`C`V`V`X`V`V`V`x`t`8`8`e`T`8`B`t`#`n`d`d`Q`0```8`8`8`8`8`8`8`8`8`8`8````",
"```8`8`8`8`8`8`8`8`8`8`8```G`r`x`G`G`C`l`2`#`V`F`t`L`p`8`8`J`t`t`s`u`2`#`c`c`C`V`V`X`V`V`i`L`8`B`T`8`8`8`p`#`m`4`u`y```8`8`8`8`8`8`8`8`8`8`8````",
"```8`8`8`8`8`8`8`8`8`8`8```f`#`n`a`p`#`#`f`2`c`k`8`T`T`8`8`L`8`i`F`2`#`8`L`T`h`j`V`r`#`a`d`t`B`8`L`8`t`p`L`p`2`m`U`8```8`8`8`8`8`8`8`8`8`8`8````",
"```8`8`8`8`8`8`8`8`8`8`8```n`f`t`m`m`h`f`q`m`q`8`T`w`B`t`t`p`i`b`v`s`v`8`w`t`8`h`#`a`p`t`t`t`w`w`8`8`8`B`L`w`v`8`8`8```8`8`8`8`8`8`8`8`8`8`8````",
"```8`8`8`8`8`8`8`8`8`8`8```A`c`a`0`K`f`d`z`2`B`t`i`i`t`i`p`t`p`w`B`w`w`B`t`w`t`8`t`B`w`g`B`t`L`t`8`8`8`g`w`8`8`8`8`8```8`8`8`8`8`8`8`8`8`8`8````",
"```8`8`8`8`8`8`8`8`8`8`8```y`F`F`K`K`m`2`s`T`8`t`L`w`L`w`L`B`t`B`t`T`t`w`T`T`8`8`8`8`t`p`B`t`t`J`T`k`B`8`8`8`8`8`8`8```8`8`8`8`8`8`8`8`8`8`8````",
"```8`8`8`8`8`8`8`8`8`8`8```8`f`2`F`m`4`m`q`8`8`B`T`B`L`J`w`L`B`w`t`t`t`T`8`8`8`8`8`8`8`i`k`t`p`B`L`8`8`8`8`8`8`8`8`8```8`8`8`8`8`8`8`8`8`8`8````",
"```8`8`8`8`8`8`8`8`8`8`8```8`y`s`u`s`s`m`T`8`8`B`J`T`w`J`L`B`w`J`B`w`w`8`8`L`T`T`B`B`8`B`k`t`B`J`8`8`8`8`8`8`8`8`8`8```8`8`8`8`8`3`8`8`8`8`8````",
"```8`8`8`8`8`8`8`8`8`8`8```8`L`s`a`m`d`m`8`8`8`8`t`B`L`L`t`J`J`t`J`p`8`8`8`w`T`t`w`T`T`T`t`p`t`8`8`8`8`8`8`8`8`8`8`8```8`8`8`8`3`Y`3`8`8`8`8````",
"```8`8`8`8`8`8`8`8`8`8`8```8`8`F`4`4`4`v`8`8`8`8`B`B`B`w`L`B`B`L`t`w`8`8`8`8`p`B`B`k`8`8`g`8`8`8`8`8`8`8`8`8`8`8`8`8```8`8`8`3`Y`V`Y`3`8`8`8````",
"```8`8`8`8`8`8`8`8`8`8`8```8`8`m`s`m`m`B`8`T`8`8`8`t`w`J`B`B`L`w`L`p`8`8`8`8`8`8`8`B`8`8`g`w`8`8`8`8`8`8`8`8`8`8`8`8```8`8`3`Y`V`V`V`Y`3`8`8````",
"```8`8`8`8`8`8`8`8`8`8`8```8`8`s`u`F`0`p`K`F`T`8`8`B`J`B`L`B`J`L`w`B`T`8`8`8`8`8`8`L`8`8`p`t`t`8`8`8`8`8`8`8`8`8`8`8```8`8`Y`V`V`V`V`V`Y`8`8````",
"```8`8`8`8`8`8`8`8`8`8`8```8`L`t`B`O`p`u`s`F`T`8`8`M`w`T`t`J`w`L`t`J`T`8`B`p`B`8`B`T`g`T`t`B`t`8`8`8`8`8`8`8`8`8`8`8```8`3`V`V`V`V`V`V`V`3`8````",
"```8`8`8`8`8`8`8`8`8`8`8```8`w`8`B`8`8`F`T`8`8`8`8`8`t`w`L`w`L`w`B`L`L`T`p`.`k`8`B`e`b`e`t`t`8`8`8`8`8`8`3`8`8`8`8`8```8`Y`V`V`V`V`V`V`V`Y`8````",
"```8`8`8`8`8`8`8`8`8`8`8```B`b`t`e`.`b`Q`f`n`n`q`m`n`w`t`T`t`L`B`w`J`T`T`L`L`B`8`T`t`J`T`B`I`8`8`8`8`8`3`Y`3`8`8`8`8```8`V`V`V`V`V`V`V`V`V`8````",
"```8`8`8`8`8`8`8`8`8`8`8```s`B`w`B`p`b`Q`q`y`u`f`q`A`y`B`J`t`J`I`B`B`8`T`t`p`B`J`8`T`B`L`t`T`8`8`8`8`3`Y`V`Y`3`8`8`8```8`Y`V`V`Y`3`Y`V`V`Y`8````",
"```8`8`8`8`8`8`8`8`8`8`8```v`T`L`8`T`b`F`K`H`p`a`q`y`x`k`t`t`B`L`B`t`8`8`8`8`8`8`8`8`8`8`g`8`8`8`8`3`Y`V`V`V`Y`3`8`8```8`8`Y`Y`3`8`3`Y`Y`8`8````",
"```8`8`8`8`8`8`8`8`8`8`8```8`g`T`J`i`g`u`u`7`N`H`N`f`r`V`V`V`C`r`D`o`I`E`I`v`I`E`E`x`C`C`I`8`8`8`8`Y`V`V`V`V`V`Y`8`8```8`8`8`8`8`8`8`8`8`8`8````",
"```8`8`8`8`8`8`8`8`8`8`8```8`M`p`w`e`8`v`A`T`L`T`L`j`j`c`c`#`c`r`r`r`C`C`r`C`C`r`j`j`c`c`l`8`8`8`3`V`V`V`V`V`V`V`3`8```8`8`8`8`8`8`8`8`8`8`8````",
"```8`8`8`8`8`8`8`8`8`8`8```8`8`8`8`8`e`u`H`8`8`8`o`C`r`m`x`o`l`o`r`j`j`c`c`j`j`c`r`l`l`r`r`8`8`8`Y`V`V`V`V`V`V`V`Y`8```8`V`V`V`V`8`V`V`V`V`8````",
"```8`8`8`8`8`8`8`8`8`8`8```8`8`8`8`8`u`4`u`8`8`L`C`C`4`m`s`u`u`2`z`C`V`R`C`K`u`K`m`A`K`K`C`m`8`8`V`V`V`V`V`V`V`V`V`8```8`V`V`V`V`8`V`V`V`V`8````",
"```8`8`8`8`8`8`8`8`8`8`8```8`8`8`8`8`T`y`8`8`8`j`C`F`4`A`4`2`2`K`u`V`C`C`C`6`u`u`2`K`F`6`x`r`T`8`Y`V`V`Y`3`Y`V`V`Y`8```8`8`Z`Y`8`8`8`V`V`8`8````",
"```8`8`8`8`8`8`8`8`8`8`8```8`8`8`8`8`8`8`8`8`B`C`2`4`4`K`0`4`s`4`K`x`C`C`Q`4`Q`K`6`u`2`4`K`r`j`8`8`Y`Y`3`8`3`Y`Y`8`8```8`8`Z`V`Y`8`8`V`V`8`8````",
"```8`8`8`8`8`8`8`8`8`8`8```8`8`8`8`8`8`8`8`8`m`6`4`2`4`4`K`s`4`4`4`6`z`Q`4`4`4`2`s`4`4`4`4`4`u`v`8`8`8`8`8`8`8`8`8`8```8`8`8`Z`V`Y`8`V`V`8`8````",
"```8`8`8`8`8`8`8`8`8`8`8```````````````````````````````````````````````````````````````````````````````````````````````8`8`8`8`Z`V`Y`V`V`8`8````",
"```8`8`8`8`8`8`8`8`8`8`8`8`8`8`8`8`8`8`8`8`8`8`8`8`8`8`8`8`8`8`8`8`8`8`8`8`8`8`8`8`8`8`8`8`8`8`8`8`8`8`8`8`8`8`8`8`8`8`8`8`8`8`8`Z`V`V`V`8`8````",
"```8`8`8`8`8`8`8`8`8`8`8`8`8`8`8`8`8`8`8`8`8`8`8`8`8`8`8`8`8`8`8`8`8`8`8`8`8`8`8`8`8`8`8`8`8`8`8`8`8`8`8`8`8`8`8`8`8`8`8`8`8`8`Z`V`Y`V`V`8`8````",
"```8`8`8`8`8`8`8`8`8`8`8`8`8`8`8`8`8`8`8`8`8`8`8`8`8`8`8`8`8`8`8`8`8`8`8`8`8`8`8`8`8`8`8`8`8`8`8`8`8`8`8`8`8`8`8`8`8`8`8`8`8`Z`V`Y`8`V`V`8`8````",
"```8`8`8`8`8`8`8`8`8`8`8`8`8`8`8`8`8`8`8`8`8`8`8`8`8`8`8`8`8`8`8`8`8`8`8`8`8`8`8`8`8`8`8`8`8`8`8`8`8`8`8`8`8`8`8`8`8`8`8`8`Z`V`Z`8`8`V`V`8`8````",
"```8`8`8`8`8`8`8`8`8`8`8`8`8`8`8`8`8`8`8`8`8`8`8`8`8`8`8`8`8`8`8`8`8`8`8`8`8`8`8`8`8`8`8`8`8`8`8`8`8`8`8`8`8`8`8`8`8`8`8`V`V`V`V`8`V`V`V`V`8````",
"```8`8`8`8`8`8`8`8`8`8`8`8`8`8`8`8`8`8`8`8`8`8`8`8`8`8`8`8`8`8`8`8`8`8`8`8`8`8`8`8`8`8`8`8`8`8`8`8`8`8`8`8`8`8`8`8`8`8`8`V`V`V`V`8`V`V`V`V`8````",
"```8`8`8`8`8`8`8`8`8`8`8`8`8`8`8`8`8`8`8`8`8`8`8`8`8`8`8`8`8`8`8`8`8`8`8`8`8`8`8`8`8`8`8`8`8`8`8`8`8`8`8`8`8`8`8`8`8`8`8`8`8`8`8`8`8`8`8`8`8````",
"```8`8`8`8`8`8`8`8`8`8`8`8`8`8`8`8`8`8`8`8`8`8`8`8`8`8`8`8`8`8`8`8`8`8`8`8`8`8`8`8`8`8`8`8`8`8`8`8`8`8`8`8`8`8`8`8`8`8`8`8`8`8`8`8`8`8`8`8`8````",
"```y`8`8`8`8`8`8`8`8`8`8`8`8`8`8`8`8`8`8`8`8`8`8`8`8`8`8`8`8`8`8`8`8`8`8`8`8`8`8`8`8`8`8`8`8`8`8`8`8`8`8`8`8`8`8`8`8`8`8`8`8`8`8`8`8`8`8`8`y```q",
"`q```````````````````````````````````````````````````````````````````````````````````````````````````````````````````````````````````````````q``"
};
