/* XPM */
static char *face_15_xpm[] = {
/* width height num_colors chars_per_pixel */
"    72    96       16            1",
/* colors */
"` c #ffffff",
". c #000000",
"# c #ff0008",
"a c #ff737b",
"b c #ff4a4a",
"c c #ffbdbd",
"d c #ff9c9c",
"e c #73735a",
"f c #9c9473",
"g c #001084",
"h c #081018",
"i c #102129",
"j c #10298c",
"k c #291018",
"l c #293131",
"m c #293184",
/* pixels */
"e.....................................................................e.",
".f```````````````````````````````````````````````````````````````````f..",
".`````````````````````````````````````````````````````````````````````..",
".`````````````````````````````````````````````````````````````````````..",
".```#######```````````````````````````````````````````````````````````..",
".```#######```````````````````````````````````````````````````````````..",
".```##``a#a```````````````````````````````````````````````````````````..",
".``````a#a````````````````````````````````````````````````````````````..",
".`````a#a`````````````````````````````````````````````````````````````..",
".````a###a`````````````````````````a``````````````````````````````````..",
".````#####a```````````````````````aba`````````````````````````````````..",
".````````##``````````````````````cb#bc````````````````````````````````..",
".````````##``````````````````````b###b````````````````````````````````..",
".```##```##`````````````````````b#####b```````````````````````````````..",
".```a#####a````````````````````a#######a``````````````````````````````..",
".````a###a````````````````````c#########c`````````````````````````````..",
".`````````````````````````````b#########b`````````````````````````````..",
".`````````````````````````````b#########b`````````````````````````````..",
".``````c``````````````````````c#########c`````````````````````````````..",
".``````#```````````````````````a#######a``````````````````````````````..",
".`````a#a```````````````````````b#####b```````````````````````````````..",
".````d###d```````````````````````b###b````````````````````````````````..",
".```c#####c``````````````````````cb#bc````````````````````````````````..",
".```#######```````````````````````aba`````````````````````````````````..",
".```c#####c````````````````````````a``````````````````````````````````..",
".````d###d````````````````````````````````````````````````````````````..",
".`````a#a`````````````````````````````````````````````````````````````..",
".``````#``````````````````````````````````````````````````````````````..",
".``````c``````````````````````````````````````````````````````````````..",
".`````````````````````````````````````````````````````````````````````..",
".`````````````````````````````````````````````````````````````````````..",
".`````````````````````````````````````````````````````````````````````..",
".`````````````````````````````````````````````````````````````````````..",
".`````````````````````````````````````````````````````````````````````..",
".`````````````````````````````````````````````````````````````````````..",
".`````````````````````````````````````````````````````````````````````..",
".`````````````````````````````````````````````````````````````````````..",
".`````````````````````````````````````````````````````````````````````..",
".`````````````````````````````````````````````````````````````````````..",
".`````````````````````````````````````````````````````````````````````..",
".``````````````````````````````````a``````````````````````````````````..",
".`````````````````````````````````aba`````````````````````````````````..",
".````````````````````````````````cb#bc````````````````````````````````..",
".````````````````````````````````b###b````````````````````````````````..",
".```````````````````````````````b#####b```````````````````````````````..",
".``````````````````````````````a#######a``````````````````````````````..",
".`````````````````````````````c#########c`````````````````````````````..",
".`````````````````````````````b#########b`````````````````````````````..",
".`````````````````````````````b#########b`````````````````````````````..",
".`````````````````````````````c#########c`````````````````````````````..",
".``````````````````````````````a#######a``````````````````````````````..",
".```````````````````````````````b#####b```````````````````````````````..",
".````````````````````````````````b###b````````````````````````````````..",
".````````````````````````````````cb#bc````````````````````````````````..",
".`````````````````````````````````aba`````````````````````````````````..",
".``````````````````````````````````a``````````````````````````````````..",
".`````````````````````````````````````````````````````````````````````..",
".`````````````````````````````````````````````````````````````````````..",
".`````````````````````````````````````````````````````````````````````..",
".`````````````````````````````````````````````````````````````````````..",
".`````````````````````````````````````````````````````````````````````..",
".`````````````````````````````````````````````````````````````````````..",
".`````````````````````````````````````````````````````````````````````..",
".`````````````````````````````````````````````````````````````````````..",
".`````````````````````````````````````````````````````````````````````..",
".`````````````````````````````````````````````````````````````````````..",
".`````````````````````````````````````````````````````````````````````..",
".``````````````````````````````````````````````````````````````c``````..",
".``````````````````````````````````````````````````````````````#``````..",
".`````````````````````````````````````````````````````````````a#a`````..",
".````````````````````````````````````````````````````````````d###d````..",
".``````````````````````````````````a````````````````````````c#####c```..",
".`````````````````````````````````aba```````````````````````#######```..",
".````````````````````````````````cb#bc``````````````````````c#####c```..",
".````````````````````````````````b###b```````````````````````d###d````..",
".```````````````````````````````b#####b```````````````````````a#a`````..",
".``````````````````````````````a#######a```````````````````````#``````..",
".`````````````````````````````c#########c``````````````````````c``````..",
".`````````````````````````````b#########b`````````````````````````````..",
".`````````````````````````````b#########b`````````````````````````````..",
".`````````````````````````````c#########c````````````````````a###a````..",
".``````````````````````````````a#######a````````````````````a#####a```..",
".```````````````````````````````b#####b`````````````````````##```##```..",
".````````````````````````````````b###b``````````````````````##````````..",
".````````````````````````````````cb#bc``````````````````````##````````..",
".`````````````````````````````````aba```````````````````````a#####````..",
".``````````````````````````````````a`````````````````````````a###a````..",
".`````````````````````````````````````````````````````````````a#a`````..",
".````````````````````````````````````````````````````````````a#a``````..",
".```````````````````````````````````````````````````````````a#a``##```..",
".```````````````````````````````````````````````````````````#######```..",
".```````````````````````````````````````````````````````````#######```..",
".`````````````````````````````````````````````````````````````````````..",
".`````````````````````````````````````````````````````````````````````..",
".f```````````````````````````````````````````````````````````````````f.e",
"e.....................................................................e."
};
