/* XPM */
static char *face_43_xpm[] = {
/* width height num_colors chars_per_pixel */
"    72    96       16            1",
/* colors */
"` c #ffffff",
". c #000000",
"# c #73735a",
"a c #ceceb5",
"b c #293131",
"c c #081018",
"d c #947b84",
"e c #102129",
"f c #291018",
"g c #5a5252",
"h c #bdbdce",
"i c #e7e7f7",
"j c #9c9473",
"k c #001084",
"l c #10298c",
"m c #293184",
/* pixels */
"#.....................................................................#.",
".j```````````````````````````````````````````````````````````````````j..",
".`````````````````````````````````````````````````````````````````````..",
".`````````````````````````````````````````````````````````````````````..",
".```.......```````````````````````````````````````````````````````````..",
".```.......```````````````````````````````````````````````````````````..",
".```..````````````````````````````````````````````````````````````````..",
".```..````````````````````````````````````````````````````````````````..",
".```.....#````````````````````````````````````````````````````````````..",
".```......#```````````````````````````````````````````````````````````..",
".````````..```````````a`````````````````````````a`````````````````````..",
".````````..``````````#c#```````````````````````#c#````````````````````..",
".```..```..`````````#...#`````````````````````#...#```````````````````..",
".```..```..````````#.....#```````````````````#.....#``````````````````..",
".```#.....#```````#.......#`````````````````#.......#`````````````````..",
".````#...#```````#.........#```````````````#.........#````````````````..",
".```````````````#c.........c#`````````````#c.........c#```````````````..",
".``````````````ab...........ba```````````ab...........ba``````````````..",
".``````d```````#c...........c#```````````#c...........c#``````````````..",
".`````d.d``````#.............#```````````#.............#``````````````..",
".````d...d`````#.............#```````````#.............#``````````````..",
".```d.....d````ab....b.b....ba```````````ab....b.b....ba``````````````..",
".``d.......d````agef#i.i#fega`````````````agef#i.i#fega```````````````..",
".``.........`````````#.#```````````````````````#.#````````````````````..",
".``.........````````h...h`````````````````````h...h```````````````````..",
".``#.......#``````````````````````````````````````````````````````````..",
".```##`.`##```````````````````````````````````````````````````````````..",
".`````a.a`````````````````````````````````````````````````````````````..",
".`````...`````````````````````````````````````````````````````````````..",
".`````````````````````````````````````````````````````````````````````..",
".`````````````````````````````````````````````````````````````````````..",
".`````````````````````````````````````````````````````````````````````..",
".`````````````````````````````````````````````````````````````````````..",
".`````````````````````````````````````````````````````````````````````..",
".`````````````````````````````````````````````````````````````````````..",
".`````````````````````````````````````````````````````````````````````..",
".`````````````````````````````````````````````````````````````````````..",
".`````````````````````````````````````````````````````````````````````..",
".`````````````````````````````````````````````````````````````````````..",
".`````````````````````````````````````````````````````````````````````..",
".``````````````````````````````````a``````````````````````````````````..",
".`````````````````````````````````#c#`````````````````````````````````..",
".````````````````````````````````#...#````````````````````````````````..",
".```````````````````````````````#.....#```````````````````````````````..",
".``````````````````````````````#.......#``````````````````````````````..",
".`````````````````````````````#.........#`````````````````````````````..",
".````````````````````````````#c.........c#````````````````````````````..",
".```````````````````````````ab...........ba```````````````````````````..",
".```````````````````````````#c...........c#```````````````````````````..",
".```````````````````````````#.............#```````````````````````````..",
".```````````````````````````#.............#```````````````````````````..",
".```````````````````````````ab....b.b....ba```````````````````````````..",
".````````````````````````````agef#i.i#fega````````````````````````````..",
".`````````````````````````````````#.#`````````````````````````````````..",
".````````````````````````````````h...h````````````````````````````````..",
".`````````````````````````````````````````````````````````````````````..",
".`````````````````````````````````````````````````````````````````````..",
".`````````````````````````````````````````````````````````````````````..",
".`````````````````````````````````````````````````````````````````````..",
".`````````````````````````````````````````````````````````````````````..",
".`````````````````````````````````````````````````````````````````````..",
".`````````````````````````````````````````````````````````````````````..",
".`````````````````````````````````````````````````````````````````````..",
".`````````````````````````````````````````````````````````````````````..",
".`````````````````````````````````````````````````````````````````````..",
".`````````````````````````````````````````````````````````````````````..",
".`````````````````````````````````````````````````````````````````````..",
".`````````````````````````````````````````````````````````````...`````..",
".`````````````````````````````````````````````````````````````a.a`````..",
".```````````````````````````````````````````````````````````##`.`##```..",
".``````````````````````````````````````````````````````````#.......#``..",
".```````````````````h...h`````````````````````h...h````````.........``..",
".````````````````````#.#```````````````````````#.#`````````.........``..",
".```````````````agef#i.i#fega`````````````agef#i.i#fega````d.......d``..",
".``````````````ab....b.b....ba```````````ab....b.b....ba````d.....d```..",
".``````````````#.............#```````````#.............#`````d...d````..",
".``````````````#.............#```````````#.............#``````d.d`````..",
".``````````````#c...........c#```````````#c...........c#```````d``````..",
".``````````````ab...........ba```````````ab...........ba``````````````..",
".```````````````#c.........c#`````````````#c.........c#```````````````..",
".````````````````#.........#```````````````#.........#```````#...#````..",
".`````````````````#.......#`````````````````#.......#```````#.....#```..",
".``````````````````#.....#```````````````````#.....#````````..```..```..",
".```````````````````#...#`````````````````````#...#`````````..```..```..",
".````````````````````#c#```````````````````````#c#``````````..````````..",
".`````````````````````a`````````````````````````a```````````..````````..",
".```````````````````````````````````````````````````````````#......```..",
".````````````````````````````````````````````````````````````#.....```..",
".````````````````````````````````````````````````````````````````..```..",
".````````````````````````````````````````````````````````````````..```..",
".```````````````````````````````````````````````````````````.......```..",
".```````````````````````````````````````````````````````````.......```..",
".`````````````````````````````````````````````````````````````````````..",
".`````````````````````````````````````````````````````````````````````..",
".j```````````````````````````````````````````````````````````````````j.#",
"#.....................................................................#."
};
