/* XPM */
static char *face_36_xpm[] = {
/* width height num_colors chars_per_pixel */
"    72    96      256            2",
/* colors */
"`` c #000000",
"`. c #001084",
"`# c #081018",
"`a c #102129",
"`b c #10298c",
"`c c #291018",
"`d c #293131",
"`e c #293184",
"`f c #394239",
"`g c #394aa5",
"`h c #425a52",
"`i c #4263bd",
"`j c #521021",
"`k c #525a9c",
"`l c #5a2929",
"`m c #5a5221",
"`n c #5a5252",
"`o c #633173",
"`p c #637bad",
"`q c #73735a",
"`r c #7b1018",
"`s c #7b7329",
"`t c #7b94c6",
"`u c #947b21",
"`v c #947b84",
"`w c #949cbd",
"`x c #9c2929",
"`y c #9c9473",
"`z c #a55221",
"`A c #a59429",
"`B c #a5b5de",
"`C c #ad1018",
"`D c #ad5263",
"`E c #b57384",
"`F c #b57b21",
"`G c #bd3129",
"`H c #bd9c5a",
"`I c #bd9ca5",
"`J c #bdbdce",
"`K c #c69c21",
"`L c #c6def7",
"`M c #c6f7ff",
"`N c #ceb563",
"`O c #ceceb5",
"`P c #de524a",
"`Q c #deb521",
"`R c #e72929",
"`S c #e77b21",
"`T c #e7e7f7",
"`U c #f7dea5",
"`V c #ff0008",
"`W c #ff00ff",
"`X c #ff3131",
"`Y c #ff4a4a",
"`Z c #ff737b",
"`0 c #ff9c31",
"`1 c #ff9c9c",
"`2 c #ffbd21",
"`3 c #ffbdbd",
"`4 c #ffde18",
"`5 c #ffde63",
"`6 c #ffff29",
"`7 c #ffffa5",
"`8 c #ffffff",
".` c #ffffff",
".. c #ffffff",
".# c #ffffff",
".a c #ffffff",
".b c #ffffff",
".c c #ffffff",
".d c #ffffff",
".e c #ffffff",
".f c #ffffff",
".g c #ffffff",
".h c #ffffff",
".i c #ffffff",
".j c #ffffff",
".k c #ffffff",
".l c #ffffff",
".m c #ffffff",
".n c #ffffff",
".o c #ffffff",
".p c #ffffff",
".q c #ffffff",
".r c #ffffff",
".s c #ffffff",
".t c #ffffff",
".u c #ffffff",
".v c #ffffff",
".w c #ffffff",
".x c #ffffff",
".y c #ffffff",
".z c #ffffff",
".A c #ffffff",
".B c #ffffff",
".C c #ffffff",
".D c #ffffff",
".E c #ffffff",
".F c #ffffff",
".G c #ffffff",
".H c #ffffff",
".I c #ffffff",
".J c #ffffff",
".K c #ffffff",
".L c #ffffff",
".M c #ffffff",
".N c #ffffff",
".O c #ffffff",
".P c #ffffff",
".Q c #ffffff",
".R c #ffffff",
".S c #ffffff",
".T c #ffffff",
".U c #ffffff",
".V c #ffffff",
".W c #ffffff",
".X c #ffffff",
".Y c #ffffff",
".Z c #ffffff",
".0 c #ffffff",
".1 c #ffffff",
".2 c #ffffff",
".3 c #ffffff",
".4 c #ffffff",
".5 c #ffffff",
".6 c #ffffff",
".7 c #ffffff",
".8 c #ffffff",
"#` c #ffffff",
"#. c #ffffff",
"## c #ffffff",
"#a c #ffffff",
"#b c #ffffff",
"#c c #ffffff",
"#d c #ffffff",
"#e c #ffffff",
"#f c #ffffff",
"#g c #ffffff",
"#h c #ffffff",
"#i c #ffffff",
"#j c #ffffff",
"#k c #ffffff",
"#l c #ffffff",
"#m c #ffffff",
"#n c #ffffff",
"#o c #ffffff",
"#p c #ffffff",
"#q c #ffffff",
"#r c #ffffff",
"#s c #ffffff",
"#t c #ffffff",
"#u c #ffffff",
"#v c #ffffff",
"#w c #ffffff",
"#x c #ffffff",
"#y c #ffffff",
"#z c #ffffff",
"#A c #ffffff",
"#B c #ffffff",
"#C c #ffffff",
"#D c #ffffff",
"#E c #ffffff",
"#F c #ffffff",
"#G c #ffffff",
"#H c #ffffff",
"#I c #ffffff",
"#J c #ffffff",
"#K c #ffffff",
"#L c #ffffff",
"#M c #ffffff",
"#N c #ffffff",
"#O c #ffffff",
"#P c #ffffff",
"#Q c #ffffff",
"#R c #ffffff",
"#S c #ffffff",
"#T c #ffffff",
"#U c #ffffff",
"#V c #ffffff",
"#W c #ffffff",
"#X c #ffffff",
"#Y c #ffffff",
"#Z c #ffffff",
"#0 c #ffffff",
"#1 c #ffffff",
"#2 c #ffffff",
"#3 c #ffffff",
"#4 c #ffffff",
"#5 c #ffffff",
"#6 c #ffffff",
"#7 c #ffffff",
"#8 c #ffffff",
"a` c #ffffff",
"a. c #ffffff",
"a# c #ffffff",
"aa c #ffffff",
"ab c #ffffff",
"ac c #ffffff",
"ad c #ffffff",
"ae c #ffffff",
"af c #ffffff",
"ag c #ffffff",
"ah c #ffffff",
"ai c #ffffff",
"aj c #ffffff",
"ak c #ffffff",
"al c #ffffff",
"am c #ffffff",
"an c #ffffff",
"ao c #ffffff",
"ap c #ffffff",
"aq c #ffffff",
"ar c #ffffff",
"as c #ffffff",
"at c #ffffff",
"au c #ffffff",
"av c #ffffff",
"aw c #ffffff",
"ax c #ffffff",
"ay c #ffffff",
"az c #ffffff",
"aA c #ffffff",
"aB c #ffffff",
"aC c #ffffff",
"aD c #ffffff",
"aE c #ffffff",
"aF c #ffffff",
"aG c #ffffff",
"aH c #ffffff",
"aI c #ffffff",
"aJ c #ffffff",
"aK c #ffffff",
"aL c #ffffff",
"aM c #ffffff",
"aN c #ffffff",
"aO c #ffffff",
"aP c #ffffff",
"aQ c #ffffff",
"aR c #ffffff",
"aS c #ffffff",
"aT c #ffffff",
"aU c #ffffff",
"aV c #ffffff",
"aW c #ffffff",
"aX c #ffffff",
"aY c #ffffff",
"aZ c #ffffff",
"a0 c #ffffff",
"a1 c #ffffff",
"a2 c #ffffff",
"a3 c #ffffff",
"a4 c #ffffff",
"a5 c #ffffff",
"a6 c #ffffff",
"a7 c #ffffff",
"a8 c #ffffff",
/* pixels */
"`q```````````````````````````````````````````````````````````````````````````````````````````````````````````````````````````````````````````q``",
"```y`8`8`8`8`8`8`8`8`8`8`8`8`8`8`8`8`8`8`8`8`8`8`8`8`8`8`8`8`8`8`8`8`8`8`8`8`8`8`8`8`8`8`8`8`8`8`8`8`8`8`8`8`8`8`8`8`8`8`8`8`8`8`8`8`8`8`8`y````",
"```8`8`8`8`8`8`8`8`8`8`8`8`8`8`8`8`8`8`8`8`8`8`8`8`8`8`8`8`8`8`8`8`8`8`8`8`8`8`8`8`8`8`8`8`8`8`8`8`8`8`8`8`8`8`8`8`8`8`8`8`8`8`8`8`8`8`8`8`8````",
"```8`8`8`8`8`8`8`8`8`8`8`8`8`8`8`8`8`8`8`8`8`8`8`8`8`8`8`8`8`8`8`8`8`8`8`8`8`8`8`8`8`8`8`8`8`8`8`8`8`8`8`8`8`8`8`8`8`8`8`8`8`8`8`8`8`8`8`8`8````",
"```8`8`8`8`8`V`V`V`V`8`8`8`8`8`8`8`8`8`8`8`8`8`8`8`8`8`8`8`8`8`8`8`8`8`8`8`8`8`8`8`8`8`8`8`8`8`8`8`8`8`8`8`8`8`8`8`8`8`8`8`8`8`8`8`8`8`8`8`8````",
"```8`8`8`8`8`V`V`V`V`8`8`8`8`8`8`8`8`8`8`8`8`8`8`8`8`8`8`8`8`8`8`8`8`8`8`8`8`8`8`8`8`8`8`8`8`8`8`8`8`8`8`8`8`8`8`8`8`8`8`8`8`8`8`8`8`8`8`8`8````",
"```8`8`8`8`8`8`V`V`8`8`8`8`8`8`8`8`8`8`8`8`8`8`8`8`8`8`8`8`8`8`8`8`8`8`8`8`8`8`8`8`8`8`8`8`8`8`8`8`8`8`8`8`8`8`8`8`8`8`8`8`8`8`8`8`8`8`8`8`8````",
"```8`8`8`8`8`8`V`V`8`8`8`8`8`8`8`8`8`8`8`8`8`8`8`8`8`8`8`8`8`8`8`8`8`8`8`8`8`8`8`8`8`8`8`8`8`8`8`8`8`8`8`8`8`8`8`8`8`8`8`8`8`8`8`8`8`8`8`8`8````",
"```8`8`8`8`8`8`V`V`8`8`8`8`8`8`8`8`8`8`8`8`8`8`8`8`8`8`8`8`8`8`8`8`8`8`8`8`8`8`8`8`8`8`8`8`8`8`8`8`8`8`8`8`8`8`8`8`8`8`8`8`8`8`8`8`8`8`8`8`8````",
"```8`8`8`8`8`8`V`V`8`8`8`8`8`8`8`8`8`8`8`8`8`8`8`8`8`8`8`8`8`8`8`8`8`8`8`8`8`8`8`8`8`8`8`8`8`8`8`8`8`8`8`8`8`8`8`8`8`8`8`8`8`8`8`8`8`8`8`8`8````",
"```8`8`8`8`8`8`V`V`8`8`8```````````````````````````````````````````````````````````````````````````````````````````````8`8`8`8`8`8`8`8`8`8`8````",
"```8`8`8`8`8`8`V`V`8`8`8```8`8`8`8`8`8`8`8`8`8`8`8`l`V`V`1`V`V`X`X`U`V`3`Z`Z`Y`3`V`X`1`V`V`V`3`V`V`C`M`8`8`8`8`8`8`8```8`8`8`8`8`8`8`8`8`8`8````",
"```8`8`V`V`8`8`V`V`8`8`8```8`8`Y`Y`3`8`3`Y`Y`8`8`8`8`r`V`V`3`1`1`1`Z`V`Z`1`1`1`Z`V`V`Z`1`1`1`Y`V`C`L`8`8`8`f`T`8`8`8```8`8`8`8`8`8`8`8`8`8`8````",
"```8`8`V`V`8`8`V`V`8`8`8```8`Y`V`V`Y`3`Y`V`V`Y`8`8`8`8`C`V`V`V`V`V`X`V`V`X`V`X`X`V`V`V`V`V`V`Z`V`x`8`8`8`B`m`T`8`8`T```8`8`8`8`8`8`8`8`8`8`8````",
"```8`8`1`V`V`V`V`Z`8`8`8```8`V`V`V`V`V`V`V`V`V`8`8`8`8`8`C`V`V`C`C`r`r`j`r`r`r`C`G`C`V`V`V`V`V`C`8`8`8`8`t`u`L`8`L`Q```8`8`8`8`8`8`8`8`8`8`8````",
"```8`8`8`Z`V`V`Z`8`8`8`8```8`Y`V`V`V`V`V`V`V`Y`8`8`8`8`8`8`#`#`#`f`g`h`f`f`d`f`a`a`#`#`#`c`r`r`8`8`8`8`t`t`K`I`8`Q`l```8`8`8`8`8`8`8`8`8`8`8````",
"```8`8`8`8`8`8`8`8`8`8`8```8`3`V`V`V`V`V`V`V`3`8`8`8`8`8`8`L`8`8`8`8`8`8`u`K`Q`2`K`Q`A`A`n`d`B`8`8`8`8`t`t`v`2`t`2`c```8`8`8`8`8`8`8`8`8`8`8````",
"```8`8`8`8`8`8`8`8`8`8`8```8`8`Y`V`V`V`V`V`Y`8`8`8`8`8`8`T`T`k`t`i`T`8`8`B`A`Q`A`2`A`Q`K`2`A`B`8`8`8`8`p`t`t`Q`2`4`j```8`8`8`8`8`8`8`8`8`8`8````",
"```8`8`Y`Y`3`8`3`Y`Y`8`8```8`8`3`Y`V`V`V`Y`3`8`8`8`8`8`8`J`8`k`p`L`B`T`8`M`A`u`2`A`Q`H`K`Q`Q`u`8`8`8`T`w`k`A`4`6`2`j```8`8`8`8`8`8`8`8`8`8`8````",
"```8`Y`V`V`Y`3`Y`V`V`Y`8```8`8`8`3`Y`V`Y`3`8`8`8`8`8`8`8`B`8`p`i`p`t`8`8`8`q`K`K`H`Q`A`2`A`Q`K`T`8`8`8`t`k`6`4`4`4`j```8`8`8`8`8`8`8`8`8`8`8````",
"```8`V`V`V`V`V`V`V`V`V`8```8`8`8`8`3`Y`3`8`8`8`8`8`8`8`8`w`8`w`i`8`8`8`8`8`B`A`A`Q`K`H`K`Q`K`2`B`8`8`8`k`L`g`Q`6`4`j```8`8`8`8`8`8`8`8`8`8`8````",
"```8`Y`V`V`V`V`V`V`V`Y`8```8`8`8`8`8`3`8`8`8`8`8`8`8`8`L`8`8`8`L`8`8`8`8`8`O`F`K`Q`A`2`A`Q`A`2`H`8`8`8`p`w`v`6`s`2`j```8`8`8`8`8`8`8`8`8`8`8````",
"```8`3`V`V`V`V`V`V`V`3`8```8`8`8`8`8`8`8`8`8`8`8`8`8`8`w`T`w`w`8`8`8`8`8`8`T`A`Q`A`H`Q`2`A`Q`H`A`8`8`8`w`t`A`H`M`2`j```8`8`8`8`8`8`8`8`8`8`8````",
"```8`8`Y`V`V`V`V`V`Y`8`8```8`8`8`8`8`8`8`8`8`8`8`8`8`8`8`w`L`B`T`w`8`8`8`8`M`F`A`H`Q`K`N`K`Q`Q`u`8`8`8`M`B`K`T`M`2`j```8`8`8`8`8`8`8`8`8`8`8````",
"```8`8`3`Y`V`V`V`Y`3`8`8```8`8`8`8`8`8`8`8`8`8`8`8`8`8`8`T`k`k`t`8`8`8`8`8`8`p`K`K`A`Q`A`Q`A`2`s`8`8`8`8`t`d`8`T`2`j```8`8`8`8`8`8`8`8`8`8`8````",
"```8`8`8`3`Y`V`Y`3`8`8`8```8`8`8`8`8`8`8`8`8`8`8`8`8`8`8`8`g`L`8`8`8`8`8`8`8`B`m`A`H`A`Q`u`Q`H`A`T`8`8`8`8`p`8`M`2`j```8`8`8`8`8`8`8`8`8`8`8````",
"```8`8`8`8`3`Y`3`8`8`8`8```8`8`8`8`8`8`8`8`8`8`8`8`8`8`8`8`B`8`8`8`8`8`8`8`B`K`s`h`u`K`y`A`u`K`K`T`8`T`H`8`8`8`T`2`l```8`8`8`8`8`8`8`8`8`8`8````",
"```8`8`8`8`8`3`8`8`8`8`8```8`8`8`8`8`8`8`8`8`8`8`8`8`8`8`8`J`8`8`8`8`8`8`v`u`K`Q`A`f`m`A`s`A`u`K`y`A`Q`K`8`8`8`M`2`r```8`8`8`8`8`8`8`8`8`8`8````",
"```8`8`8`8`8`8`8`8`8`8`8```8`8`8`8`8`8`8`8`8`8`8`8`8`8`8`8`p`J`L`J`J`q`a`s`s`u`s`u`s`f`a`f`f`m`K`h`2`K`v`8`8`8`T`Q`r```8`8`8`8`8`8`8`8`8`8`8````",
"```8`8`8`8`8`8`8`8`8`8`8```8`8`y`u`B`8`8`8`8`8`8`8`8`8`e`4`u`2`m`2`Q`Q`m`Q`Q`2`s`h`4`2`h`2`A`f`a`s`s`h`#`p`8`8`T`2`r```8`8`8`8`8`8`8`8`8`8`8````",
"```8`8`8`8`8`8`8`8`8`8`8```8`T`s`u`u`u`y`J`y`8`8`8`8`#`#`l`4`d`s`s`6`q`m`f`6`m`f`m`Q`s`f`f`2`Q`Q`#`t`d`q`c`A`B`8`Q`G```8`8`8`8`8`8`8`8`8`8`8````",
"```8`8`8`8`8`8`8`8`8`8`8```B`.`e`q`u`s`u`Q`H`8`8`J`#`n`q`f`Q`A`q`2`Q`Q`u`Q`K`Q`m`Q`Q`Q`s`Q`s`6`#`q`d`y`d`f`H`6`s`Q`C```8`8`8`8`8`8`8`8`8`8`8````",
"```8`8`8`8`8`8`8`8`8`8`8```i`T`8`L`p`N`A`K`O`8`p`.`#`q`f`t`#`6`u`A`H`A`y`A`u`u`y`u`v`s`u`s`6`d`n`J`q`f`f`v`q`f`5`4`l```8`8`8`8`8`8`8`8`8`8`8````",
"```8`8`8`8`8`8`8`8`8`8`8```g`8`k`M`L`T`8`8`8`g`b`a`b`#`d`v`d`F`A`.`.`.`.`b`b`b`.`a`.`c`.`2`u`f`d`a`v`d`B`l`C`y`q`v`6```8`8`8`8`8`8`8`8`8`8`8````",
"```8`8`8`8`8`8`8`8`8`8`8```w`p`g`8`8`w`8`T`t`.`c`R`d`.`n`O`q`a`6`a`V`R`V`V`d`C`V`V`V`j`u`2`n`h`c`q`#`4`s`o`V`f`N`N`d```8`8`8`8`8`8`8`8`8`8`8````",
"```8`8`8`8`8`8`8`8`8`8`8```w`t`e`8`8`8`w`f`8`a`C`V`C`g`#`v`a`n`s`Q`j`r`a`a`V`j`a`c`C`b`6`a`q`J`a`n`r`m`6`u`B`q`h`y`y```8`8`8`8`8`8`8`8`8`8`8````",
"```8`8`8`8`8`8`8`8`8`8`8```e`p`i`8`8`w`s`u`8`#`b`x`C`b`b`f`n`c`d`4`a`V`a`b`b`b`a`V`a`6`m`d`n`q`d`h`V`C`K`4`s`c`V`q`l```8`8`8`8`8`8`8`8`8`8`8````",
"```8`8`8`8`8`8`8`8`8`8`8```8`e`t`T`q`w`q`u`8`a`c`b`b`d`b`#`q`L`h`u`A`r`r`b`b`a`V`#`A`K`#`n`d`y`a`d`q`V`j`4`A`n`r`y`x```8`8`8`8`8`8`8`8`8`8`8````",
"```8`8`8`8`8`8`8`8`8`8`8```8`8`g`A`m`L`8`t`8`d`f`a`x`V`l`b`d`f`n`c`6`a`V`a`a`r`x`e`6`#`O`B`q`#`n`Q`a`C`V`j`6`s`y`y`q```8`8`8`8`8`8`8`8`8`8`8````",
"```8`8`8`8`8`8`8`8`8`8`8```8`J`G`4`a`8`7`q`8`e`a`c`j`V`r`b`a`q`n`e`2`h`C`c`a`V`.`6`c`v`#`q`d`d`H`N`d`k`V`C`A`4`h`d`D```8`8`8`8`8`8`8`8`8`8`8````",
"```8`8`8`8`8`8`8`8`8`8`8```v`#`0`2`f`y`f`u`8`c`f`a`a`#`H`N`#`n`B`q`m`2`c`C`V`.`Q`u`f`q`q`q`d`u`5`n`H`a`V`V`r`6`H`l`r```8`8`8`8`8`8`8`8`8`8`8````",
"```8`8`8`8`8`8`8`8`8`8`8```V`c`P`K`y`v`A`u`8`a`n`#`d`5`e`#`y`d`f`d`q`6`b`V`j`q`2`#`f`p`q`#`K`f`U`#`U`f`x`V`V`m`6`s`q```8`8`8`8`8`8`8`8`8`8`8````",
"```8`8`8`8`8`8`8`8`8`8`8```c`Y`6`m`v`M`s`J`J`n`n`a`N`f`7`7`7`c`f`v`#`2`u`j`a`6`#`h`d`y`#`u`f`U`7`k`N`a`D`V`V`r`4`Q`q```8`8`8`8`8`8`8`8`8`8`8````",
"```8`8`8`8`8`8`8`8`8`8`8```z`S`2`m`8`8`y`T`h`y`#`5`#`7`a`m`B`a`d`f`d`u`4`.`4`m`d`c`d`n`f`m`A`m`s`2`y`m`n`V`V`V`l`6`s```8`8`8`8`8`8`8`8`8`8`8````",
"```8`8`8`8`8`8`8`8`8`8`8```Q`a`s`f`m`J`n`w`d`U`y`U`U`s`f`Q`H`U`s`B`y`y`B`v`B`O`y`y`A`s`m`Q`m`d`7`q`u`a`V`V`X`V`m`y`q```8`8`8`8`8`8`8`8`8`8`8````",
"```8`8`8`8`8`8`8`8`8`8`8```#`8`q`m`m`M`#`n`H`q`N`u`m`s`2`a`U`y`U`y`N`N`y`N`y`y`y`y`m`s`f`Q`y`7`v`f`v`h`R`V`V`C`L`8`q```8`8`8`8`8`8`8`8`8`8`8````",
"```8`8`8`8`8`8`8`8`8`8`8```d`8`8`L`m`8`t`f`f`N`.`7`v`d`Q`u`H`A`r`r`r`2`K`j`4`K`r`x`x`A`s`m`Q`d`4`H`y`y`a`V`V`C`8`B`m```8`8`8`8`8`8`8`8`8`8`8````",
"```8`8`8`8`8`8`8`8`8`8`8```u`f`s`e`8`M`C`#`f`y`N`5`U`A`f`s`A`u`C`V`V`H`x`V`z`u`V`V`x`s`K`m`K`f`d`7`y`q`d`V`C`8`k`m`s```8`8`8`8`8`8`8`8`8`8`8````",
"```8`8`8`8`8`8`8`8`8`8`8```u`s`f`8`M`C`V`h`s`v`U`f`f`Q`a`u`A`K`u`V`l`A`V`V`r`2`C`V`K`s`s`u`m`2`7`e`N`d`o`C`L`y`w`M`B```8`8`8`8`8`8`8`8`8`8`8````",
"```8`8`8`8`8`8`8`8`8`8`8```u`h`8`8`C`V`V`d`u`n`U`A`d`Q`u`Q`A`u`6`l`4`2`l`z`l`6`A`r`6`m`h`4`a`A`U`a`U`#`n`f`T`s`q`8`N```8`8`8`8`8`8`8`8`8`8`8````",
"```8`8`8`8`8`8`8`8`8`8`8```q`8`L`C`V`V`V`h`y`e`v`7`y`Q`d`s`m`y`y`y`y`U`y`N`N`y`U`y`U`a`4`s`m`u`N`q`H`n`#`8`f`m`q`8`#```8`8`8`8`8`8`8`8`8`8`8````",
"```8`8`8`8`8`8`8`8`8`8`8```s`y`m`V`V`V`R`#`u`q`7`d`m`Q`m`s`A`y`y`O`B`q`J`y`y`B`u`U`B`Q`f`m`U`U`y`5`e`y`k`J`m`m`s`#`Q```8`8`8`8`8`8`8`8`8`8`8````",
"```8`8`8`8`8`8`8`8`8`8`8```q`6`l`V`V`V`n`n`y`2`s`m`A`m`f`q`d`#`f`f`4`.`4`s`d`f`d`#`N`m`a`7`#`5`#`v`h`T`y`8`8`f`2`0`z```8`8`8`8`8`8`8`8`8`8`8````",
"```8`8`8`8`8`8`8`8`8`8`8```q`2`4`r`V`V`D`a`N`p`7`U`f`A`#`y`a`n`#`6`a`j`s`2`#`v`f`a`7`7`7`f`N`a`f`q`J`J`m`8`p`m`6`P`c```8`8`8`8`8`8`8`8`8`8`8````",
"```8`8`8`8`8`8`8`8`8`8`8```q`m`6`m`V`V`x`h`5`#`U`f`K`#`n`v`n`#`2`q`j`V`b`6`q`d`f`d`y`#`e`5`d`#`n`a`8`v`A`v`y`K`S`j`V```8`8`8`8`8`8`8`8`8`8`8````",
"```8`8`8`8`8`8`8`8`8`8`8```l`r`K`6`j`V`V`a`y`f`N`F`d`q`q`q`f`u`Q`.`V`C`c`2`m`q`J`f`#`N`H`#`a`c`f`a`8`s`m`y`f`2`0`#`q```8`8`8`8`8`8`8`8`8`8`8````",
"```8`8`8`8`8`8`8`8`8`8`8```z`d`h`4`A`C`V`k`d`N`Q`d`d`q`#`p`c`6`.`V`a`j`C`h`2`d`n`n`a`e`j`V`r`a`a`d`8`q`7`8`a`4`G`J`8```8`8`8`8`8`8`8`8`8`8`8````",
"```8`8`8`8`8`8`8`8`8`8`8```t`y`w`s`6`l`V`V`a`2`h`#`q`B`O`#`6`d`r`C`a`a`V`a`6`a`n`f`l`b`j`X`C`a`f`e`8`t`8`O`m`A`e`8`8```8`8`8`8`8`8`8`8`8`8`8````",
"```8`8`8`8`8`8`8`8`8`8`8```x`y`C`f`A`4`j`V`p`a`d`v`f`n`#`K`A`.`V`a`b`b`r`r`A`u`n`L`q`#`b`d`b`b`a`a`8`F`q`t`q`T`t`b`8```8`8`8`8`8`8`8`8`8`8`8````",
"```8`8`8`8`8`8`8`8`8`8`8```l`q`C`j`u`4`H`C`V`n`d`q`n`d`m`4`.`V`d`b`b`b`a`V`a`6`d`#`h`n`b`b`C`x`a`#`8`s`u`y`8`8`i`p`e```8`8`8`8`8`8`8`8`8`8`8````",
"```8`8`8`8`8`8`8`8`8`8`8```y`y`q`q`B`q`6`m`r`h`c`J`q`#`6`d`C`j`a`j`C`a`a`r`r`Q`s`n`c`v`#`b`G`V`V`.`8`f`w`8`8`8`g`t`w```8`8`8`8`8`8`8`8`8`8`8````",
"```8`8`8`8`8`8`8`8`8`8`8```f`H`N`f`V`l`s`4`#`v`#`h`k`2`u`c`X`V`V`G`l`V`R`V`V`a`6`a`q`O`n`b`d`C`d`.`t`T`8`t`8`8`g`p`w```8`8`8`8`8`8`8`8`8`8`8````",
"```8`8`8`8`8`8`8`8`8`8`8```6`t`q`y`C`o`B`d`v`a`d`f`z`4`.`c`.`a`.`.`b`.`.`a`b`.`A`F`e`v`d`#`b`d`b`g`8`8`8`8`J`T`k`8`g```8`8`8`8`8`8`8`8`8`8`8````",
"```8`8`8`8`8`8`8`8`8`8`8```l`4`4`f`q`q`f`d`q`J`n`d`6`s`u`q`u`v`u`u`v`u`y`u`y`H`s`6`#`q`h`q`c`.`p`8`O`A`K`H`t`L`8`M`k```8`8`8`8`8`8`8`8`8`8`8````",
"```8`8`8`8`8`8`8`8`8`8`8```C`Q`s`6`I`h`d`y`d`q`#`6`u`Q`m`Q`Q`Q`s`Q`K`2`s`2`Q`2`u`A`2`f`q`n`#`B`8`8`H`Q`u`s`s`p`e`.`B```8`8`8`8`8`8`8`8`8`8`8````",
"```8`8`8`8`8`8`8`8`8`8`8```G`Q`8`w`K`c`q`d`w`#`Q`Q`2`f`m`m`2`m`f`m`6`d`s`s`6`s`m`d`2`n`#`#`8`8`8`8`y`J`y`A`u`u`s`O`8```8`8`8`8`8`8`8`8`8`8`8````",
"```8`8`8`8`8`8`8`8`8`8`8```C`Q`M`8`8`q`#`k`m`s`a`f`A`2`h`4`2`m`m`Q`Q`Q`m`Q`Q`2`m`5`u`2`d`8`8`8`8`8`8`8`8`8`y`u`y`8`8```8`8`8`8`8`8`8`8`8`8`8````",
"```8`8`8`8`8`8`8`8`8`8`8```r`2`T`8`8`8`p`K`2`m`K`m`f`d`a`f`s`A`s`A`s`s`a`p`J`L`O`J`p`8`8`8`8`8`8`8`8`8`8`8`8`8`8`8`8```8`8`8`8`8`8`8`8`8`8`8````",
"```8`8`8`8`8`8`8`8`8`8`8```r`Q`M`8`8`8`K`Q`u`y`K`u`A`s`A`h`f`u`Q`H`A`q`8`8`8`8`8`8`B`8`8`8`8`8`8`8`8`8`8`8`8`8`8`8`8```8`8`8`8`8`3`8`8`8`8`8````",
"```8`8`8`8`8`8`8`8`8`8`8```l`2`T`8`8`8`H`T`8`T`K`K`u`A`A`K`u`h`s`K`B`8`8`8`8`8`8`8`B`8`8`8`8`8`8`8`8`8`8`8`8`8`8`8`8```8`8`8`8`3`Y`3`8`8`8`8````",
"```8`8`8`8`8`8`8`8`8`8`8```j`Q`M`8`p`8`8`8`8`8`u`K`Q`A`Q`A`H`A`s`B`8`8`8`8`8`8`8`L`g`8`8`8`8`8`8`8`8`8`8`8`8`8`8`8`8```8`8`8`3`Y`V`Y`3`8`8`8````",
"```8`8`8`8`8`8`8`8`8`8`8```j`2`M`8`a`t`8`8`8`8`s`2`A`Q`A`Q`A`A`K`p`8`8`8`8`8`8`t`i`k`T`8`8`8`8`8`8`8`8`8`8`8`8`8`8`8```8`8`3`Y`V`V`V`Y`3`8`8````",
"```8`8`8`8`8`8`8`8`8`8`8```j`2`8`L`K`B`T`8`8`8`u`Q`Q`A`N`K`Q`H`A`u`M`8`8`8`8`w`T`B`L`w`8`8`8`8`8`8`8`8`8`8`8`8`8`8`8```8`8`Y`V`V`V`V`V`Y`8`8````",
"```8`8`8`8`8`8`8`8`8`8`8```j`Q`M`H`A`t`B`8`8`8`H`A`Q`A`Q`Q`H`A`Q`K`T`8`8`8`8`8`8`B`t`8`w`8`8`8`8`8`8`8`8`8`8`8`8`8`8```8`3`V`V`V`V`V`V`V`3`8````",
"```8`8`8`8`8`8`8`8`8`8`8```j`2`u`6`v`B`i`8`8`8`H`2`A`2`A`2`K`Q`K`u`O`8`8`8`8`8`L`8`8`T`L`8`8`8`8`8`8`8`8`3`8`8`8`8`8```8`Y`V`V`V`V`V`V`V`Y`8````",
"```8`8`8`8`8`8`8`8`8`8`8```j`6`6`K`g`L`k`8`8`8`B`2`K`Q`K`H`A`Q`A`A`B`8`8`8`8`8`i`w`8`w`8`8`8`8`8`8`8`8`3`Y`3`8`8`8`8```8`V`V`V`V`V`V`V`V`V`8````",
"```8`8`8`8`8`8`8`8`8`8`8```j`4`4`4`6`n`t`8`8`8`T`K`Q`A`2`A`2`H`K`K`q`8`8`8`t`p`g`t`8`B`8`8`8`8`8`8`8`3`Y`V`Y`3`8`8`8```8`Y`V`V`Y`3`Y`V`V`Y`8````",
"```8`8`8`8`8`8`8`8`8`8`8```j`5`4`4`A`p`t`T`8`8`8`u`Q`Q`H`K`H`K`Q`A`A`T`8`8`w`L`t`k`T`L`8`8`8`8`8`8`3`Y`V`V`V`Y`3`8`8```8`8`Y`Y`3`8`3`Y`Y`8`8````",
"```8`8`8`8`8`8`8`8`8`8`8```j`2`2`2`p`t`p`8`8`8`8`J`A`2`K`2`A`Q`K`Q`u`J`8`8`T`k`t`k`T`T`8`8`8`8`8`8`Y`V`V`V`V`V`Y`8`8```8`8`8`8`8`8`8`8`8`8`8````",
"```8`8`8`8`8`8`8`8`8`8`8```c`2`t`4`v`t`t`8`8`8`8`J`a`f`A`A`Q`K`2`K`K`u`8`8`8`8`8`8`T`8`8`8`8`8`8`3`V`V`V`V`V`V`V`3`8```8`8`8`8`8`8`8`8`8`8`8````",
"```8`8`8`8`8`8`8`8`8`8`8```n`Q`8`y`K`t`w`8`8`8`8`r`r`c`#`#`a`a`d`f`f`f`e`h`h`e`a`#`#`8`8`8`8`8`8`Y`V`V`V`V`V`V`V`Y`8```8`8`8`8`Z`V`V`Z`8`8`8````",
"```8`8`8`8`8`8`8`8`8`8`8```K`O`8`L`u`t`8`8`8`8`r`V`V`V`V`V`C`x`r`r`j`j`j`l`r`r`C`C`V`C`8`8`8`8`8`V`V`V`V`V`V`V`V`V`8```8`8`8`Z`V`V`V`V`1`8`8````",
"```8`8`8`8`8`8`8`8`8`8`8```T`8`8`T`m`B`8`8`8`D`V`Y`V`V`V`V`V`V`X`X`X`X`V`V`X`V`V`V`V`V`C`8`8`8`8`Y`V`V`Y`3`Y`V`V`Y`8```8`8`8`V`V`8`8`V`V`8`8````",
"```8`8`8`8`8`8`8`8`8`8`8```8`8`8`8`d`8`8`8`L`C`V`Y`1`1`1`Z`V`V`Z`1`Z`1`Z`V`Z`1`1`1`1`V`V`r`8`8`8`8`Y`Y`3`8`3`Y`Y`8`8```8`8`8`V`V`8`8`V`V`8`8````",
"```8`8`8`8`8`8`8`8`8`8`8```8`8`8`8`8`8`8`M`C`V`V`3`V`V`V`1`X`V`3`Y`Z`Z`3`V`3`Y`V`V`V`1`V`V`r`8`8`8`8`8`8`8`8`8`8`8`8```8`8`8`V`V`8`8`8`8`8`8````",
"```8`8`8`8`8`8`8`8`8`8`8```````````````````````````````````````````````````````````````````````````````````````````````8`8`8`V`V`8`8`8`8`8`8````",
"```8`8`8`8`8`8`8`8`8`8`8`8`8`8`8`8`8`8`8`8`8`8`8`8`8`8`8`8`8`8`8`8`8`8`8`8`8`8`8`8`8`8`8`8`8`8`8`8`8`8`8`8`8`8`8`8`8`8`8`8`8`V`V`8`8`8`8`8`8````",
"```8`8`8`8`8`8`8`8`8`8`8`8`8`8`8`8`8`8`8`8`8`8`8`8`8`8`8`8`8`8`8`8`8`8`8`8`8`8`8`8`8`8`8`8`8`8`8`8`8`8`8`8`8`8`8`8`8`8`8`8`8`V`V`8`8`8`8`8`8````",
"```8`8`8`8`8`8`8`8`8`8`8`8`8`8`8`8`8`8`8`8`8`8`8`8`8`8`8`8`8`8`8`8`8`8`8`8`8`8`8`8`8`8`8`8`8`8`8`8`8`8`8`8`8`8`8`8`8`8`8`8`8`V`V`8`8`8`8`8`8````",
"```8`8`8`8`8`8`8`8`8`8`8`8`8`8`8`8`8`8`8`8`8`8`8`8`8`8`8`8`8`8`8`8`8`8`8`8`8`8`8`8`8`8`8`8`8`8`8`8`8`8`8`8`8`8`8`8`8`8`8`8`8`V`V`8`8`8`8`8`8````",
"```8`8`8`8`8`8`8`8`8`8`8`8`8`8`8`8`8`8`8`8`8`8`8`8`8`8`8`8`8`8`8`8`8`8`8`8`8`8`8`8`8`8`8`8`8`8`8`8`8`8`8`8`8`8`8`8`8`8`8`8`V`V`V`V`8`8`8`8`8````",
"```8`8`8`8`8`8`8`8`8`8`8`8`8`8`8`8`8`8`8`8`8`8`8`8`8`8`8`8`8`8`8`8`8`8`8`8`8`8`8`8`8`8`8`8`8`8`8`8`8`8`8`8`8`8`8`8`8`8`8`8`V`V`V`V`8`8`8`8`8````",
"```8`8`8`8`8`8`8`8`8`8`8`8`8`8`8`8`8`8`8`8`8`8`8`8`8`8`8`8`8`8`8`8`8`8`8`8`8`8`8`8`8`8`8`8`8`8`8`8`8`8`8`8`8`8`8`8`8`8`8`8`8`8`8`8`8`8`8`8`8````",
"```8`8`8`8`8`8`8`8`8`8`8`8`8`8`8`8`8`8`8`8`8`8`8`8`8`8`8`8`8`8`8`8`8`8`8`8`8`8`8`8`8`8`8`8`8`8`8`8`8`8`8`8`8`8`8`8`8`8`8`8`8`8`8`8`8`8`8`8`8````",
"```y`8`8`8`8`8`8`8`8`8`8`8`8`8`8`8`8`8`8`8`8`8`8`8`8`8`8`8`8`8`8`8`8`8`8`8`8`8`8`8`8`8`8`8`8`8`8`8`8`8`8`8`8`8`8`8`8`8`8`8`8`8`8`8`8`8`8`8`y```q",
"`q```````````````````````````````````````````````````````````````````````````````````````````````````````````````````````````````````````````q``"
};
