/* XPM */
static char *face_49_xpm[] = {
/* width height num_colors chars_per_pixel */
"    72    96      256            2",
/* colors */
"`` c #000000",
"`. c #001084",
"`# c #081018",
"`a c #102129",
"`b c #10298c",
"`c c #291018",
"`d c #293131",
"`e c #293184",
"`f c #394239",
"`g c #394aa5",
"`h c #425a52",
"`i c #4263bd",
"`j c #521021",
"`k c #525a9c",
"`l c #5a2929",
"`m c #5a5221",
"`n c #5a5252",
"`o c #633173",
"`p c #637bad",
"`q c #73735a",
"`r c #7b1018",
"`s c #7b7329",
"`t c #7b94c6",
"`u c #947b21",
"`v c #947b84",
"`w c #949cbd",
"`x c #9c2929",
"`y c #9c9473",
"`z c #a55221",
"`A c #a59429",
"`B c #a5b5de",
"`C c #ad1018",
"`D c #ad5263",
"`E c #b57384",
"`F c #b57b21",
"`G c #bd3129",
"`H c #bd9c5a",
"`I c #bd9ca5",
"`J c #bdbdce",
"`K c #c69c21",
"`L c #c6def7",
"`M c #c6f7ff",
"`N c #ceb563",
"`O c #ceceb5",
"`P c #de524a",
"`Q c #deb521",
"`R c #e72929",
"`S c #e77b21",
"`T c #e7e7f7",
"`U c #f7dea5",
"`V c #ff0008",
"`W c #ff00ff",
"`X c #ff3131",
"`Y c #ff4a4a",
"`Z c #ff737b",
"`0 c #ff9c31",
"`1 c #ff9c9c",
"`2 c #ffbd21",
"`3 c #ffbdbd",
"`4 c #ffde18",
"`5 c #ffde63",
"`6 c #ffff29",
"`7 c #ffffa5",
"`8 c #ffffff",
".` c #ffffff",
".. c #ffffff",
".# c #ffffff",
".a c #ffffff",
".b c #ffffff",
".c c #ffffff",
".d c #ffffff",
".e c #ffffff",
".f c #ffffff",
".g c #ffffff",
".h c #ffffff",
".i c #ffffff",
".j c #ffffff",
".k c #ffffff",
".l c #ffffff",
".m c #ffffff",
".n c #ffffff",
".o c #ffffff",
".p c #ffffff",
".q c #ffffff",
".r c #ffffff",
".s c #ffffff",
".t c #ffffff",
".u c #ffffff",
".v c #ffffff",
".w c #ffffff",
".x c #ffffff",
".y c #ffffff",
".z c #ffffff",
".A c #ffffff",
".B c #ffffff",
".C c #ffffff",
".D c #ffffff",
".E c #ffffff",
".F c #ffffff",
".G c #ffffff",
".H c #ffffff",
".I c #ffffff",
".J c #ffffff",
".K c #ffffff",
".L c #ffffff",
".M c #ffffff",
".N c #ffffff",
".O c #ffffff",
".P c #ffffff",
".Q c #ffffff",
".R c #ffffff",
".S c #ffffff",
".T c #ffffff",
".U c #ffffff",
".V c #ffffff",
".W c #ffffff",
".X c #ffffff",
".Y c #ffffff",
".Z c #ffffff",
".0 c #ffffff",
".1 c #ffffff",
".2 c #ffffff",
".3 c #ffffff",
".4 c #ffffff",
".5 c #ffffff",
".6 c #ffffff",
".7 c #ffffff",
".8 c #ffffff",
"#` c #ffffff",
"#. c #ffffff",
"## c #ffffff",
"#a c #ffffff",
"#b c #ffffff",
"#c c #ffffff",
"#d c #ffffff",
"#e c #ffffff",
"#f c #ffffff",
"#g c #ffffff",
"#h c #ffffff",
"#i c #ffffff",
"#j c #ffffff",
"#k c #ffffff",
"#l c #ffffff",
"#m c #ffffff",
"#n c #ffffff",
"#o c #ffffff",
"#p c #ffffff",
"#q c #ffffff",
"#r c #ffffff",
"#s c #ffffff",
"#t c #ffffff",
"#u c #ffffff",
"#v c #ffffff",
"#w c #ffffff",
"#x c #ffffff",
"#y c #ffffff",
"#z c #ffffff",
"#A c #ffffff",
"#B c #ffffff",
"#C c #ffffff",
"#D c #ffffff",
"#E c #ffffff",
"#F c #ffffff",
"#G c #ffffff",
"#H c #ffffff",
"#I c #ffffff",
"#J c #ffffff",
"#K c #ffffff",
"#L c #ffffff",
"#M c #ffffff",
"#N c #ffffff",
"#O c #ffffff",
"#P c #ffffff",
"#Q c #ffffff",
"#R c #ffffff",
"#S c #ffffff",
"#T c #ffffff",
"#U c #ffffff",
"#V c #ffffff",
"#W c #ffffff",
"#X c #ffffff",
"#Y c #ffffff",
"#Z c #ffffff",
"#0 c #ffffff",
"#1 c #ffffff",
"#2 c #ffffff",
"#3 c #ffffff",
"#4 c #ffffff",
"#5 c #ffffff",
"#6 c #ffffff",
"#7 c #ffffff",
"#8 c #ffffff",
"a` c #ffffff",
"a. c #ffffff",
"a# c #ffffff",
"aa c #ffffff",
"ab c #ffffff",
"ac c #ffffff",
"ad c #ffffff",
"ae c #ffffff",
"af c #ffffff",
"ag c #ffffff",
"ah c #ffffff",
"ai c #ffffff",
"aj c #ffffff",
"ak c #ffffff",
"al c #ffffff",
"am c #ffffff",
"an c #ffffff",
"ao c #ffffff",
"ap c #ffffff",
"aq c #ffffff",
"ar c #ffffff",
"as c #ffffff",
"at c #ffffff",
"au c #ffffff",
"av c #ffffff",
"aw c #ffffff",
"ax c #ffffff",
"ay c #ffffff",
"az c #ffffff",
"aA c #ffffff",
"aB c #ffffff",
"aC c #ffffff",
"aD c #ffffff",
"aE c #ffffff",
"aF c #ffffff",
"aG c #ffffff",
"aH c #ffffff",
"aI c #ffffff",
"aJ c #ffffff",
"aK c #ffffff",
"aL c #ffffff",
"aM c #ffffff",
"aN c #ffffff",
"aO c #ffffff",
"aP c #ffffff",
"aQ c #ffffff",
"aR c #ffffff",
"aS c #ffffff",
"aT c #ffffff",
"aU c #ffffff",
"aV c #ffffff",
"aW c #ffffff",
"aX c #ffffff",
"aY c #ffffff",
"aZ c #ffffff",
"a0 c #ffffff",
"a1 c #ffffff",
"a2 c #ffffff",
"a3 c #ffffff",
"a4 c #ffffff",
"a5 c #ffffff",
"a6 c #ffffff",
"a7 c #ffffff",
"a8 c #ffffff",
/* pixels */
"`q```````````````````````````````````````````````````````````````````````````````````````````````````````````````````````````````````````````q``",
"```y`8`8`8`8`8`8`8`8`8`8`8`8`8`8`8`8`8`8`8`8`8`8`8`8`8`8`8`8`8`8`8`8`8`8`8`8`8`8`8`8`8`8`8`8`8`8`8`8`8`8`8`8`8`8`8`8`8`8`8`8`8`8`8`8`8`8`8`y````",
"```8`8`8`8`8`8`8`8`8`8`8`8`8`8`8`8`8`8`8`8`8`8`8`8`8`8`8`8`8`8`8`8`8`8`8`8`8`8`8`8`8`8`8`8`8`8`8`8`8`8`8`8`8`8`8`8`8`8`8`8`8`8`8`8`8`8`8`8`8````",
"```8`8`8`8`8`8`8`8`8`8`8`8`8`8`8`8`8`8`8`8`8`8`8`8`8`8`8`8`8`8`8`8`8`8`8`8`8`8`8`8`8`8`8`8`8`8`8`8`8`8`8`8`8`8`8`8`8`8`8`8`8`8`8`8`8`8`8`8`8````",
"```8`8`8`8`8`````````8`8`8`8`8`8`8`8`8`8`8`8`8`8`8`8`8`8`8`8`8`8`8`8`8`8`8`8`8`8`8`8`8`8`8`8`8`8`8`8`8`8`8`8`8`8`8`8`8`8`8`8`8`8`8`8`8`8`8`8````",
"```8`8`8`8`8`````````8`8`8`8`8`8`8`8`8`8`8`8`8`8`8`8`8`8`8`8`8`8`8`8`8`8`8`8`8`8`8`8`8`8`8`8`8`8`8`8`8`8`8`8`8`8`8`8`8`8`8`8`8`8`8`8`8`8`8`8````",
"```8`8`8`8`8`8`````8`8`8`8`8`8`8`8`8`8`8`8`8`8`8`8`8`8`8`8`8`8`8`8`8`8`8`8`8`8`8`8`8`8`8`8`8`8`8`8`8`8`8`8`8`8`8`8`8`8`8`8`8`8`8`8`8`8`8`8`8````",
"```8`8`8`8`8`8`````8`8`8`8`8`8`8`8`8`8`8`8`8`8`8`8`8`8`8`8`8`8`8`8`8`8`8`8`8`8`8`8`8`8`8`8`8`8`8`8`8`8`8`8`8`8`8`8`8`8`8`8`8`8`8`8`8`8`8`8`8````",
"```8`8`8`8`8`8`````8`8`8`8`8`8`8`8`8`8`8`8`8`8`8`8`8`8`8`8`8`8`8`8`8`8`8`8`8`8`8`8`8`8`8`8`8`8`8`8`8`8`8`8`8`8`8`8`8`8`8`8`8`8`8`8`8`8`8`8`8````",
"```8`8`8`8`8`8`````8`8`8`8`8`8`8`8`8`8`8`8`8`8`8`8`8`8`8`8`8`8`8`8`8`8`8`8`8`8`8`8`8`8`8`8`8`8`8`8`8`8`8`8`8`8`8`8`8`8`8`8`8`8`8`8`8`8`8`8`8````",
"```8`8`8`8`8`8`````8`8`8```````````````````````````````````````````````````````````````````````````````````````````````8`8`8`8`8`8`8`8`8`8`8````",
"```8`8`8`8`8`8`````8`8`8```8`8`8`8`8`8`8`8`8`8`8`8`o`r`a`C`X`V`V`j`c`x`#`r`l`j`a`R`a`a`j`d`r`G`j`a`R`V`t`8`8`T`L`8`8```8`8`8`8`8`8`8`8`8`8`8````",
"```8`8`````8`8`````8`8`8```8`8`8`8`8`v`8`8`8`8`8`8`8`x`j`a`C`a`#`a`j`V`x`C`C`C`G`V`C`C`x`r`j`a`a`C`V`p`8`8`w`K`2`K`L```8`8`8`8`8`8`8`8`8`8`8````",
"```8`8`````8`8`````8`8`8```8`8`8`8`v```v`8`8`8`8`8`8`8`C`a`c`x`V`V`X`V`V`V`X`V`V`V`V`V`V`V`V`V`V`V`p`8`8`8`m`K`u`A`H```8`8`8`8`8`8`8`8`8`8`8````",
"```8`8`q`````````n`8`8`8```8`8`8`v```````v`8`8`8`8`8`8`M`C`V`V`V`x`r`c`c`a`#`#`#`#`a`#`a`c`d`l`C`k`8`8`8`8`s`K`6`s`Q```8`8`8`8`8`8`8`8`8`8`8````",
"```8`8`8`n`````n`8`8`8`8```8`8`v```````````v`8`8`8`8`8`8`I`r`c`#`#`#`a`f`m`B`B`B`B`w`w`t`p`f`#`e`8`8`8`8`8`m`Q`2`K`H```8`8`8`8`8`8`8`8`8`8`8````",
"```8`8`8`8`8`8`8`8`8`8`8```8`v```````````````v`8`8`8`8`8`8`n`#`m`s`2`K`2`A`8`8`8`8`8`8`t`t`k`M`w`8`8`8`8`8`n`4`f`4`w```8`8`8`8`8`8`8`8`8`8`8````",
"```8`8`8`8`8`8`8`8`8`8`8```8```````````````````8`8`8`8`8`8`T`A`Q`2`K`Q`K`K`8`8`8`8`w`B`8`w`J`8`B`8`8`8`8`8`J`A`4`A`8```8`8`8`8`8`8`8`8`8`8`8````",
"```8`8`8`8`8`v`8`8`8`8`8```8```````````````````8`8`8`8`8`8`O`Q`A`2`A`Q`u`Q`M`8`8`8`8`T`p`b`p`8`t`8`8`8`8`8`T`2`2`2`L```8`8`8`8`8`8`8`8`8`8`8````",
"```8`8`8`8`v```v`8`8`8`8```8`q```````````````q`8`8`8`8`8`8`B`2`u`K`K`Q`A`0`M`8`8`8`8`8`B`i`8`8`J`8`8`8`8`8`s`4`m`Q`v```8`8`8`8`8`8`8`8`8`8`8````",
"```8`8`8`v```````v`8`8`8```8`8`q`q`8```8`q`q`8`8`8`8`8`8`8`A`K`A`A`Q`F`K`K`8`8`8`8`8`8`8`L`8`8`8`J`8`8`8`8`n`2`Q`K`J```8`8`8`8`8`8`8`8`8`8`8````",
"```8`8`v```````````v`8`8```8`8`8`8`O```O`8`8`8`8`8`8`8`8`O`K`K`u`K`K`Q`K`B`8`8`8`8`8`8`8`8`8`8`8`t`8`8`8`8`8`m`6`u`8```8`8`8`8`8`8`8`8`8`8`8````",
"```8`v```````````````v`8```8`8`8`8```````8`8`8`8`8`8`8`8`s`A`K`u`Q`2`K`K`T`8`8`8`8`8`8`8`8`w`t`8`L`8`8`8`8`q`4`s`2`J```8`8`8`8`8`8`8`8`8`8`8````",
"```8```````````````````8```8`8`8`8`8`8`8`8`8`8`8`8`8`8`J`K`F`m`Q`F`u`A`2`w`Q`v`8`8`8`8`8`8`T`t`w`J`8`8`8`8`m`4`2`s`N```8`8`8`8`8`8`8`8`8`8`8````",
"```8```````````````````8```8`8`8`8`8`8`8`8`8`8`8`8`8`8`T`A`K`u`K`s`2`u`Q`v`K`u`M`8`8`8`8`t`w`L`p`8`8`8`8`7`s`K`6`m`4```8`8`8`8`8`8`8`8`8`8`8````",
"```8`q```````````````q`8```8`8`8`8`8`8`8`8`8`8`8`8`8`u`2`s`A`A`K`K`K`f`Q`s`u`F`8`8`8`8`8`8`t`J`M`8`8`8`8`8`m`K`2`m`5```8`8`8`8`8`8`8`8`8`8`8````",
"```8`8`q`q`8```8`q`q`8`8```8`8`8`8`8`8`8`8`8`8`8`8`O`A`m`A`K`2`Q`K`K`A`K`4`K`L`8`8`8`8`8`8`8`B`8`8`8`8`8`8`f`4`u`4`v```8`8`8`8`8`8`8`8`8`8`8````",
"```8`8`8`8`O```O`8`8`8`8```8`8`8`8`8`8`8`8`8`8`8`8`8`t`2`2`s`K`u`K`s`4`s`K`Q`K`w`B`L`T`8`M`T`i`8`8`8`8`8`L`J`B`H`v`t```8`8`8`8`8`8`8`8`8`8`8````",
"```8`8`8`8```````8`8`8`8```8`8`8`8`8`8`8`8`8`8`8`L`e`k`g`#`0`Q`K`K`Q`K`2`2`A`2`2`2`K`#`#`l`f`P`J`L`8`8`8`L`T`w`L`p`8```8`8`8`8`8`8`8`8`8`8`8````",
"```8`8`8`8`8`8`8`8`8`8`8```8`8`8`8`8`8`8`8`8`L`b`b`.`p`n`#`m`f`Q`Q`d`m`s`K`f`u`m`2`#`#`c`2`O`j`P`Q`m`B`B`8`8`b`B`T`B```8`8`8`8`8`8`8`8`8`8`8````",
"```8`8`8`8`8`8`8`8`8`8`8```8`8`8`8`8`8`8`L`b`.`J`8`.`k`k`#`4`m`4`4`s`2`K`6`m`6`s`m`a`#`4`q`a`#`J`4`p`K`f`J`M`b`B`L`L```8`8`8`8`8`8`8`8`8`8`8````",
"```8`8`8`8`8`8`8`8`8`8`8```8`8`8`8`8`J`j`#`#`w`L`B`L`k`q`#`F`d`4`4`f`s`A`6`f`Q`d`#`#`Q`A`8`#`#`4`y`p`K`m`Q`#`#`t`T`T```8`8`8`8`8`8`8`8`8`8`8````",
"```8`8`8`8`8`8`8`8`8`8`8```8`8`8`M`r`V`r`#`#`8`L`o`8`p`p`#`x`Z`P`P`Z`Z`P`Z`Y`E`#`#`m`2`r`3`J`4`u`n`L`A`s`u`d`#`r`B`L```8`8`8`8`8`8`8`8`8`8`8````",
"```8`8`8`8`8`8`8`8`8`8`8```8`8`v`V`V`V`x`#`a`.`B`8`.`g`v`#`r`r`r`r`j`j`j`j`r`c`#`#`4`p`d`j`S`Q`C`V`e`K`A`K`d`a`V`V`n```8`8`8`8`8`8`8`8`8`8`8````",
"```8`8`8`8`8`8`8`8`8`8`8```L`.`x`V`V`V`x`#`c`b`e`p`.`g`w`#`r`C`G`C`V`R`V`V`r`#`#`2`y`q`#`f`6`j`V`V`j`A`K`s`#`a`C`C`j```8`8`8`8`8`8`8`8`8`8`8````",
"```8`8`8`8`8`8`8`8`8`8`8```g`.`8`r`V`V`C`a`#`.`t`8`.`e`w`#`C`a`V`c`V`x`c`X`#`#`F`u`1`t`n`4`s`o`C`V`n`A`s`K`a`a`C`X`r```8`8`8`8`8`8`8`8`8`8`8````",
"```8`8`8`8`8`8`8`8`8`8`8```g`k`B`E`C`C`C`a`#`J`L`B`T`t`w`#`r`r`V`a`R`C`r`j`#`d`2`O`r`1`2`A`c`8`t`t`p`A`m`s`#`d`C`C`R```8`8`8`8`8`8`8`8`8`8`8````",
"```8`8`8`8`8`8`8`8`8`8`8```e`w`B`L`C`K`j`#`#`J`L`.`8`w`B`#`#`a`c`r`r`C`G`#`#`4`v`q`#`s`4`j`V`n`p`#`#`K`m`2`#`f`c`V`C```8`8`8`8`8`8`8`8`8`8`8````",
"```8`8`8`8`8`8`8`8`8`8`8```e`J`J`C`R`s`a`d`#`.`g`T`.`.`J`#`#`#`#`#`#`#`#`#`F`s`8`#`#`6`c`V`V`C`B`#`B`K`m`Q`a`h`c`V`G```8`8`8`8`8`8`8`8`8`8`8````",
"```8`8`8`8`8`8`8`8`8`8`8```e`L`G`V`P`u`Q`m`f`K`F`4`6`K`s`4`6`4`u`d`K`m`#`#`Q`E`C`J`2`u`t`C`C`o`B`H`b`K`f`A`s`#`#`x`V```8`8`8`8`8`8`8`8`8`8`8````",
"```8`8`8`8`8`8`8`8`8`8`8```e`L`t`R`G`A`4`F`A`A`4`C`C`4`4`s`C`K`4`4`Q`6`Q`F`u`y`U`z`Q`j`J`M`w`y`d`t`.`q`m`m`u`c`d`r`V```8`8`8`8`8`8`8`8`8`8`8````",
"```8`8`8`8`8`8`8`8`8`8`8```e`J`i`J`G`s`m`m`4`K`C`r`C`P`4`C`r`C`6`z`C`D`4`4`Q`H`p`N`k`G`#`w`#`#`L`.`#`.`K`m`2`a`f`#`R```8`8`8`8`8`8`8`8`8`8`8````",
"```8`8`8`8`8`8`8`8`8`8`8```e`w`B`D`C`K`#`m`a`4`s`C`C`P`Q`C`V`r`4`G`C`C`6`C`r`L`t`w`I`J`T`L`t`q`b`#`c`#`Q`m`K`u`a`d`c```8`8`8`8`8`8`8`8`8`8`8````",
"```8`8`8`8`8`8`8`8`8`8`8```g`k`3`V`V`A`m`Q`F`4`u`c`C`z`4`r`C`C`6`G`r`G`6`C`j`v`M`D`V`E`t`t`D`T`T`e`.`#`d`K`u`A`f`c`a```8`8`8`8`8`8`8`8`8`8`8````",
"```8`8`8`8`8`8`8`8`8`8`8```g`.`M`P`C`S`A`4`d`m`A`a`r`P`4`C`V`C`6`P`C`C`6`C`r`x`D`V`V`V`w`y`V`C`t`T`J`.`.`0`#`s`Q`a`#```8`8`8`8`8`8`8`8`8`8`8````",
"```8`8`8`8`8`8`8`8`8`8`8```g`.`T`p`M`C`A`a`s`#`6`u`#`c`l`c`j`c`j`j`c`j`c`j`r`j`x`S`G`C`V`V`V`C`M`p`B`8`b`b`Q`d`Q`u`a```8`8`8`8`8`8`8`8`8`8`8````",
"```8`8`8`8`8`8`8`8`8`8`8```g`.`t`J`L`V`K`d`m`K`a`Q`A`z`K`C`V`R`C`C`R`C`V`C`C`C`c`u`m`A`A`z`C`V`D`I`C`C`8`.`F`s`F`K`u```8`8`8`8`8`8`8`8`8`8`8````",
"```8`8`8`8`8`8`8`8`8`8`8```d`f`2`.`T`i`M`x`V`G`Q`d`#`m`Q`f`f`f`y`f`n`f`y`f`f`v`m`d`h`K`A`m`K`F`V`V`V`V`i`8`.`0`f`f`u```8`8`8`8`8`8`8`8`8`8`8````",
"```8`8`8`8`8`8`8`8`8`8`8```u`f`f`0`.`8`p`C`V`V`V`F`K`h`A`K`f`n`d`n`y`n`f`n`y`f`d`q`f`f`2`m`#`d`Q`C`V`x`M`p`M`.`Q`f`d```8`8`8`8`8`8`8`8`8`8`8````",
"```8`8`8`8`8`8`8`8`8`8`8```s`K`F`m`A`.`8`C`V`I`D`V`C`F`A`A`s`u`j`C`C`C`V`C`C`R`C`V`V`C`K`s`u`Q`d`K`m`f`K`V`L`B`v`.`g```8`8`8`8`8`8`8`8`8`8`8````",
"```8`8`8`8`8`8`8`8`8`8`8```a`u`Q`f`Q`b`b`8`B`i`M`C`V`V`V`C`G`S`x`j`j`j`j`j`j`j`j`c`c`c`l`c`#`A`6`#`s`a`K`r`T`p`T`.`g```8`8`8`8`8`8`8`8`8`8`8````",
"```8`8`8`8`8`8`8`8`8`8`8```c`a`K`s`#`0`.`.`L`T`t`C`V`E`w`V`V`V`D`x`r`C`6`x`C`P`6`C`V`C`4`P`j`a`A`m`d`4`A`F`C`D`8`.`g```8`8`8`8`8`8`8`8`8`8`8````",
"```8`8`8`8`8`8`8`8`8`8`8```a`d`f`A`u`K`d`#`#`e`T`U`D`t`t`v`V`D`L`v`r`C`6`x`C`x`6`r`R`C`4`z`V`c`s`4`K`K`m`K`V`V`I`k`g```8`8`8`8`8`8`8`8`8`8`8````",
"```8`8`8`8`8`8`8`8`8`8`8```c`d`c`u`Q`m`K`#`#`a`b`p`t`L`M`J`I`w`t`L`j`C`6`C`C`x`4`r`V`r`2`P`C`C`s`4`a`m`#`A`C`P`B`w`e```8`8`8`8`8`8`8`8`8`8`8````",
"```8`8`8`8`8`8`8`8`8`8`8```R`#`f`#`2`m`K`b`#`.`L`#`#`w`#`R`k`N`p`H`0`4`4`D`C`z`6`C`r`C`4`F`C`r`C`K`2`m`m`s`G`J`p`J`e```8`8`8`8`8`8`8`8`8`8`8````",
"```8`8`8`8`8`8`8`8`8`8`8```V`r`d`a`u`s`f`s`#`t`d`v`t`M`O`j`Q`z`U`H`s`A`Q`6`Q`4`4`0`C`m`4`5`C`C`4`A`K`u`4`A`G`G`t`L`e```8`8`8`8`8`8`8`8`8`8`8````",
"```8`8`8`8`8`8`8`8`8`8`8```V`x`#`#`s`A`f`K`.`I`B`n`C`C`p`u`2`J`C`v`Q`c`#`m`K`l`u`4`6`4`s`K`4`4`F`K`f`m`2`u`P`V`R`J`e```8`8`8`8`8`8`8`8`8`8`8````",
"```8`8`8`8`8`8`8`8`8`8`8```C`V`c`n`a`Q`s`K`L`#`L`r`V`V`j`6`#`#`8`s`F`#`#`#`#`#`#`#`#`#`J`.`b`T`i`.`#`d`a`s`G`V`B`J`e```8`8`8`8`8`8`8`8`8`8`8````",
"```8`8`8`8`8`8`8`8`8`8`8```x`V`j`f`#`2`m`K`#`#`k`n`V`r`4`s`#`q`v`4`#`#`C`C`r`r`#`#`#`#`B`w`8`.`L`B`#`#`j`A`C`L`B`w`e```8`8`8`8`8`8`8`8`8`8`8````",
"```8`8`8`8`8`8`8`8`8`8`8```V`r`C`f`#`s`m`F`p`t`t`8`j`A`2`Z`r`J`4`c`#`j`r`G`V`c`V`x`r`#`w`t`T`B`L`J`#`#`C`C`C`E`B`k`g```8`8`8`8`8`8`8`8`8`8`8````",
"```8`8`8`8`8`8`8`8`8`8`8```r`X`C`a`a`K`m`A`n`V`C`o`q`4`h`t`3`u`F`#`#`X`c`x`R`c`R`#`r`#`w`e`.`8`t`.`#`#`x`V`V`r`8`b`g```8`8`8`8`8`8`8`8`8`8`8````",
"```8`8`8`8`8`8`8`8`8`8`8```c`C`C`d`#`m`Q`A`j`V`V`j`4`h`#`q`y`2`#`#`j`V`V`R`C`V`C`C`x`#`y`g`.`p`e`b`c`a`C`V`V`V`x`.`L```8`8`8`8`8`8`8`8`8`8`8````",
"```8`8`8`8`8`8`8`8`8`8`8```n`V`V`a`d`K`A`K`e`V`C`2`F`r`a`i`4`#`#`c`r`j`j`j`r`r`r`r`r`#`t`g`.`8`J`.`a`#`r`X`V`V`D`8`8```8`8`8`8`8`8`8`8`8`8`8````",
"```8`8`8`8`8`8`8`8`8`8`8```L`B`r`#`d`u`s`K`L`n`s`4`J`3`r`2`s`#`#`P`Z`Z`Y`Z`Z`P`P`Z`x`#`q`p`8`e`L`8`#`a`r`V`C`M`8`8`8```8`8`8`8`8`8`8`8`8`8`8````",
"```8`8`8`8`8`8`8`8`8`8`8```T`T`t`.`#`Q`m`K`p`t`4`a`#`7`y`2`#`#`d`K`f`6`A`s`d`4`4`f`A`#`q`g`T`B`L`B`#`#`j`J`8`8`8`8`8```8`8`8`8`8`8`8`8`8`8`8````",
"```8`8`8`8`8`8`8`8`8`8`8```L`L`J`b`M`J`f`K`p`4`N`#`#`q`4`#`#`m`s`6`m`6`A`2`s`6`4`m`4`#`h`k`.`8`J`.`a`J`8`8`8`8`8`8`8```8`8`8`8`8`8`8`8`8`8`8````",
"```8`8`8`8`8`8`8`8`8`8`8```B`T`B`.`8`8`B`B`m`Q`P`j`L`2`c`#`#`2`m`A`d`K`s`m`f`Q`Q`d`m`#`n`p`.`.`b`L`8`8`8`8`8`8`8`8`8```8`8`8`8`8`8`8`8`8`8`8````",
"```8`8`8`8`8`8`8`8`8`8`8```8`p`L`w`M`J`8`8`8`J`J`E`d`m`#`#`K`2`2`2`A`4`2`K`K`K`K`Q`2`#`g`k`e`L`8`8`8`8`8`8`8`8`8`8`8```8`8`8`8```````8`8`8`8````",
"```8`8`8`8`8`8`8`8`8`8`8```t`v`H`B`J`L`8`8`8`8`8`i`T`T`8`T`L`B`w`K`Q`K`s`4`s`A`u`K`m`2`2`p`8`8`8`8`8`8`8`8`8`8`8`8`8```8`8`8`8`O```O`8`8`8`8````",
"```8`8`8`8`8`8`8`8`8`8`8```y`4`u`4`f`8`8`8`8`8`8`B`8`8`8`8`8`8`8`M`K`4`K`A`K`Q`Q`2`K`K`f`A`O`8`8`8`8`8`8`8`8`8`8`8`8```8`8`q`q`8```8`q`q`8`8````",
"```8`8`8`8`8`8`8`8`8`8`8```5`m`2`K`s`8`8`8`8`8`M`J`t`8`8`8`8`8`8`u`u`s`Q`f`K`K`F`K`u`s`2`A`8`8`8`8`8`8`8`8`8`8`8`8`8```8`q```````````````q`8````",
"```8`8`8`8`8`8`8`8`8`8`8```5`m`6`K`u`7`8`8`8`8`p`L`w`t`8`8`8`8`8`s`K`q`2`u`2`s`K`u`K`A`T`8`8`8`8`8`8`8`8`8`8`8`8`8`8```8```````````````````8````",
"```8`8`8`8`8`8`8`8`8`8`8```Q`s`2`4`f`8`8`8`8`L`w`t`T`8`8`8`8`8`8`v`Q`w`2`A`u`A`Q`m`A`Q`B`8`8`8`8`8`8`8`8`8`8`8`8`8`8```8```````````````````8````",
"```8`8`8`8`8`8`8`8`8`8`8```B`2`s`4`q`8`8`8`8`J`8`w`w`8`8`8`8`8`8`8`8`T`K`K`2`Q`A`K`A`s`8`8`8`8`8`8`8`8```````8`8`8`8```8`v```````````````v`8````",
"```8`8`8`8`8`8`8`8`8`8`8```8`A`6`m`8`8`8`8`8`t`8`8`8`8`8`8`8`8`8`8`8`H`K`K`K`K`u`K`A`O`8`8`8`8`8`8`8`8`O```O`8`8`8`8```8`8`v```````````v`8`8````",
"```8`8`8`8`8`8`8`8`8`8`8```L`F`Q`2`h`8`8`8`8`L`8`8`8`L`8`8`8`8`8`8`8`H`K`A`Q`A`u`K`A`8`8`8`8`8`8`8`q`q`8```8`q`q`8`8```8`8`8`v```````v`8`8`8````",
"```8`8`8`8`8`8`8`8`8`8`8```v`Q`m`4`s`8`8`8`8`8`B`8`8`g`B`8`8`8`8`8`M`0`A`Q`K`Q`u`2`I`8`8`8`8`8`8`q```````````````q`8```8`8`8`8`v```v`8`8`8`8````",
"```8`8`8`8`8`8`8`8`8`8`8```L`2`2`Q`T`8`8`8`8`8`t`8`p`b`p`T`8`8`8`8`M`2`u`2`A`2`F`Q`O`8`8`8`8`8`8```````````````````8```8`8`8`8`8`v`8`8`8`8`8````",
"```8`8`8`8`8`8`8`8`8`8`8```8`y`4`K`J`8`8`8`8`8`B`8`B`w`8`B`w`8`8`8`8`K`K`K`K`2`K`K`L`8`8`8`8`8`8```````````````````8```8`8`8`8`8`8`8`8`8`8`8````",
"```8`8`8`8`8`8`8`8`8`8`8```B`4`f`4`n`8`8`8`8`8`t`T`p`t`t`8`8`8`8`8`8`A`2`K`Q`u`m`#`n`8`8`8`8`8`8`v```````````````v`8```8`8`8`8`8`8`8`8`8`8`8````",
"```8`8`8`8`8`8`8`8`8`8`8```H`K`2`K`m`8`8`8`8`8`g`#`e`p`t`w`w`B`B`w`B`n`f`a`#`#`#`a`r`I`8`8`8`8`8`8`v```````````v`8`8```8`8`8`8`n`````n`8`8`8````",
"```8`8`8`8`8`8`8`8`8`8`8```N`s`6`K`s`8`8`8`8`k`C`j`c`c`#`#`#`#`#`#`#`#`#`c`j`x`V`V`V`C`T`8`8`8`8`8`8`v```````v`8`8`8```8`8`8`n`````````q`8`8````",
"```8`8`8`8`8`8`8`8`8`8`8```H`A`u`Q`m`8`8`8`p`V`V`V`X`V`V`V`V`V`R`V`V`V`X`V`V`V`X`C`d`c`C`8`8`8`8`8`8`8`v```v`8`8`8`8```8`8`8`````8`8`````8`8````",
"```8`8`8`8`8`8`8`8`8`8`8```L`K`2`K`w`8`8`t`V`V`a`a`j`x`C`G`G`V`R`C`x`C`C`V`l`a`#`a`r`a`j`x`8`8`8`8`8`8`8`v`8`8`8`8`8```8`8`8`````8`8`````8`8````",
"```8`8`8`8`8`8`8`8`8`8`8```8`8`J`T`8`8`t`V`V`a`c`R`j`c`l`#`a`V`a`j`j`r`a`x`c`c`V`V`V`R`a`r`o`8`8`8`8`8`8`8`8`8`8`8`8```8`8`8`````8`8`8`8`8`8````",
"```8`8`8`8`8`8`8`8`8`8`8```````````````````````````````````````````````````````````````````````````````````````````````8`8`8`````8`8`8`8`8`8````",
"```8`8`8`8`8`8`8`8`8`8`8`8`8`8`8`8`8`8`8`8`8`8`8`8`8`8`8`8`8`8`8`8`8`8`8`8`8`8`8`8`8`8`8`8`8`8`8`8`8`8`8`8`8`8`8`8`8`8`8`8`8`````8`8`8`8`8`8````",
"```8`8`8`8`8`8`8`8`8`8`8`8`8`8`8`8`8`8`8`8`8`8`8`8`8`8`8`8`8`8`8`8`8`8`8`8`8`8`8`8`8`8`8`8`8`8`8`8`8`8`8`8`8`8`8`8`8`8`8`8`8`````8`8`8`8`8`8````",
"```8`8`8`8`8`8`8`8`8`8`8`8`8`8`8`8`8`8`8`8`8`8`8`8`8`8`8`8`8`8`8`8`8`8`8`8`8`8`8`8`8`8`8`8`8`8`8`8`8`8`8`8`8`8`8`8`8`8`8`8`8`````8`8`8`8`8`8````",
"```8`8`8`8`8`8`8`8`8`8`8`8`8`8`8`8`8`8`8`8`8`8`8`8`8`8`8`8`8`8`8`8`8`8`8`8`8`8`8`8`8`8`8`8`8`8`8`8`8`8`8`8`8`8`8`8`8`8`8`8`8`````8`8`8`8`8`8````",
"```8`8`8`8`8`8`8`8`8`8`8`8`8`8`8`8`8`8`8`8`8`8`8`8`8`8`8`8`8`8`8`8`8`8`8`8`8`8`8`8`8`8`8`8`8`8`8`8`8`8`8`8`8`8`8`8`8`8`8`8`````````8`8`8`8`8````",
"```8`8`8`8`8`8`8`8`8`8`8`8`8`8`8`8`8`8`8`8`8`8`8`8`8`8`8`8`8`8`8`8`8`8`8`8`8`8`8`8`8`8`8`8`8`8`8`8`8`8`8`8`8`8`8`8`8`8`8`8`````````8`8`8`8`8````",
"```8`8`8`8`8`8`8`8`8`8`8`8`8`8`8`8`8`8`8`8`8`8`8`8`8`8`8`8`8`8`8`8`8`8`8`8`8`8`8`8`8`8`8`8`8`8`8`8`8`8`8`8`8`8`8`8`8`8`8`8`8`8`8`8`8`8`8`8`8````",
"```8`8`8`8`8`8`8`8`8`8`8`8`8`8`8`8`8`8`8`8`8`8`8`8`8`8`8`8`8`8`8`8`8`8`8`8`8`8`8`8`8`8`8`8`8`8`8`8`8`8`8`8`8`8`8`8`8`8`8`8`8`8`8`8`8`8`8`8`8````",
"```y`8`8`8`8`8`8`8`8`8`8`8`8`8`8`8`8`8`8`8`8`8`8`8`8`8`8`8`8`8`8`8`8`8`8`8`8`8`8`8`8`8`8`8`8`8`8`8`8`8`8`8`8`8`8`8`8`8`8`8`8`8`8`8`8`8`8`8`y```q",
"`q```````````````````````````````````````````````````````````````````````````````````````````````````````````````````````````````````````````q``"
};
