/* XPM */
static char const *face_13_xpm[] = {
/* width height num_colors chars_per_pixel */
"    72    96       16            1",
/* colors */
"` c #ffffff",
". c #000000",
"# c #ff0008",
"a c #ff737b",
"b c #ffbdbd",
"c c #ff4a4a",
"d c #ff9c9c",
"e c #73735a",
"f c #9c9473",
"g c #001084",
"h c #081018",
"i c #102129",
"j c #10298c",
"k c #291018",
"l c #293131",
"m c #293184",
/* pixels */
"e.....................................................................e.",
".f```````````````````````````````````````````````````````````````````f..",
".`````````````````````````````````````````````````````````````````````..",
".``````b``````````````````````````````````````````````````````````````..",
".``````#``````````````````````````````````````````````````````````````..",
".`````b#b`````````````````````````````````````````````````````````````..",
".`````a#a`````````````````````````````````````````````````````````````..",
".````b###b````````````````````````````````````````````````````````````..",
".````a#`#a````````````````````````````````````````````````````````````..",
".```b#a`a#b```````````````````````````````````````````````````````````..",
".```a#```#a```````````````````````````````````````````````````````````..",
".``b#######b``````````````````````````````````````````````````````````..",
".``a#######a``````````````````````````````````````````````````````````..",
".``##`````##``````````````````````````````````````````````````````````..",
".`####```####`````````````````````````````````````````````````````````..",
".`####```####`````````````````````````````````````````````````````````..",
".`````````````````````````````````````````````````````````````````````..",
".`````````````````````````````````````````````````````````````````````..",
".``````b``````````````````````````````````````````````````````````````..",
".``````#``````````````````````````````````````````````````````````````..",
".`````a#a`````````````````````````````````````````````````````````````..",
".````d###d````````````````````````````````````````````````````````````..",
".```b#####b```````````````````````````````````````````````````````````..",
".```#######```````````````````````````````````````````````````````````..",
".```b#####b```````````````````````````````````````````````````````````..",
".````d###d````````````````````````````````````````````````````````````..",
".`````a#a`````````````````````````````````````````````````````````````..",
".``````#``````````````````````````````````````````````````````````````..",
".``````b``````````````````````````````````````````````````````````````..",
".`````````````````````````````````````````````````````````````````````..",
".`````````````````````````````````````````````````````````````````````..",
".`````````````````````````````````````````````````````````````````````..",
".`````````````````````````````````````````````````````````````````````..",
".`````````````````````````````````````````````````````````````````````..",
".`````````````````````````````````````````````````````````````````````..",
".`````````````````````````````````````````````````````````````````````..",
".`````````````````````````````````````````````````````````````````````..",
".`````````````````````````````````````````````````````````````````````..",
".`````````````````````````````````````````````````````````````````````..",
".`````````````````````````````````````````````````````````````````````..",
".``````````````````````````````````a``````````````````````````````````..",
".`````````````````````````````````aca`````````````````````````````````..",
".````````````````````````````````bc#cb````````````````````````````````..",
".````````````````````````````````c###c````````````````````````````````..",
".```````````````````````````````c#####c```````````````````````````````..",
".``````````````````````````````a#######a``````````````````````````````..",
".`````````````````````````````b#########b`````````````````````````````..",
".`````````````````````````````c#########c`````````````````````````````..",
".`````````````````````````````c#########c`````````````````````````````..",
".`````````````````````````````b#########b`````````````````````````````..",
".``````````````````````````````a#######a``````````````````````````````..",
".```````````````````````````````c#####c```````````````````````````````..",
".````````````````````````````````c###c````````````````````````````````..",
".````````````````````````````````bc#cb````````````````````````````````..",
".`````````````````````````````````aca`````````````````````````````````..",
".``````````````````````````````````a``````````````````````````````````..",
".`````````````````````````````````````````````````````````````````````..",
".`````````````````````````````````````````````````````````````````````..",
".`````````````````````````````````````````````````````````````````````..",
".`````````````````````````````````````````````````````````````````````..",
".`````````````````````````````````````````````````````````````````````..",
".`````````````````````````````````````````````````````````````````````..",
".`````````````````````````````````````````````````````````````````````..",
".`````````````````````````````````````````````````````````````````````..",
".`````````````````````````````````````````````````````````````````````..",
".`````````````````````````````````````````````````````````````````````..",
".`````````````````````````````````````````````````````````````````````..",
".``````````````````````````````````````````````````````````````b``````..",
".``````````````````````````````````````````````````````````````#``````..",
".`````````````````````````````````````````````````````````````a#a`````..",
".````````````````````````````````````````````````````````````d###d````..",
".```````````````````````````````````````````````````````````b#####b```..",
".```````````````````````````````````````````````````````````#######```..",
".```````````````````````````````````````````````````````````b#####b```..",
".````````````````````````````````````````````````````````````d###d````..",
".`````````````````````````````````````````````````````````````a#a`````..",
".``````````````````````````````````````````````````````````````#``````..",
".``````````````````````````````````````````````````````````````b``````..",
".`````````````````````````````````````````````````````````````````````..",
".`````````````````````````````````````````````````````````````````````..",
".`````````````````````````````````````````````````````````####```####`..",
".`````````````````````````````````````````````````````````####```####`..",
".``````````````````````````````````````````````````````````##`````##``..",
".``````````````````````````````````````````````````````````a#######a``..",
".``````````````````````````````````````````````````````````b#######b``..",
".```````````````````````````````````````````````````````````a#```#a```..",
".```````````````````````````````````````````````````````````b#a`a#b```..",
".````````````````````````````````````````````````````````````a#`#a````..",
".````````````````````````````````````````````````````````````b###b````..",
".`````````````````````````````````````````````````````````````a#a`````..",
".`````````````````````````````````````````````````````````````b#b`````..",
".``````````````````````````````````````````````````````````````#``````..",
".``````````````````````````````````````````````````````````````b``````..",
".`````````````````````````````````````````````````````````````````````..",
".f```````````````````````````````````````````````````````````````````f.e",
"e.....................................................................e."
};
