/* XPM */
static char *face_40_xpm[] = {
/* width height num_colors chars_per_pixel */
"    72    96       16            1",
/* colors */
"` c #ffffff",
". c #000000",
"# c #73735a",
"a c #947b84",
"b c #ceceb5",
"c c #293131",
"d c #081018",
"e c #102129",
"f c #291018",
"g c #5a5252",
"h c #9c9473",
"i c #bdbdce",
"j c #e7e7f7",
"k c #001084",
"l c #10298c",
"m c #293184",
/* pixels */
"#.....................................................................#.",
".h```````````````````````````````````````````````````````````````````h..",
".`````````````````````````````````````````````````````````````````````..",
".`````````````````````````````````````````````````````````````````````..",
".````#...#````````````````````````````````````````````````````````````..",
".```#.....#```````````````````````````````````````````````````````````..",
".```..```..```````````````````````````````````````````````````````````..",
".````````..```````````````````````````````````````````````````````````..",
".```````#.#```````````````````````````````````````````````````````````..",
".``````#.#````````````````````````````````````````````````````````````..",
".`````#.#``````````````````````````b``````````````````````````````````..",
".````#.#``````````````````````````#d#`````````````````````````````````..",
".```#.#``..``````````````````````#...#````````````````````````````````..",
".```..```..`````````````````````#.....#```````````````````````````````..",
".```.......````````````````````#.......#``````````````````````````````..",
".```.......```````````````````#.........#`````````````````````````````..",
".````````````````````````````#d.........d#````````````````````````````..",
".```````````````````````````bc...........cb```````````````````````````..",
".``````a````````````````````#d...........d#```````````````````````````..",
".`````a.a```````````````````#.............#```````````````````````````..",
".````a...a``````````````````#.............#```````````````````````````..",
".```a.....a`````````````````bc....c.c....cb```````````````````````````..",
".``a.......a`````````````````bgef#j.j#fegb````````````````````````````..",
".``.........``````````````````````#.#`````````````````````````````````..",
".``.........`````````````````````i...i````````````````````````````````..",
".``#.......#``````````````````````````````````````````````````````````..",
".```##`.`##```````````````````````````````````````````````````````````..",
".`````b.b`````````````````````````````````````````````````````````````..",
".`````...`````````````````````````````````````````````````````````````..",
".`````````````````````````````````````````````````````````````````````..",
".`````````````````````````````````````````````````````````````````````..",
".`````````````````````````````````````````````````````````````````````..",
".`````````````````````````````````````````````````````````````````````..",
".`````````````````````````````````````````````````````````````````````..",
".`````````````````````````````````````````````````````````````````````..",
".`````````````````````````````````````````````````````````````````````..",
".`````````````````````````````````````````````````````````````````````..",
".`````````````````````````````````````````````````````````````````````..",
".`````````````````````````````````````````````````````````````````````..",
".`````````````````````````````````````````````````````````````````````..",
".`````````````````````````````````````````````````````````````````````..",
".`````````````````````````````````````````````````````````````````````..",
".`````````````````````````````````````````````````````````````````````..",
".`````````````````````````````````````````````````````````````````````..",
".`````````````````````````````````````````````````````````````````````..",
".`````````````````````````````````````````````````````````````````````..",
".`````````````````````````````````````````````````````````````````````..",
".`````````````````````````````````````````````````````````````````````..",
".`````````````````````````````````````````````````````````````````````..",
".`````````````````````````````````````````````````````````````````````..",
".`````````````````````````````````````````````````````````````````````..",
".`````````````````````````````````````````````````````````````````````..",
".`````````````````````````````````````````````````````````````````````..",
".`````````````````````````````````````````````````````````````````````..",
".`````````````````````````````````````````````````````````````````````..",
".`````````````````````````````````````````````````````````````````````..",
".`````````````````````````````````````````````````````````````````````..",
".`````````````````````````````````````````````````````````````````````..",
".`````````````````````````````````````````````````````````````````````..",
".`````````````````````````````````````````````````````````````````````..",
".`````````````````````````````````````````````````````````````````````..",
".`````````````````````````````````````````````````````````````````````..",
".`````````````````````````````````````````````````````````````````````..",
".`````````````````````````````````````````````````````````````````````..",
".`````````````````````````````````````````````````````````````````````..",
".`````````````````````````````````````````````````````````````````````..",
".`````````````````````````````````````````````````````````````````````..",
".`````````````````````````````````````````````````````````````...`````..",
".`````````````````````````````````````````````````````````````b.b`````..",
".```````````````````````````````````````````````````````````##`.`##```..",
".``````````````````````````````````````````````````````````#.......#``..",
".````````````````````````````````i...i`````````````````````.........``..",
".`````````````````````````````````#.#``````````````````````.........``..",
".````````````````````````````bgef#j.j#fegb`````````````````a.......a``..",
".```````````````````````````bc....c.c....cb`````````````````a.....a```..",
".```````````````````````````#.............#``````````````````a...a````..",
".```````````````````````````#.............#```````````````````a.a`````..",
".```````````````````````````#d...........d#````````````````````a``````..",
".```````````````````````````bc...........cb```````````````````````````..",
".````````````````````````````#d.........d#````````````````````````````..",
".`````````````````````````````#.........#```````````````````.......```..",
".``````````````````````````````#.......#````````````````````.......```..",
".```````````````````````````````#.....#`````````````````````..```..```..",
".````````````````````````````````#...#``````````````````````..``#.#```..",
".`````````````````````````````````#d#``````````````````````````#.#````..",
".``````````````````````````````````b``````````````````````````#.#`````..",
".````````````````````````````````````````````````````````````#.#``````..",
".```````````````````````````````````````````````````````````#.#```````..",
".```````````````````````````````````````````````````````````..````````..",
".```````````````````````````````````````````````````````````..```..```..",
".```````````````````````````````````````````````````````````#.....#```..",
".````````````````````````````````````````````````````````````#...#````..",
".`````````````````````````````````````````````````````````````````````..",
".`````````````````````````````````````````````````````````````````````..",
".h```````````````````````````````````````````````````````````````````h.#",
"#.....................................................................#."
};
