/* XPM */
static char *face_08_xpm[] = {
/* width height num_colors chars_per_pixel */
"    72    96       16            1",
/* colors */
"` c #ffffff",
". c #000000",
"# c #73735a",
"a c #394239",
"b c #ceceb5",
"c c #e7e7f7",
"d c #9c9473",
"e c #bdbdce",
"f c #947b84",
"g c #5a5221",
"h c #001084",
"i c #081018",
"j c #102129",
"k c #10298c",
"l c #291018",
"m c #293131",
/* pixels */
"#.....................................................................#.",
".d```````````````````````````````````````````````````````````````````d..",
".`````````````````````````````````````````````````````````````````````..",
".`````````````````````````````````````````````````````````````````````..",
".````#...#````````````````````````````````````````````````````````````..",
".```#.....#```````````````````````````````````````````````````````````..",
".```..```..```````````````````````````````````````````````````````````..",
".```..```..```````````````````````````````````````````````````````````..",
".```..```..```````````````````````````````````````````````````````````..",
".```..```..```````````````````````````````````````````````````````````..",
".```#......`````````b#a#b`````````````````````b#a#b```````````````````..",
".````#.....````````ba...ab```````````````````ba...ab``````````````````..",
".````````..````````#.....#```````````````````#.....#``````````````````..",
".```````f.f````````a.....a```````````````````a.....a``````````````````..",
".````....#`````````#.....#```````````````````#.....#``````````````````..",
".````...g```````````a...a`````````````````````a...a```````````````````..",
".```````````````b#ad`#.#`da#b`````````````b#ad`#.#`da#b```````````````..",
".``````````````ba...#...#...ab```````````ba...#...#...ab``````````````..",
".``````````````#.............#```````````#.............#``````````````..",
".`````aaa``````a.............a```````````a.............a``````````````..",
".````a...a`````#.....#.#.....#```````````#.....#.#.....#``````````````..",
".````a...a`````ba...ac.ca...ab```````````ba...ac.ca...ab``````````````..",
".```#c...c#`````b#a#b`.`b#a#b`````````````b#a#b`.`b#a#b```````````````..",
".``a.......a`````````#.#```````````````````````#.#````````````````````..",
".``.........````````e...e`````````````````````e...e```````````````````..",
".``a.......a``````````````````````````````````````````````````````````..",
".```aa`.`aa```````````````````````````````````````````````````````````..",
".`````b.b`````````````````````````````````````````````````````````````..",
".`````...`````````````````````````````````````````````````````````````..",
".`````````````````````````````````````````````````````````````````````..",
".`````````````````````````````````````````````````````````````````````..",
".```````````````````b#a#b`````````````````````b#a#b```````````````````..",
".``````````````````ba...ab```````````````````ba...ab``````````````````..",
".``````````````````#.....#```````````````````#.....#``````````````````..",
".``````````````````a.....a```````````````````a.....a``````````````````..",
".``````````````````#.....#```````````````````#.....#``````````````````..",
".```````````````````a...a`````````````````````a...a```````````````````..",
".```````````````b#ad`#.#`da#b`````````````b#ad`#.#`da#b```````````````..",
".``````````````ba...#...#...ab```````````ba...#...#...ab``````````````..",
".``````````````#.............#```b#a#b```#.............#``````````````..",
".``````````````a.............a``ba...ab``a.............a``````````````..",
".``````````````#.....#.#.....#``#.....#``#.....#.#.....#``````````````..",
".``````````````ba...ac.ca...ab``a.....a``ba...ac.ca...ab``````````````..",
".```````````````b#a#b`.`b#a#b```#.....#```b#a#b`.`b#a#b```````````````..",
".````````````````````#.#`````````a...a`````````#.#````````````````````..",
".```````````````````e...e````b#ad`#.#`da#b````e...e```````````````````..",
".```````````````````````````ba...#...#...ab```````````````````````````..",
".```````````````````````````#.............#```````````````````````````..",
".```````````````````````````a.............a```````````````````````````..",
".```````````````````````````#.....#.#.....#```````````````````````````..",
".```````````````````e...e```ba...ac.ca...ab```e...e```````````````````..",
".````````````````````#.#`````b#a#b`.`b#a#b`````#.#````````````````````..",
".```````````````b#a#b`.`b#a#b`````#.#`````b#a#b`.`b#a#b```````````````..",
".``````````````ba...ac.ca...ab```e...e```ba...ac.ca...ab``````````````..",
".``````````````#.....#.#.....#```````````#.....#.#.....#``````````````..",
".``````````````a.............a```````````a.............a``````````````..",
".``````````````#.............#```````````#.............#``````````````..",
".``````````````ba...#...#...ab```````````ba...#...#...ab``````````````..",
".```````````````b#ad`#.#`da#b`````````````b#ad`#.#`da#b```````````````..",
".```````````````````a...a`````````````````````a...a```````````````````..",
".``````````````````#.....#```````````````````#.....#``````````````````..",
".``````````````````a.....a```````````````````a.....a``````````````````..",
".``````````````````#.....#```````````````````#.....#``````````````````..",
".``````````````````ba...ab```````````````````ba...ab``````````````````..",
".```````````````````b#a#b`````````````````````b#a#b```````````````````..",
".`````````````````````````````````````````````````````````````````````..",
".`````````````````````````````````````````````````````````````````````..",
".`````````````````````````````````````````````````````````````...`````..",
".`````````````````````````````````````````````````````````````b.b`````..",
".```````````````````````````````````````````````````````````aa`.`aa```..",
".``````````````````````````````````````````````````````````a.......a``..",
".```````````````````e...e````````````````````e...e`````````.........``..",
".````````````````````#.#``````````````````````#.#``````````a.......a``..",
".```````````````b#a#b`.`b#a#b````````````b#a#b`.`b#a#b``````#c...c#```..",
".``````````````ba...ac.ca...ab``````````ba...ac.ca...abc`````a...a````..",
".``````````````#.....#.#.....#``````````#.....#.#.....##`````a...a````..",
".``````````````a.............a``````````a.............aa``````aaa`````..",
".``````````````#.............#``````````#.............##``````````````..",
".``````````````ba...#...#...ab``````````ba...#...#...abc``````````````..",
".```````````````b#ad`#.#`da#b````````````b#ad`#.#`da#b````````````````..",
".```````````````````a...a````````````````````a...a````````````g...````..",
".``````````````````#.....#``````````````````#.....#``````````#....````..",
".``````````````````a.....a``````````````````a.....a`````````f.f```````..",
".``````````````````#.....#``````````````````#.....#`````````..````````..",
".``````````````````ba...ab``````````````````ba...abc````````.....#````..",
".```````````````````b#a#b````````````````````b#a#b``````````......#```..",
".```````````````````````````````````````````````````````````..```..```..",
".```````````````````````````````````````````````````````````..```..```..",
".```````````````````````````````````````````````````````````..```..```..",
".```````````````````````````````````````````````````````````..```..```..",
".```````````````````````````````````````````````````````````#.....#```..",
".````````````````````````````````````````````````````````````#...#````..",
".`````````````````````````````````````````````````````````````````````..",
".`````````````````````````````````````````````````````````````````````..",
".d```````````````````````````````````````````````````````````````````d.#",
"#.....................................................................#."
};
