/* XPM */
static char *face_26_xpm[] = {
/* width height num_colors chars_per_pixel */
"    72    96       16            1",
/* colors */
"` c #ffffff",
". c #000000",
"# c #ff0008",
"a c #ffbdbd",
"b c #ff4a4a",
"c c #ff737b",
"d c #ff3131",
"e c #73735a",
"f c #9c9473",
"g c #001084",
"h c #081018",
"i c #102129",
"j c #10298c",
"k c #291018",
"l c #293131",
"m c #293184",
/* pixels */
"e.....................................................................e.",
".f```````````````````````````````````````````````````````````````````f..",
".`````````````````````````````````````````````````````````````````````..",
".``````a``````````````````````````````````````````````````````````````..",
".``````#``````````````````````````````````````````````````````````````..",
".`````a#a`````````````````````````````````````````````````````````````..",
".`````c#c`````````````````````````````````````````````````````````````..",
".````a###a````````````````````````````````````````````````````````````..",
".````c#`#c````````````````````````````````````````````````````````````..",
".```a#c`c#a```````````````````````````````````````````````````````````..",
".```c#```#c```````````````````````````````````````````````````````````..",
".``a#######a``````````````````````````````````````````````````````````..",
".``c#######c``````````````````````````````````````````````````````````..",
".``##`````##``````````````````````````````````````````````````````````..",
".`####```####`````````````````````````````````````````````````````````..",
".`####```####`````````````````````````````````````````````````````````..",
".`````````````````````````````````````````````````````````````````````..",
".`````````````````````````````````````````````````````````````````````..",
".`````````````````````````````````````````````````````````````````````..",
".```bba`abb```````````````````````````````````````````````````````````..",
".``b##bab##b``````````````````````````````````````````````````````````..",
".``#########``````````````````````````````````````````````````````````..",
".``b#######b``````````````````````````````````````````````````````````..",
".``a#######a``````````````````````````````````````````````````````````..",
".```b#####b```````````````````````````````````````````````````````````..",
".```ab###ba```````````````````````````````````````````````````````````..",
".````ab#ba````````````````````````````````````````````````````````````..",
".`````aba`````````````````````````````````````````````````````````````..",
".``````a``````````````````````````````````````````````````````````````..",
".`````````````````````````````````````````````````````````````````````..",
".`````````````````````````````````````````````````````````````````````..",
".`````````````````````````````````````````````````````````````````````..",
".`````````````````````````````````````````````````````````````````````..",
".`````````````````````````````````````````````````````````````````````..",
".`````````````````````````````````````````````````````````````````````..",
".`````````````````````````````````````````````````````````````````````..",
".`````````````````````````````````````````````````````````````````````..",
".`````````````````````````````````````````````````````````````````````..",
".`````````````````````````````````````````````````````````````````````..",
".`````````````````````````````````````````````````````````````````````..",
".`````````````````````````````cdda```addc`````````````````````````````..",
".````````````````````````````c####c`c####c````````````````````````````..",
".```````````````````````````a######a######a```````````````````````````..",
".```````````````````````````d######c######d```````````````````````````..",
".```````````````````````````###############```````````````````````````..",
".```````````````````````````d#############d```````````````````````````..",
".```````````````````````````cd###########dc```````````````````````````..",
".```````````````````````````add#########dda```````````````````````````..",
".````````````````````````````ad#########da````````````````````````````..",
".`````````````````````````````ad#######da`````````````````````````````..",
".``````````````````````````````ad#####da``````````````````````````````..",
".```````````````````````````````ad###da```````````````````````````````..",
".````````````````````````````````ad#da````````````````````````````````..",
".`````````````````````````````````a#a`````````````````````````````````..",
".``````````````````````````````````a``````````````````````````````````..",
".`````````````````````````````````````````````````````````````````````..",
".`````````````````````````````````````````````````````````````````````..",
".`````````````````````````````````````````````````````````````````````..",
".`````````````````````````````````````````````````````````````````````..",
".`````````````````````````````````````````````````````````````````````..",
".`````````````````````````````````````````````````````````````````````..",
".`````````````````````````````````````````````````````````````````````..",
".`````````````````````````````````````````````````````````````````````..",
".`````````````````````````````````````````````````````````````````````..",
".`````````````````````````````````````````````````````````````````````..",
".`````````````````````````````````````````````````````````````````````..",
".`````````````````````````````````````````````````````````````````````..",
".``````````````````````````````````````````````````````````````a``````..",
".`````````````````````````````````````````````````````````````aba`````..",
".````````````````````````````````````````````````````````````ab#ba````..",
".```````````````````````````````````````````````````````````ab###ba```..",
".```````````````````````````````````````````````````````````b#####b```..",
".``````````````````````````````````````````````````````````a#######a``..",
".``````````````````````````````````````````````````````````b#######b``..",
".``````````````````````````````````````````````````````````#########``..",
".``````````````````````````````````````````````````````````b##bab##b``..",
".```````````````````````````````````````````````````````````bba`abb```..",
".`````````````````````````````````````````````````````````````````````..",
".`````````````````````````````````````````````````````````````````````..",
".`````````````````````````````````````````````````````````````````````..",
".`````````````````````````````````````````````````````````####```####`..",
".`````````````````````````````````````````````````````````####```####`..",
".``````````````````````````````````````````````````````````##`````##``..",
".``````````````````````````````````````````````````````````c#######c``..",
".``````````````````````````````````````````````````````````a#######a``..",
".```````````````````````````````````````````````````````````c#```#c```..",
".```````````````````````````````````````````````````````````a#c`c#a```..",
".````````````````````````````````````````````````````````````c#`#c````..",
".````````````````````````````````````````````````````````````a###a````..",
".`````````````````````````````````````````````````````````````c#c`````..",
".`````````````````````````````````````````````````````````````a#a`````..",
".``````````````````````````````````````````````````````````````#``````..",
".``````````````````````````````````````````````````````````````a``````..",
".`````````````````````````````````````````````````````````````````````..",
".f```````````````````````````````````````````````````````````````````f.e",
"e.....................................................................e."
};
