/* XPM */
static char *face_28_xpm[] = {
/* width height num_colors chars_per_pixel */
"    72    96       16            1",
/* colors */
"` c #ffffff",
". c #ff0008",
"# c #000000",
"a c #ffbdbd",
"b c #ff3131",
"c c #ff737b",
"d c #ff4a4a",
"e c #73735a",
"f c #9c9473",
"g c #001084",
"h c #081018",
"i c #102129",
"j c #10298c",
"k c #291018",
"l c #293131",
"m c #293184",
/* pixels */
"e#####################################################################e#",
"#f```````````````````````````````````````````````````````````````````f##",
"#`````````````````````````````````````````````````````````````````````##",
"#`````````````````````````````````````````````````````````````````````##",
"#```.......```````````````````````````````````````````````````````````##",
"#```.......```````````````````````````````````````````````````````````##",
"#```..``c.c```````````````````````````````````````````````````````````##",
"#``````c.c````````````````````````````````````````````````````````````##",
"#`````c.c`````````````````````````````````````````````````````````````##",
"#````c...c````````````````````````````````````````````````````````````##",
"#````.....c```````````````````cbba```abbc`````````````````````````````##",
"#````````..``````````````````c....c`c....c````````````````````````````##",
"#````````..`````````````````a......a......a```````````````````````````##",
"#```..```..`````````````````b......c......b```````````````````````````##",
"#```c.....c`````````````````...............```````````````````````````##",
"#````c...c``````````````````b.............b```````````````````````````##",
"#```````````````````````````cb...........bc```````````````````````````##",
"#```````````````````````````abb.........bba```````````````````````````##",
"#````````````````````````````ab.........ba````````````````````````````##",
"#```dda`add```````````````````ab.......ba`````````````````````````````##",
"#``d..dad..d```````````````````ab.....ba``````````````````````````````##",
"#``.........````````````````````ab...ba```````````````````````````````##",
"#``d.......d`````````````````````ab.ba````````````````````````````````##",
"#``a.......a``````````````````````a.a`````````````````````````````````##",
"#```d.....d````````````````````````a``````````````````````````````````##",
"#```ad...da```````````````````````````````````````````````````````````##",
"#````ad.da````````````````````````````````````````````````````````````##",
"#`````ada`````````````````````````````````````````````````````````````##",
"#``````a``````````````````````````````````````````````````````````````##",
"#`````````````````````````````````````````````````````````````````````##",
"#`````````````````````````````````````````````````````````````````````##",
"#`````````````````````````````````````````````````````````````````````##",
"#`````````````````````````````````````````````````````````````````````##",
"#`````````````````````````````````````````````````````````````````````##",
"#`````````````````````````````````````````````````````````````````````##",
"#`````````````````````````````````````````````````````````````````````##",
"#`````````````````````````````````````````````````````````````````````##",
"#`````````````````````````````````````````````````````````````````````##",
"#`````````````````````````````````````````````````````````````````````##",
"#`````````````````````````````````````````````````````````````````````##",
"#`````````````````````````````cbba```abbc`````````````````````````````##",
"#````````````````````````````c....c`c....c````````````````````````````##",
"#```````````````````````````a......a......a```````````````````````````##",
"#```````````````````````````b......c......b```````````````````````````##",
"#```````````````````````````...............```````````````````````````##",
"#```````````````````````````b.............b```````````````````````````##",
"#```````````````````````````cb...........bc```````````````````````````##",
"#```````````````````````````abb.........bba```````````````````````````##",
"#````````````````````````````ab.........ba````````````````````````````##",
"#`````````````````````````````ab.......ba`````````````````````````````##",
"#``````````````````````````````ab.....ba``````````````````````````````##",
"#```````````````````````````````ab...ba```````````````````````````````##",
"#````````````````````````````````ab.ba````````````````````````````````##",
"#`````````````````````````````````a.a`````````````````````````````````##",
"#``````````````````````````````````a``````````````````````````````````##",
"#`````````````````````````````````````````````````````````````````````##",
"#`````````````````````````````````````````````````````````````````````##",
"#`````````````````````````````````````````````````````````````````````##",
"#`````````````````````````````````````````````````````````````````````##",
"#`````````````````````````````````````````````````````````````````````##",
"#`````````````````````````````````````````````````````````````````````##",
"#`````````````````````````````````````````````````````````````````````##",
"#`````````````````````````````````````````````````````````````````````##",
"#`````````````````````````````````````````````````````````````````````##",
"#`````````````````````````````````````````````````````````````````````##",
"#`````````````````````````````````````````````````````````````````````##",
"#`````````````````````````````````````````````````````````````````````##",
"#``````````````````````````````````````````````````````````````a``````##",
"#`````````````````````````````````````````````````````````````ada`````##",
"#````````````````````````````````````````````````````````````ad.da````##",
"#```````````````````````````````````````````````````````````ad...da```##",
"#``````````````````````````````````a````````````````````````d.....d```##",
"#`````````````````````````````````a.a``````````````````````a.......a``##",
"#````````````````````````````````ab.ba`````````````````````d.......d``##",
"#```````````````````````````````ab...ba````````````````````.........``##",
"#``````````````````````````````ab.....ba```````````````````d..dad..d``##",
"#`````````````````````````````ab.......ba```````````````````dda`add```##",
"#````````````````````````````ab.........ba````````````````````````````##",
"#```````````````````````````abb.........bba```````````````````````````##",
"#```````````````````````````cb...........bc```````````````````````````##",
"#```````````````````````````b.............b``````````````````c...c````##",
"#```````````````````````````...............`````````````````c.....c```##",
"#```````````````````````````b......c......b`````````````````..```..```##",
"#```````````````````````````a......a......a`````````````````..````````##",
"#````````````````````````````c....c`c....c``````````````````..````````##",
"#`````````````````````````````cbba```abbc```````````````````c.....````##",
"#````````````````````````````````````````````````````````````c...c````##",
"#`````````````````````````````````````````````````````````````c.c`````##",
"#````````````````````````````````````````````````````````````c.c``````##",
"#```````````````````````````````````````````````````````````c.c``..```##",
"#```````````````````````````````````````````````````````````.......```##",
"#```````````````````````````````````````````````````````````.......```##",
"#`````````````````````````````````````````````````````````````````````##",
"#`````````````````````````````````````````````````````````````````````##",
"#f```````````````````````````````````````````````````````````````````f#e",
"e#####################################################################e#"
};
