/* XPM */
static char const *face_23_xpm[] = {
/* width height num_colors chars_per_pixel */
"    72    96      256            2",
/* colors */
"`` c #000000",
"`. c #001084",
"`# c #081018",
"`a c #102129",
"`b c #10298c",
"`c c #291018",
"`d c #293131",
"`e c #293184",
"`f c #394239",
"`g c #394aa5",
"`h c #425a52",
"`i c #4263bd",
"`j c #521021",
"`k c #525a9c",
"`l c #5a2929",
"`m c #5a5221",
"`n c #5a5252",
"`o c #633173",
"`p c #637bad",
"`q c #73735a",
"`r c #7b1018",
"`s c #7b7329",
"`t c #7b94c6",
"`u c #947b21",
"`v c #947b84",
"`w c #949cbd",
"`x c #9c2929",
"`y c #9c9473",
"`z c #a55221",
"`A c #a59429",
"`B c #a5b5de",
"`C c #ad1018",
"`D c #ad5263",
"`E c #b57384",
"`F c #b57b21",
"`G c #bd3129",
"`H c #bd9c5a",
"`I c #bd9ca5",
"`J c #bdbdce",
"`K c #c69c21",
"`L c #c6def7",
"`M c #c6f7ff",
"`N c #ceb563",
"`O c #ceceb5",
"`P c #de524a",
"`Q c #deb521",
"`R c #e72929",
"`S c #e77b21",
"`T c #e7e7f7",
"`U c #f7dea5",
"`V c #ff0008",
"`W c #ff00ff",
"`X c #ff3131",
"`Y c #ff4a4a",
"`Z c #ff737b",
"`0 c #ff9c31",
"`1 c #ff9c9c",
"`2 c #ffbd21",
"`3 c #ffbdbd",
"`4 c #ffde18",
"`5 c #ffde63",
"`6 c #ffff29",
"`7 c #ffffa5",
"`8 c #ffffff",
".` c #ffffff",
".. c #ffffff",
".# c #ffffff",
".a c #ffffff",
".b c #ffffff",
".c c #ffffff",
".d c #ffffff",
".e c #ffffff",
".f c #ffffff",
".g c #ffffff",
".h c #ffffff",
".i c #ffffff",
".j c #ffffff",
".k c #ffffff",
".l c #ffffff",
".m c #ffffff",
".n c #ffffff",
".o c #ffffff",
".p c #ffffff",
".q c #ffffff",
".r c #ffffff",
".s c #ffffff",
".t c #ffffff",
".u c #ffffff",
".v c #ffffff",
".w c #ffffff",
".x c #ffffff",
".y c #ffffff",
".z c #ffffff",
".A c #ffffff",
".B c #ffffff",
".C c #ffffff",
".D c #ffffff",
".E c #ffffff",
".F c #ffffff",
".G c #ffffff",
".H c #ffffff",
".I c #ffffff",
".J c #ffffff",
".K c #ffffff",
".L c #ffffff",
".M c #ffffff",
".N c #ffffff",
".O c #ffffff",
".P c #ffffff",
".Q c #ffffff",
".R c #ffffff",
".S c #ffffff",
".T c #ffffff",
".U c #ffffff",
".V c #ffffff",
".W c #ffffff",
".X c #ffffff",
".Y c #ffffff",
".Z c #ffffff",
".0 c #ffffff",
".1 c #ffffff",
".2 c #ffffff",
".3 c #ffffff",
".4 c #ffffff",
".5 c #ffffff",
".6 c #ffffff",
".7 c #ffffff",
".8 c #ffffff",
"#` c #ffffff",
"#. c #ffffff",
"## c #ffffff",
"#a c #ffffff",
"#b c #ffffff",
"#c c #ffffff",
"#d c #ffffff",
"#e c #ffffff",
"#f c #ffffff",
"#g c #ffffff",
"#h c #ffffff",
"#i c #ffffff",
"#j c #ffffff",
"#k c #ffffff",
"#l c #ffffff",
"#m c #ffffff",
"#n c #ffffff",
"#o c #ffffff",
"#p c #ffffff",
"#q c #ffffff",
"#r c #ffffff",
"#s c #ffffff",
"#t c #ffffff",
"#u c #ffffff",
"#v c #ffffff",
"#w c #ffffff",
"#x c #ffffff",
"#y c #ffffff",
"#z c #ffffff",
"#A c #ffffff",
"#B c #ffffff",
"#C c #ffffff",
"#D c #ffffff",
"#E c #ffffff",
"#F c #ffffff",
"#G c #ffffff",
"#H c #ffffff",
"#I c #ffffff",
"#J c #ffffff",
"#K c #ffffff",
"#L c #ffffff",
"#M c #ffffff",
"#N c #ffffff",
"#O c #ffffff",
"#P c #ffffff",
"#Q c #ffffff",
"#R c #ffffff",
"#S c #ffffff",
"#T c #ffffff",
"#U c #ffffff",
"#V c #ffffff",
"#W c #ffffff",
"#X c #ffffff",
"#Y c #ffffff",
"#Z c #ffffff",
"#0 c #ffffff",
"#1 c #ffffff",
"#2 c #ffffff",
"#3 c #ffffff",
"#4 c #ffffff",
"#5 c #ffffff",
"#6 c #ffffff",
"#7 c #ffffff",
"#8 c #ffffff",
"a` c #ffffff",
"a. c #ffffff",
"a# c #ffffff",
"aa c #ffffff",
"ab c #ffffff",
"ac c #ffffff",
"ad c #ffffff",
"ae c #ffffff",
"af c #ffffff",
"ag c #ffffff",
"ah c #ffffff",
"ai c #ffffff",
"aj c #ffffff",
"ak c #ffffff",
"al c #ffffff",
"am c #ffffff",
"an c #ffffff",
"ao c #ffffff",
"ap c #ffffff",
"aq c #ffffff",
"ar c #ffffff",
"as c #ffffff",
"at c #ffffff",
"au c #ffffff",
"av c #ffffff",
"aw c #ffffff",
"ax c #ffffff",
"ay c #ffffff",
"az c #ffffff",
"aA c #ffffff",
"aB c #ffffff",
"aC c #ffffff",
"aD c #ffffff",
"aE c #ffffff",
"aF c #ffffff",
"aG c #ffffff",
"aH c #ffffff",
"aI c #ffffff",
"aJ c #ffffff",
"aK c #ffffff",
"aL c #ffffff",
"aM c #ffffff",
"aN c #ffffff",
"aO c #ffffff",
"aP c #ffffff",
"aQ c #ffffff",
"aR c #ffffff",
"aS c #ffffff",
"aT c #ffffff",
"aU c #ffffff",
"aV c #ffffff",
"aW c #ffffff",
"aX c #ffffff",
"aY c #ffffff",
"aZ c #ffffff",
"a0 c #ffffff",
"a1 c #ffffff",
"a2 c #ffffff",
"a3 c #ffffff",
"a4 c #ffffff",
"a5 c #ffffff",
"a6 c #ffffff",
"a7 c #ffffff",
"a8 c #ffffff",
/* pixels */
"`q```````````````````````````````````````````````````````````````````````````````````````````````````````````````````````````````````````````q``",
"```y`8`8`8`8`8`8`8`8`8`8`8`8`8`8`8`8`8`8`8`8`8`8`8`8`8`8`8`8`8`8`8`8`8`8`8`8`8`8`8`8`8`8`8`8`8`8`8`8`8`8`8`8`8`8`8`8`8`8`8`8`8`8`8`8`8`8`8`y````",
"```8`8`8`8`8`8`8`8`8`8`8`8`8`8`8`8`8`8`8`8`8`8`8`8`8`8`8`8`8`8`8`8`8`8`8`8`8`8`8`8`8`8`8`8`8`8`8`8`8`8`8`8`8`8`8`8`8`8`8`8`8`8`8`8`8`8`8`8`8````",
"```8`8`8`8`8`8`8`8`8`8`8`8`8`8`8`8`8`8`8`8`8`8`8`8`8`8`8`8`8`8`8`8`8`8`8`8`8`8`8`8`8`8`8`8`8`8`8`8`8`8`8`8`8`8`8`8`8`8`8`8`8`8`8`8`8`8`8`8`8````",
"```8`8`8`8`8`V`V`V`V`8`8`8`8`8`8`8`8`8`8`8`8`8`8`8`8`8`8`8`8`8`8`8`8`8`8`8`8`8`8`8`8`8`8`8`8`8`8`8`8`8`8`8`8`8`8`8`8`8`8`8`8`8`8`8`8`8`8`8`8````",
"```8`8`8`8`8`V`V`V`V`8`8`8`8`8`8`8`8`8`8`8`8`8`8`8`8`8`8`8`8`8`8`8`8`8`8`8`8`8`8`8`8`8`8`8`8`8`8`8`8`8`8`8`8`8`8`8`8`8`8`8`8`8`8`8`8`8`8`8`8````",
"```8`8`8`8`8`8`V`V`8`8`8`8`8`8`8`8`8`8`8`8`8`8`8`8`8`8`8`8`8`8`8`8`8`8`8`8`8`8`8`8`8`8`8`8`8`8`8`8`8`8`8`8`8`8`8`8`8`8`8`8`8`8`8`8`8`8`8`8`8````",
"```8`8`8`8`8`8`V`V`8`8`8`8`8`8`8`8`8`8`8`8`8`8`8`8`8`8`8`8`8`8`8`8`8`8`8`8`8`8`8`8`8`8`8`8`8`8`8`8`8`8`8`8`8`8`8`8`8`8`8`8`8`8`8`8`8`8`8`8`8````",
"```8`8`8`8`8`8`V`V`8`8`8`8`8`8`8`8`8`8`8`8`8`8`8`8`8`8`8`8`8`8`8`8`8`8`8`8`8`8`8`8`8`8`8`8`8`8`8`8`8`8`8`8`8`8`8`8`8`8`8`8`8`8`8`8`8`8`8`8`8````",
"```8`8`8`8`8`8`V`V`8`8`8`8`8`8`8`8`8`8`8`8`8`8`8`8`8`8`8`8`8`8`8`8`8`8`8`8`8`8`8`8`8`8`8`8`8`8`8`8`8`8`8`8`8`8`8`8`8`8`8`8`8`8`8`8`8`8`8`8`8````",
"```8`8`8`8`8`8`V`V`8`8`8```````````````````````````````````````````````````````````````````````````````````````````````8`8`8`8`8`8`8`8`8`8`8````",
"```8`8`8`8`8`8`V`V`8`8`8```8`8`8`8`8`8`8`8`8`8`8`8`o`V`X`1`V`V`V`Y`Z`V`3`X`Y`Y`Y`1`V`U`X`X`V`X`1`V`B`8`8`8`8`8`8`8`s```8`8`8`8`8`8`8`8`8`8`8````",
"```8`8`V`V`8`8`V`V`8`8`8```8`8`8`8`3`8`8`8`8`8`8`8`8`r`V`Z`3`1`1`1`Z`V`Y`1`1`1`1`V`R`Y`1`1`1`3`V`x`8`8`8`8`8`8`8`q`d```8`8`8`8`8`8`8`8`8`8`8````",
"```8`8`V`V`8`8`V`V`8`8`8```8`8`8`8`V`8`8`8`8`8`8`8`8`L`V`V`V`V`V`V`V`V`V`V`V`V`V`V`V`V`V`V`V`V`C`8`8`8`8`8`8`8`w`m`a```8`8`8`8`8`8`8`8`8`8`8````",
"```8`8`1`V`V`V`V`Z`8`8`8```8`8`8`Z`V`Z`8`8`8`8`8`8`8`8`p`V`C`r`j`j`j`a`#`a`a`c`d`c`d`r`j`r`R`V`v`8`8`8`8`8`8`8`I`d`d```8`8`8`8`8`8`8`8`8`8`8````",
"```8`8`8`Z`V`V`Z`8`8`8`8```8`8`1`V`V`V`1`8`8`8`8`8`8`8`8`#`#`a`#`#`#`#`#`#`#`#`#`#`#`#`#`#`#`#`8`8`8`8`8`8`8`8`N`d`d```8`8`8`8`8`8`8`8`8`8`8````",
"```8`8`8`8`8`8`8`8`8`8`8```8`3`V`V`V`V`V`3`8`8`8`8`8`8`8`J`#`n`J`T`8`8`8`8`8`B`0`Q`K`0`A`s`m`s`8`8`8`8`8`8`8`8`B`d`d```8`8`8`8`8`8`8`8`8`8`8````",
"```8`8`8`8`8`3`8`8`8`8`8```8`V`V`V`V`V`V`V`8`8`8`8`8`8`8`B`U`8`8`8`8`8`8`8`8`8`N`0`Q`Q`0`2`0`F`8`8`8`8`8`8`8`8`N`d`a```8`8`8`8`8`8`8`8`8`8`8````",
"```8`8`8`8`8`V`8`8`8`8`8```8`3`V`V`V`V`V`3`8`8`8`8`8`8`8`y`U`8`8`8`8`8`8`8`8`8`L`2`K`0`K`2`F`K`T`8`t`8`8`8`8`8`N`a`d```8`8`8`8`8`8`8`8`8`8`8````",
"```8`8`8`8`Z`V`Z`8`8`8`8```8`8`1`V`V`V`1`8`8`8`8`8`8`8`8`w`B`t`t`t`8`8`p`k`t`w`T`Q`0`K`2`K`K`Q`N`8`O`F`y`8`8`8`3`#`a```8`8`8`8`8`8`8`8`8`8`8````",
"```8`8`8`1`V`V`V`1`8`8`8```8`8`8`Z`V`Z`8`8`8`8`8`8`8`8`8`y`J`B`t`B`T`w`i`g`B`T`T`A`2`F`Q`K`0`F`N`8`T`5`F`K`K`2`A`u`s```8`8`8`8`8`8`8`8`8`8`8````",
"```8`8`3`V`V`V`V`V`3`8`8```8`8`8`8`V`8`8`8`8`8`8`8`8`8`8`y`k`p`g`p`8`T`w`k`T`8`8`y`2`K`K`0`Q`F`N`8`8`J`K`m`f`m`s`m`m```8`8`8`8`8`8`8`8`8`8`8````",
"```8`8`V`V`V`V`V`V`V`8`8```8`8`8`8`3`8`8`8`8`8`8`8`8`8`8`y`O`J`t`B`8`8`T`B`8`8`8`y`0`0`A`K`K`F`Q`8`8`8`O`K`z`d`4`m`2```8`8`8`8`8`8`8`8`8`8`8````",
"```8`8`3`V`V`V`V`V`3`8`8```T`8`8`8`8`8`8`8`8`8`8`8`8`T`v`N`I`8`8`J`8`8`8`8`8`8`8`y`0`K`K`K`K`F`H`8`8`8`8`T`K`K`F`z`s```8`8`8`8`8`8`8`8`8`8`8````",
"```8`8`8`1`V`V`V`1`8`8`8```w`8`8`8`8`8`8`8`8`8`8`8`8`T`m`s`y`8`8`J`8`8`L`8`8`8`8`u`2`K`K`F`K`F`H`8`8`8`8`8`8`L`y`m`s```8`8`8`8`8`8`8`8`8`8`8````",
"```8`8`8`8`Z`V`Z`8`8`8`8```m`O`8`8`8`8`8`8`8`8`8`8`8`8`8`u`H`8`8`B`L`t`T`T`8`8`8`A`0`F`K`F`K`F`N`8`8`8`8`8`8`8`H`m`A```8`8`8`8`8`8`8`8`8`8`8````",
"```8`8`8`8`8`V`8`8`8`8`8```m`u`T`8`8`8`8`8`8`8`8`8`8`B`M`y`z`T`w`w`8`B`p`w`8`8`8`v`K`A`K`F`Q`s`O`8`8`8`8`8`8`8`I`d`s```8`8`8`8`8`8`8`8`8`8`8````",
"```8`8`8`8`8`3`8`8`8`8`8```s`f`N`8`8`8`8`8`8`8`8`8`T`z`u`K`u`t`B`t`k`t`J`8`8`8`8`n`F`K`F`K`F`F`h`m`N`8`8`8`8`8`I`u`f```8`8`8`8`8`8`8`8`8`8`8````",
"```8`8`8`8`8`8`8`8`8`8`8```s`F`N`8`8`8`8`8`8`8`8`8`t`A`K`F`H`p`8`8`L`8`8`8`8`T`k`B`u`A`A`u`u`K`u`m`q`M`8`8`8`L`y`F`s```8`8`8`8`8`8`8`8`8`8`8````",
"```8`8`8`8`8`8`8`8`8`8`8```m`s`N`8`8`8`8`8`J`q`m`s`k`s`u`s`B`L`t`8`8`8`8`8`t`p`B`T`w`m`a`f`d`#`#`d`q`w`L`8`8`T`O`m`f```8`8`8`8`8`8`8`8`8`8`8````",
"```8`8`8`8`8`8`8`8`8`8`8```s`m`N`8`8`L`k`.`A`s`u`m`p`K`m`N`J`B`T`t`8`8`T`p`J`B`L`M`T`a`u`x`c`#`l`m`q`q`s`v`k`t`O`#`m```8`8`8`8`8`8`8`8`8`8`8````",
"```8`8`8`8`8`8`8`8`8`8`8```f`m`J`T`E`C`.`d`m`m`u`p`f`s`u`u`m`u`H`H`h`p`q`w`v`y`f`z`m`u`F`C`#`#`2`h`t`q`p`y`q`.`.`p`L```8`8`8`8`8`8`8`8`8`8`8````",
"```8`8`8`8`8`8`8`8`8`8`8```s`#`F`V`V`c`b`u`Q`m`I`a`n`w`T`K`K`K`K`m`m`s`f`u`s`u`K`s`K`t`r`j`#`m`m`q`k`v`t`y`.`b`e`w`8```8`8`8`8`8`8`8`8`8`8`8````",
"```8`8`8`8`8`8`8`8`8`8`8```s`s`E`V`r`b`m`4`m`K`p`f`n`B`8`T`T`s`s`m`2`4`s`K`u`m`s`u`p`C`#`#`d`m`h`v`t`h`N`e`.`G`D`L`L```8`8`8`8`8`8`8`8`8`8`8````",
"```8`8`8`8`8`8`8`8`8`8`8```s`m`F`r`b`f`m`F`A`t`C`f`n`w`8`T`T`8`T`K`m`Q`q`L`T`8`8`L`C`#`#`l`m`q`v`n`q`v`f`b`o`V`u`i`w```8`8`8`8`8`8`8`8`8`8`8````",
"```8`8`8`8`8`8`8`8`8`8`8```s`#`v`.`f`2`u`A`A`e`V`o`n`B`8`L`8`T`F`K`4`m`T`T`T`M`L`C`c`#`l`m`q`h`t`y`q`q`a`e`V`S`u`w`J```8`8`8`8`8`8`8`8`8`8`8````",
"```8`8`8`8`8`8`8`8`8`8`8```f`f`u`m`4`m`s`v`k`V`V`h`f`B`8`8`d`m`F`d`0`y`T`T`T`8`V`#`#`m`m`y`h`t`f`t`v`e`b`R`C`4`K`m`m```8`8`8`8`8`8`8`8`8`8`8````",
"```8`8`8`8`8`8`8`8`8`8`8```a`s`A`s`s`F`A`k`j`V`V`n`n`B`T`T`s`u`A`Q`s`m`w`T`8`C`#`#`m`m`t`q`y`k`H`f`q`b`o`V`K`2`m`a`s```8`8`8`8`8`8`8`8`8`8`8````",
"```8`8`8`8`8`8`8`8`8`8`8```m`s`F`u`u`H`g`.`a`V`X`f`f`B`8`T`u`l`u`m`f`w`T`M`C`c`#`m`s`n`w`q`v`y`q`y`a`b`V`C`6`f`m`u`a```8`8`8`8`8`8`8`8`8`8`8````",
"```8`8`8`8`8`8`8`8`8`8`8```d`u`s`F`h`d`V`e`.`r`V`h`n`B`8`H`l`C`C`s`8`8`M`V`#`#`m`m`d`f`f`w`h`v`p`y`.`o`V`K`2`#`l`u`s```8`8`8`8`8`8`8`8`8`8`8````",
"```8`8`8`8`8`8`8`8`8`8`8```a`s`y`#`F`5`V`C`b`c`X`f`n`t`T`K`r`r`S`t`T`M`V`#`#`m`s`f`u`u`K`n`O`n`y`f`.`R`C`4`s`#`m`u`a```8`8`8`8`8`8`8`8`8`8`8````",
"```8`8`8`8`8`8`8`8`8`8`8```m`d`u`#`d`6`C`V`b`a`V`h`g`w`U`l`V`C`s`M`T`C`c`#`m`s`m`0`m`#`a`h`a`N`n`f`b`V`F`4`#`c`m`d`s```8`8`8`8`8`8`8`8`8`8`8````",
"```8`8`8`8`8`8`8`8`8`8`8```s`#`v`j`#`2`S`V`o`.`x`f`n`w`H`r`V`S`J`8`C`c`#`m`u`d`K`A`K`f`#`F`a`n`U`.`o`V`Q`0`#`r`m`#`u```8`8`8`8`8`8`8`8`8`8`8````",
"```8`8`8`8`8`8`8`8`8`8`8```K`K`q`r`#`F`5`V`r`b`r`f`k`w`s`V`r`A`M`C`#`a`z`u`m`0`u`K`d`K`s`u`a`m`a`b`C`C`4`m`c`j`s`u`u```8`8`8`8`8`8`8`8`8`8`8````",
"```8`8`8`8`8`8`8`8`8`8`8```s`#`y`r`c`l`6`C`V`b`j`n`k`u`r`V`S`k`C`#`d`z`m`a`Q`s`K`f`F`u`Q`m`#`m`m`b`R`G`6`a`j`r`m`#`u```8`8`8`8`8`8`8`8`8`8`8````",
"```8`8`8`8`8`8`8`8`8`8`8```m`d`v`r`r`#`6`D`V`b`a`a`q`h`C`r`u`C`#`d`z`m`#`#`m`K`d`K`u`Q`l`s`m`K`d`b`V`F`4`#`j`j`s`f`m```8`8`8`8`8`8`8`8`8`8`8````",
"```8`8`8`8`8`8`8`8`8`8`8```d`s`s`r`r`#`4`Z`V`b`a`a`f`j`V`C`G`#`#`z`m`#`a`#`#`#`Q`s`0`a`A`m`2`#`a`b`V`S`2`#`r`j`q`u`a```8`8`8`8`8`8`8`8`8`8`8````",
"```8`8`8`8`8`8`8`8`8`8`8```#`u`q`r`r`#`Q`H`V`c`d`a`a`j`V`0`d`d`s`m`#`a`c`a`a`#`d`2`f`F`f`4`d`2`d`e`V`0`Q`#`r`r`m`u`#```8`8`8`8`8`8`8`8`8`8`8````",
"```8`8`8`8`8`8`8`8`8`8`8```a`u`m`r`r`#`2`0`V`e`f`2`d`4`d`A`f`Q`d`#`a`#`a`#`#`m`z`d`d`Q`V`j`a`a`d`c`V`I`2`#`r`r`s`s`#```8`8`8`8`8`8`8`8`8`8`8````",
"```8`8`8`8`8`8`8`8`8`8`8```a`u`q`j`r`#`2`K`V`e`#`#`2`m`K`#`Q`u`Q`#`#`c`c`#`m`u`#`#`C`C`V`j`f`a`d`b`V`Z`4`#`r`r`q`u`a```8`8`8`8`8`8`8`8`8`8`8````",
"```8`8`8`8`8`8`8`8`8`8`8```m`f`s`j`j`#`4`P`V`.`d`Q`l`u`f`Q`F`K`c`K`m`#`#`m`s`d`#`C`A`r`C`h`q`#`a`b`V`D`4`#`r`r`u`d`s```8`8`8`8`8`8`8`8`8`8`8````",
"```8`8`8`8`8`8`8`8`8`8`8```u`#`m`j`j`d`4`G`R`b`m`m`a`f`Q`z`A`f`K`s`2`a`m`s`d`#`C`i`S`V`r`u`k`n`j`b`V`C`6`m`c`r`v`#`s```8`8`8`8`8`8`8`8`8`8`8````",
"```8`8`8`8`8`8`8`8`8`8`8```u`u`s`r`c`m`4`C`C`b`a`m`a`u`s`K`a`K`u`2`f`u`s`d`#`C`T`A`r`V`s`t`q`f`l`b`x`V`5`F`#`r`q`Q`F```8`8`8`8`8`8`8`8`8`8`8````",
"```8`8`8`8`8`8`8`8`8`8`8```u`#`s`j`#`K`2`V`o`.`U`n`a`F`#`f`0`u`K`d`s`z`#`#`C`8`J`S`V`r`A`w`k`f`C`a`c`V`E`2`#`j`v`#`s```8`8`8`8`8`8`8`8`8`8`8````",
"```8`8`8`8`8`8`8`8`8`8`8```m`d`m`c`#`4`F`V`b`f`n`N`a`f`a`a`m`2`m`s`m`#`#`C`T`T`q`C`V`x`U`w`f`h`R`.`b`V`C`6`d`#`u`a`m```8`8`8`8`8`8`8`8`8`8`8````",
"```8`8`8`8`8`8`8`8`8`8`8```a`A`m`#`s`4`C`R`.`f`y`n`O`n`H`u`u`f`u`l`#`#`V`T`8`t`F`C`j`A`M`w`k`h`V`c`b`G`V`2`K`#`y`s`a```8`8`8`8`8`8`8`8`8`8`8````",
"```8`8`8`8`8`8`8`8`8`8`8```s`u`m`#`2`K`V`j`b`v`v`v`n`w`f`f`d`m`m`#`#`V`M`8`M`q`C`C`r`N`8`B`n`f`X`r`b`e`V`d`g`F`s`u`d```8`8`8`8`8`8`8`8`8`8`8````",
"```8`8`8`8`8`8`8`8`8`8`8```a`s`l`f`4`G`V`b`b`y`q`y`q`q`w`h`s`m`#`#`C`T`M`B`f`m`z`m`u`T`8`w`n`e`V`V`#`.`g`K`u`u`F`s`m```8`8`8`8`8`8`8`8`8`8`8````",
"```8`8`8`8`8`8`8`8`8`8`8```s`a`m`2`K`V`o`.`q`f`w`n`B`q`y`s`m`#`#`V`8`T`w`m`s`2`A`s`m`T`T`B`n`f`V`X`j`k`y`F`s`s`F`u`#```8`8`8`8`8`8`8`8`8`8`8````",
"```8`8`8`8`8`8`8`8`8`8`8```m`m`K`4`R`V`.`e`v`y`f`t`n`t`m`m`#`#`V`M`M`T`T`y`0`a`F`m`m`8`8`B`f`k`V`V`k`y`m`s`2`m`u`f`f```8`8`8`8`8`8`8`8`8`8`8````",
"```8`8`8`8`8`8`8`8`8`8`8```J`w`u`S`V`e`b`q`q`t`t`n`q`m`l`#`#`C`L`T`T`T`T`q`2`K`K`T`T`T`8`J`n`f`V`o`A`u`u`2`m`.`v`#`s```8`8`8`8`8`8`8`8`8`8`8````",
"```8`8`8`8`8`8`8`8`8`8`8```w`p`u`V`o`.`f`q`v`n`v`q`h`l`#`#`C`T`8`8`M`T`q`0`m`K`T`8`T`T`8`w`k`f`C`t`A`F`m`m`.`r`y`m`s```8`8`8`8`8`8`8`8`8`8`8````",
"```8`8`8`8`8`8`8`8`8`8`8```L`L`D`G`.`e`N`h`t`q`h`m`m`#`#`C`q`q`s`m`u`F`s`4`2`m`u`m`T`T`8`B`n`f`p`F`m`4`m`b`j`V`E`s`s```8`8`8`8`8`8`8`8`8`8`8````",
"```8`8`8`8`8`8`8`8`8`8`8```8`w`e`b`.`v`t`v`h`v`m`f`#`c`C`t`A`u`K`u`s`F`f`u`m`m`F`Q`K`K`T`t`n`a`I`m`Q`F`a`b`V`V`F`#`s```8`8`8`8`8`8`8`8`8`8`8````",
"```8`8`8`8`8`8`8`8`8`8`8```L`p`.`.`k`y`p`v`t`h`2`a`#`C`A`s`m`m`m`u`y`y`q`p`h`H`H`u`m`F`u`s`f`p`u`s`m`a`.`C`P`T`J`m`f```8`8`8`8`8`8`8`8`8`8`8````",
"```8`8`8`8`8`8`8`8`8`8`8```n`#`O`t`k`y`m`q`q`h`l`#`c`r`u`a`U`8`J`B`L`p`M`8`8`t`T`B`J`N`m`K`p`m`u`m`K`.`i`L`8`8`N`m`m```8`8`8`8`8`8`8`8`8`8`8````",
"```8`8`8`8`8`8`8`8`8`8`8```m`m`O`T`8`8`L`B`q`d`#`#`d`m`a`m`w`T`B`p`p`8`8`8`8`8`t`O`B`s`A`m`k`v`m`q`B`8`8`8`8`8`N`s`m```8`8`8`8`8`8`8`8`8`8`8````",
"```8`8`8`8`8`8`8`8`8`8`8```m`F`y`L`8`8`8`M`q`m`s`K`u`u`A`F`q`B`k`T`8`8`8`8`O`8`8`p`H`A`F`K`w`M`8`8`8`8`8`8`8`8`N`F`u```8`8`8`8`8`8`8`8`8`8`8````",
"```8`8`8`8`8`8`8`8`8`8`8```m`u`I`8`8`8`8`8`N`m`h`F`F`K`F`K`F`n`8`8`8`8`J`t`k`t`B`t`u`K`u`z`T`8`8`8`8`8`8`8`8`8`N`f`s```8`8`8`8`8`3`8`8`8`8`8````",
"```8`8`8`8`8`8`8`8`8`8`8```s`d`H`8`8`8`8`8`8`8`O`s`Q`F`K`A`K`v`8`8`8`w`p`B`8`w`w`T`z`y`M`B`8`8`8`8`8`8`8`8`8`8`T`u`m```8`8`8`8`8`V`8`8`8`8`8````",
"```8`8`8`8`8`8`8`8`8`8`8```u`m`I`8`8`8`8`8`8`8`N`F`K`F`K`F`0`A`8`8`8`T`T`t`L`B`8`8`H`u`8`8`8`8`8`8`8`8`8`8`8`8`8`O`m```8`8`8`8`Z`V`Z`8`8`8`8````",
"```8`8`8`8`8`8`8`8`8`8`8```s`m`y`L`8`8`8`8`8`8`H`F`K`F`K`K`2`u`8`8`8`8`L`8`8`J`8`8`y`s`m`T`8`8`8`8`8`8`8`8`8`8`8`8`w```8`8`8`1`V`V`V`1`8`8`8````",
"```8`8`8`8`8`8`8`8`8`8`8```s`u`F`K`K`T`8`8`8`8`H`F`K`K`K`K`0`y`8`8`8`8`8`8`8`J`8`8`I`N`v`T`8`8`8`8`8`8`8`8`8`8`8`8`T```8`8`3`V`V`V`V`V`3`8`8````",
"```8`8`8`8`8`8`8`8`8`8`8```2`m`2`d`s`K`O`8`8`8`Q`F`K`K`A`0`0`y`8`8`8`B`T`8`8`B`t`J`O`y`8`8`8`8`8`8`8`8`8`8`3`8`8`8`8```8`8`V`V`V`V`V`V`V`8`8````",
"```8`8`8`8`8`8`8`8`8`8`8```m`m`s`m`f`m`F`J`8`8`N`F`Q`0`K`K`2`y`8`8`T`k`w`T`8`p`g`p`k`y`8`8`8`8`8`8`8`8`8`8`V`8`8`8`8```8`8`3`V`V`V`V`V`3`8`8````",
"```8`8`8`8`8`8`8`8`8`8`8```s`u`K`2`0`K`F`5`T`8`N`F`0`K`Q`F`2`A`T`T`B`g`i`w`T`B`t`B`J`y`8`8`8`8`8`8`8`8`8`Z`V`Z`8`8`8```8`8`8`1`V`V`V`1`8`8`8````",
"```8`8`8`8`8`8`8`8`8`8`8```a`#`N`8`8`T`N`F`O`8`N`Q`K`K`2`K`0`Q`T`w`t`k`p`8`8`t`t`t`B`w`8`8`8`8`8`8`8`8`1`V`V`V`1`8`8```8`8`8`8`Z`V`Z`8`8`8`8````",
"```8`8`8`8`8`8`8`8`8`8`8```d`a`N`8`8`8`8`8`t`8`T`K`F`2`K`0`K`2`L`8`8`8`8`8`8`8`8`8`U`y`8`8`8`8`8`8`8`3`V`V`V`V`V`3`8```8`8`8`8`8`V`8`8`8`8`8````",
"```8`8`8`8`8`8`8`8`8`8`8```d`a`N`8`8`8`8`8`8`8`8`F`0`2`0`Q`Q`0`N`8`8`8`8`8`8`8`8`8`U`B`8`8`8`8`8`8`8`V`V`V`V`V`V`V`8```8`8`8`8`8`3`8`8`8`8`8````",
"```8`8`8`8`8`8`8`8`8`8`8```d`d`I`8`8`8`8`8`8`8`8`s`m`s`A`0`K`Q`0`B`8`8`8`8`8`T`J`n`#`J`8`8`8`8`8`8`8`3`V`V`V`V`V`3`8```8`8`8`8`8`8`8`8`8`8`8````",
"```8`8`8`8`8`8`8`8`8`8`8```d`d`B`8`8`8`8`8`8`8`8`#`#`#`#`#`#`#`#`#`#`#`#`#`#`#`#`a`#`#`8`8`8`8`8`8`8`8`1`V`V`V`1`8`8```8`8`8`8`Z`V`V`Z`8`8`8````",
"```8`8`8`8`8`8`8`8`8`8`8```d`d`N`8`8`8`8`8`8`8`v`V`R`r`j`r`d`c`d`c`a`a`#`a`j`j`j`r`C`V`p`8`8`8`8`8`8`8`8`Z`V`Z`8`8`8```8`8`8`Z`V`V`V`V`1`8`8````",
"```8`8`8`8`8`8`8`8`8`8`8```a`m`w`8`8`8`8`8`8`8`C`V`V`V`V`V`V`V`V`V`V`V`V`V`V`V`V`V`V`V`V`L`8`8`8`8`8`8`8`8`V`8`8`8`8```8`8`8`V`V`8`8`V`V`8`8````",
"```8`8`8`8`8`8`8`8`8`8`8```d`s`8`8`8`8`8`8`8`x`V`3`1`1`1`Y`R`V`1`1`1`1`Y`V`Z`1`1`1`3`Z`V`r`8`8`8`8`8`8`8`8`3`8`8`8`8```8`8`8`V`V`8`8`V`V`8`8````",
"```8`8`8`8`8`8`8`8`8`8`8```s`8`8`8`8`8`8`8`B`V`1`X`V`X`X`U`V`1`Y`Y`Y`X`3`V`Z`Y`V`V`V`1`X`V`o`8`8`8`8`8`8`8`8`8`8`8`8```8`8`8`V`V`8`8`8`8`8`8````",
"```8`8`8`8`8`8`8`8`8`8`8```````````````````````````````````````````````````````````````````````````````````````````````8`8`8`V`V`8`8`8`8`8`8````",
"```8`8`8`8`8`8`8`8`8`8`8`8`8`8`8`8`8`8`8`8`8`8`8`8`8`8`8`8`8`8`8`8`8`8`8`8`8`8`8`8`8`8`8`8`8`8`8`8`8`8`8`8`8`8`8`8`8`8`8`8`8`V`V`8`8`8`8`8`8````",
"```8`8`8`8`8`8`8`8`8`8`8`8`8`8`8`8`8`8`8`8`8`8`8`8`8`8`8`8`8`8`8`8`8`8`8`8`8`8`8`8`8`8`8`8`8`8`8`8`8`8`8`8`8`8`8`8`8`8`8`8`8`V`V`8`8`8`8`8`8````",
"```8`8`8`8`8`8`8`8`8`8`8`8`8`8`8`8`8`8`8`8`8`8`8`8`8`8`8`8`8`8`8`8`8`8`8`8`8`8`8`8`8`8`8`8`8`8`8`8`8`8`8`8`8`8`8`8`8`8`8`8`8`V`V`8`8`8`8`8`8````",
"```8`8`8`8`8`8`8`8`8`8`8`8`8`8`8`8`8`8`8`8`8`8`8`8`8`8`8`8`8`8`8`8`8`8`8`8`8`8`8`8`8`8`8`8`8`8`8`8`8`8`8`8`8`8`8`8`8`8`8`8`8`V`V`8`8`8`8`8`8````",
"```8`8`8`8`8`8`8`8`8`8`8`8`8`8`8`8`8`8`8`8`8`8`8`8`8`8`8`8`8`8`8`8`8`8`8`8`8`8`8`8`8`8`8`8`8`8`8`8`8`8`8`8`8`8`8`8`8`8`8`8`V`V`V`V`8`8`8`8`8````",
"```8`8`8`8`8`8`8`8`8`8`8`8`8`8`8`8`8`8`8`8`8`8`8`8`8`8`8`8`8`8`8`8`8`8`8`8`8`8`8`8`8`8`8`8`8`8`8`8`8`8`8`8`8`8`8`8`8`8`8`8`V`V`V`V`8`8`8`8`8````",
"```8`8`8`8`8`8`8`8`8`8`8`8`8`8`8`8`8`8`8`8`8`8`8`8`8`8`8`8`8`8`8`8`8`8`8`8`8`8`8`8`8`8`8`8`8`8`8`8`8`8`8`8`8`8`8`8`8`8`8`8`8`8`8`8`8`8`8`8`8````",
"```8`8`8`8`8`8`8`8`8`8`8`8`8`8`8`8`8`8`8`8`8`8`8`8`8`8`8`8`8`8`8`8`8`8`8`8`8`8`8`8`8`8`8`8`8`8`8`8`8`8`8`8`8`8`8`8`8`8`8`8`8`8`8`8`8`8`8`8`8````",
"```y`8`8`8`8`8`8`8`8`8`8`8`8`8`8`8`8`8`8`8`8`8`8`8`8`8`8`8`8`8`8`8`8`8`8`8`8`8`8`8`8`8`8`8`8`8`8`8`8`8`8`8`8`8`8`8`8`8`8`8`8`8`8`8`8`8`8`8`y```q",
"`q```````````````````````````````````````````````````````````````````````````````````````````````````````````````````````````````````````````q``"
};
