/* XPM */
static char *face_45_xpm[] = {
/* width height num_colors chars_per_pixel */
"    72    96       16            1",
/* colors */
"` c #ffffff",
". c #000000",
"# c #73735a",
"a c #ceceb5",
"b c #293131",
"c c #081018",
"d c #5a5252",
"e c #947b84",
"f c #102129",
"g c #291018",
"h c #bdbdce",
"i c #e7e7f7",
"j c #9c9473",
"k c #001084",
"l c #10298c",
"m c #293184",
/* pixels */
"#.....................................................................#.",
".j```````````````````````````````````````````````````````````````````j..",
".`````````````````````````````````````````````````````````````````````..",
".`````````````````````````````````````````````````````````````````````..",
".```.......```````````````````````````````````````````````````````````..",
".```.......```````````````````````````````````````````````````````````..",
".```..``a.b```````````````````````````````````````````````````````````..",
".```````dba```````````````````````````````````````````````````````````..",
".``````abd````````````````````````````````````````````````````````````..",
".``````d.a````````````````````````````````````````````````````````````..",
".``````bb`````````````a`````````````````````````a`````````````````````..",
".`````a.d````````````#c#```````````````````````#c#````````````````````..",
".`````#.a```````````#...#`````````````````````#...#```````````````````..",
".`````d.```````````#.....#```````````````````#.....#``````````````````..",
".`````b.``````````#.......#`````````````````#.......#`````````````````..",
".`````..`````````#.........#```````````````#.........#````````````````..",
".```````````````#c.........c#`````````````#c.........c#```````````````..",
".``````````````ab...........ba```````````ab...........ba``````````````..",
".``````e```````#c...........c#```````````#c...........c#``````````````..",
".`````e.e``````#.............#```````````#.............#``````````````..",
".````e...e`````#.............#```````````#.............#``````````````..",
".```e.....e````ab....b.b....ba```````````ab....b.b....ba``````````````..",
".``e.......e````adfg#i.i#gfda`````````````adfg#i.i#gfda```````````````..",
".``.........`````````#.#```````````````````````#.#````````````````````..",
".``.........````````h...h`````````````````````h...h```````````````````..",
".``#.......#``````````````````````````````````````````````````````````..",
".```##`.`##```````````````````````````````````````````````````````````..",
".`````a.a``````````````````````````a``````````````````````````````````..",
".`````...`````````````````````````#c#`````````````````````````````````..",
".````````````````````````````````#...#````````````````````````````````..",
".```````````````````````````````#.....#```````````````````````````````..",
".``````````````````````````````#.......#``````````````````````````````..",
".`````````````````````````````#.........#`````````````````````````````..",
".````````````````````````````#c.........c#````````````````````````````..",
".```````````````````````````ab...........ba```````````````````````````..",
".```````````````````````````#c...........c#```````````````````````````..",
".```````````````````````````#.............#```````````````````````````..",
".```````````````````````````#.............#```````````````````````````..",
".```````````````````````````ab....b.b....ba```````````````````````````..",
".````````````````````````````adfg#i.i#gfda````````````````````````````..",
".`````````````````````````````````#.#`````````````````````````````````..",
".`````````````````````a``````````h...h``````````a`````````````````````..",
".````````````````````#c#```````````````````````#c#````````````````````..",
".```````````````````#...#`````````````````````#...#```````````````````..",
".``````````````````#.....#```````````````````#.....#``````````````````..",
".`````````````````#.......#`````````````````#.......#`````````````````..",
".````````````````#.........#```````````````#.........#````````````````..",
".```````````````#c.........c#`````````````#c.........c#```````````````..",
".``````````````ab...........ba```````````ab...........ba``````````````..",
".``````````````#c...........c#```````````#c...........c#``````````````..",
".``````````````#.............#```````````#.............#``````````````..",
".``````````````#.............#```````````#.............#``````````````..",
".``````````````ab....b.b....ba```````````ab....b.b....ba``````````````..",
".```````````````adfg#i.i#gfda`````````````adfg#i.i#gfda```````````````..",
".````````````````````#.#```````````````````````#.#````````````````````..",
".```````````````````h...h`````````````````````h...h```````````````````..",
".`````````````````````````````````````````````````````````````````````..",
".`````````````````````````````````````````````````````````````````````..",
".`````````````````````````````````````````````````````````````````````..",
".`````````````````````````````````````````````````````````````````````..",
".`````````````````````````````````````````````````````````````````````..",
".`````````````````````````````````````````````````````````````````````..",
".`````````````````````````````````````````````````````````````````````..",
".`````````````````````````````````````````````````````````````````````..",
".`````````````````````````````````````````````````````````````````````..",
".`````````````````````````````````````````````````````````````````````..",
".`````````````````````````````````````````````````````````````````````..",
".`````````````````````````````````````````````````````````````...`````..",
".`````````````````````````````````````````````````````````````a.a`````..",
".```````````````````````````````````````````````````````````##`.`##```..",
".``````````````````````````````````````````````````````````#.......#``..",
".```````````````````h...h`````````````````````h...h````````.........``..",
".````````````````````#.#```````````````````````#.#`````````.........``..",
".```````````````adfg#i.i#gfda`````````````adfg#i.i#gfda````e.......e``..",
".``````````````ab....b.b....ba```````````ab....b.b....ba````e.....e```..",
".``````````````#.............#```````````#.............#`````e...e````..",
".``````````````#.............#```````````#.............#``````e.e`````..",
".``````````````#c...........c#```````````#c...........c#```````e``````..",
".``````````````ab...........ba```````````ab...........ba``````````````..",
".```````````````#c.........c#`````````````#c.........c#```````````````..",
".````````````````#.........#```````````````#.........#````````..``````..",
".`````````````````#.......#`````````````````#.......#`````````.b``````..",
".``````````````````#.....#```````````````````#.....#``````````.d``````..",
".```````````````````#...#`````````````````````#...#``````````a.#``````..",
".````````````````````#c#```````````````````````#c#```````````d.a``````..",
".`````````````````````a`````````````````````````a````````````bb```````..",
".```````````````````````````````````````````````````````````a.d```````..",
".```````````````````````````````````````````````````````````dba```````..",
".``````````````````````````````````````````````````````````abd````````..",
".``````````````````````````````````````````````````````````b.a``..````..",
".``````````````````````````````````````````````````````````.......````..",
".``````````````````````````````````````````````````````````.......````..",
".`````````````````````````````````````````````````````````````````````..",
".`````````````````````````````````````````````````````````````````````..",
".j```````````````````````````````````````````````````````````````````j.#",
"#.....................................................................#."
};
