/* XPM */
static char const *face_48_xpm[] = {
/* width height num_colors chars_per_pixel */
"    72    96       16            1",
/* colors */
"` c #ffffff",
". c #000000",
"# c #73735a",
"a c #ceceb5",
"b c #081018",
"c c #102129",
"d c #291018",
"e c #5a5252",
"f c #bdbdce",
"g c #e7e7f7",
"h c #947b84",
"i c #9c9473",
"j c #001084",
"k c #10298c",
"l c #293131",
"m c #293184",
/* pixels */
"#.....................................................................#.",
".i```````````````````````````````````````````````````````````````````i..",
".`````````````````````````````````````````````````````````````````````..",
".`````````````````````````````````````````````````````````````````````..",
".``..``#..#```````````````````````````````````````````````````````````..",
".``..`#....#``````````````````````````````````````````````````````````..",
".``..`..``..``````````````````````````````````````````````````````````..",
".``..`..``..``````````````````````````````````````````````````````````..",
".``..`..``..``````````````````````````````````````````````````````````..",
".``..`..``..``````````````````````````````````````````````````````````..",
".``..`..``..``````````a`````````````````````````a`````````````````````..",
".``..`..``..`````````#b#```````````````````````#b#````````````````````..",
".``..`..``..````````#...#`````````````````````#...#```````````````````..",
".``..`..``..```````#.....#```````````````````#.....#``````````````````..",
".``..`#....#``````#.......#`````````````````#.......#`````````````````..",
".``..``#..#``````#.........#```````````````#.........#````````````````..",
".```````````````#b.........b#`````````````#b.........b#```````````````..",
".``````````````a.............a```````````a.............a``````````````..",
".``````h```````#b...........b#```````````#b...........b#``````````````..",
".`````h.h``````#.............#```````````#.............#``````````````..",
".````h...h`````#.............#`````a`````#.............#``````````````..",
".```h.....h````a.............a````#b#````a.............a``````````````..",
".``h.......h````aecd#g.g#dcea````#...#````aecd#g.g#dcea```````````````..",
".``.........`````````#.#````````#.....#````````#.#````````````````````..",
".``.........````````f...f``````#.......#``````f...f```````````````````..",
".``#.......#``````````````````#.........#`````````````````````````````..",
".```##`.`##``````````````````#b.........b#````````````````````````````..",
".`````a.a```````````````````a.............a```````````````````````````..",
".`````...```````````````````#b...........b#```````````````````````````..",
".```````````````````````````#.............#```````````````````````````..",
".```````````````````````````#.............#```````````````````````````..",
".`````````````````````a`````a.............a`````a`````````````````````..",
".````````````````````#b#`````aecd#g.g#dcea`````#b#````````````````````..",
".```````````````````#...#`````````#.#`````````#...#```````````````````..",
".``````````````````#.....#```````f...f```````#.....#``````````````````..",
".`````````````````#.......#`````````````````#.......#`````````````````..",
".````````````````#.........#```````````````#.........#````````````````..",
".```````````````#b.........b#`````````````#b.........b#```````````````..",
".``````````````a.............a```````````a.............a``````````````..",
".``````````````#b...........b#```````````#b...........b#``````````````..",
".``````````````#.............#```````````#.............#``````````````..",
".``````````````#.............#```````````#.............#``````````````..",
".``````````````a.............a```````````a.............a``````````````..",
".```````````````aecd#g.g#dcea`````````````aecd#g.g#dcea```````````````..",
".````````````````````#.#```````````````````````#.#````````````````````..",
".```````````````````f...f`````````````````````f...f```````````````````..",
".`````````````````````````````````````````````````````````````````````..",
".`````````````````````````````````````````````````````````````````````..",
".`````````````````````````````````````````````````````````````````````..",
".`````````````````````````````````````````````````````````````````````..",
".```````````````````f...f`````````````````````f...f```````````````````..",
".````````````````````#.#```````````````````````#.#````````````````````..",
".```````````````aecd#g.g#dcea`````````````aecd#g.g#dcea```````````````..",
".``````````````a.............a```````````a.............a``````````````..",
".``````````````#.............#```````````#.............#``````````````..",
".``````````````#.............#```````````#.............#``````````````..",
".``````````````#b...........b#```````````#b...........b#``````````````..",
".``````````````a.............a```````````a.............a``````````````..",
".```````````````#b.........b#`````````````#b.........b#```````````````..",
".````````````````#.........#```````````````#.........#````````````````..",
".`````````````````#.......#`````````````````#.......#`````````````````..",
".``````````````````#.....#```````f...f```````#.....#``````````````````..",
".```````````````````#...#`````````#.#`````````#...#```````````````````..",
".````````````````````#b#`````aecd#g.g#dcea`````#b#````````````````````..",
".`````````````````````a`````a.............a`````a`````````````````````..",
".```````````````````````````#.............#```````````````````````````..",
".```````````````````````````#.............#```````````````````````````..",
".```````````````````````````#b...........b#```````````````````...`````..",
".```````````````````````````a.............a```````````````````a.a`````..",
".````````````````````````````#b.........b#``````````````````##`.`##```..",
".`````````````````````````````#.........#``````````````````#.......#``..",
".```````````````````f...f``````#.......#``````f...f````````.........``..",
".````````````````````#.#````````#.....#````````#.#`````````.........``..",
".```````````````aecd#g.g#dcea````#...#````aecd#g.g#dcea````h.......h``..",
".``````````````a.............a````#b#````a.............a````h.....h```..",
".``````````````#.............#`````a`````#.............#`````h...h````..",
".``````````````#.............#```````````#.............#``````h.h`````..",
".``````````````#b...........b#```````````#b...........b#```````h``````..",
".``````````````a.............a```````````a.............a``````````````..",
".```````````````#b.........b#`````````````#b.........b#```````````````..",
".````````````````#.........#```````````````#.........#``````#..#``..``..",
".`````````````````#.......#`````````````````#.......#``````#....#`..``..",
".``````````````````#.....#```````````````````#.....#```````..``..`..``..",
".```````````````````#...#`````````````````````#...#````````..``..`..``..",
".````````````````````#b#```````````````````````#b#`````````..``..`..``..",
".`````````````````````a`````````````````````````a``````````..``..`..``..",
".``````````````````````````````````````````````````````````..``..`..``..",
".``````````````````````````````````````````````````````````..``..`..``..",
".``````````````````````````````````````````````````````````..``..`..``..",
".``````````````````````````````````````````````````````````..``..`..``..",
".``````````````````````````````````````````````````````````#....#`..``..",
".```````````````````````````````````````````````````````````#..#``..``..",
".`````````````````````````````````````````````````````````````````````..",
".`````````````````````````````````````````````````````````````````````..",
".i```````````````````````````````````````````````````````````````````i.#",
"#.....................................................................#."
};
