/* XPM */
static char const *face_41_xpm[] = {
/* width height num_colors chars_per_pixel */
"    72    96       16            1",
/* colors */
"` c #ffffff",
". c #000000",
"# c #73735a",
"a c #5a5252",
"b c #ceceb5",
"c c #947b84",
"d c #293131",
"e c #081018",
"f c #291018",
"g c #102129",
"h c #bdbdce",
"i c #e7e7f7",
"j c #9c9473",
"k c #001084",
"l c #10298c",
"m c #293184",
/* pixels */
"#.....................................................................#.",
".j```````````````````````````````````````````````````````````````````j..",
".`````````````````````````````````````````````````````````````````````..",
".`````````````````````````````````````````````````````````````````````..",
".```.......```````````````````````````````````````````````````````````..",
".```.......```````````````````````````````````````````````````````````..",
".```..``a.c```````````````````````````````````````````````````````````..",
".``````a.c````````````````````````````````````````````````````````````..",
".`````a.c`````````````````````````````````````````````````````````````..",
".````a...a````````````````````````````````````````````````````````````..",
".````ffff.a````````````````````````b``````````````````````````````````..",
".````````..```````````````````````#e#`````````````````````````````````..",
".````````..``````````````````````#...#````````````````````````````````..",
".```..```..`````````````````````#.....#```````````````````````````````..",
".```a.....a````````````````````#.......#``````````````````````````````..",
".````a...a````````````````````#.........#`````````````````````````````..",
".````````````````````````````#e.........e#````````````````````````````..",
".```````````````````````````bd...........db```````````````````````````..",
".``````c````````````````````#e...........e#```````````````````````````..",
".`````c.c```````````````````#.............#```````````````````````````..",
".````c...c``````````````````#.............#```````````````````````````..",
".```c.....c`````````````````bd....d.d....db```````````````````````````..",
".``c.......c`````````````````bagf#i.i#fgab````````````````````````````..",
".``.........``````````````````````#.#`````````````````````````````````..",
".``.........`````````````````````h...h````````````````````````````````..",
".``#.......#``````````````````````````````````````````````````````````..",
".```##`.`##```````````````````````````````````````````````````````````..",
".`````b.b`````````````````````````````````````````````````````````````..",
".`````...`````````````````````````````````````````````````````````````..",
".`````````````````````````````````````````````````````````````````````..",
".`````````````````````````````````````````````````````````````````````..",
".`````````````````````````````````````````````````````````````````````..",
".`````````````````````````````````````````````````````````````````````..",
".`````````````````````````````````````````````````````````````````````..",
".`````````````````````````````````````````````````````````````````````..",
".`````````````````````````````````````````````````````````````````````..",
".`````````````````````````````````````````````````````````````````````..",
".`````````````````````````````````````````````````````````````````````..",
".`````````````````````````````````````````````````````````````````````..",
".`````````````````````````````````````````````````````````````````````..",
".``````````````````````````````````b``````````````````````````````````..",
".`````````````````````````````````#e#`````````````````````````````````..",
".````````````````````````````````#...#````````````````````````````````..",
".```````````````````````````````#.....#```````````````````````````````..",
".``````````````````````````````#.......#``````````````````````````````..",
".`````````````````````````````#.........#`````````````````````````````..",
".````````````````````````````#e.........e#````````````````````````````..",
".```````````````````````````bd...........db```````````````````````````..",
".```````````````````````````#e...........e#```````````````````````````..",
".```````````````````````````#.............#```````````````````````````..",
".```````````````````````````#.............#```````````````````````````..",
".```````````````````````````bd....d.d....db```````````````````````````..",
".````````````````````````````bagf#i.i#fgab````````````````````````````..",
".`````````````````````````````````#.#`````````````````````````````````..",
".````````````````````````````````h...h````````````````````````````````..",
".`````````````````````````````````````````````````````````````````````..",
".`````````````````````````````````````````````````````````````````````..",
".`````````````````````````````````````````````````````````````````````..",
".`````````````````````````````````````````````````````````````````````..",
".`````````````````````````````````````````````````````````````````````..",
".`````````````````````````````````````````````````````````````````````..",
".`````````````````````````````````````````````````````````````````````..",
".`````````````````````````````````````````````````````````````````````..",
".`````````````````````````````````````````````````````````````````````..",
".`````````````````````````````````````````````````````````````````````..",
".`````````````````````````````````````````````````````````````````````..",
".`````````````````````````````````````````````````````````````````````..",
".`````````````````````````````````````````````````````````````...`````..",
".`````````````````````````````````````````````````````````````b.b`````..",
".```````````````````````````````````````````````````````````##`.`##```..",
".``````````````````````````````````````````````````````````#.......#``..",
".````````````````````````````````h...h`````````````````````.........``..",
".`````````````````````````````````#.#``````````````````````.........``..",
".````````````````````````````bagf#i.i#fgab`````````````````c.......c``..",
".```````````````````````````bd....d.d....db`````````````````c.....c```..",
".```````````````````````````#.............#``````````````````c...c````..",
".```````````````````````````#.............#```````````````````c.c`````..",
".```````````````````````````#e...........e#````````````````````c``````..",
".```````````````````````````bd...........db```````````````````````````..",
".````````````````````````````#e.........e#````````````````````````````..",
".`````````````````````````````#.........#````````````````````a...a````..",
".``````````````````````````````#.......#````````````````````a.....a```..",
".```````````````````````````````#.....#`````````````````````..```..```..",
".````````````````````````````````#...#``````````````````````..````````..",
".`````````````````````````````````#e#```````````````````````..````````..",
".``````````````````````````````````b````````````````````````a.ffff````..",
".````````````````````````````````````````````````````````````a...a````..",
".`````````````````````````````````````````````````````````````c.a`````..",
".````````````````````````````````````````````````````````````c.a``````..",
".```````````````````````````````````````````````````````````c.a``..```..",
".```````````````````````````````````````````````````````````.......```..",
".```````````````````````````````````````````````````````````.......```..",
".`````````````````````````````````````````````````````````````````````..",
".`````````````````````````````````````````````````````````````````````..",
".j```````````````````````````````````````````````````````````````````j.#",
"#.....................................................................#."
};
