/* XPM */
static char const *face_12_xpm[] = {
/* width height num_colors chars_per_pixel */
"    72    96      256            2",
/* colors */
"`` c #000000",
"`. c #001084",
"`# c #081018",
"`a c #102129",
"`b c #10298c",
"`c c #291018",
"`d c #293131",
"`e c #293184",
"`f c #394239",
"`g c #394aa5",
"`h c #425a52",
"`i c #4263bd",
"`j c #521021",
"`k c #525a9c",
"`l c #5a2929",
"`m c #5a5221",
"`n c #5a5252",
"`o c #633173",
"`p c #637bad",
"`q c #73735a",
"`r c #7b1018",
"`s c #7b7329",
"`t c #7b94c6",
"`u c #947b21",
"`v c #947b84",
"`w c #949cbd",
"`x c #9c2929",
"`y c #9c9473",
"`z c #a55221",
"`A c #a59429",
"`B c #a5b5de",
"`C c #ad1018",
"`D c #ad5263",
"`E c #b57384",
"`F c #b57b21",
"`G c #bd3129",
"`H c #bd9c5a",
"`I c #bd9ca5",
"`J c #bdbdce",
"`K c #c69c21",
"`L c #c6def7",
"`M c #c6f7ff",
"`N c #ceb563",
"`O c #ceceb5",
"`P c #de524a",
"`Q c #deb521",
"`R c #e72929",
"`S c #e77b21",
"`T c #e7e7f7",
"`U c #f7dea5",
"`V c #ff0008",
"`W c #ff00ff",
"`X c #ff3131",
"`Y c #ff4a4a",
"`Z c #ff737b",
"`0 c #ff9c31",
"`1 c #ff9c9c",
"`2 c #ffbd21",
"`3 c #ffbdbd",
"`4 c #ffde18",
"`5 c #ffde63",
"`6 c #ffff29",
"`7 c #ffffa5",
"`8 c #ffffff",
".` c #ffffff",
".. c #ffffff",
".# c #ffffff",
".a c #ffffff",
".b c #ffffff",
".c c #ffffff",
".d c #ffffff",
".e c #ffffff",
".f c #ffffff",
".g c #ffffff",
".h c #ffffff",
".i c #ffffff",
".j c #ffffff",
".k c #ffffff",
".l c #ffffff",
".m c #ffffff",
".n c #ffffff",
".o c #ffffff",
".p c #ffffff",
".q c #ffffff",
".r c #ffffff",
".s c #ffffff",
".t c #ffffff",
".u c #ffffff",
".v c #ffffff",
".w c #ffffff",
".x c #ffffff",
".y c #ffffff",
".z c #ffffff",
".A c #ffffff",
".B c #ffffff",
".C c #ffffff",
".D c #ffffff",
".E c #ffffff",
".F c #ffffff",
".G c #ffffff",
".H c #ffffff",
".I c #ffffff",
".J c #ffffff",
".K c #ffffff",
".L c #ffffff",
".M c #ffffff",
".N c #ffffff",
".O c #ffffff",
".P c #ffffff",
".Q c #ffffff",
".R c #ffffff",
".S c #ffffff",
".T c #ffffff",
".U c #ffffff",
".V c #ffffff",
".W c #ffffff",
".X c #ffffff",
".Y c #ffffff",
".Z c #ffffff",
".0 c #ffffff",
".1 c #ffffff",
".2 c #ffffff",
".3 c #ffffff",
".4 c #ffffff",
".5 c #ffffff",
".6 c #ffffff",
".7 c #ffffff",
".8 c #ffffff",
"#` c #ffffff",
"#. c #ffffff",
"## c #ffffff",
"#a c #ffffff",
"#b c #ffffff",
"#c c #ffffff",
"#d c #ffffff",
"#e c #ffffff",
"#f c #ffffff",
"#g c #ffffff",
"#h c #ffffff",
"#i c #ffffff",
"#j c #ffffff",
"#k c #ffffff",
"#l c #ffffff",
"#m c #ffffff",
"#n c #ffffff",
"#o c #ffffff",
"#p c #ffffff",
"#q c #ffffff",
"#r c #ffffff",
"#s c #ffffff",
"#t c #ffffff",
"#u c #ffffff",
"#v c #ffffff",
"#w c #ffffff",
"#x c #ffffff",
"#y c #ffffff",
"#z c #ffffff",
"#A c #ffffff",
"#B c #ffffff",
"#C c #ffffff",
"#D c #ffffff",
"#E c #ffffff",
"#F c #ffffff",
"#G c #ffffff",
"#H c #ffffff",
"#I c #ffffff",
"#J c #ffffff",
"#K c #ffffff",
"#L c #ffffff",
"#M c #ffffff",
"#N c #ffffff",
"#O c #ffffff",
"#P c #ffffff",
"#Q c #ffffff",
"#R c #ffffff",
"#S c #ffffff",
"#T c #ffffff",
"#U c #ffffff",
"#V c #ffffff",
"#W c #ffffff",
"#X c #ffffff",
"#Y c #ffffff",
"#Z c #ffffff",
"#0 c #ffffff",
"#1 c #ffffff",
"#2 c #ffffff",
"#3 c #ffffff",
"#4 c #ffffff",
"#5 c #ffffff",
"#6 c #ffffff",
"#7 c #ffffff",
"#8 c #ffffff",
"a` c #ffffff",
"a. c #ffffff",
"a# c #ffffff",
"aa c #ffffff",
"ab c #ffffff",
"ac c #ffffff",
"ad c #ffffff",
"ae c #ffffff",
"af c #ffffff",
"ag c #ffffff",
"ah c #ffffff",
"ai c #ffffff",
"aj c #ffffff",
"ak c #ffffff",
"al c #ffffff",
"am c #ffffff",
"an c #ffffff",
"ao c #ffffff",
"ap c #ffffff",
"aq c #ffffff",
"ar c #ffffff",
"as c #ffffff",
"at c #ffffff",
"au c #ffffff",
"av c #ffffff",
"aw c #ffffff",
"ax c #ffffff",
"ay c #ffffff",
"az c #ffffff",
"aA c #ffffff",
"aB c #ffffff",
"aC c #ffffff",
"aD c #ffffff",
"aE c #ffffff",
"aF c #ffffff",
"aG c #ffffff",
"aH c #ffffff",
"aI c #ffffff",
"aJ c #ffffff",
"aK c #ffffff",
"aL c #ffffff",
"aM c #ffffff",
"aN c #ffffff",
"aO c #ffffff",
"aP c #ffffff",
"aQ c #ffffff",
"aR c #ffffff",
"aS c #ffffff",
"aT c #ffffff",
"aU c #ffffff",
"aV c #ffffff",
"aW c #ffffff",
"aX c #ffffff",
"aY c #ffffff",
"aZ c #ffffff",
"a0 c #ffffff",
"a1 c #ffffff",
"a2 c #ffffff",
"a3 c #ffffff",
"a4 c #ffffff",
"a5 c #ffffff",
"a6 c #ffffff",
"a7 c #ffffff",
"a8 c #ffffff",
/* pixels */
"`q```````````````````````````````````````````````````````````````````````````````````````````````````````````````````````````````````````````q``",
"```y`8`8`8`8`8`8`8`8`8`8`8`8`8`8`8`8`8`8`8`8`8`8`8`8`8`8`8`8`8`8`8`8`8`8`8`8`8`8`8`8`8`8`8`8`8`8`8`8`8`8`8`8`8`8`8`8`8`8`8`8`8`8`8`8`8`8`8`y````",
"```8`8`8`8`8`8`8`8`8`8`8`8`8`8`8`8`8`8`8`8`8`8`8`8`8`8`8`8`8`8`8`8`8`8`8`8`8`8`8`8`8`8`8`8`8`8`8`8`8`8`8`8`8`8`8`8`8`8`8`8`8`8`8`8`8`8`8`8`8````",
"```8`8`8`8`8`8`8`8`8`8`8`8`8`8`8`8`8`8`8`8`8`8`8`8`8`8`8`8`8`8`8`8`8`8`8`8`8`8`8`8`8`8`8`8`8`8`8`8`8`8`8`8`8`8`8`8`8`8`8`8`8`8`8`8`8`8`8`8`8````",
"```8`````````8`````````8`8`8`8`8`8`8`8`8`8`8`8`8`8`8`8`8`8`8`8`8`8`8`8`8`8`8`8`8`8`8`8`8`8`8`8`8`8`8`8`8`8`8`8`8`8`8`8`8`8`8`8`8`8`8`8`8`8`8````",
"```8`````````8`````````8`8`8`8`8`8`8`8`8`8`8`8`8`8`8`8`8`8`8`8`8`8`8`8`8`8`8`8`8`8`8`8`8`8`8`8`8`8`8`8`8`8`8`8`8`8`8`8`8`8`8`8`8`8`8`8`8`8`8````",
"```8`8`````8`8`q```y`8`8`8`8`8`8`8`8`8`8`8`8`8`8`8`8`8`8`8`8`8`8`8`8`8`8`8`8`8`8`8`8`8`8`8`8`8`8`8`8`8`8`8`8`8`8`8`8`8`8`8`8`8`8`8`8`8`8`8`8````",
"```8`8`````8`q```q`8`8`8`8`8`8`8`8`8`8`8`8`8`8`8`8`8`8`8`8`8`8`8`8`8`8`8`8`8`8`8`8`8`8`8`8`8`8`8`8`8`8`8`8`8`8`8`8`8`8`8`8`8`8`8`8`8`8`8`8`8````",
"```8`8`````q```q`8`8`8`8`8`8`8`8`8`8`8`8`8`8`8`8`8`8`8`8`8`8`8`8`8`8`8`8`8`8`8`8`8`8`8`8`8`8`8`8`8`8`8`8`8`8`8`8`8`8`8`8`8`8`8`8`8`8`8`8`8`8````",
"```8`8```````q`8`8`8`8`8`8`8`8`8`8`8`8`8`8`8`8`8`8`8`8`8`8`8`8`8`8`8`8`8`8`8`8`8`8`8`8`8`8`8`8`8`8`8`8`8`8`8`8`8`8`8`8`8`8`8`8`8`8`8`8`8`8`8````",
"```8`8`````q```q`8`8`8`8```````````````````````````````````````````````````````````````````````````````````````````````8`8`8`8`8`8`8`8`8`8`8````",
"```8`8`````8`q```q`8`8`8```8`8`8`8`8`8`8`8`8`8`8`8`v`s`4`4`4`4`u`4`A`4`6`C`V`Q`4`4`A`2`K`4`4`6`z`w`8`8`8`8`8`8`8`8`8```8`8`8`8`8`8`8`8`8`8`8````",
"```8`8`````8`8`q```q`8`8```8`8`8`8`f`f`f`8`8`8`8`8`8`r`R`A`4`A`4`Q`K`Q`S`V`x`R`A`K`4`4`Q`5`Q`C`r`8`8`8`8`8`8`8`8`8`8```8`8`8`8`8`8`8`8`8`8`8````",
"```8`8`````8`8`8```q`8`8```8`8`8`f```````f`8`8`8`8`8`t`r`V`A`A`F`s`K`A`G`C`X`C`F`Q`A`s`K`A`V`r`B`8`8`8`8`8`8`8`8`8`8```8`8`8`8`8`8`8`8`8`8`8````",
"```8`````````8`````````8```8`8`8`f```````f`8`8`8`8`8`8`C`C`z`u`A`A`s`s`r`r`G`r`z`l`s`n`K`s`V`r`8`8`8`8`8`8`8`8`L`8`8```8`8`8`8`8`8`8`8`8`8`8````",
"```8`````````8`````````8```8`8`q`T```````T`q`8`8`8`8`8`J`C`r`f`j`j`r`j`c`d`#`#`#`#`#`a`#`#`#`w`8`8`8`8`8`8`8`T`J`w`8```8`8`8`8`8`8`8`8`8`8`8````",
"```8`8`8`8`8`8`8`8`8`8`8```8`f```````````````f`8`8`8`8`8`c`#`f`v`y`w`B`I`I`y`y`q`n`f`n`f`n`f`8`8`8`8`8`8`8`8`K`6`k`M```8`8`8`8`8`8`8`8`8`8`8````",
"```8`8`8`8`8`8`8`8`8`8`8```8```````````````````8`8`8`8`8`p`J`T`8`8`8`8`8`8`8`8`T`J`T`L`L`L`J`8`8`8`8`8`8`8`T`2`5`s`T```8`8`8`8`8`8`8`8`8`8`8````",
"```8`8`8`8`f`f`f`8`8`8`8```8`f```````````````f`8`8`8`8`8`p`M`8`T`B`8`t`w`t`t`M`8`J`B`T`L`B`T`L`8`8`8`8`8`8`T`2`N`s`T```8`8`8`8`8`8`8`8`8`8`8````",
"```8`8`8`f```````f`8`8`8```8`8`f`f`8```8`f`f`8`8`8`8`8`8`e`T`k`w`B`8`T`L`L`8`J`8`L`T`B`T`L`L`J`8`8`8`8`8`8`T`2`N`q`L```8`8`8`8`8`8`8`8`8`8`8````",
"```8`8`8`f```````f`8`8`8```8`8`8`8`O```O`8`8`8`8`8`8`8`8`g`w`t`t`J`8`T`b`i`B`8`8`8`w`T`B`T`B`L`8`8`8`8`8`8`T`2`N`q`T```8`8`8`8`8`8`8`8`8`8`8````",
"```8`8`q`T```````T`q`8`8```8`8`8`8```````8`8`8`8`8`8`8`8`k`p`e`p`w`8`t`k`p`i`8`8`8`B`L`J`L`J`t`8`8`8`8`8`8`T`5`5`n`T```8`8`8`8`8`8`8`8`8`8`8````",
"```8`f```````````````f`8```8`8`8`8`8`8`8`8`8`8`8`8`8`8`t`i`J`L`M`T`8`8`T`L`8`8`8`8`B`B`B`B`L`t`8`8`8`8`8`8`L`4`H`q`L```8`8`8`8`8`8`8`8`8`8`8````",
"```8```````````````````8```8`8`8`8`8`8`8`8`8`8`8`8`8`8`w`g`8`8`B`8`8`8`8`8`8`8`8`8`J`w`T`B`T`w`8`8`8`8`8`8`T`5`y`q`M```8`8`8`8`8`8`8`8`8`8`8````",
"```8`f```````````````f`8```8`8`8`8`8`8`8`8`8`8`8`8`8`T`L`i`B`8`w`T`i`t`J`8`L`8`8`L`J`B`L`J`L`J`M`8`8`8`8`8`T`5`H`q`T```8`8`8`8`8`8`8`8`8`8`8````",
"```8`8`f`f`8```8`f`f`8`8```8`8`8`8`8`8`8`8`8`8`8`8`8`w`B`k`L`T`w`T`8`p`i`T`t`8`8`w`L`L`w`L`B`J`L`8`8`8`8`8`T`4`H`q`L```8`8`8`8`8`8`8`8`8`8`8````",
"```8`8`8`8`O```O`8`8`8`8```8`8`8`8`8`8`8`8`8`8`8`8`8`8`B`J`p`w`p`g`e`t`B`B`B`8`T`w`B`B`L`k`B`w`p`B`L`8`8`8`O`5`y`v`L```8`8`8`8`8`8`8`8`8`8`8````",
"```8`8`8`8```````8`8`8`8```8`8`8`8`8`8`8`8`8`8`8`8`8`8`8`8`T`8`8`T`B`8`8`8`8`L`w`t`B`J`w`T`L`8`8`8`J`T`8`8`T`5`y`q`M```8`8`8`8`8`8`8`8`8`8`8````",
"```8`8`8`8`8`8`8`8`8`8`8```8`8`8`8`8`8`8`8`8`8`8`8`8`t`w`L`L`8`8`8`8`8`8`8`B`B`k`i`t`J`t`M`i`w`t`t`t`T`8`8`L`5`y`q`L```8`8`8`8`8`8`8`8`8`8`8````",
"```8`8`8`8`8`8`8`8`8`8`8```8`8`8`8`8`8`8`8`8`8`8`8`T`B`B`p`B`L`T`B`i`T`L`J`t`B`T`T`p`i`e`r`r`a`c`b`g`8`8`8`O`5`v`q`L```8`8`8`8`8`8`8`8`8`8`8````",
"```8`8`8`8`8`8`8`8`8`8`8```8`8`8`8`8`8`8`8`8`8`8`t`a`p`t`B`J`J`t`a`C`o`i`i`i`i`t`b`j`V`V`r`a`c`V`V`V`o`L`8`T`5`v`q`T```8`8`8`8`8`8`8`8`8`8`8````",
"```8`8`8`8`8`8`8`8`8`8`8```8`8`8`8`8`8`8`8`L`h`d`c`d`f`a`g`b`g`p`#`#`c`C`R`C`V`V`V`V`r`a`#`b`V`x`C`a`V`C`B`B`7`q`v`L```8`8`8`8`8`8`8`8`8`8`8````",
"```8`8`8`8`8`8`8`8`8`8`8```8`8`8`8`8`8`L`J`f`#`a`d`q`f`d`n`c`h`8`.`.`d`#`c`C`V`V`r`a`#`f`n`R`C`C`a`a`C`2`u`#`7`q`v`M```8`8`8`8`8`8`8`8`8`8`8````",
"```8`8`8`8`8`8`8`8`8`8`8```8`8`8`8`M`t`B`L`8`8`I`#`q`c`a`n`q`#`8`m`6`y`.`a`#`c`a`#`n`n`K`z`V`C`V`a`r`z`2`#`d`7`y`B`L```8`8`8`8`8`8`8`8`8`8`8````",
"```8`8`8`8`8`8`8`8`8`8`8```8`8`8`w`q`N`U`O`N`w`L`8`v`a`q`y`#`#`w`N`K`F`2`5`.`a`d`.`Q`Q`A`V`C`V`X`V`V`4`a`q`#`7`v`q`T```8`8`8`8`8`8`8`8`8`8`8````",
"```8`8`8`8`8`8`8`8`8`8`8```8`8`g`#`U`H`y`y`y`y`y`B`B`8`#`#`n`f`d`8`m`Q`0`A`F`5`Q`F`F`2`G`C`R`V`V`V`z`K`n`k`d`7`y`q`L```8`8`8`8`8`8`8`8`8`8`8````",
"```8`8`8`8`8`8`8`8`8`8`8```8`x`j`a`N`I`B`N`B`N`N`y`N`t`8`c`f`y`#`8`u`Q`u`Q`2`K`F`4`K`A`V`C`V`a`V`C`4`#`w`#`f`7`q`v`L```8`8`8`8`8`8`8`8`8`8`8````",
"```8`8`8`8`8`8`8`8`8`8`8```q`V`j`d`B`H`y`y`y`w`K`Q`I`N`w`8`#`h`c`J`N`s`u`2`F`Q`Q`d`A`z`C`C`a`a`V`z`Q`n`a`n`d`7`h`y`L```8`8`8`8`8`8`8`8`8`8`8````",
"```8`8`8`8`8`8`8`8`8`8`8```V`V`j`d`O`B`B`B`B`B`u`H`B`y`H`B`O`c`d`p`7`F`F`Q`4`F`s`0`Q`G`C`V`j`c`r`2`d`q`n`a`#`7`h`t`L```8`8`8`8`8`8`8`8`8`8`8````",
"```8`8`8`8`8`8`8`8`8`8`8```V`G`j`a`N`N`H`N`H`u`A`f`2`y`B`H`8`y`q`e`8`s`m`4`K`s`2`u`A`V`C`X`C`V`C`2`a`k`d`n`n`7`n`y`L```8`8`8`8`8`8`8`8`8`8`8````",
"```8`8`8`8`8`8`8`8`8`8`8```V`C`a`d`B`y`w`B`s`5`x`r`H`s`y`N`t`8`d`#`8`u`A`A`4`F`u`K`m`V`C`V`X`V`G`K`k`#`m`f`e`7`v`y`L```8`8`8`8`8`8`8`8`8`8`8````",
"```8`8`8`8`8`8`8`8`8`8`8```V`R`j`a`N`O`y`O`U`y`m`m`q`H`U`y`r`E`8`#`L`H`u`2`Q`u`K`2`l`C`V`R`r`V`K`m`q`n`d`Q`m`7`s`p`L```8`8`8`8`8`8`8`8`8`8`8````",
"```8`8`8`8`8`8`8`8`8`8`8```V`a`j`d`O`H`N`y`.`U`C`R`T`.`y`y`r`C`M`d`w`N`u`Q`4`K`A`A`P`C`G`#`#`V`K`d`n`d`f`4`K`2`4`4`y```8`8`8`8`8`8`8`8`8`8`8````",
"```8`8`8`8`8`8`8`8`8`8`8```R`C`c`a`I`y`p`.`e`U`z`z`L`k`a`N`C`C`O`U`k`U`K`K`K`F`K`2`x`C`V`c`l`V`2`a`n`f`k`d`A`u`.`m`Q```8`8`8`8`8`8`8`8`8`8`8````",
"```8`8`8`8`8`8`8`8`8`8`8```V`r`y`q`B`y`t`L`L`y`z`z`O`M`M`B`r`V`E`8`d`t`s`K`4`F`Q`A`r`C`X`V`V`C`H`a`f`q`#`k`T`8`b`8`L```8`8`8`8`8`8`8`8`8`8`8````",
"```8`8`8`8`8`8`8`8`8`8`8```V`x`4`n`U`y`t`z`F`G`x`x`m`x`u`y`C`V`k`L`p`p`q`F`A`Q`m`Q`z`C`V`C`u`H`A`y`n`d`n`J`T`T`g`w`J```8`8`8`8`8`8`8`8`8`8`8````",
"```8`8`8`8`8`8`8`8`8`8`8```V`r`a`f`B`N`m`C`r`x`z`l`z`z`C`s`x`x`Z`2`5`t`t`N`H`K`A`Q`P`C`G`A`A`K`Q`K`2`v`#`k`8`e`g`J`L```8`8`8`8`8`8`8`8`8`8`8````",
"```8`8`8`8`8`8`8`8`8`8`8```v`T`q`p`8`y`F`K`2`Q`Q`2`2`2`2`z`L`w`L`y`J`v`v`7`A`K`u`s`m`V`A`A`Q`A`K`A`A`0`#`k`8`e`g`M`L```8`8`8`8`8`8`8`8`8`8`8````",
"```8`8`8`8`8`8`8`8`8`8`8```L`T`g`e`8`k`a`0`A`A`K`A`K`A`A`C`l`u`u`K`A`7`t`v`J`A`L`w`L`m`Q`2`Q`2`Q`Q`2`K`A`y`8`p`k`T`v```8`8`8`8`8`8`8`8`8`8`8````",
"```8`8`8`8`8`8`8`8`8`8`8```L`J`g`e`8`k`#`q`2`K`Q`K`K`A`x`C`z`Q`A`K`H`N`t`t`5`2`S`D`x`s`C`z`z`m`x`x`r`C`l`N`B`f`a`r`V```8`8`8`8`8`8`8`8`8`8`8````",
"```8`8`8`8`8`8`8`8`8`8`8```J`w`g`M`L`B`f`d`k`H`A`H`u`C`V`C`P`Q`m`Q`A`F`q`p`p`L`k`V`C`v`z`z`x`G`x`G`F`z`y`B`U`h`4`x`V```8`8`8`8`8`8`8`8`8`8`8````",
"```8`8`8`8`8`8`8`8`8`8`8```L`8`e`8`T`p`#`q`f`#`N`C`V`V`V`C`x`u`Q`F`6`K`s`t`d`8`E`V`r`B`8`L`O`z`z`y`L`M`p`y`B`s`y`r`V```8`8`8`8`8`8`8`8`8`8`8````",
"```8`8`8`8`8`8`8`8`8`8`8```K`s`.`s`A`d`n`f`n`a`2`V`j`a`V`C`x`2`K`A`K`F`Q`U`g`U`L`C`C`N`a`g`L`z`z`U`e`.`v`v`H`a`c`C`R```8`8`8`8`8`8`8`8`8`8`8````",
"```8`8`8`8`8`8`8`8`8`8`8```H`2`4`2`Q`4`f`d`n`d`Q`C`#`a`C`C`S`A`A`K`4`Q`s`N`w`d`8`C`r`y`q`b`M`G`C`U`.`y`N`B`N`e`j`a`V```8`8`8`8`8`8`8`8`8`8`8````",
"```8`8`8`8`8`8`8`8`8`8`8```T`p`q`7`l`2`a`n`q`n`S`V`r`V`R`V`l`Q`K`s`K`2`F`H`T`#`7`v`C`y`U`H`n`m`m`N`O`O`y`O`N`d`j`R`V```8`8`8`8`8`8`8`8`8`8`8````",
"```8`8`8`8`8`8`8`8`8`8`8```L`t`v`7`d`f`n`#`q`A`G`V`X`V`C`V`s`K`u`K`4`K`A`u`8`#`c`8`t`N`y`u`H`C`x`U`s`H`w`y`B`a`a`C`R```8`8`8`8`8`8`8`8`8`8`8````",
"```8`8`8`8`8`8`8`8`8`8`8```L`y`n`7`h`n`d`q`.`2`C`V`C`V`G`V`u`A`0`s`K`4`m`u`8`d`p`y`8`y`B`y`2`f`A`u`H`N`B`N`N`d`j`C`V```8`8`8`8`8`8`8`8`8`8`8````",
"```8`8`8`8`8`8`8`8`8`8`8```L`t`n`7`#`a`n`q`d`2`C`c`d`V`C`G`Q`K`s`F`4`K`F`A`7`k`d`a`O`J`H`y`B`A`A`B`y`B`B`H`O`a`j`X`V```8`8`8`8`8`8`8`8`8`8`8````",
"```8`8`8`8`8`8`8`8`8`8`8```L`y`h`7`f`n`d`n`K`z`V`a`#`C`V`z`A`d`Q`Q`F`4`u`s`N`J`a`n`#`8`w`N`N`Q`A`y`y`y`y`y`B`d`j`V`D```8`8`8`8`8`8`8`8`8`8`8````",
"```8`8`8`8`8`8`8`8`8`8`8```L`v`q`7`f`#`t`#`4`C`V`a`V`G`V`A`K`4`F`K`2`K`u`Q`u`8`#`y`f`c`8`t`B`y`N`J`N`J`B`H`O`d`c`x`8```8`8`8`8`8`8`8`8`8`8`8````",
"```8`8`8`8`8`8`8`8`8`8`8```L`q`v`7`d`n`n`K`F`V`V`V`V`C`G`2`A`F`2`5`F`A`Q`2`f`8`d`f`n`#`#`7`B`J`H`y`y`y`y`B`5`#`f`8`8```8`8`8`8`8`8`8`8`8`8`8````",
"```8`8`8`8`8`8`8`8`8`8`8```T`p`q`7`#`q`a`4`V`V`V`X`C`V`y`Q`Q`#`a`a`.`5`2`F`K`N`B`#`#`y`q`d`v`8`L`w`J`O`5`N`q`t`8`8`8```8`8`8`8`8`8`8`8`8`8`8````",
"```8`8`8`8`8`8`8`8`8`8`8```L`B`y`7`f`#`4`m`r`c`X`V`C`z`K`m`n`#`#`c`#`a`.`v`4`m`8`#`q`n`#`a`q`#`w`8`8`L`B`p`M`8`8`8`8```8`8`8`8`8`8`8`8`8`8`8````",
"```8`8`8`8`8`8`8`8`8`8`8```T`q`y`7`#`u`2`C`a`#`C`C`R`n`m`#`#`r`V`X`C`c`#`d`b`#`8`h`#`n`f`d`q`d`a`#`f`J`L`8`8`8`8`8`8```8`8`8`8`8`8`8`8`8`8`8````",
"```8`8`8`8`8`8`8`8`8`8`8```L`v`q`6`w`B`C`V`#`C`x`V`b`#`#`j`V`V`V`V`V`C`V`c`#`#`p`k`e`f`.`n`d`c`d`h`L`8`8`8`8`8`8`8`8```8`8`8`8`8`8`8`8`8`8`8````",
"```8`8`8`8`8`8`8`8`8`8`8```L`v`q`5`T`8`L`o`V`C`V`d`#`r`V`V`r`e`t`g`i`i`i`o`C`a`p`B`B`B`w`p`a`t`8`8`8`8`8`8`8`8`8`8`8```8`8`8`8`8`8`8`8`8`8`8````",
"```8`8`8`8`8`8`8`8`8`8`8```L`q`v`5`T`8`8`8`i`e`j`#`r`r`e`i`p`L`M`B`t`B`M`L`i`B`T`T`J`p`B`B`T`8`8`8`8`8`8`8`8`8`8`8`8```8`8`8`8`8`8`8`8`8`8`8````",
"```8`8`8`8`8`8`8`8`8`8`8```T`q`y`5`L`8`8`T`t`t`t`t`p`M`t`L`t`i`k`B`J`8`8`8`8`8`8`8`L`L`w`t`8`8`8`8`8`8`8`8`8`8`8`8`8```8`8`8`8`8`8`8`8`8`8`8````",
"```8`8`8`8`8`8`8`8`8`8`8```T`q`y`5`O`8`8`8`B`8`8`8`L`T`w`J`B`t`w`L`8`8`8`8`B`T`8`8`T`8`8`8`8`8`8`8`8`8`8`8`8`8`8`8`8```8`8`8`8```````8`8`8`8````",
"```8`8`8`8`8`8`8`8`8`8`8```L`q`y`5`T`8`8`8`L`w`t`w`w`p`L`B`B`w`T`8`B`B`B`t`e`g`p`w`p`J`B`8`8`8`8`8`8`8`8`8`8`8`8`8`8```8`8`8`8`O```O`8`8`8`8````",
"```8`8`8`8`8`8`8`8`8`8`8```L`q`H`6`T`8`8`8`8`8`L`B`J`L`t`L`J`w`8`8`t`T`i`p`8`T`w`T`L`i`B`t`8`8`8`8`8`8`8`8`8`8`8`8`8```8`8`f`f`8```8`f`f`8`8````",
"```8`8`8`8`8`8`8`8`8`8`8```T`q`I`5`T`8`8`8`8`8`T`L`L`B`T`B`J`L`8`8`L`8`L`p`p`L`B`8`B`k`L`T`8`8`8`8`8`8`8`8`8`8`8`8`8```8`f```````````````f`8````",
"```8`8`8`8`8`8`8`8`8`8`8```T`q`H`5`O`8`8`8`8`8`8`w`T`B`T`w`J`8`8`8`8`8`8`8`8`8`w`8`8`g`t`8`8`8`8`8`8`8`8`8`8`8`8`8`8```8```````````````````8````",
"```8`8`8`8`8`8`8`8`8`8`8```T`h`N`5`T`8`8`8`8`8`8`t`L`B`B`B`B`8`8`8`8`L`T`8`8`L`8`L`J`k`t`8`8`8`8`8`8`8`8`8`8`8`8`8`8```8`f```````````````f`8````",
"```8`8`8`8`8`8`8`8`8`8`8```T`q`N`5`O`8`8`8`8`8`8`w`J`L`J`L`B`8`8`8`k`p`i`t`8`w`k`e`p`i`8`8`8`8`8`8`8`8```````8`8`8`8```8`8`q`T```````T`q`8`8````",
"```8`8`8`8`8`8`8`8`8`8`8```L`q`N`5`T`8`8`8`8`8`8`J`B`T`B`T`w`8`8`8`B`i`b`T`8`J`B`t`t`g`8`8`8`8`8`8`8`8`O```O`8`8`8`8```8`8`8`f```````f`8`8`8````",
"```8`8`8`8`8`8`8`8`8`8`8```L`q`N`2`T`8`8`8`8`8`8`J`L`L`T`B`T`L`8`B`8`L`L`T`8`B`t`k`T`e`8`8`8`8`8`8`f`f`8```8`f`f`8`8```8`8`8`f```````f`8`8`8````",
"```8`8`8`8`8`8`8`8`8`8`8```T`s`N`2`T`8`8`8`8`8`8`L`T`B`L`M`B`J`8`8`p`t`w`t`8`B`T`M`8`i`8`8`8`8`8`f```````````````f`8```8`8`8`8`f`f`f`8`8`8`8````",
"```8`8`8`8`8`8`8`8`8`8`8```L`s`5`2`T`8`8`8`8`8`8`8`L`L`L`L`T`B`T`8`8`8`8`8`8`8`8`T`J`p`8`8`8`8`8```````````````````8```8`8`8`8`8`8`8`8`8`8`8````",
"```8`8`8`8`8`8`8`8`8`8`8```M`k`6`K`8`8`8`8`8`8`8`8`n`f`n`f`n`n`v`v`w`I`B`I`y`y`v`n`#`c`8`8`8`8`8`f```````````````f`8```8`8`8`8`8`8`8`8`8`8`8````",
"```8`8`8`8`8`8`8`8`8`8`8```8`B`N`T`8`8`8`8`8`8`8`w`#`#`c`#`#`#`c`#`c`a`c`j`j`r`j`l`l`C`J`8`8`8`8`8`q`T```````T`q`8`8```8`````````8`````````8````",
"```8`8`8`8`8`8`8`8`8`8`8```8`8`L`8`8`8`8`8`8`8`8`r`V`s`H`s`s`l`z`j`C`r`r`u`s`A`A`u`z`C`C`8`8`8`8`8`8`f```````f`8`8`8```8`````````8`````````8````",
"```8`8`8`8`8`8`8`8`8`8`8```8`8`8`8`8`8`8`8`8`8`B`r`C`F`K`s`A`K`u`C`X`C`G`A`A`u`A`A`A`V`r`t`8`8`8`8`8`f```````f`8`8`8```8`8`q```8`8`8`````8`8````",
"```8`8`8`8`8`8`8`8`8`8`8```8`8`8`8`8`8`8`8`8`8`r`C`2`2`Q`2`6`K`K`V`x`V`K`Q`Q`K`4`A`4`A`G`r`8`8`8`8`8`8`f`f`f`8`8`8`8```8`8`q```q`8`8`````8`8````",
"```8`8`8`8`8`8`8`8`8`8`8```8`8`8`8`8`8`8`8`8`w`z`4`4`6`H`2`u`4`4`Q`V`C`6`4`A`4`u`4`4`4`4`z`v`8`8`8`8`8`8`8`8`8`8`8`8```8`8`8`q```q`8`````8`8````",
"```8`8`8`8`8`8`8`8`8`8`8```````````````````````````````````````````````````````````````````````````````````````````````8`8`8`8`q```q`````8`8````",
"```8`8`8`8`8`8`8`8`8`8`8`8`8`8`8`8`8`8`8`8`8`8`8`8`8`8`8`8`8`8`8`8`8`8`8`8`8`8`8`8`8`8`8`8`8`8`8`8`8`8`8`8`8`8`8`8`8`8`8`8`8`8`8`q```````8`8````",
"```8`8`8`8`8`8`8`8`8`8`8`8`8`8`8`8`8`8`8`8`8`8`8`8`8`8`8`8`8`8`8`8`8`8`8`8`8`8`8`8`8`8`8`8`8`8`8`8`8`8`8`8`8`8`8`8`8`8`8`8`8`8`q```q`````8`8````",
"```8`8`8`8`8`8`8`8`8`8`8`8`8`8`8`8`8`8`8`8`8`8`8`8`8`8`8`8`8`8`8`8`8`8`8`8`8`8`8`8`8`8`8`8`8`8`8`8`8`8`8`8`8`8`8`8`8`8`8`8`8`q```q`8`````8`8````",
"```8`8`8`8`8`8`8`8`8`8`8`8`8`8`8`8`8`8`8`8`8`8`8`8`8`8`8`8`8`8`8`8`8`8`8`8`8`8`8`8`8`8`8`8`8`8`8`8`8`8`8`8`8`8`8`8`8`8`8`8`y```q`8`8`````8`8````",
"```8`8`8`8`8`8`8`8`8`8`8`8`8`8`8`8`8`8`8`8`8`8`8`8`8`8`8`8`8`8`8`8`8`8`8`8`8`8`8`8`8`8`8`8`8`8`8`8`8`8`8`8`8`8`8`8`8`8`8`````````8`````````8````",
"```8`8`8`8`8`8`8`8`8`8`8`8`8`8`8`8`8`8`8`8`8`8`8`8`8`8`8`8`8`8`8`8`8`8`8`8`8`8`8`8`8`8`8`8`8`8`8`8`8`8`8`8`8`8`8`8`8`8`8`````````8`````````8````",
"```8`8`8`8`8`8`8`8`8`8`8`8`8`8`8`8`8`8`8`8`8`8`8`8`8`8`8`8`8`8`8`8`8`8`8`8`8`8`8`8`8`8`8`8`8`8`8`8`8`8`8`8`8`8`8`8`8`8`8`8`8`8`8`8`8`8`8`8`8````",
"```8`8`8`8`8`8`8`8`8`8`8`8`8`8`8`8`8`8`8`8`8`8`8`8`8`8`8`8`8`8`8`8`8`8`8`8`8`8`8`8`8`8`8`8`8`8`8`8`8`8`8`8`8`8`8`8`8`8`8`8`8`8`8`8`8`8`8`8`8````",
"```y`8`8`8`8`8`8`8`8`8`8`8`8`8`8`8`8`8`8`8`8`8`8`8`8`8`8`8`8`8`8`8`8`8`8`8`8`8`8`8`8`8`8`8`8`8`8`8`8`8`8`8`8`8`8`8`8`8`8`8`8`8`8`8`8`8`8`8`y```q",
"`q```````````````````````````````````````````````````````````````````````````````````````````````````````````````````````````````````````````q``"
};
