/* XPM */
static char const *face_51_xpm[] = {
/* width height num_colors chars_per_pixel */
"    72    96      256            2",
/* colors */
"`` c #000000",
"`. c #001084",
"`# c #081018",
"`a c #102129",
"`b c #10298c",
"`c c #291018",
"`d c #293131",
"`e c #293184",
"`f c #394239",
"`g c #394aa5",
"`h c #425a52",
"`i c #4263bd",
"`j c #521021",
"`k c #525a9c",
"`l c #5a2929",
"`m c #5a5221",
"`n c #5a5252",
"`o c #633173",
"`p c #637bad",
"`q c #73735a",
"`r c #7b1018",
"`s c #7b7329",
"`t c #7b94c6",
"`u c #947b21",
"`v c #947b84",
"`w c #949cbd",
"`x c #9c2929",
"`y c #9c9473",
"`z c #a55221",
"`A c #a59429",
"`B c #a5b5de",
"`C c #ad1018",
"`D c #ad5263",
"`E c #b57384",
"`F c #b57b21",
"`G c #bd3129",
"`H c #bd9c5a",
"`I c #bd9ca5",
"`J c #bdbdce",
"`K c #c69c21",
"`L c #c6def7",
"`M c #c6f7ff",
"`N c #ceb563",
"`O c #ceceb5",
"`P c #de524a",
"`Q c #deb521",
"`R c #e72929",
"`S c #e77b21",
"`T c #e7e7f7",
"`U c #f7dea5",
"`V c #ff0008",
"`W c #ff00ff",
"`X c #ff3131",
"`Y c #ff4a4a",
"`Z c #ff737b",
"`0 c #ff9c31",
"`1 c #ff9c9c",
"`2 c #ffbd21",
"`3 c #ffbdbd",
"`4 c #ffde18",
"`5 c #ffde63",
"`6 c #ffff29",
"`7 c #ffffa5",
"`8 c #ffffff",
".` c #ffffff",
".. c #ffffff",
".# c #ffffff",
".a c #ffffff",
".b c #ffffff",
".c c #ffffff",
".d c #ffffff",
".e c #ffffff",
".f c #ffffff",
".g c #ffffff",
".h c #ffffff",
".i c #ffffff",
".j c #ffffff",
".k c #ffffff",
".l c #ffffff",
".m c #ffffff",
".n c #ffffff",
".o c #ffffff",
".p c #ffffff",
".q c #ffffff",
".r c #ffffff",
".s c #ffffff",
".t c #ffffff",
".u c #ffffff",
".v c #ffffff",
".w c #ffffff",
".x c #ffffff",
".y c #ffffff",
".z c #ffffff",
".A c #ffffff",
".B c #ffffff",
".C c #ffffff",
".D c #ffffff",
".E c #ffffff",
".F c #ffffff",
".G c #ffffff",
".H c #ffffff",
".I c #ffffff",
".J c #ffffff",
".K c #ffffff",
".L c #ffffff",
".M c #ffffff",
".N c #ffffff",
".O c #ffffff",
".P c #ffffff",
".Q c #ffffff",
".R c #ffffff",
".S c #ffffff",
".T c #ffffff",
".U c #ffffff",
".V c #ffffff",
".W c #ffffff",
".X c #ffffff",
".Y c #ffffff",
".Z c #ffffff",
".0 c #ffffff",
".1 c #ffffff",
".2 c #ffffff",
".3 c #ffffff",
".4 c #ffffff",
".5 c #ffffff",
".6 c #ffffff",
".7 c #ffffff",
".8 c #ffffff",
"#` c #ffffff",
"#. c #ffffff",
"## c #ffffff",
"#a c #ffffff",
"#b c #ffffff",
"#c c #ffffff",
"#d c #ffffff",
"#e c #ffffff",
"#f c #ffffff",
"#g c #ffffff",
"#h c #ffffff",
"#i c #ffffff",
"#j c #ffffff",
"#k c #ffffff",
"#l c #ffffff",
"#m c #ffffff",
"#n c #ffffff",
"#o c #ffffff",
"#p c #ffffff",
"#q c #ffffff",
"#r c #ffffff",
"#s c #ffffff",
"#t c #ffffff",
"#u c #ffffff",
"#v c #ffffff",
"#w c #ffffff",
"#x c #ffffff",
"#y c #ffffff",
"#z c #ffffff",
"#A c #ffffff",
"#B c #ffffff",
"#C c #ffffff",
"#D c #ffffff",
"#E c #ffffff",
"#F c #ffffff",
"#G c #ffffff",
"#H c #ffffff",
"#I c #ffffff",
"#J c #ffffff",
"#K c #ffffff",
"#L c #ffffff",
"#M c #ffffff",
"#N c #ffffff",
"#O c #ffffff",
"#P c #ffffff",
"#Q c #ffffff",
"#R c #ffffff",
"#S c #ffffff",
"#T c #ffffff",
"#U c #ffffff",
"#V c #ffffff",
"#W c #ffffff",
"#X c #ffffff",
"#Y c #ffffff",
"#Z c #ffffff",
"#0 c #ffffff",
"#1 c #ffffff",
"#2 c #ffffff",
"#3 c #ffffff",
"#4 c #ffffff",
"#5 c #ffffff",
"#6 c #ffffff",
"#7 c #ffffff",
"#8 c #ffffff",
"a` c #ffffff",
"a. c #ffffff",
"a# c #ffffff",
"aa c #ffffff",
"ab c #ffffff",
"ac c #ffffff",
"ad c #ffffff",
"ae c #ffffff",
"af c #ffffff",
"ag c #ffffff",
"ah c #ffffff",
"ai c #ffffff",
"aj c #ffffff",
"ak c #ffffff",
"al c #ffffff",
"am c #ffffff",
"an c #ffffff",
"ao c #ffffff",
"ap c #ffffff",
"aq c #ffffff",
"ar c #ffffff",
"as c #ffffff",
"at c #ffffff",
"au c #ffffff",
"av c #ffffff",
"aw c #ffffff",
"ax c #ffffff",
"ay c #ffffff",
"az c #ffffff",
"aA c #ffffff",
"aB c #ffffff",
"aC c #ffffff",
"aD c #ffffff",
"aE c #ffffff",
"aF c #ffffff",
"aG c #ffffff",
"aH c #ffffff",
"aI c #ffffff",
"aJ c #ffffff",
"aK c #ffffff",
"aL c #ffffff",
"aM c #ffffff",
"aN c #ffffff",
"aO c #ffffff",
"aP c #ffffff",
"aQ c #ffffff",
"aR c #ffffff",
"aS c #ffffff",
"aT c #ffffff",
"aU c #ffffff",
"aV c #ffffff",
"aW c #ffffff",
"aX c #ffffff",
"aY c #ffffff",
"aZ c #ffffff",
"a0 c #ffffff",
"a1 c #ffffff",
"a2 c #ffffff",
"a3 c #ffffff",
"a4 c #ffffff",
"a5 c #ffffff",
"a6 c #ffffff",
"a7 c #ffffff",
"a8 c #ffffff",
/* pixels */
"`q```````````````````````````````````````````````````````````````````````````````````````````````````````````````````````````````````````````q``",
"```y`8`8`8`8`8`8`8`8`8`8`8`8`8`8`8`8`8`8`8`8`8`8`8`8`8`8`8`8`8`8`8`8`8`8`8`8`8`8`8`8`8`8`8`8`8`8`8`8`8`8`8`8`8`8`8`8`8`8`8`8`8`8`8`8`8`8`8`y````",
"```8`8`8`8`8`8`8`8`8`8`8`8`8`8`8`8`8`8`8`8`8`8`8`8`8`8`8`8`8`8`8`8`8`8`8`8`8`8`8`8`8`8`8`8`8`8`8`8`8`8`8`8`8`8`8`8`8`8`8`8`8`8`8`8`8`8`8`8`8````",
"```8`8`8`8`8`8`8`8`8`8`8`8`8`8`8`8`8`8`8`8`8`8`8`8`8`8`8`8`8`8`8`8`8`8`8`8`8`8`8`8`8`8`8`8`8`8`8`8`8`8`8`8`8`8`8`8`8`8`8`8`8`8`8`8`8`8`8`8`8````",
"```8`````````8`````````8`8`8`8`8`8`8`8`8`8`8`8`8`8`8`8`8`8`8`8`8`8`8`8`8`8`8`8`8`8`8`8`8`8`8`8`8`8`8`8`8`8`8`8`8`8`8`8`8`8`8`8`8`8`8`8`8`8`8````",
"```8`````````8`````````8`8`8`8`8`8`8`8`8`8`8`8`8`8`8`8`8`8`8`8`8`8`8`8`8`8`8`8`8`8`8`8`8`8`8`8`8`8`8`8`8`8`8`8`8`8`8`8`8`8`8`8`8`8`8`8`8`8`8````",
"```8`8`````8`8`q```y`8`8`8`8`8`8`8`8`8`8`8`8`8`8`8`8`8`8`8`8`8`8`8`8`8`8`8`8`8`8`8`8`8`8`8`8`8`8`8`8`8`8`8`8`8`8`8`8`8`8`8`8`8`8`8`8`8`8`8`8````",
"```8`8`````8`q```q`8`8`8`8`8`8`8`8`8`8`8`8`8`8`8`8`8`8`8`8`8`8`8`8`8`8`8`8`8`8`8`8`8`8`8`8`8`8`8`8`8`8`8`8`8`8`8`8`8`8`8`8`8`8`8`8`8`8`8`8`8````",
"```8`8`````q```q`8`8`8`8`8`8`8`8`8`8`8`8`8`8`8`8`8`8`8`8`8`8`8`8`8`8`8`8`8`8`8`8`8`8`8`8`8`8`8`8`8`8`8`8`8`8`8`8`8`8`8`8`8`8`8`8`8`8`8`8`8`8````",
"```8`8```````q`8`8`8`8`8`8`8`8`8`8`8`8`8`8`8`8`8`8`8`8`8`8`8`8`8`8`8`8`8`8`8`8`8`8`8`8`8`8`8`8`8`8`8`8`8`8`8`8`8`8`8`8`8`8`8`8`8`8`8`8`8`8`8````",
"```8`8`````q```q`8`8`8`8```````````````````````````````````````````````````````````````````````````````````````````````8`8`8`8`8`8`8`8`8`8`8````",
"```8`8`````8`q```q`8`8`8```8`8`8`8`8`8`8`8`8`8`8`8`8`B`c`F`4`4`4`4`A`K`4`4`6`x`F`6`4`4`A`K`4`4`4`6`F`C`O`8`8`8`8`8`8```8`8`8`8`8`8`8`8`8`8`8````",
"```8`8`````8`8`q```q`8`8```8`8`8`8`8`v`8`8`8`8`8`8`8`8`c`r`P`6`4`s`2`Q`H`4`u`C`C`F`4`u`2`Q`H`4`4`z`c`3`8`8`8`8`8`8`8```8`8`8`8`8`8`8`8`8`8`8````",
"```8`8`````8`8`8```q`8`8```8`8`8`8`v```v`8`8`8`8`8`8`8`B`C`r`0`A`A`A`u`s`Q`C`X`P`r`F`u`n`m`s`4`z`D`l`8`8`8`8`8`8`8`8```8`8`8`8`8`8`8`8`8`8`8````",
"```8`````````8`````````8```8`8`8`v```````v`8`8`8`8`8`8`8`k`V`r`K`A`q`q`q`q`r`C`C`r`o`q`n`n`s`H`r`r`8`8`8`8`8`8`8`8`8```8`8`8`8`8`8`8`8`8`8`8````",
"```8`````````8`````````8```8`8`v```````````v`8`8`8`8`8`8`T`x`j`r`o`r`j`r`j`j`c`j`j`j`j`j`r`j`r`j`E`8`8`8`8`8`8`8`O`8```8`8`8`8`8`8`8`8`8`8`8````",
"```8`8`8`8`8`8`8`8`8`8`8```8`v```````````````v`8`8`8`8`8`8`g`r`c`#`#`#`a`#`#`#`#`#`#`#`#`#`#`#`#`8`8`8`8`8`8`8`O`f`O```8`8`8`8`8`8`8`8`8`8`8````",
"```8`8`8`8`8`8`8`8`8`8`8```8```````````````````8`8`8`8`8`8`8`#`#`#`#`c`f`v`y`y`I`B`I`y`v`q`m`c`f`8`8`8`8`8`8`p`u`4`u```8`8`8`8`8`8`8`8`8`8`8````",
"```8`8`8`8`8`v`8`8`8`8`8```8```````````````````8`8`8`8`8`8`8`k`v`t`L`B`J`8`8`8`L`8`M`8`8`8`M`8`k`J`8`8`8`8`8`u`4`6`4```8`8`8`8`8`8`8`8`8`8`8````",
"```8`8`8`8`v```v`8`8`8`8```8`q```````````````q`8`8`8`8`8`8`T`J`w`J`t`L`w`T`t`p`J`B`k`8`g`k`O`w`p`i`8`8`8`8`8`F`5`N`5```8`8`8`8`8`8`8`8`8`8`8````",
"```8`8`8`v```````v`8`8`8```8`8`q`q`8```8`q`q`8`8`8`8`8`8`8`B`t`T`w`T`t`L`8`8`L`i`B`8`8`L`L`b`t`t`p`w`8`8`8`T`K`6`u`6```8`8`8`8`8`8`8`8`8`8`8````",
"```8`8`v```````````v`8`8```8`8`8`8`O```O`8`8`8`8`8`8`8`8`8`p`L`L`J`L`J`L`w`.`i`i`e`T`8`g`p`g`k`L`t`w`8`8`8`8`K`6`n`7```8`8`8`8`8`8`8`8`8`8`8````",
"```8`v```````````````v`8```8`8`8`8```````8`8`8`8`8`8`8`8`J`L`T`w`L`B`J`J`8`8`p`w`T`8`8`L`T`t`T`w`w`8`8`8`8`T`K`5`q`6```8`8`8`8`8`8`8`8`8`8`8````",
"```8```````````````````8```8`8`8`8`8`8`8`8`8`8`8`8`8`8`8`B`T`J`J`T`J`L`J`8`8`8`8`8`8`8`L`8`8`8`p`p`8`8`8`8`T`K`5`q`5```8`8`8`8`8`8`8`8`8`8`8````",
"```8```````````````````8```8`8`8`8`8`8`8`8`8`8`8`8`8`8`8`J`B`L`L`T`B`L`B`8`8`8`8`8`8`8`L`8`8`8`t`p`J`8`8`8`8`K`N`y`N```8`8`8`8`8`8`8`8`8`8`8````",
"```8`q```````````````q`8```8`8`8`8`8`8`8`8`8`8`8`8`8`8`8`J`w`T`T`L`w`L`J`8`8`8`8`B`8`8`8`J`8`8`k`t`B`8`8`8`T`H`H`H`H```8`8`8`8`8`8`8`8`8`8`8````",
"```8`8`q`q`8```8`q`q`8`8```8`8`8`8`8`8`8`8`8`8`8`8`8`8`8`w`J`T`T`B`w`T`B`T`8`8`L`L`w`g`L`8`J`M`B`w`B`8`8`8`T`K`H`N`H```8`8`8`8`8`8`8`8`8`8`8````",
"```8`8`8`8`O```O`8`8`8`8```8`8`8`8`8`8`8`8`8`8`8`8`8`8`8`t`T`L`J`B`T`w`T`J`L`T`g`e`8`T`p`t`t`p`p`B`8`8`8`8`T`H`H`N`H```8`8`8`8`8`8`8`8`8`8`8````",
"```8`8`8`8```````8`8`8`8```8`8`8`8`8`8`8`8`8`8`8`8`t`i`T`w`B`B`L`L`w`p`8`p`B`B`w`p`k`e`p`8`T`B`t`B`8`8`8`8`T`K`H`N`H```8`8`8`8`8`8`8`8`8`8`8````",
"```8`8`8`8`8`8`8`8`8`8`8```8`8`8`8`8`8`8`8`8`8`8`J`B`B`t`p`p`t`p`g`e`T`B`8`8`8`J`8`8`J`8`8`8`k`J`B`8`8`8`8`8`H`N`y`N```8`8`8`8`8`8`8`8`8`8`8````",
"```8`8`8`8`8`8`8`8`8`8`8```8`8`8`8`8`8`8`8`8`8`8`B`k`t`k`o`x`z`a`e`g`p`p`T`T`8`8`8`8`8`8`8`L`J`w`T`B`8`8`8`T`Q`5`n`5```8`8`8`8`8`8`8`8`8`8`8````",
"```8`8`8`8`8`8`8`8`8`8`8```8`8`8`8`8`8`8`M`B`g`#`#`#`V`Z`V`Z`G`s`4`Q`p`J`B`L`B`L`T`8`8`B`B`J`B`w`B`#`g`L`8`8`H`6`n`6```8`8`8`8`8`8`8`8`8`8`8````",
"```8`8`8`8`8`8`8`8`8`8`8```8`8`8`8`J`i`g`.`#`#`#`#`#`r`Y`X`X`V`Q`s`f`u`T`t`g`i`e`b`q`s`r`o`e`g`e`#`#`#`.`B`t`N`5`n`5```8`8`8`8`8`8`8`8`8`8`8````",
"```8`8`8`8`8`8`8`8`8`8`8```8`B`d`K`.`.`g`L`#`l`c`a`#`a`V`Z`Y`V`F`m`4`u`a`#`#`u`A`Q`A`F`V`Z`c`#`n`8`#`#`p`e`g`N`5`v`5```8`8`8`8`8`8`8`8`8`8`8````",
"```8`8`8`8`8`8`8`8`8`8`8```d`#`G`K`.`b`.`k`v`p`8`#`c`#`r`X`Z`Z`G`A`A`K`d`#`s`l`Q`s`K`V`3`r`I`#`d`t`#`b`k`t`#`U`N`H`N```8`8`8`8`8`8`8`8`8`8`8````",
"```8`8`8`8`8`8`8`8`8`8`8```l`c`4`.`8`w`a`i`g`#`p`#`n`q`#`Z`X`Z`C`K`K`s`s`#`s`A`m`Q`G`Y`R`a`8`#`d`#`.`J`t`.`K`N`5`H`5```8`8`8`8`8`8`8`8`8`8`8````",
"```8`8`8`8`8`8`8`8`8`8`8```f`C`Q`.`g`e`2`.`J`p`#`#`w`T`#`C`X`Z`V`S`a`4`m`s`f`2`u`K`Y`Z`c`d`#`#`#`#`J`e`.`K`K`N`5`v`5```8`8`8`8`8`8`8`8`8`8`8````",
"```8`8`8`8`8`8`8`8`8`8`8```d`z`f`T`8`m`2`F`.`p`#`d`#`#`#`r`Z`Z`Y`z`A`Q`m`K`F`d`A`G`V`P`#`#`m`q`#`e`b`p`m`0`K`N`7`n`7```8`8`8`8`8`8`8`8`8`8`8````",
"```8`8`8`8`8`8`8`8`8`8`8```d`K`a`i`p`K`K`m`.`t`.`q`m`#`#`c`Z`V`Z`G`s`Q`4`m`2`2`H`V`Z`c`#`#`8`y`#`w`T`.`Q`A`K`O`6`h`6```8`8`8`8`8`8`8`8`8`8`8````",
"```8`8`8`8`8`8`8`8`8`8`8```q`2`.`T`e`K`4`m`a`p`L`f`B`#`d`#`V`1`V`C`A`Q`m`K`m`u`z`Z`D`J`O`#`f`#`t`p`.`F`K`Q`A`E`7`n`7```8`8`8`8`8`8`8`8`8`8`8````",
"```8`8`8`8`8`8`8`8`8`8`8```q`Q`.`B`e`K`K`s`u`.`e`c`#`#`B`d`C`V`3`C`K`s`4`u`4`H`R`Y`c`t`8`#`#`#`.`t`o`K`A`2`C`K`5`v`5```8`8`8`8`8`8`8`8`8`8`8````",
"```8`8`8`8`8`8`8`8`8`8`8```f`2`b`e`e`K`K`a`m`e`M`e`#`#`8`a`C`1`Y`Y`F`K`2`Q`A`S`X`P`#`#`B`c`#`g`8`.`u`A`4`G`V`H`5`y`5```8`8`8`8`8`8`8`8`8`8`8````",
"```8`8`8`8`8`8`8`8`8`8`8```a`v`u`H`L`T`l`A`4`m`.`B`k`#`m`#`d`#`V`Z`P`s`6`s`4`z`P`Z`r`p`h`c`#`8`e`q`K`Q`C`u`5`K`5`s`v```8`8`8`8`8`8`8`8`8`8`8````",
"```8`8`8`8`8`8`8`8`8`8`8```v`y`d`4`.`b`p`K`u`2`q`b`g`.`#`#`8`t`j`x`r`d`m`l`m`d`j`j`#`O`y`#`b`b`b`Q`m`K`C`6`s`u`2`2`4```8`8`8`8`8`8`8`8`8`8`8````",
"```8`8`8`8`8`8`8`8`8`8`8```y`q`2`c`U`g`8`.`u`Q`f`t`p`#`d`#`U`n`#`a`#`#`#`#`#`a`e`f`#`c`#`#`n`L`f`A`A`S`G`s`U`8`i`y`v```8`8`8`8`8`8`8`8`8`8`8````",
"```8`8`8`8`8`8`8`8`8`8`8```B`e`5`n`F`B`.`w`B`#`c`t`J`.`8`w`#`#`K`Q`Q`2`4`2`5`Q`Q`s`#`#`T`n`t`g`n`u`H`G`V`8`t`O`T`k`g```8`8`8`8`8`8`8`8`8`8`8````",
"```8`8`8`8`8`8`8`8`8`8`8```J`L`t`g`.`F`B`g`w`b`t`.`.`#`O`m`#`#`C`V`V`d`d`c`V`V`V`C`a`d`n`a`e`e`d`m`K`V`C`8`t`e`J`L`B```8`8`8`8`8`8`8`8`8`8`8````",
"```8`8`8`8`8`8`8`8`8`8`8```J`B`T`p`T`#`l`5`e`.`k`t`L`.`#`#`n`#`C`o`d`K`6`H`r`C`V`j`T`O`#`#`8`g`#`#`#`j`V`L`g`p`L`L`B```8`8`8`8`8`8`8`8`8`8`8````",
"```8`8`8`8`8`8`8`8`8`8`8```B`L`L`p`e`T`X`j`#`#`#`g`8`#`#`J`T`j`V`C`r`K`6`K`d`o`C`#`h`#`#`#`L`t`k`.`e`5`m`#`T`k`T`J`L```8`8`8`8`8`8`8`8`8`8`8````",
"```8`8`8`8`8`8`8`8`8`8`8```J`L`B`g`p`8`V`V`K`m`c`e`e`c`n`d`d`C`V`V`V`c`f`d`V`V`C`#`#`s`3`.`.`.`t`.`B`e`B`S`.`g`t`L`B```8`8`8`8`8`8`8`8`8`8`8````",
"```8`8`8`8`8`8`8`8`8`8`8```i`g`T`L`w`8`C`G`A`A`n`g`t`k`7`#`#`m`0`Q`5`2`2`2`2`Q`K`#`#`t`8`#`B`p`d`#`B`w`.`w`F`n`5`e`B```8`8`8`8`8`8`8`8`8`8`8````",
"```8`8`8`8`8`8`8`8`8`8`8```v`y`i`8`U`s`V`F`u`A`f`L`k`#`#`#`#`f`f`a`#`#`#`#`.`#`a`f`U`#`d`#`p`t`o`Q`u`.`8`g`U`c`2`q`y```8`8`8`8`8`8`8`8`8`8`8````",
"```8`8`8`8`8`8`8`8`8`8`8```4`2`5`u`s`6`C`K`s`Q`.`b`e`#`v`U`#`j`j`d`f`f`m`d`l`x`j`t`8`#`#`#`g`b`q`2`u`K`p`b`.`4`d`v`y```8`8`8`8`8`8`8`8`8`8`8````",
"```8`8`8`8`8`8`8`8`8`8`8```y`s`5`K`5`A`C`Q`K`s`e`8`#`#`n`p`r`Y`P`z`4`s`6`s`R`Z`V`#`f`#`m`#`k`B`.`f`4`A`d`T`L`H`u`v`a```8`8`8`8`8`8`8`8`8`8`8````",
"```8`8`8`8`8`8`8`8`8`8`8```5`v`5`H`V`C`4`A`u`.`8`g`#`#`B`#`#`P`X`K`A`0`2`K`K`P`Y`1`r`c`8`#`#`e`M`f`m`a`K`K`e`e`b`2`f```8`8`8`8`8`8`8`8`8`8`8````",
"```8`8`8`8`8`8`8`8`8`8`8```5`v`5`K`C`2`A`A`f`t`b`.`#`c`8`t`c`Y`R`K`4`u`4`s`K`C`3`V`C`d`B`#`#`c`e`.`u`s`0`K`g`B`.`Q`q```8`8`8`8`8`8`8`8`8`8`8````",
"```8`8`8`8`8`8`8`8`8`8`8```7`q`5`E`A`Q`K`A`.`p`t`#`f`#`O`J`z`Z`P`s`m`K`m`Q`A`C`V`1`V`#`d`#`B`d`L`p`a`f`4`K`b`T`.`Q`q```8`8`8`8`8`8`8`8`8`8`8````",
"```8`8`8`8`8`8`8`8`8`8`8```6`f`7`U`K`A`Q`#`T`B`#`v`8`#`#`c`Z`V`K`2`2`m`4`Q`u`C`Z`V`Z`c`#`#`s`v`.`t`.`m`Q`K`p`p`.`K`d```8`8`8`8`8`8`8`8`8`8`8````",
"```8`8`8`8`8`8`8`8`8`8`8```7`n`7`N`K`Q`m`p`b`e`#`q`n`#`#`P`V`G`A`a`A`K`m`Q`u`z`Y`Z`1`r`#`#`#`c`#`p`.`K`K`s`8`T`f`z`d```8`8`8`8`8`8`8`8`8`8`8````",
"```8`8`8`8`8`8`8`8`8`8`8```5`v`5`N`K`K`.`e`J`.`c`#`#`d`c`Z`Y`K`u`4`f`s`m`4`d`K`V`1`V`V`#`T`w`#`#`p`J`.`2`d`g`.`Q`x`f```8`8`8`8`8`8`8`8`8`8`8````",
"```8`8`8`8`8`8`8`8`8`8`8```5`y`5`O`K`#`t`B`.`#`d`#`8`a`R`Y`G`Q`h`F`u`#`s`s`K`K`C`Z`V`Z`#`m`n`#`v`#`e`i`a`w`8`.`2`j`l```8`8`8`8`8`8`8`8`8`8`8````",
"```8`8`8`8`8`8`8`8`8`8`8```N`H`N`5`#`t`i`b`#`v`d`#`I`j`3`V`Q`m`Q`f`s`#`a`0`A`A`C`Z`1`X`r`#`d`#`8`p`w`g`.`b`.`H`G`#`c```8`8`8`8`8`8`8`8`8`8`8````",
"```8`8`8`8`8`8`8`8`8`8`8```5`q`5`N`g`b`v`.`#`8`m`#`c`Z`V`S`A`Q`F`u`#`#`c`s`6`m`F`V`Y`Z`V`#`#`#`#`m`#`L`k`.`.`K`d`w`8```8`8`8`8`8`8`8`8`8`8`8````",
"```8`8`8`8`8`8`8`8`8`8`8```5`n`5`N`t`B`.`#`c`#`b`g`d`x`r`s`p`a`e`p`g`t`T`u`f`s`Q`V`X`X`Z`r`#`c`#`#`#`#`e`i`J`8`8`8`8```8`8`8`8`8`8`8`8`8`8`8````",
"```8`8`8`8`8`8`8`8`8`8`8```7`n`6`H`8`8`L`g`#`B`B`B`B`L`t`8`8`L`L`B`L`B`L`p`Q`4`s`G`Z`V`Z`V`#`#`#`e`B`M`8`8`8`8`8`8`8```8`8`8`8`8`8`8`8`8`8`8````",
"```8`8`8`8`8`8`8`8`8`8`8```5`q`5`K`8`8`8`8`B`T`w`B`T`8`8`8`8`8`8`8`T`T`p`i`g`d`a`z`x`o`n`t`g`B`8`8`8`8`8`8`8`8`8`8`8```8`8`8`8`8`8`8`8`8`8`8````",
"```8`8`8`8`8`8`8`8`8`8`8```N`y`N`K`T`8`8`8`T`J`B`p`8`8`8`J`8`8`J`8`8`8`B`T`e`i`t`t`p`p`t`B`B`J`8`8`8`8`8`8`8`8`8`8`8```8`8`8`8`8`8`8`8`8`8`8````",
"```8`8`8`8`8`8`8`8`8`8`8```H`H`H`K`T`8`8`8`8`B`t`B`T`8`k`g`k`p`w`B`B`p`8`t`w`L`L`w`B`w`L`p`p`8`8`8`8`8`8`8`8`8`8`8`8```8`8`8`8```````8`8`8`8````",
"```8`8`8`8`8`8`8`8`8`8`8```H`N`H`H`T`8`8`8`8`B`t`p`t`p`t`T`8`e`g`T`L`B`T`t`T`B`B`T`T`t`8`8`8`8`8`8`8`8`8`8`8`8`8`8`8```8`8`8`8`O```O`8`8`8`8````",
"```8`8`8`8`8`8`8`8`8`8`8```H`N`H`K`8`8`8`8`J`t`w`T`L`8`J`g`t`L`L`8`8`T`B`T`w`B`T`T`B`t`8`8`8`8`8`8`8`8`8`8`8`8`8`8`8```8`8`q`q`8```8`q`q`8`8````",
"```8`8`8`8`8`8`8`8`8`8`8```H`H`H`A`T`8`8`8`B`t`p`8`8`L`8`8`8`B`8`8`8`8`J`T`w`T`L`T`w`J`8`8`8`8`8`8`8`8`8`8`8`8`8`8`8```8`q```````````````q`8````",
"```8`8`8`8`8`8`8`8`8`8`8```N`A`N`K`M`8`8`8`L`p`t`8`8`8`L`8`8`8`8`8`8`8`B`L`B`L`T`J`J`L`8`8`8`8`8`8`8`8`8`8`8`8`8`8`8```8```````````````````8````",
"```8`8`8`8`8`8`8`8`8`8`8```5`q`6`K`8`8`8`8`8`p`k`8`8`8`L`8`8`8`8`8`8`8`J`L`J`T`J`J`T`B`8`8`8`8`8`8`8`8`8`8`8`8`8`8`8```8```````````````````8````",
"```8`8`8`8`8`8`8`8`8`8`8```6`n`7`F`T`8`8`8`8`w`t`8`p`T`L`8`8`T`w`t`8`8`J`L`B`L`B`T`L`J`8`8`8`8`8`8`8`8```````8`8`8`8```8`v```````````````v`8````",
"```8`8`8`8`8`8`8`8`8`8`8```7`m`6`K`8`8`8`8`w`t`J`k`g`p`g`8`T`e`p`g`.`w`L`B`J`J`J`L`p`8`8`8`8`8`8`8`8`8`O```O`8`8`8`8```8`8`v```````````v`8`8````",
"```8`8`8`8`8`8`8`8`8`8`8```4`y`5`K`T`8`8`8`w`t`t`t`e`L`J`8`8`B`i`L`8`8`L`w`T`w`T`w`B`8`8`8`8`8`8`8`q`q`8```8`q`q`8`8```8`8`8`v```````v`8`8`8````",
"```8`8`8`8`8`8`8`8`8`8`8```5`Q`5`K`8`8`8`8`8`g`p`w`J`k`g`8`k`B`J`p`p`T`w`L`t`J`B`B`L`8`8`8`8`8`8`q```````````````q`8```8`8`8`8`v```v`8`8`8`8````",
"```8`8`8`8`8`8`8`8`8`8`8```4`6`4`u`8`8`8`8`8`L`k`8`T`8`8`8`T`8`T`8`8`8`L`w`L`t`v`k`8`8`8`8`8`8`8```````````````````8```8`8`8`8`8`v`8`8`8`8`8````",
"```8`8`8`8`8`8`8`8`8`8`8```u`4`u`p`8`8`8`8`8`8`f`c`n`q`v`I`B`I`B`y`y`v`f`c`#`#`#`#`8`8`8`8`8`8`8```````````````````8```8`8`8`8`8`8`8`8`8`8`8````",
"```8`8`8`8`8`8`8`8`8`8`8```O`f`O`8`8`8`8`8`8`8`#`#`#`#`#`#`#`#`#`#`#`#`#`a`#`#`c`j`k`8`8`8`8`8`8`v```````````````v`8```8`8`8`8`8`8`8`8`8`8`8````",
"```8`8`8`8`8`8`8`8`8`8`8```8`O`8`8`8`8`8`8`8`v`r`j`r`j`j`j`c`j`c`j`j`j`j`r`r`o`r`r`C`M`8`8`8`8`8`8`v```````````v`8`8```8`````````8`````````8````",
"```8`8`8`8`8`8`8`8`8`8`8```8`8`8`8`8`8`8`8`8`r`r`K`q`f`m`q`x`r`C`C`j`z`p`q`q`A`K`r`C`k`8`8`8`8`8`8`8`v```````v`8`8`8```8`````````8`````````8````",
"```8`8`8`8`8`8`8`8`8`8`8```8`8`8`8`8`8`8`8`z`G`z`4`s`s`m`u`F`r`P`X`C`Q`s`u`u`A`A`0`r`C`B`8`8`8`8`8`8`8`v```v`8`8`8`8```8`8`q```8`8`8`````8`8````",
"```8`8`8`8`8`8`8`8`8`8`8```8`8`8`8`8`8`8`3`#`x`4`4`K`Q`2`u`4`F`C`C`s`4`A`Q`4`s`4`4`P`r`c`8`8`8`8`8`8`8`8`v`8`8`8`8`8```8`8`q```q`8`8`````8`8````",
"```8`8`8`8`8`8`8`8`8`8`8```8`8`8`8`8`8`O`C`F`6`4`4`4`H`u`6`4`6`F`x`6`4`6`K`A`4`4`4`4`F`c`B`8`8`8`8`8`8`8`8`8`8`8`8`8```8`8`8`q```q`8`````8`8````",
"```8`8`8`8`8`8`8`8`8`8`8```````````````````````````````````````````````````````````````````````````````````````````````8`8`8`8`q```q`````8`8````",
"```8`8`8`8`8`8`8`8`8`8`8`8`8`8`8`8`8`8`8`8`8`8`8`8`8`8`8`8`8`8`8`8`8`8`8`8`8`8`8`8`8`8`8`8`8`8`8`8`8`8`8`8`8`8`8`8`8`8`8`8`8`8`8`q```````8`8````",
"```8`8`8`8`8`8`8`8`8`8`8`8`8`8`8`8`8`8`8`8`8`8`8`8`8`8`8`8`8`8`8`8`8`8`8`8`8`8`8`8`8`8`8`8`8`8`8`8`8`8`8`8`8`8`8`8`8`8`8`8`8`8`q```q`````8`8````",
"```8`8`8`8`8`8`8`8`8`8`8`8`8`8`8`8`8`8`8`8`8`8`8`8`8`8`8`8`8`8`8`8`8`8`8`8`8`8`8`8`8`8`8`8`8`8`8`8`8`8`8`8`8`8`8`8`8`8`8`8`8`q```q`8`````8`8````",
"```8`8`8`8`8`8`8`8`8`8`8`8`8`8`8`8`8`8`8`8`8`8`8`8`8`8`8`8`8`8`8`8`8`8`8`8`8`8`8`8`8`8`8`8`8`8`8`8`8`8`8`8`8`8`8`8`8`8`8`8`y```q`8`8`````8`8````",
"```8`8`8`8`8`8`8`8`8`8`8`8`8`8`8`8`8`8`8`8`8`8`8`8`8`8`8`8`8`8`8`8`8`8`8`8`8`8`8`8`8`8`8`8`8`8`8`8`8`8`8`8`8`8`8`8`8`8`8`````````8`````````8````",
"```8`8`8`8`8`8`8`8`8`8`8`8`8`8`8`8`8`8`8`8`8`8`8`8`8`8`8`8`8`8`8`8`8`8`8`8`8`8`8`8`8`8`8`8`8`8`8`8`8`8`8`8`8`8`8`8`8`8`8`````````8`````````8````",
"```8`8`8`8`8`8`8`8`8`8`8`8`8`8`8`8`8`8`8`8`8`8`8`8`8`8`8`8`8`8`8`8`8`8`8`8`8`8`8`8`8`8`8`8`8`8`8`8`8`8`8`8`8`8`8`8`8`8`8`8`8`8`8`8`8`8`8`8`8````",
"```8`8`8`8`8`8`8`8`8`8`8`8`8`8`8`8`8`8`8`8`8`8`8`8`8`8`8`8`8`8`8`8`8`8`8`8`8`8`8`8`8`8`8`8`8`8`8`8`8`8`8`8`8`8`8`8`8`8`8`8`8`8`8`8`8`8`8`8`8````",
"```y`8`8`8`8`8`8`8`8`8`8`8`8`8`8`8`8`8`8`8`8`8`8`8`8`8`8`8`8`8`8`8`8`8`8`8`8`8`8`8`8`8`8`8`8`8`8`8`8`8`8`8`8`8`8`8`8`8`8`8`8`8`8`8`8`8`8`8`y```q",
"`q```````````````````````````````````````````````````````````````````````````````````````````````````````````````````````````````````````````q``"
};
