/* XPM */
static char const *face_42_xpm[] = {
/* width height num_colors chars_per_pixel */
"    72    96       16            1",
/* colors */
"` c #ffffff",
". c #000000",
"# c #73735a",
"a c #ceceb5",
"b c #293131",
"c c #9c9473",
"d c #081018",
"e c #947b84",
"f c #102129",
"g c #291018",
"h c #5a5252",
"i c #bdbdce",
"j c #e7e7f7",
"k c #001084",
"l c #10298c",
"m c #293184",
/* pixels */
"#.....................................................................#.",
".c```````````````````````````````````````````````````````````````````c..",
".`````````````````````````````````````````````````````````````````````..",
".`````````````````````````````````````````````````````````````````````..",
".```````c.````````````````````````````````````````````````````````````..",
".``````c..````````````````````````````````````````````````````````````..",
".`````c...````````````````````````````````````````````````````````````..",
".````c.c..````````````````````````````````````````````````````````````..",
".```c.c`..````````````````````````````````````````````````````````````..",
".``c.c``..````````````````````````````````````````````````````````````..",
".``.........``````````a`````````````````````````a`````````````````````..",
".``.........`````````#d#```````````````````````#d#````````````````````..",
".```````..``````````#...#`````````````````````#...#```````````````````..",
".```````..`````````#.....#```````````````````#.....#``````````````````..",
".``````....```````#.......#`````````````````#.......#`````````````````..",
".``````....``````#.........#```````````````#.........#````````````````..",
".```````````````#d.........d#`````````````#d.........d#```````````````..",
".``````````````ab...........ba```````````ab...........ba``````````````..",
".``````e```````#d...........d#```````````#d...........d#``````````````..",
".`````e.e``````#.............#```````````#.............#``````````````..",
".````e...e`````#.............#```````````#.............#``````````````..",
".```e.....e````ab....b.b....ba```````````ab....b.b....ba``````````````..",
".``e.......e````ahfg#j.j#gfha`````````````ahfg#j.j#gfha```````````````..",
".``.........`````````#.#```````````````````````#.#````````````````````..",
".``.........````````i...i`````````````````````i...i```````````````````..",
".``#.......#``````````````````````````````````````````````````````````..",
".```##`.`##```````````````````````````````````````````````````````````..",
".`````a.a`````````````````````````````````````````````````````````````..",
".`````...`````````````````````````````````````````````````````````````..",
".`````````````````````````````````````````````````````````````````````..",
".`````````````````````````````````````````````````````````````````````..",
".`````````````````````````````````````````````````````````````````````..",
".`````````````````````````````````````````````````````````````````````..",
".`````````````````````````````````````````````````````````````````````..",
".`````````````````````````````````````````````````````````````````````..",
".`````````````````````````````````````````````````````````````````````..",
".`````````````````````````````````````````````````````````````````````..",
".`````````````````````````````````````````````````````````````````````..",
".`````````````````````````````````````````````````````````````````````..",
".`````````````````````````````````````````````````````````````````````..",
".`````````````````````````````````````````````````````````````````````..",
".`````````````````````````````````````````````````````````````````````..",
".`````````````````````````````````````````````````````````````````````..",
".`````````````````````````````````````````````````````````````````````..",
".`````````````````````````````````````````````````````````````````````..",
".`````````````````````````````````````````````````````````````````````..",
".`````````````````````````````````````````````````````````````````````..",
".`````````````````````````````````````````````````````````````````````..",
".`````````````````````````````````````````````````````````````````````..",
".`````````````````````````````````````````````````````````````````````..",
".`````````````````````````````````````````````````````````````````````..",
".`````````````````````````````````````````````````````````````````````..",
".`````````````````````````````````````````````````````````````````````..",
".`````````````````````````````````````````````````````````````````````..",
".`````````````````````````````````````````````````````````````````````..",
".`````````````````````````````````````````````````````````````````````..",
".`````````````````````````````````````````````````````````````````````..",
".`````````````````````````````````````````````````````````````````````..",
".`````````````````````````````````````````````````````````````````````..",
".`````````````````````````````````````````````````````````````````````..",
".`````````````````````````````````````````````````````````````````````..",
".`````````````````````````````````````````````````````````````````````..",
".`````````````````````````````````````````````````````````````````````..",
".`````````````````````````````````````````````````````````````````````..",
".`````````````````````````````````````````````````````````````````````..",
".`````````````````````````````````````````````````````````````````````..",
".`````````````````````````````````````````````````````````````````````..",
".`````````````````````````````````````````````````````````````...`````..",
".`````````````````````````````````````````````````````````````a.a`````..",
".```````````````````````````````````````````````````````````##`.`##```..",
".``````````````````````````````````````````````````````````#.......#``..",
".```````````````````i...i`````````````````````i...i````````.........``..",
".````````````````````#.#```````````````````````#.#`````````.........``..",
".```````````````ahfg#j.j#gfha`````````````ahfg#j.j#gfha````e.......e``..",
".``````````````ab....b.b....ba```````````ab....b.b....ba````e.....e```..",
".``````````````#.............#```````````#.............#`````e...e````..",
".``````````````#.............#```````````#.............#``````e.e`````..",
".``````````````#d...........d#```````````#d...........d#```````e``````..",
".``````````````ab...........ba```````````ab...........ba``````````````..",
".```````````````#d.........d#`````````````#d.........d#```````````````..",
".````````````````#.........#```````````````#.........#``````....``````..",
".`````````````````#.......#`````````````````#.......#```````....``````..",
".``````````````````#.....#```````````````````#.....#`````````..```````..",
".```````````````````#...#`````````````````````#...#``````````..```````..",
".````````````````````#d#```````````````````````#d#`````````.........``..",
".`````````````````````a`````````````````````````a``````````.........``..",
".````````````````````````````````````````````````````````````..``c.c``..",
".````````````````````````````````````````````````````````````..`c.c```..",
".````````````````````````````````````````````````````````````..c.c````..",
".````````````````````````````````````````````````````````````...c`````..",
".````````````````````````````````````````````````````````````..c``````..",
".````````````````````````````````````````````````````````````.c```````..",
".`````````````````````````````````````````````````````````````````````..",
".`````````````````````````````````````````````````````````````````````..",
".c```````````````````````````````````````````````````````````````````c.#",
"#.....................................................................#."
};
