/* XPM */
static char const *face_47_xpm[] = {
/* width height num_colors chars_per_pixel */
"    72    96       16            1",
/* colors */
"` c #ffffff",
". c #000000",
"# c #73735a",
"a c #ceceb5",
"b c #081018",
"c c #947b84",
"d c #102129",
"e c #291018",
"f c #5a5252",
"g c #bdbdce",
"h c #e7e7f7",
"i c #9c9473",
"j c #5a5221",
"k c #001084",
"l c #10298c",
"m c #293131",
/* pixels */
"#.....................................................................#.",
".i```````````````````````````````````````````````````````````````````i..",
".`````````````````````````````````````````````````````````````````````..",
".`````````````````````````````````````````````````````````````````````..",
".````#...#````````````````````````````````````````````````````````````..",
".```#.....#```````````````````````````````````````````````````````````..",
".```..```..```````````````````````````````````````````````````````````..",
".```..```..```````````````````````````````````````````````````````````..",
".```..```..```````````````````````````````````````````````````````````..",
".```..```..```````````````````````````````````````````````````````````..",
".```#......```````````a`````````````````````````a`````````````````````..",
".````#.....``````````#b#```````````````````````#b#````````````````````..",
".````````..`````````#...#`````````````````````#...#```````````````````..",
".```````c.c````````#.....#```````````````````#.....#``````````````````..",
".````....#````````#.......#`````````````````#.......#`````````````````..",
".````...j````````#.........#```````````````#.........#````````````````..",
".```````````````#b.........b#`````````````#b.........b#```````````````..",
".``````````````a.............a```````````a.............a``````````````..",
".``````c```````#b...........b#```````````#b...........b#``````````````..",
".`````c.c``````#.............#```````````#.............#``````````````..",
".````c...c`````#.............#```````````#.............#``````````````..",
".```c.....c````a.............a```````````a.............a``````````````..",
".``c.......c````afde#h.h#edfa`````````````afde#h.h#edfa```````````````..",
".``.........`````````#.#```````````````````````#.#````````````````````..",
".``.........````````g...g`````````````````````g...g```````````````````..",
".``#.......#``````````````````````````````````````````````````````````..",
".```##`.`##```````````````````````````````````````````````````````````..",
".`````a.a`````````````````````````````````````````````````````````````..",
".`````...`````````````````````````````````````````````````````````````..",
".`````````````````````````````````````````````````````````````````````..",
".`````````````````````````````````````````````````````````````````````..",
".`````````````````````a`````````````````````````a`````````````````````..",
".````````````````````#b#```````````````````````#b#````````````````````..",
".```````````````````#...#`````````````````````#...#```````````````````..",
".``````````````````#.....#```````````````````#.....#``````````````````..",
".`````````````````#.......#`````````````````#.......#`````````````````..",
".````````````````#.........#```````````````#.........#````````````````..",
".```````````````#b.........b#`````````````#b.........b#```````````````..",
".``````````````a.............a```````````a.............a``````````````..",
".``````````````#b...........b#`````a`````#b...........b#``````````````..",
".``````````````#.............#````#b#````#.............#``````````````..",
".``````````````#.............#```#...#```#.............#``````````````..",
".``````````````a.............a``#.....#``a.............a``````````````..",
".```````````````afde#h.h#edfa``#.......#``afde#h.h#edfa```````````````..",
".````````````````````#.#``````#.........#``````#.#````````````````````..",
".```````````````````g...g````#b.........b#````g...g```````````````````..",
".```````````````````````````a.............a```````````````````````````..",
".```````````````````````````#b...........b#```````````````````````````..",
".```````````````````````````#.............#```````````````````````````..",
".```````````````````````````#.............#```````````````````````````..",
".```````````````````g...g```a.............a```g...g```````````````````..",
".````````````````````#.#`````afde#h.h#edfa`````#.#````````````````````..",
".```````````````afde#h.h#edfa`````#.#`````afde#h.h#edfa```````````````..",
".``````````````a.............a```g...g```a.............a``````````````..",
".``````````````#.............#```````````#.............#``````````````..",
".``````````````#.............#```````````#.............#``````````````..",
".``````````````#b...........b#```````````#b...........b#``````````````..",
".``````````````a.............a```````````a.............a``````````````..",
".```````````````#b.........b#`````````````#b.........b#```````````````..",
".````````````````#.........#```````````````#.........#````````````````..",
".`````````````````#.......#`````````````````#.......#`````````````````..",
".``````````````````#.....#```````````````````#.....#``````````````````..",
".```````````````````#...#`````````````````````#...#```````````````````..",
".````````````````````#b#```````````````````````#b#````````````````````..",
".`````````````````````a`````````````````````````a`````````````````````..",
".`````````````````````````````````````````````````````````````````````..",
".`````````````````````````````````````````````````````````````````````..",
".`````````````````````````````````````````````````````````````...`````..",
".`````````````````````````````````````````````````````````````a.a`````..",
".```````````````````````````````````````````````````````````##`.`##```..",
".``````````````````````````````````````````````````````````#.......#``..",
".```````````````````g...g`````````````````````g...g````````.........``..",
".````````````````````#.#```````````````````````#.#`````````.........``..",
".```````````````afde#h.h#edfa`````````````afde#h.h#edfa````c.......c``..",
".``````````````a.............a```````````a.............a````c.....c```..",
".``````````````#.............#```````````#.............#`````c...c````..",
".``````````````#.............#```````````#.............#``````c.c`````..",
".``````````````#b...........b#```````````#b...........b#```````c``````..",
".``````````````a.............a```````````a.............a``````````````..",
".```````````````#b.........b#`````````````#b.........b#```````````````..",
".````````````````#.........#```````````````#.........#````````j...````..",
".`````````````````#.......#`````````````````#.......#````````#....````..",
".``````````````````#.....#```````````````````#.....#````````c.c```````..",
".```````````````````#...#`````````````````````#...#`````````..````````..",
".````````````````````#b#```````````````````````#b#``````````.....#````..",
".`````````````````````a`````````````````````````a```````````......#```..",
".```````````````````````````````````````````````````````````..```..```..",
".```````````````````````````````````````````````````````````..```..```..",
".```````````````````````````````````````````````````````````..```..```..",
".```````````````````````````````````````````````````````````..```..```..",
".```````````````````````````````````````````````````````````#.....#```..",
".````````````````````````````````````````````````````````````#...#````..",
".`````````````````````````````````````````````````````````````````````..",
".`````````````````````````````````````````````````````````````````````..",
".i```````````````````````````````````````````````````````````````````i.#",
"#.....................................................................#."
};
