/* XPM */
static char const *face_11_xpm[] = {
/* width height num_colors chars_per_pixel */
"    72    96      256            2",
/* colors */
"`` c #000000",
"`. c #001084",
"`# c #081018",
"`a c #102129",
"`b c #10298c",
"`c c #291018",
"`d c #293131",
"`e c #293184",
"`f c #394239",
"`g c #394aa5",
"`h c #425a52",
"`i c #4263bd",
"`j c #521021",
"`k c #525a9c",
"`l c #5a2929",
"`m c #5a5221",
"`n c #5a5252",
"`o c #633173",
"`p c #637bad",
"`q c #73735a",
"`r c #7b1018",
"`s c #7b7329",
"`t c #7b94c6",
"`u c #947b21",
"`v c #947b84",
"`w c #949cbd",
"`x c #9c2929",
"`y c #9c9473",
"`z c #a55221",
"`A c #a59429",
"`B c #a5b5de",
"`C c #ad1018",
"`D c #ad5263",
"`E c #b57384",
"`F c #b57b21",
"`G c #bd3129",
"`H c #bd9c5a",
"`I c #bd9ca5",
"`J c #bdbdce",
"`K c #c69c21",
"`L c #c6def7",
"`M c #c6f7ff",
"`N c #ceb563",
"`O c #ceceb5",
"`P c #de524a",
"`Q c #deb521",
"`R c #e72929",
"`S c #e77b21",
"`T c #e7e7f7",
"`U c #f7dea5",
"`V c #ff0008",
"`W c #ff00ff",
"`X c #ff3131",
"`Y c #ff4a4a",
"`Z c #ff737b",
"`0 c #ff9c31",
"`1 c #ff9c9c",
"`2 c #ffbd21",
"`3 c #ffbdbd",
"`4 c #ffde18",
"`5 c #ffde63",
"`6 c #ffff29",
"`7 c #ffffa5",
"`8 c #ffffff",
".` c #ffffff",
".. c #ffffff",
".# c #ffffff",
".a c #ffffff",
".b c #ffffff",
".c c #ffffff",
".d c #ffffff",
".e c #ffffff",
".f c #ffffff",
".g c #ffffff",
".h c #ffffff",
".i c #ffffff",
".j c #ffffff",
".k c #ffffff",
".l c #ffffff",
".m c #ffffff",
".n c #ffffff",
".o c #ffffff",
".p c #ffffff",
".q c #ffffff",
".r c #ffffff",
".s c #ffffff",
".t c #ffffff",
".u c #ffffff",
".v c #ffffff",
".w c #ffffff",
".x c #ffffff",
".y c #ffffff",
".z c #ffffff",
".A c #ffffff",
".B c #ffffff",
".C c #ffffff",
".D c #ffffff",
".E c #ffffff",
".F c #ffffff",
".G c #ffffff",
".H c #ffffff",
".I c #ffffff",
".J c #ffffff",
".K c #ffffff",
".L c #ffffff",
".M c #ffffff",
".N c #ffffff",
".O c #ffffff",
".P c #ffffff",
".Q c #ffffff",
".R c #ffffff",
".S c #ffffff",
".T c #ffffff",
".U c #ffffff",
".V c #ffffff",
".W c #ffffff",
".X c #ffffff",
".Y c #ffffff",
".Z c #ffffff",
".0 c #ffffff",
".1 c #ffffff",
".2 c #ffffff",
".3 c #ffffff",
".4 c #ffffff",
".5 c #ffffff",
".6 c #ffffff",
".7 c #ffffff",
".8 c #ffffff",
"#` c #ffffff",
"#. c #ffffff",
"## c #ffffff",
"#a c #ffffff",
"#b c #ffffff",
"#c c #ffffff",
"#d c #ffffff",
"#e c #ffffff",
"#f c #ffffff",
"#g c #ffffff",
"#h c #ffffff",
"#i c #ffffff",
"#j c #ffffff",
"#k c #ffffff",
"#l c #ffffff",
"#m c #ffffff",
"#n c #ffffff",
"#o c #ffffff",
"#p c #ffffff",
"#q c #ffffff",
"#r c #ffffff",
"#s c #ffffff",
"#t c #ffffff",
"#u c #ffffff",
"#v c #ffffff",
"#w c #ffffff",
"#x c #ffffff",
"#y c #ffffff",
"#z c #ffffff",
"#A c #ffffff",
"#B c #ffffff",
"#C c #ffffff",
"#D c #ffffff",
"#E c #ffffff",
"#F c #ffffff",
"#G c #ffffff",
"#H c #ffffff",
"#I c #ffffff",
"#J c #ffffff",
"#K c #ffffff",
"#L c #ffffff",
"#M c #ffffff",
"#N c #ffffff",
"#O c #ffffff",
"#P c #ffffff",
"#Q c #ffffff",
"#R c #ffffff",
"#S c #ffffff",
"#T c #ffffff",
"#U c #ffffff",
"#V c #ffffff",
"#W c #ffffff",
"#X c #ffffff",
"#Y c #ffffff",
"#Z c #ffffff",
"#0 c #ffffff",
"#1 c #ffffff",
"#2 c #ffffff",
"#3 c #ffffff",
"#4 c #ffffff",
"#5 c #ffffff",
"#6 c #ffffff",
"#7 c #ffffff",
"#8 c #ffffff",
"a` c #ffffff",
"a. c #ffffff",
"a# c #ffffff",
"aa c #ffffff",
"ab c #ffffff",
"ac c #ffffff",
"ad c #ffffff",
"ae c #ffffff",
"af c #ffffff",
"ag c #ffffff",
"ah c #ffffff",
"ai c #ffffff",
"aj c #ffffff",
"ak c #ffffff",
"al c #ffffff",
"am c #ffffff",
"an c #ffffff",
"ao c #ffffff",
"ap c #ffffff",
"aq c #ffffff",
"ar c #ffffff",
"as c #ffffff",
"at c #ffffff",
"au c #ffffff",
"av c #ffffff",
"aw c #ffffff",
"ax c #ffffff",
"ay c #ffffff",
"az c #ffffff",
"aA c #ffffff",
"aB c #ffffff",
"aC c #ffffff",
"aD c #ffffff",
"aE c #ffffff",
"aF c #ffffff",
"aG c #ffffff",
"aH c #ffffff",
"aI c #ffffff",
"aJ c #ffffff",
"aK c #ffffff",
"aL c #ffffff",
"aM c #ffffff",
"aN c #ffffff",
"aO c #ffffff",
"aP c #ffffff",
"aQ c #ffffff",
"aR c #ffffff",
"aS c #ffffff",
"aT c #ffffff",
"aU c #ffffff",
"aV c #ffffff",
"aW c #ffffff",
"aX c #ffffff",
"aY c #ffffff",
"aZ c #ffffff",
"a0 c #ffffff",
"a1 c #ffffff",
"a2 c #ffffff",
"a3 c #ffffff",
"a4 c #ffffff",
"a5 c #ffffff",
"a6 c #ffffff",
"a7 c #ffffff",
"a8 c #ffffff",
/* pixels */
"`q```````````````````````````````````````````````````````````````````````````````````````````````````````````````````````````````````````````q``",
"```y`8`8`8`8`8`8`8`8`8`8`8`8`8`8`8`8`8`8`8`8`8`8`8`8`8`8`8`8`8`8`8`8`8`8`8`8`8`8`8`8`8`8`8`8`8`8`8`8`8`8`8`8`8`8`8`8`8`8`8`8`8`8`8`8`8`8`8`y````",
"```8`8`8`8`8`8`8`8`8`8`8`8`8`8`8`8`8`8`8`8`8`8`8`8`8`8`8`8`8`8`8`8`8`8`8`8`8`8`8`8`8`8`8`8`8`8`8`8`8`8`8`8`8`8`8`8`8`8`8`8`8`8`8`8`8`8`8`8`8````",
"```8`8`8`8`8`8`8`8`8`8`8`8`8`8`8`8`8`8`8`8`8`8`8`8`8`8`8`8`8`8`8`8`8`8`8`8`8`8`8`8`8`8`8`8`8`8`8`8`8`8`8`8`8`8`8`8`8`8`8`8`8`8`8`8`8`8`8`8`8````",
"```8`8`8`q```````q`8`8`8`8`8`8`8`8`8`8`8`8`8`8`8`8`8`8`8`8`8`8`8`8`8`8`8`8`8`8`8`8`8`8`8`8`8`8`8`8`8`8`8`8`8`8`8`8`8`8`8`8`8`8`8`8`8`8`8`8`8````",
"```8`8`q```````````q`8`8`8`8`8`8`8`8`8`8`8`8`8`8`8`8`8`8`8`8`8`8`8`8`8`8`8`8`8`8`8`8`8`8`8`8`8`8`8`8`8`8`8`8`8`8`8`8`8`8`8`8`8`8`8`8`8`8`8`8````",
"```8`8`````8`8`8`````8`8`8`8`8`8`8`8`8`8`8`8`8`8`8`8`8`8`8`8`8`8`8`8`8`8`8`8`8`8`8`8`8`8`8`8`8`8`8`8`8`8`8`8`8`8`8`8`8`8`8`8`8`8`8`8`8`8`8`8````",
"```8`8`````8`8`8`````8`8`8`8`8`8`8`8`8`8`8`8`8`8`8`8`8`8`8`8`8`8`8`8`8`8`8`8`8`8`8`8`8`8`8`8`8`8`8`8`8`8`8`8`8`8`8`8`8`8`8`8`8`8`8`8`8`8`8`8````",
"```8`8`````8`8`8`````8`8`8`8`8`8`8`8`8`8`8`8`8`8`8`8`8`8`8`8`8`8`8`8`8`8`8`8`8`8`8`8`8`8`8`8`8`8`8`8`8`8`8`8`8`8`8`8`8`8`8`8`8`8`8`8`8`8`8`8````",
"```8`8`````8`8`8`````8`8`8`8`8`8`8`8`8`8`8`8`8`8`8`8`8`8`8`8`8`8`8`8`8`8`8`8`8`8`8`8`8`8`8`8`8`8`8`8`8`8`8`8`8`8`8`8`8`8`8`8`8`8`8`8`8`8`8`8````",
"```8`8`````8`8`8`````8`8```````````````````````````````````````````````````````````````````````````````````````````````8`8`8`8`8`8`8`8`8`8`8````",
"```8`8`````8`8`8`````8`8```8`8`8`8`8`8`8`8`8`8`8`8`8`8`8`8`8`8`8`8`x`t`t`t`8`B`w`B`B`g`P`a`r`V`x`C`4`4`4`4`4`4`4`4`4```8`8`8`8`8`8`8`8`8`8`8````",
"```8`8`````8`8`8`````8`8```8`8`8`8`f`f`f`8`8`8`8`8`8`8`8`8`8`8`8`T`x`t`p`T`8`8`w`t`B`i`i`G`a`R`V`C`x`m`C`o`F`4`4`4`K```8`8`8`8`8`8`8`8`8`8`8````",
"```8`8`````8`8`8`````8`8```8`8`8`f```````f`8`8`8`8`8`8`8`8`8`8`8`I`z`t`8`8`8`8`8`L`p`t`e`P`c`a`V`d`C`V`1`Y`z`4`4`4`I```8`8`8`8`8`8`8`8`8`8`8````",
"```8`8`q```````````q`8`8```8`8`8`f```````f`8`8`8`8`8`8`8`8`8`8`8`D`s`M`8`8`8`8`B`J`8`L`b`p`V`#`r`C`j`C`C`V`Q`4`4`4`w```8`8`8`8`8`8`8`8`8`8`8````",
"```8`8`8`q```````q`8`8`8```8`8`q`T```````T`q`8`8`8`8`8`8`8`8`8`8`r`H`8`p`L`8`t`T`T`w`8`B`g`D`r`a`R`j`C`z`A`6`4`4`2`L```8`8`8`8`8`8`8`8`8`8`8````",
"```8`8`8`8`8`8`q```q`8`8```8`f```````````````f`8`8`8`8`8`8`8`8`L`G`q`e`g`g`8`L`t`t`T`8`8`b`i`X`#`a`V`j`C`4`l`x`y`0`8```8`8`8`8`8`8`8`8`8`8`8````",
"```8`8`8`8`8`8`8`q```8`8```8```````````````````8`8`8`8`8`8`8`8`D`S`t`.`p`t`8`t`.`k`e`L`8`k`t`D`C`#`x`V`r`C`C`1`V`m`8```8`8`8`8`8`8`8`8`8`8`8````",
"```8`8`8`8`f`f`f`8`8`8`8```8`f```````````````f`8`8`8`8`8`8`8`8`C`A`t`8`J`B`8`8`w`p`8`8`8`B`g`t`R`c`#`V`l`j`R`Y`r`K`8```8`8`8`8`8`8`8`8`8`8`8````",
"```8`8`8`f```````f`8`8`8```8`8`f`f`8```8`f`f`8`8`8`8`8`8`8`8`I`C`s`t`8`L`8`8`8`8`8`8`8`8`8`g`B`t`V`a`c`C`j`C`l`x`K`8```8`8`8`8`8`8`8`8`8`8`8````",
"```8`8`8`f```````f`8`8`8```8`8`8`8`O```O`8`8`8`8`8`8`8`8`8`8`C`S`c`t`8`B`8`8`8`8`8`8`8`8`8`p`p`w`D`r`#`G`V`r`z`6`K`B```8`8`8`8`8`8`8`8`8`8`8````",
"```8`8`q`T```````T`q`8`8```8`8`8`8```````8`8`8`8`8`8`8`8`8`J`V`K`#`p`8`B`T`B`p`8`8`8`8`8`T`J`e`B`t`X`#`#`V`C`C`u`C`Y```8`8`8`8`8`8`8`8`8`8`8````",
"```8`f```````````````f`8```8`8`8`8`8`8`8`8`8`8`8`8`8`8`8`8`C`R`s`#`a`8`T`T`8`8`8`8`8`8`8`T`t`e`t`B`E`C`a`c`X`C`C`C`r```8`8`8`8`8`8`8`8`8`8`8````",
"```8```````````````````8```8`8`8`8`8`8`8`8`8`8`8`8`8`8`8`B`V`F`d`a`#`T`J`k`i`B`8`8`8`8`8`p`8`e`i`J`i`X`c`a`C`C`p`8`8```8`8`8`8`8`8`8`8`8`8`8````",
"```8`f```````````````f`8```8`8`8`8`8`8`8`8`8`8`8`8`8`8`8`C`V`H`a`c`#`f`8`J`8`B`T`8`8`8`t`B`B`p`e`t`L`v`V`#`#`M`8`8`8```8`8`8`8`8`8`8`8`8`8`8````",
"```8`8`f`f`8```8`f`f`8`8```8`8`8`8`8`8`8`8`8`8`8`8`8`8`v`V`z`m`#`c`a`#`M`T`T`8`8`8`8`t`w`B`J`B`.`t`B`t`X`j`#`n`8`8`8```8`8`8`8`8`8`8`8`8`8`8````",
"```8`8`8`8`O```O`8`8`8`8```8`8`8`8`8`8`8`8`8`8`8`8`8`8`C`V`Q`#`a`c`#`#`a`8`8`8`J`B`t`B`w`B`B`8`.`k`B`B`t`V`#`#`L`8`8```8`8`8`8`8`8`8`8`8`8`8````",
"```8`8`8`8```````8`8`8`8```8`8`8`8`8`8`8`8`8`8`8`8`8`D`V`G`A`a`c`d`a`c`#`a`k`i`B`i`t`p`t`t`t`B`.`.`t`w`t`P`C`#`a`8`8```8`8`8`8`8`8`8`8`8`8`8````",
"```8`8`8`8`8`8`8`8`8`8`8```8`8`8`8`8`8`8`8`8`8`8`8`M`V`V`Q`s`2`2`2`2`2`4`2`2`2`2`2`2`2`2`4`2`2`4`0`g`w`B`p`V`c`#`q`8```8`8`8`8`8`8`8`8`8`8`8````",
"```8`8`8`8`8`8`8`8`8`8`8```8`8`8`8`8`8`8`8`8`8`8`8`v`V`z`u`f`d`f`f`m`m`d`m`f`s`a`s`a`u`#`m`m`d`m`f`f`t`B`w`D`V`a`#`8```8`8`8`8`8`8`8`8`8`8`8````",
"```8`8`8`8`8`8`8`8`8`8`8```8`8`J`w`t`p`T`J`8`8`8`8`D`V`Q`a`K`d`u`f`s`f`m`f`m`u`f`K`d`A`n`s`m`m`s`f`d`k`B`B`i`X`j`#`f```8`8`8`8`8`8`8`8`8`8`8````",
"```8`8`8`8`8`8`8`8`8`8`8```8`8`B`p`4`4`p`t`8`8`8`8`J`A`c`f`l`m`m`m`m`s`s`u`u`A`F`A`A`F`K`K`K`Q`2`Q`Q`#`t`B`B`o`V`#`a```8`8`8`8`8`8`8`8`8`8`8````",
"```8`8`8`8`8`8`8`8`8`8`8```8`8`q`6`m`u`Q`n`8`8`8`8`8`#`#`A`j`j`j`c`#`#`#`#`#`#`#`#`#`#`#`#`#`#`#`#`#`#`#`L`L`L`v`V`j```8`8`8`8`8`8`8`8`8`8`8````",
"```8`8`8`8`8`8`8`8`8`8`8```L`8`m`4`d`u`4`K`8`8`8`8`i`#`#`2`V`V`V`C`u`m`A`K`f`m`A`#`m`u`u`m`m`r`C`r`x`x`x`n`8`J`L`r`V```8`8`8`8`8`8`8`8`8`8`8````",
"```8`8`8`8`8`8`8`8`8`8`8```y`L`B`A`A`4`y`t`8`8`8`t`r`j`#`5`C`X`V`r`u`s`K`2`m`2`m`6`Q`K`f`6`l`V`X`V`V`V`V`b`g`8`M`w`V```8`8`8`8`8`8`8`8`8`8`8````",
"```8`8`8`8`8`8`8`8`8`8`8```O`f`p`p`F`h`t`B`T`8`q`r`c`a`#`Q`C`V`V`m`u`h`A`Q`d`4`a`u`4`f`2`m`V`V`V`V`X`V`b`b`b`.`.`Q`m```8`8`8`8`8`8`8`8`8`8`8````",
"```8`8`8`8`8`8`8`8`8`8`8```8`H`d`u`f`f`d`m`Q`i`r`r`j`d`#`2`C`V`V`u`K`m`2`A`K`m`2`2`f`F`A`C`V`V`V`C`D`t`t`p`p`b`f`H`Q```8`8`8`8`8`8`8`8`8`8`8````",
"```8`8`8`8`8`8`8`8`8`8`8```8`L`J`L`B`H`7`8`i`.`C`r`x`c`#`Q`V`V`C`Q`2`a`4`h`4`d`A`6`s`Q`C`V`V`E`t`p`h`a`d`d`h`w`B`w`v```8`8`8`8`8`8`8`8`8`8`8````",
"```8`8`8`8`8`8`8`8`8`8`8```8`t`J`B`p`8`L`o`V`l`V`l`.`a`#`q`V`V`r`4`Q`Q`m`F`m`A`2`#`4`r`V`D`w`b`m`Q`s`6`4`A`4`s`d`f`w```8`8`8`8`8`8`8`8`8`8`8````",
"```8`8`8`8`8`8`8`8`8`8`8```J`L`L`B`B`B`D`V`c`V`b`j`j`a`#`V`V`V`z`A`s`K`A`4`f`4`u`2`m`V`v`p`f`K`2`6`F`2`K`Q`4`m`6`2`#```8`8`8`8`8`8`8`8`8`8`8````",
"```8`8`8`8`8`8`8`8`8`8`8```B`J`J`B`8`x`V`.`b`#`X`b`#`#`m`G`V`V`u`s`s`H`f`A`d`4`m`H`V`I`g`m`6`2`Q`A`s`u`A`u`s`F`4`u`A```8`8`8`8`8`8`8`8`8`8`8````",
"```8`8`8`8`8`8`8`8`8`8`8```B`L`B`B`x`V`.`i`.`g`c`V`a`c`7`L`C`V`u`s`f`4`K`d`4`u`2`V`D`i`u`2`A`K`s`F`K`A`u`u`K`s`s`K`r```8`8`8`8`8`8`8`8`8`8`8````",
"```8`8`8`8`8`8`8`8`8`8`8```L`B`t`x`V`b`e`8`T`8`.`c`V`H`h`g`I`V`u`u`u`m`4`a`4`s`C`V`B`f`K`4`F`A`A`u`f`F`d`s`d`u`s`C`r```8`8`8`8`8`8`8`8`8`8`8````",
"```8`8`8`8`8`8`8`8`8`8`8```8`8`C`C`b`b`.`w`8`p`b`b`V`c`4`#`B`R`z`K`2`u`2`s`u`H`V`E`b`6`K`K`u`K`m`s`K`a`6`d`2`s`C`r`b```8`8`8`8`8`8`8`8`8`8`8````",
"```8`8`8`8`8`8`8`8`8`8`8```8`r`C`b`b`b`.`p`p`B`.`V`z`A`2`u`i`f`#`#`u`u`A`m`s`u`V`w`f`K`Q`m`K`d`K`f`2`#`K`#`A`C`r`b`b```8`8`8`8`8`8`8`8`8`8`8````",
"```8`8`8`8`8`8`8`8`8`8`8```C`C`b`t`8`8`B`.`.`c`V`c`K`m`K`2`k`t`#`#`#`#`#`#`a`c`c`t`K`Q`2`s`F`m`2`#`s`s`2`f`V`j`b`b`b```8`8`8`8`8`8`8`8`8`8`8````",
"```8`8`8`8`8`8`8`8`8`8`8```x`b`b`.`8`T`.`b`d`V`z`h`A`u`A`4`u`t`B`B`n`J`v`H`v`t`q`p`2`2`s`Q`s`u`m`K`A`K`s`C`l`b`8`g`p```8`8`8`8`8`8`8`8`8`8`8````",
"```8`8`8`8`8`8`8`8`8`8`8```.`.`.`t`e`T`b`c`V`a`f`u`A`A`u`s`s`t`F`t`q`N`k`U`n`w`Q`i`u`A`u`Q`d`K`d`a`Q`m`V`j`b`.`8`8`.```8`8`8`8`8`8`8`8`8`8`8````",
"```8`8`8`8`8`8`8`8`8`8`8```b`8`8`.`b`j`V`f`2`a`d`K`d`Q`u`A`s`p`K`n`A`v`h`N`q`t`u`t`s`s`u`A`A`s`f`a`V`c`b`T`e`t`.`.`b```8`8`8`8`8`8`8`8`8`8`8````",
"```8`8`8`8`8`8`8`8`8`8`8```p`e`8`b`j`V`h`K`A`K`f`u`s`Q`s`2`2`p`B`q`q`y`v`O`v`B`B`w`u`4`F`u`F`m`s`V`j`b`.`M`8`.`b`b`r```8`8`8`8`8`8`8`8`8`8`8````",
"```8`8`8`8`8`8`8`8`8`8`8```b`b`.`l`V`h`2`s`u`#`2`m`A`s`2`K`K`t`#`#`#`#`#`#`#`#`#`t`g`2`K`m`A`d`V`c`b`.`B`8`8`t`.`C`G```8`8`8`8`8`8`8`8`8`8`8````",
"```8`8`8`8`8`8`8`8`8`8`8```b`b`r`C`u`#`Q`#`Q`f`K`f`K`m`Q`K`f`V`r`A`A`m`u`u`u`#`#`d`p`F`2`A`u`V`c`B`p`i`b`b`b`b`C`C`8```8`8`8`8`8`8`8`8`8`8`8````",
"```8`8`8`8`8`8`8`8`8`8`8```b`r`C`s`2`d`6`#`K`s`m`K`u`K`K`6`e`V`z`u`A`s`2`u`2`K`z`R`B`.`4`c`V`.`b`i`8`w`.`b`b`C`C`8`8```8`8`8`8`8`8`8`8`8`8`8````",
"```8`8`8`8`8`8`8`8`8`8`8```r`C`q`A`a`s`d`A`m`u`A`u`K`2`K`f`V`V`K`s`4`a`4`m`u`s`A`V`I`e`h`H`V`c`.`8`T`8`g`.`V`x`t`w`L```8`8`8`8`8`8`8`8`8`8`8````",
"```8`8`8`8`8`8`8`8`8`8`8```C`H`s`m`K`u`u`A`A`u`u`K`u`2`A`C`V`r`2`u`4`d`K`4`f`u`u`V`C`L`7`a`a`V`c`g`.`i`.`V`x`B`B`L`w```8`8`8`8`8`8`8`8`8`8`8````",
"```8`8`8`8`8`8`8`8`8`8`8```A`u`4`A`s`A`A`u`s`K`Q`2`6`m`z`V`V`K`m`6`a`K`f`K`s`m`u`V`V`G`n`#`#`b`X`c`b`b`V`x`8`B`B`L`B```8`8`8`8`8`8`8`8`8`8`8````",
"```8`8`8`8`8`8`8`8`8`8`8```a`2`6`m`4`Q`K`2`F`6`2`F`f`G`V`V`x`2`s`4`f`4`A`K`s`F`z`V`V`V`#`a`j`r`b`V`a`V`x`B`B`B`L`L`J```8`8`8`8`8`8`8`8`8`8`8````",
"```8`8`8`8`8`8`8`8`8`8`8```w`f`d`s`4`u`4`6`s`Q`m`v`V`V`V`r`4`a`4`F`s`F`n`Q`Q`2`r`V`V`D`#`c`a`d`V`d`V`x`L`8`i`B`J`t`8```8`8`8`8`8`8`8`8`8`8`8````",
"```8`8`8`8`8`8`8`8`8`8`8```v`t`J`w`h`d`d`a`h`D`C`V`V`V`C`2`s`6`u`d`4`f`4`a`Q`2`C`X`V`Q`#`a`C`r`C`b`i`8`7`y`J`L`J`L`8```8`8`8`8`8`8`8`8`8`8`8````",
"```8`8`8`8`8`8`8`8`8`8`8```2`H`f`b`i`t`.`c`V`V`V`V`V`V`A`A`d`Q`2`h`K`A`2`m`K`u`V`V`C`Q`#`d`l`x`r`g`H`m`f`f`d`u`d`H`8```8`8`8`8`8`8`8`8`8`8`8````",
"```8`8`8`8`8`8`8`8`8`8`8```j`i`p`.`e`b`b`V`V`V`V`X`V`m`Q`f`6`u`d`4`d`Q`A`m`u`m`V`V`C`Q`a`a`c`r`k`8`8`B`t`f`F`t`p`f`O```8`8`8`8`8`8`8`8`8`8`8````",
"```8`8`8`8`8`8`8`8`8`8`8```V`w`M`8`g`b`V`V`V`X`V`V`l`6`f`K`Q`6`f`2`m`2`K`s`u`l`V`V`C`5`#`c`r`p`8`8`8`v`y`4`K`u`B`L`y```8`8`8`8`8`8`8`8`8`8`8````",
"```8`8`8`8`8`8`8`8`8`8`8```V`r`L`J`8`n`x`x`x`C`x`C`s`m`A`u`m`a`K`s`f`K`K`h`A`r`V`X`V`2`#`#`i`8`8`8`8`H`4`s`d`6`m`8`L```8`8`8`8`8`8`8`8`8`8`8````",
"```8`8`8`8`8`8`8`8`8`8`8```c`V`v`L`L`L`#`#`#`#`#`#`#`#`#`#`#`#`#`#`#`#`#`#`#`c`r`j`j`A`#`#`8`8`8`8`8`f`Q`F`h`4`s`8`8```8`8`8`8`8`8`8`8`8`8`8````",
"```8`8`8`8`8`8`8`8`8`8`8```a`#`V`o`B`B`w`#`Q`Q`Q`Q`K`F`F`F`F`A`u`F`u`s`s`z`m`m`m`l`f`l`a`K`B`8`8`8`8`p`t`4`4`p`B`8`8```8`8`8`8`8`8`8`8`8`8`8````",
"```8`8`8`8`8`8`8`8`8`8`8```f`a`r`X`p`w`B`i`d`f`u`m`m`s`m`A`f`K`f`u`m`f`m`f`s`d`u`d`K`a`Q`V`x`8`8`8`8`J`T`q`t`w`L`8`8```8`8`8`8`8`8`8`8`8`8`8````",
"```8`8`8`8`8`8`8`8`8`8`8```8`#`#`V`D`t`B`t`f`f`m`d`m`m`#`u`a`s`a`s`f`m`d`m`m`f`f`d`m`A`z`V`v`8`8`8`8`8`8`8`8`8`8`8`8```8`8`8`8`8`8`8`8`8`8`8````",
"```8`8`8`8`8`8`8`8`8`8`8```8`p`#`#`V`p`B`w`g`0`4`2`2`2`2`2`2`2`2`2`2`2`2`2`2`2`2`2`s`Q`V`C`8`8`8`8`8`8`8`8`8`8`8`8`8```8`8`8`8`8`8`8`8`8`8`8````",
"```8`8`8`8`8`8`8`8`8`8`8```8`8`#`#`C`P`t`B`t`b`.`B`w`t`w`t`t`i`B`g`k`a`#`a`a`d`a`a`u`z`V`x`8`8`8`8`8`8`8`8`8`8`8`8`8```8`8`8`8```````8`8`8`8````",
"```8`8`8`8`8`8`8`8`8`8`8```8`8`T`#`#`V`w`B`B`g`.`T`J`B`t`B`t`B`J`8`8`8`a`#`c`a`c`#`Q`V`C`8`8`8`8`8`8`8`8`8`8`8`8`8`8```8`8`8`8`O```O`8`8`8`8````",
"```8`8`8`8`8`8`8`8`8`8`8```8`8`8`n`#`r`X`t`w`t`.`J`B`B`B`t`8`8`8`8`T`T`M`#`c`a`#`m`F`V`E`8`8`8`8`8`8`8`8`8`8`8`8`8`8```8`8`f`f`8```8`f`f`8`8````",
"```8`8`8`8`8`8`8`8`8`8`8```8`8`8`M`#`#`V`v`L`t`e`p`L`B`p`8`8`8`T`J`8`J`8`e`#`c`a`H`V`r`8`8`8`8`8`8`8`8`8`8`8`8`8`8`8```8`f```````````````f`8````",
"```8`8`8`8`8`8`8`8`8`8`8```8`8`t`C`C`a`#`X`i`J`i`e`T`t`8`8`8`8`8`B`i`k`B`M`#`c`d`A`V`I`8`8`8`8`8`8`8`8`8`8`8`8`8`8`8```8```````````````````8````",
"```8`8`8`8`8`8`8`8`8`8`8```r`C`C`r`V`j`a`C`E`L`t`e`t`T`8`8`8`8`8`8`8`T`T`8`a`#`u`R`C`8`8`8`8`8`8`8`8`8`8`8`8`8`8`8`8```8`f```````````````f`8````",
"```8`8`8`8`8`8`8`8`8`8`8```X`C`s`V`C`V`a`#`X`t`B`e`J`T`8`8`8`8`8`p`B`T`J`8`p`#`A`V`J`8`8`8`8`8`8`8`8`8```````8`8`8`8```8`8`q`T```````T`q`8`8````",
"```8`8`8`8`8`8`8`8`8`8`8```B`H`6`z`r`R`C`#`r`G`t`t`p`8`8`8`8`8`8`8`8`8`B`8`t`d`S`C`8`8`8`8`8`8`8`8`8`8`O```O`8`8`8`8```8`8`8`f```````f`8`8`8````",
"```8`8`8`8`8`8`8`8`8`8`8```8`K`z`l`C`j`C`j`a`V`t`B`e`8`8`8`8`8`8`8`8`8`O`8`t`s`V`w`8`8`8`8`8`8`8`8`f`f`8```8`f`f`8`8```8`8`8`f```````f`8`8`8````",
"```8`8`8`8`8`8`8`8`8`8`8```8`K`r`Y`V`j`d`V`a`c`V`t`i`B`8`8`8`p`t`8`8`B`L`8`p`A`C`8`8`8`8`8`8`8`8`f```````````````f`8```8`8`8`8`f`f`f`8`8`8`8````",
"```8`8`8`8`8`8`8`8`8`8`8```8`m`V`1`C`C`r`V`x`#`C`q`t`k`8`L`e`i`.`t`8`t`i`.`w`F`D`8`8`8`8`8`8`8`8```````````````````8```8`8```q`8`8`8`8`8`8`8````",
"```8`8`8`8`8`8`8`8`8`8`8```8`K`A`x`r`6`C`j`V`d`#`X`p`b`8`8`T`t`t`L`8`k`g`e`p`G`O`8`8`8`8`8`8`8`8`f```````````````f`8```8`8`q```q`8`8`8`8`8`8````",
"```8`8`8`8`8`8`8`8`8`8`8```L`2`4`4`6`K`z`C`r`R`#`r`D`g`B`8`t`T`T`w`8`B`t`8`H`r`8`8`8`8`8`8`8`8`8`8`q`T```````T`q`8`8```8`8`8`q```````q`8`8`8````",
"```8`8`8`8`8`8`8`8`8`8`8```B`4`4`4`Q`C`C`C`j`r`r`a`V`i`b`L`8`J`B`8`8`8`8`T`s`D`8`8`8`8`8`8`8`8`8`8`8`f```````f`8`8`8```8`8`q```````````q`8`8````",
"```8`8`8`8`8`8`8`8`8`8`8```y`4`4`4`z`Y`1`C`C`d`V`a`c`P`g`p`p`L`8`8`8`8`8`t`z`I`8`8`8`8`8`8`8`8`8`8`8`f```````f`8`8`8```8`8`````8`8`8`````8`8````",
"```8`8`8`8`8`8`8`8`8`8`8```K`4`4`4`F`l`C`z`x`C`V`R`a`G`i`p`B`t`w`8`8`T`p`t`x`T`8`8`8`8`8`8`8`8`8`8`8`8`f`f`f`8`8`8`8```8`8`````8`8`8`````8`8````",
"```8`8`8`8`8`8`8`8`8`8`8```4`4`4`4`4`4`4`4`4`C`r`V`r`#`P`g`B`w`w`B`8`t`t`p`l`8`8`8`8`8`8`8`8`8`8`8`8`8`8`8`8`8`8`8`8```8`8`````8`8`8`````8`8````",
"```8`8`8`8`8`8`8`8`8`8`8```````````````````````````````````````````````````````````````````````````````````````````````8`8`````8`8`8`````8`8````",
"```8`8`8`8`8`8`8`8`8`8`8`8`8`8`8`8`8`8`8`8`8`8`8`8`8`8`8`8`8`8`8`8`8`8`8`8`8`8`8`8`8`8`8`8`8`8`8`8`8`8`8`8`8`8`8`8`8`8`8`8`````8`8`8`````8`8````",
"```8`8`8`8`8`8`8`8`8`8`8`8`8`8`8`8`8`8`8`8`8`8`8`8`8`8`8`8`8`8`8`8`8`8`8`8`8`8`8`8`8`8`8`8`8`8`8`8`8`8`8`8`8`8`8`8`8`8`8`8`````8`8`8`````8`8````",
"```8`8`8`8`8`8`8`8`8`8`8`8`8`8`8`8`8`8`8`8`8`8`8`8`8`8`8`8`8`8`8`8`8`8`8`8`8`8`8`8`8`8`8`8`8`8`8`8`8`8`8`8`8`8`8`8`8`8`8`8`````8`8`8`````8`8````",
"```8`8`8`8`8`8`8`8`8`8`8`8`8`8`8`8`8`8`8`8`8`8`8`8`8`8`8`8`8`8`8`8`8`8`8`8`8`8`8`8`8`8`8`8`8`8`8`8`8`8`8`8`8`8`8`8`8`8`8`8`````8`8`8`````8`8````",
"```8`8`8`8`8`8`8`8`8`8`8`8`8`8`8`8`8`8`8`8`8`8`8`8`8`8`8`8`8`8`8`8`8`8`8`8`8`8`8`8`8`8`8`8`8`8`8`8`8`8`8`8`8`8`8`8`8`8`8`8`q```````````q`8`8````",
"```8`8`8`8`8`8`8`8`8`8`8`8`8`8`8`8`8`8`8`8`8`8`8`8`8`8`8`8`8`8`8`8`8`8`8`8`8`8`8`8`8`8`8`8`8`8`8`8`8`8`8`8`8`8`8`8`8`8`8`8`8`q```````q`8`8`8````",
"```8`8`8`8`8`8`8`8`8`8`8`8`8`8`8`8`8`8`8`8`8`8`8`8`8`8`8`8`8`8`8`8`8`8`8`8`8`8`8`8`8`8`8`8`8`8`8`8`8`8`8`8`8`8`8`8`8`8`8`8`8`8`8`8`8`8`8`8`8````",
"```8`8`8`8`8`8`8`8`8`8`8`8`8`8`8`8`8`8`8`8`8`8`8`8`8`8`8`8`8`8`8`8`8`8`8`8`8`8`8`8`8`8`8`8`8`8`8`8`8`8`8`8`8`8`8`8`8`8`8`8`8`8`8`8`8`8`8`8`8````",
"```y`8`8`8`8`8`8`8`8`8`8`8`8`8`8`8`8`8`8`8`8`8`8`8`8`8`8`8`8`8`8`8`8`8`8`8`8`8`8`8`8`8`8`8`8`8`8`8`8`8`8`8`8`8`8`8`8`8`8`8`8`8`8`8`8`8`8`8`y```q",
"`q```````````````````````````````````````````````````````````````````````````````````````````````````````````````````````````````````````````q``"
};
