/* XPM */
static char *face_01_xpm[] = {
/* width height num_colors chars_per_pixel */
"    72    96       16            1",
/* colors */
"` c #ffffff",
". c #000000",
"# c #73735a",
"a c #394239",
"b c #ceceb5",
"c c #9c9473",
"d c #e7e7f7",
"e c #bdbdce",
"f c #001084",
"g c #081018",
"h c #102129",
"i c #10298c",
"j c #291018",
"k c #293131",
"l c #293184",
"m c #394aa5",
/* pixels */
"#.....................................................................#.",
".c```````````````````````````````````````````````````````````````````c..",
".`````````````````````````````````````````````````````````````````````..",
".`````````````````````````````````````````````````````````````````````..",
".````#...#````````````````````````````````````````````````````````````..",
".```#.....#```````````````````````````````````````````````````````````..",
".```..```..```````````````````````````````````````````````````````````..",
".````````..```````````````````````````````````````````````````````````..",
".```````#.#```````````````````````````````````````````````````````````..",
".``````#.#````````````````````````````````````````````````````````````..",
".`````#.#````````````````````````b#a#b````````````````````````````````..",
".````#.#````````````````````````ba...ab```````````````````````````````..",
".```#.#``..`````````````````````#.....#```````````````````````````````..",
".```..```..`````````````````````a.....a```````````````````````````````..",
".```.......`````````````````````#.....#```````````````````````````````..",
".```.......``````````````````````a...a````````````````````````````````..",
".````````````````````````````b#ac`#.#`ca#b````````````````````````````..",
".```````````````````````````ba...#...#...ab```````````````````````````..",
".```````````````````````````#.............#```````````````````````````..",
".`````aaa```````````````````a.............a```````````````````````````..",
".````a...a``````````````````#.....#.#.....#```````````````````````````..",
".````a...a``````````````````ba...ad.da...ab```````````````````````````..",
".```#d...d#``````````````````b#a#b`.`b#a#b````````````````````````````..",
".``a.......a``````````````````````#.#`````````````````````````````````..",
".``.........`````````````````````e...e````````````````````````````````..",
".``a.......a``````````````````````````````````````````````````````````..",
".```aa`.`aa```````````````````````````````````````````````````````````..",
".`````b.b`````````````````````````````````````````````````````````````..",
".`````...`````````````````````````````````````````````````````````````..",
".`````````````````````````````````````````````````````````````````````..",
".`````````````````````````````````````````````````````````````````````..",
".`````````````````````````````````````````````````````````````````````..",
".`````````````````````````````````````````````````````````````````````..",
".`````````````````````````````````````````````````````````````````````..",
".`````````````````````````````````````````````````````````````````````..",
".`````````````````````````````````````````````````````````````````````..",
".`````````````````````````````````````````````````````````````````````..",
".`````````````````````````````````````````````````````````````````````..",
".`````````````````````````````````````````````````````````````````````..",
".`````````````````````````````````````````````````````````````````````..",
".`````````````````````````````````````````````````````````````````````..",
".`````````````````````````````````````````````````````````````````````..",
".`````````````````````````````````````````````````````````````````````..",
".`````````````````````````````````````````````````````````````````````..",
".`````````````````````````````````````````````````````````````````````..",
".`````````````````````````````````````````````````````````````````````..",
".`````````````````````````````````````````````````````````````````````..",
".`````````````````````````````````````````````````````````````````````..",
".`````````````````````````````````````````````````````````````````````..",
".`````````````````````````````````````````````````````````````````````..",
".`````````````````````````````````````````````````````````````````````..",
".`````````````````````````````````````````````````````````````````````..",
".`````````````````````````````````````````````````````````````````````..",
".`````````````````````````````````````````````````````````````````````..",
".`````````````````````````````````````````````````````````````````````..",
".`````````````````````````````````````````````````````````````````````..",
".`````````````````````````````````````````````````````````````````````..",
".`````````````````````````````````````````````````````````````````````..",
".`````````````````````````````````````````````````````````````````````..",
".`````````````````````````````````````````````````````````````````````..",
".`````````````````````````````````````````````````````````````````````..",
".`````````````````````````````````````````````````````````````````````..",
".`````````````````````````````````````````````````````````````````````..",
".`````````````````````````````````````````````````````````````````````..",
".`````````````````````````````````````````````````````````````````````..",
".`````````````````````````````````````````````````````````````````````..",
".`````````````````````````````````````````````````````````````````````..",
".`````````````````````````````````````````````````````````````...`````..",
".`````````````````````````````````````````````````````````````b.b`````..",
".```````````````````````````````````````````````````````````aa`.`aa```..",
".``````````````````````````````````````````````````````````a.......a``..",
".````````````````````````````````e...e`````````````````````.........``..",
".`````````````````````````````````#.#``````````````````````a.......a``..",
".````````````````````````````b#a#b`.`b#a#b``````````````````#d...d#```..",
".```````````````````````````ba...ad.da...ab``````````````````a...a````..",
".```````````````````````````#.....#.#.....#``````````````````a...a````..",
".```````````````````````````a.............a```````````````````aaa`````..",
".```````````````````````````#.............#```````````````````````````..",
".```````````````````````````ba...#...#...ab```````````````````````````..",
".````````````````````````````b#ac`#.#`ca#b````````````````````````````..",
".````````````````````````````````a...a``````````````````````.......```..",
".```````````````````````````````#.....#`````````````````````.......```..",
".```````````````````````````````a.....a`````````````````````..```..```..",
".```````````````````````````````#.....#`````````````````````..``#.#```..",
".```````````````````````````````ba...ab````````````````````````#.#````..",
".````````````````````````````````b#a#b````````````````````````#.#`````..",
".````````````````````````````````````````````````````````````#.#``````..",
".```````````````````````````````````````````````````````````#.#```````..",
".```````````````````````````````````````````````````````````..````````..",
".```````````````````````````````````````````````````````````..```..```..",
".```````````````````````````````````````````````````````````#.....#```..",
".````````````````````````````````````````````````````````````#...#````..",
".`````````````````````````````````````````````````````````````````````..",
".`````````````````````````````````````````````````````````````````````..",
".c```````````````````````````````````````````````````````````````````c.#",
"#.....................................................................#."
};
