/* XPM */
static char const *face_25_xpm[] = {
/* width height num_colors chars_per_pixel */
"    72    96      256            2",
/* colors */
"`` c #000000",
"`. c #001084",
"`# c #081018",
"`a c #102129",
"`b c #10298c",
"`c c #291018",
"`d c #293131",
"`e c #293184",
"`f c #394239",
"`g c #394aa5",
"`h c #425a52",
"`i c #4263bd",
"`j c #521021",
"`k c #525a9c",
"`l c #5a2929",
"`m c #5a5221",
"`n c #5a5252",
"`o c #633173",
"`p c #637bad",
"`q c #73735a",
"`r c #7b1018",
"`s c #7b7329",
"`t c #7b94c6",
"`u c #947b21",
"`v c #947b84",
"`w c #949cbd",
"`x c #9c2929",
"`y c #9c9473",
"`z c #a55221",
"`A c #a59429",
"`B c #a5b5de",
"`C c #ad1018",
"`D c #ad5263",
"`E c #b57384",
"`F c #b57b21",
"`G c #bd3129",
"`H c #bd9c5a",
"`I c #bd9ca5",
"`J c #bdbdce",
"`K c #c69c21",
"`L c #c6def7",
"`M c #c6f7ff",
"`N c #ceb563",
"`O c #ceceb5",
"`P c #de524a",
"`Q c #deb521",
"`R c #e72929",
"`S c #e77b21",
"`T c #e7e7f7",
"`U c #f7dea5",
"`V c #ff0008",
"`W c #ff00ff",
"`X c #ff3131",
"`Y c #ff4a4a",
"`Z c #ff737b",
"`0 c #ff9c31",
"`1 c #ff9c9c",
"`2 c #ffbd21",
"`3 c #ffbdbd",
"`4 c #ffde18",
"`5 c #ffde63",
"`6 c #ffff29",
"`7 c #ffffa5",
"`8 c #ffffff",
".` c #ffffff",
".. c #ffffff",
".# c #ffffff",
".a c #ffffff",
".b c #ffffff",
".c c #ffffff",
".d c #ffffff",
".e c #ffffff",
".f c #ffffff",
".g c #ffffff",
".h c #ffffff",
".i c #ffffff",
".j c #ffffff",
".k c #ffffff",
".l c #ffffff",
".m c #ffffff",
".n c #ffffff",
".o c #ffffff",
".p c #ffffff",
".q c #ffffff",
".r c #ffffff",
".s c #ffffff",
".t c #ffffff",
".u c #ffffff",
".v c #ffffff",
".w c #ffffff",
".x c #ffffff",
".y c #ffffff",
".z c #ffffff",
".A c #ffffff",
".B c #ffffff",
".C c #ffffff",
".D c #ffffff",
".E c #ffffff",
".F c #ffffff",
".G c #ffffff",
".H c #ffffff",
".I c #ffffff",
".J c #ffffff",
".K c #ffffff",
".L c #ffffff",
".M c #ffffff",
".N c #ffffff",
".O c #ffffff",
".P c #ffffff",
".Q c #ffffff",
".R c #ffffff",
".S c #ffffff",
".T c #ffffff",
".U c #ffffff",
".V c #ffffff",
".W c #ffffff",
".X c #ffffff",
".Y c #ffffff",
".Z c #ffffff",
".0 c #ffffff",
".1 c #ffffff",
".2 c #ffffff",
".3 c #ffffff",
".4 c #ffffff",
".5 c #ffffff",
".6 c #ffffff",
".7 c #ffffff",
".8 c #ffffff",
"#` c #ffffff",
"#. c #ffffff",
"## c #ffffff",
"#a c #ffffff",
"#b c #ffffff",
"#c c #ffffff",
"#d c #ffffff",
"#e c #ffffff",
"#f c #ffffff",
"#g c #ffffff",
"#h c #ffffff",
"#i c #ffffff",
"#j c #ffffff",
"#k c #ffffff",
"#l c #ffffff",
"#m c #ffffff",
"#n c #ffffff",
"#o c #ffffff",
"#p c #ffffff",
"#q c #ffffff",
"#r c #ffffff",
"#s c #ffffff",
"#t c #ffffff",
"#u c #ffffff",
"#v c #ffffff",
"#w c #ffffff",
"#x c #ffffff",
"#y c #ffffff",
"#z c #ffffff",
"#A c #ffffff",
"#B c #ffffff",
"#C c #ffffff",
"#D c #ffffff",
"#E c #ffffff",
"#F c #ffffff",
"#G c #ffffff",
"#H c #ffffff",
"#I c #ffffff",
"#J c #ffffff",
"#K c #ffffff",
"#L c #ffffff",
"#M c #ffffff",
"#N c #ffffff",
"#O c #ffffff",
"#P c #ffffff",
"#Q c #ffffff",
"#R c #ffffff",
"#S c #ffffff",
"#T c #ffffff",
"#U c #ffffff",
"#V c #ffffff",
"#W c #ffffff",
"#X c #ffffff",
"#Y c #ffffff",
"#Z c #ffffff",
"#0 c #ffffff",
"#1 c #ffffff",
"#2 c #ffffff",
"#3 c #ffffff",
"#4 c #ffffff",
"#5 c #ffffff",
"#6 c #ffffff",
"#7 c #ffffff",
"#8 c #ffffff",
"a` c #ffffff",
"a. c #ffffff",
"a# c #ffffff",
"aa c #ffffff",
"ab c #ffffff",
"ac c #ffffff",
"ad c #ffffff",
"ae c #ffffff",
"af c #ffffff",
"ag c #ffffff",
"ah c #ffffff",
"ai c #ffffff",
"aj c #ffffff",
"ak c #ffffff",
"al c #ffffff",
"am c #ffffff",
"an c #ffffff",
"ao c #ffffff",
"ap c #ffffff",
"aq c #ffffff",
"ar c #ffffff",
"as c #ffffff",
"at c #ffffff",
"au c #ffffff",
"av c #ffffff",
"aw c #ffffff",
"ax c #ffffff",
"ay c #ffffff",
"az c #ffffff",
"aA c #ffffff",
"aB c #ffffff",
"aC c #ffffff",
"aD c #ffffff",
"aE c #ffffff",
"aF c #ffffff",
"aG c #ffffff",
"aH c #ffffff",
"aI c #ffffff",
"aJ c #ffffff",
"aK c #ffffff",
"aL c #ffffff",
"aM c #ffffff",
"aN c #ffffff",
"aO c #ffffff",
"aP c #ffffff",
"aQ c #ffffff",
"aR c #ffffff",
"aS c #ffffff",
"aT c #ffffff",
"aU c #ffffff",
"aV c #ffffff",
"aW c #ffffff",
"aX c #ffffff",
"aY c #ffffff",
"aZ c #ffffff",
"a0 c #ffffff",
"a1 c #ffffff",
"a2 c #ffffff",
"a3 c #ffffff",
"a4 c #ffffff",
"a5 c #ffffff",
"a6 c #ffffff",
"a7 c #ffffff",
"a8 c #ffffff",
/* pixels */
"`q```````````````````````````````````````````````````````````````````````````````````````````````````````````````````````````````````````````q``",
"```y`8`8`8`8`8`8`8`8`8`8`8`8`8`8`8`8`8`8`8`8`8`8`8`8`8`8`8`8`8`8`8`8`8`8`8`8`8`8`8`8`8`8`8`8`8`8`8`8`8`8`8`8`8`8`8`8`8`8`8`8`8`8`8`8`8`8`8`y````",
"```8`8`8`8`8`8`8`8`8`8`8`8`8`8`8`8`8`8`8`8`8`8`8`8`8`8`8`8`8`8`8`8`8`8`8`8`8`8`8`8`8`8`8`8`8`8`8`8`8`8`8`8`8`8`8`8`8`8`8`8`8`8`8`8`8`8`8`8`8````",
"```8`8`8`8`8`8`8`8`8`8`8`8`8`8`8`8`8`8`8`8`8`8`8`8`8`8`8`8`8`8`8`8`8`8`8`8`8`8`8`8`8`8`8`8`8`8`8`8`8`8`8`8`8`8`8`8`8`8`8`8`8`8`8`8`8`8`8`8`8````",
"```8`V`V`V`V`8`V`V`V`V`8`8`8`8`8`8`8`8`8`8`8`8`8`8`8`8`8`8`8`8`8`8`8`8`8`8`8`8`8`8`8`8`8`8`8`8`8`8`8`8`8`8`8`8`8`8`8`8`8`8`8`8`8`8`8`8`8`8`8````",
"```8`V`V`V`V`8`V`V`V`V`8`8`8`8`8`8`8`8`8`8`8`8`8`8`8`8`8`8`8`8`8`8`8`8`8`8`8`8`8`8`8`8`8`8`8`8`8`8`8`8`8`8`8`8`8`8`8`8`8`8`8`8`8`8`8`8`8`8`8````",
"```8`8`V`V`8`8`Z`V`Z`8`8`8`8`8`8`8`8`8`8`8`8`8`8`8`8`8`8`8`8`8`8`8`8`8`8`8`8`8`8`8`8`8`8`8`8`8`8`8`8`8`8`8`8`8`8`8`8`8`8`8`8`8`8`8`8`8`8`8`8````",
"```8`8`V`V`8`Y`V`Z`8`8`8`8`8`8`8`8`8`8`8`8`8`8`8`8`8`8`8`8`8`8`8`8`8`8`8`8`8`8`8`8`8`8`8`8`8`8`8`8`8`8`8`8`8`8`8`8`8`8`8`8`8`8`8`8`8`8`8`8`8````",
"```8`8`V`V`Y`V`Z`8`8`8`8`8`8`8`8`8`8`8`8`8`8`8`8`8`8`8`8`8`8`8`8`8`8`8`8`8`8`8`8`8`8`8`8`8`8`8`8`8`8`8`8`8`8`8`8`8`8`8`8`8`8`8`8`8`8`8`8`8`8````",
"```8`8`V`V`V`Z`8`8`8`8`8`8`8`8`8`8`8`8`8`8`8`8`8`8`8`8`8`8`8`8`8`8`8`8`8`8`8`8`8`8`8`8`8`8`8`8`8`8`8`8`8`8`8`8`8`8`8`8`8`8`8`8`8`8`8`8`8`8`8````",
"```8`8`V`V`Y`V`Z`8`8`8`8```````````````````````````````````````````````````````````````````````````````````````````````8`8`8`8`8`8`8`8`8`8`8````",
"```8`8`V`V`8`Y`V`Z`8`8`8```8`8`8`8`8`8`8`8`8`8`8`8`8`D`r`A`6`4`Q`A`6`6`u`4`6`x`V`A`6`4`K`2`u`6`4`4`#`T`8`8`8`8`8`8`8```8`8`8`8`8`8`8`8`8`8`8````",
"```8`8`V`V`8`8`Y`V`Z`8`8```8`8`8`8`3`8`8`8`8`8`8`8`8`M`j`C`r`4`K`Q`2`K`K`Q`u`V`C`C`6`Q`H`6`2`H`6`r`k`8`8`8`8`8`8`8`B```8`8`8`8`8`8`8`8`8`8`8````",
"```8`8`V`V`8`8`8`Y`Z`8`8```8`8`8`8`V`8`8`8`8`8`8`8`8`8`o`X`C`m`Q`A`H`A`H`Q`G`C`C`C`Q`Q`6`4`6`A`F`j`T`8`8`8`8`8`8`T`K```8`8`8`8`8`8`8`8`8`8`8````",
"```8`V`V`V`V`8`V`V`V`V`8```8`8`8`Z`V`Z`8`8`8`8`8`8`8`8`8`j`C`C`C`C`x`C`x`m`j`E`X`C`m`K`A`s`s`Q`r`e`8`8`w`w`8`8`8`u`2```8`8`8`8`8`8`8`8`8`8`8````",
"```8`V`V`V`V`8`V`V`V`V`8```8`8`1`V`V`V`1`8`8`8`8`8`8`8`8`n`r`c`#`#`c`c`j`C`V`V`C`C`l`s`u`h`K`s`r`L`8`T`A`e`8`8`w`4`j```8`8`8`8`8`8`8`8`8`8`8````",
"```8`8`8`8`8`8`8`8`8`8`8```8`3`V`V`V`V`V`3`8`8`8`8`8`8`8`L`g`w`B`B`B`t`h`#`#`#`j`x`V`V`V`C`C`C`j`8`8`w`N`t`T`8`B`K`V```8`8`8`8`8`8`8`8`8`8`8````",
"```8`8`8`8`8`3`8`8`8`8`8```8`V`V`V`V`V`V`V`8`8`8`8`8`8`8`J`8`8`8`8`8`8`8`8`L`h`#`#`#`#`l`r`x`C`v`8`8`H`N`N`p`8`B`K`V```8`8`8`8`8`8`8`8`8`8`8````",
"```8`8`8`8`8`V`8`8`8`8`8```8`3`V`V`V`V`V`3`8`8`8`8`8`8`8`J`8`i`i`g`p`8`8`8`8`T`L`t`g`a`#`#`#`#`B`8`T`N`5`5`i`w`w`K`V```8`8`8`8`8`8`8`8`8`8`8````",
"```8`8`8`8`Z`V`Z`8`8`8`8```8`8`1`V`V`V`1`8`8`8`8`8`8`8`8`8`p`w`L`T`8`g`B`8`8`t`B`t`B`J`L`t`B`g`T`8`L`5`u`B`t`w`p`Q`V```8`8`8`8`8`8`8`8`8`8`8````",
"```8`8`8`1`V`V`V`1`8`8`8```8`8`8`Z`V`Z`8`8`8`8`8`8`8`8`8`T`8`.`p`w`B`8`8`8`J`L`w`w`J`t`L`w`L`w`J`8`J`y`N`p`w`w`p`K`V```8`8`8`8`8`8`8`8`8`8`8````",
"```8`8`3`V`V`V`V`V`3`8`8```8`8`8`8`V`8`8`8`8`8`8`8`8`8`8`p`8`b`g`B`t`T`8`8`L`w`B`t`L`t`T`t`L`t`B`8`L`5`B`7`i`B`g`Q`V```8`8`8`8`8`8`8`8`8`8`8````",
"```8`8`V`V`V`V`V`V`V`8`8```8`8`8`8`3`8`8`8`8`8`8`8`8`8`T`J`8`T`8`8`8`8`8`8`J`t`T`B`L`w`J`L`w`L`p`8`8`N`N`U`g`w`J`K`V```8`8`8`8`8`8`8`8`8`8`8````",
"```8`8`3`V`V`V`V`V`3`8`8```8`8`8`8`8`8`8`8`8`8`8`8`8`8`p`8`8`8`8`8`8`8`8`8`J`w`B`L`w`T`B`B`B`B`w`T`8`y`N`H`p`8`B`Q`C```8`8`8`8`8`8`8`8`8`8`8````",
"```8`8`8`1`V`V`V`1`8`8`8```8`8`8`8`8`8`8`8`8`8`8`8`8`8`t`T`I`w`8`8`8`8`8`8`J`L`t`L`L`w`L`B`J`w`L`L`8`B`N`t`8`8`B`Q`V```8`8`8`8`8`8`8`8`8`8`8````",
"```8`8`8`8`Z`V`Z`8`8`8`8```8`8`8`8`8`8`8`8`8`8`8`8`8`8`B`w`p`B`8`8`w`J`8`8`L`B`L`B`J`T`w`L`t`L`t`J`8`8`q`v`8`8`B`Q`C```8`8`8`8`8`8`8`8`8`8`8````",
"```8`8`8`8`8`V`8`8`8`8`8```8`8`8`8`8`8`8`8`8`8`8`8`8`8`8`k`i`b`.`8`8`t`8`8`8`w`J`J`B`B`J`B`B`J`w`L`8`8`w`n`8`8`B`Q`V```8`8`8`8`8`8`8`8`8`8`8````",
"```8`8`8`8`8`3`8`8`8`8`8```8`T`p`J`8`8`8`8`8`8`8`8`8`8`8`i`g`w`p`.`b`T`8`L`J`p`B`B`T`p`T`B`L`B`J`B`8`8`8`e`8`8`w`Q`C```8`8`8`8`8`8`8`8`8`8`8````",
"```8`8`8`8`8`8`8`8`8`8`8```8`g`i`L`p`g`8`8`8`8`8`8`8`8`8`B`8`t`T`8`8`8`T`L`J`L`p`t`T`w`L`w`L`w`J`B`8`8`8`8`8`8`B`Q`V```8`8`8`8`8`8`8`8`8`8`8````",
"```8`8`8`8`8`8`8`8`8`8`8```8`k`L`w`T`k`p`8`8`8`8`8`p`L`k`L`8`8`8`8`8`8`L`T`w`T`g`w`L`B`t`T`B`T`B`B`8`8`8`8`8`8`B`Q`C```8`8`8`8`8`8`8`8`8`8`8````",
"```8`8`8`8`8`8`8`8`8`8`8```B`p`L`B`J`T`8`t`8`8`w`i`t`T`B`B`B`B`B`B`w`B`B`B`w`w`p`w`I`w`w`w`w`v`p`v`t`p`y`w`U`8`L`Q`V```8`8`8`8`8`8`8`8`8`8`8````",
"```8`8`8`8`8`8`8`8`8`8`8```8`w`w`L`T`8`J`B`g`.`p`T`B`i`e`i`t`p`t`t`p`p`k`b`q`4`Q`Q`K`K`Q`Q`Q`Q`Q`2`2`6`d`f`#`#`n`A`V```8`8`8`8`8`8`8`8`8`8`8````",
"```8`8`8`8`8`8`8`8`8`8`8```8`t`8`J`8`O`a`z`2`.`T`G`V`M`B`I`#`#`#`#`#`#`#`m`6`K`4`A`Q`6`Q`A`2`Q`A`K`Q`Q`a`#`n`#`c`a`j```8`8`8`8`8`8`8`8`8`8`8````",
"```8`8`8`8`8`8`8`8`8`8`8```8`8`L`L`c`r`#`c`4`b`8`C`V`V`B`2`l`r`r`x`C`r`v`6`s`Q`Q`Q`A`u`u`K`u`u`u`A`6`l`6`u`#`n`a`#`a```8`8`8`8`8`8`8`8`8`8`8````",
"```8`8`8`8`8`8`8`8`8`8`8```8`T`j`#`c`#`j`#`u`N`L`V`V`V`J`A`z`V`V`V`r`5`2`A`K`Q`s`4`2`Q`4`4`A`A`Q`Q`u`V`C`2`Q`#`q`a`c```8`8`8`8`8`8`8`8`8`8`8````",
"```8`8`8`8`8`8`8`8`8`8`8```q`#`j`c`r`a`j`#`c`4`t`T`V`G`t`m`K`C`z`N`4`u`K`Q`u`2`A`x`l`l`s`2`Q`K`K`6`h`a`C`V`A`4`#`q`d```8`8`8`8`8`8`8`8`8`8`8````",
"```8`8`8`8`8`8`8`8`8`8`8```r`r`#`c`a`#`l`s`6`u`u`k`L`J`i`d`Q`4`Q`u`Q`A`2`s`2`z`r`C`C`C`2`u`A`Q`2`m`2`f`A`j`V`F`4`#`q```8`8`8`8`8`8`8`8`8`8`8````",
"```8`8`8`8`8`8`8`8`8`8`8```a`c`a`#`c`m`2`4`A`.`6`.`8`r`8`g`4`A`Q`u`u`m`Q`2`j`r`C`C`C`m`Q`A`2`K`4`#`r`F`4`#`j`V`F`2`#```8`8`8`8`8`8`8`8`8`8`8````",
"```8`8`8`8`8`8`8`8`8`8`8```c`j`#`C`e`u`2`Q`u`.`2`B`D`V`C`L`4`A`A`K`Q`4`m`r`C`C`x`C`C`2`K`K`K`5`m`C`o`#`S`6`Q`j`V`Q`u```8`8`8`8`8`8`8`8`8`8`8````",
"```8`8`8`8`8`8`8`8`8`8`8```#`p`v`V`.`Q`K`4`b`b`s`O`G`V`V`L`4`s`K`4`s`r`C`C`C`G`C`C`l`4`A`K`A`4`A`4`G`C`#`S`u`h`r`C`4```8`8`8`8`8`8`8`8`8`8`8````",
"```8`8`8`8`8`8`8`8`8`8`8```r`8`V`j`m`2`K`K`.`b`d`2`8`C`1`g`2`s`m`#`j`j`c`c`c`#`j`c`K`K`A`Q`Q`A`.`2`6`C`v`j`2`6`a`V`x```8`8`8`8`8`8`8`8`8`8`8````",
"```8`8`8`8`8`8`8`8`8`8`8```J`w`V`.`K`4`2`e`b`b`.`4`e`M`M`.`2`m`#`T`B`#`O`8`c`8`d`#`4`H`u`Q`6`b`b`.`2`6`C`c`c`2`a`a`V```8`8`8`8`8`8`8`8`8`8`8````",
"```8`8`8`8`8`8`8`8`8`8`8```8`V`.`s`Q`Q`A`b`b`a`b`2`k`U`G`M`K`m`#`d`c`#`#`d`#`f`#`f`K`s`Q`s`4`.`a`#`a`4`2`P`c`P`6`K`j```8`8`8`8`8`8`8`8`8`8`8````",
"```8`8`8`8`8`8`8`8`8`8`8```V`j`f`2`A`4`b`b`#`d`.`A`O`D`V`J`Q`s`#`#`#`a`c`c`c`#`c`H`m`B`A`K`q`b`c`a`#`n`6`F`C`#`0`f`#```8`8`8`8`8`8`8`8`8`8`8````",
"```8`8`8`8`8`8`8`8`8`8`8```r`b`K`K`2`f`b`a`#`c`b`s`N`T`V`M`u`F`V`V`V`V`V`V`V`V`V`2`B`D`B`2`e`b`c`a`c`.`Q`4`E`c`S`4`Q```8`8`8`8`8`8`8`8`8`8`8````",
"```8`8`8`8`8`8`8`8`8`8`8```e`K`6`Q`K`b`b`#`d`#`b`n`2`i`w`t`u`F`#`b`a`a`b`a`a`b`#`2`B`V`t`4`b`a`a`b`a`#`a`6`G`x`#`0`s```8`8`8`8`8`8`8`8`8`8`8````",
"```8`8`8`8`8`8`8`8`8`8`8```Q`K`Q`A`.`b`#`d`b`c`b`f`2`B`C`T`u`A`.`H`.`d`A`.`y`f`.`4`g`B`h`6`.`a`c`b`a`c`.`K`2`P`c`m`Q```8`8`8`8`8`8`8`8`8`8`8````",
"```8`8`8`8`8`8`8`8`8`8`8```u`Q`Q`.`b`a`c`b`a`a`b`d`4`B`V`L`A`v`s`6`b`2`6`.`4`Q`b`2`t`E`i`4`.`d`#`b`e`#`#`d`6`l`A`A`K```8`8`8`8`8`8`8`8`8`8`8````",
"```8`8`8`8`8`8`8`8`8`8`8```2`m`a`6`.`#`a`b`a`c`b`a`2`t`w`p`K`u`a`2`.`m`A`.`u`f`d`Q`E`V`B`Q`.`a`c`b`b`c`a`b`m`K`2`A`K```8`8`8`8`8`8`8`8`8`8`8````",
"```8`8`8`8`8`8`8`8`8`8`8```a`#`V`2`w`b`#`c`a`#`b`f`2`B`x`t`Q`m`#`.`#`a`.`#`a`.`m`K`L`D`t`4`.`b`#`e`#`a`b`b`2`4`K`6`m```8`8`8`8`8`8`8`8`8`8`8````",
"```8`8`8`8`8`8`8`8`8`8`8```A`c`C`x`6`b`b`#`c`a`b`m`N`E`V`B`4`x`V`V`V`V`V`V`V`V`z`K`t`B`i`4`.`a`c`a`c`b`.`A`K`Q`K`d`a```8`8`8`8`8`8`8`8`8`8`8````",
"```8`8`8`8`8`8`8`8`8`8`8```f`V`#`V`A`5`.`a`c`b`.`K`q`8`p`B`4`#`c`d`a`c`a`c`a`c`s`K`B`V`B`2`b`b`#`c`a`.`Q`Q`u`Q`a`j`V```8`8`8`8`8`8`8`8`8`8`8````",
"```8`8`8`8`8`8`8`8`8`8`8```Q`2`x`c`V`4`q`.`#`b`.`4`F`w`B`m`2`#`#`#`#`#`#`#`#`#`s`N`D`V`w`2`b`b`c`a`b`f`Q`A`2`a`j`C`8```8`8`8`8`8`8`8`8`8`8`8````",
"```8`8`8`8`8`8`8`8`8`8`8```m`A`x`c`C`x`6`g`b`b`b`4`A`2`4`K`u`#`8`f`n`8`d`m`8`a`z`K`M`D`w`0`n`b`a`a`.`A`6`Q`d`b`V`M`x```8`8`8`8`8`8`8`8`8`8`8````",
"```8`8`8`8`8`8`8`8`8`8`8```d`a`0`G`c`V`u`6`b`.`u`K`K`Q`Q`4`d`#`#`#`#`d`#`#`d`#`m`A`g`B`B`s`A`.`b`b`n`2`A`F`b`C`M`D`V```8`8`8`8`8`8`8`8`8`8`8````",
"```8`8`8`8`8`8`8`8`8`8`8```V`a`4`u`C`#`V`F`6`.`2`K`K`A`A`2`r`j`r`r`r`r`r`r`j`l`s`K`L`C`D`B`2`.`b`b`s`u`Q`a`j`D`T`C`#```8`8`8`8`8`8`8`8`8`8`8````",
"```8`8`8`8`8`8`8`8`8`8`8```G`x`#`2`0`r`j`V`z`d`2`u`s`4`K`u`C`C`C`G`C`r`r`A`5`Q`m`Q`B`V`V`t`4`b`b`b`6`A`K`b`C`T`c`c`a```8`8`8`8`8`8`8`8`8`8`8````",
"```8`8`8`8`8`8`8`8`8`8`8```6`C`j`A`s`P`c`r`c`K`A`A`2`A`6`j`C`r`C`C`j`H`4`K`Q`s`A`Q`L`C`V`L`K`u`b`s`K`Q`u`.`C`#`#`j`c```8`8`8`8`8`8`8`8`8`8`8````",
"```8`8`8`8`8`8`8`8`8`8`8```s`5`V`c`#`6`2`x`a`4`Q`A`K`K`K`C`C`C`r`m`4`u`f`s`u`K`A`2`k`8`o`B`d`4`.`2`A`2`d`#`a`#`c`a`j```8`8`8`8`8`8`8`8`8`8`8````",
"```8`8`8`8`8`8`8`8`8`8`8```#`u`5`C`r`f`d`m`K`A`u`A`A`6`j`C`C`j`K`Q`s`A`Q`4`m`K`A`4`.`t`E`J`i`2`f`u`u`d`#`c`a`j`a`#`l```8`8`8`8`8`8`8`8`8`8`8````",
"```8`8`8`8`8`8`8`8`8`8`8```n`#`z`6`C`C`a`a`4`K`s`4`K`4`H`K`H`Q`Q`s`Q`u`u`2`4`u`l`4`a`8`C`V`J`y`2`#`#`#`j`a`c`#`c`k`8```8`8`8`8`8`8`8`8`8`8`8````",
"```8`8`8`8`8`8`8`8`8`8`8```a`q`#`l`6`P`j`K`A`Q`s`A`Q`K`s`K`Q`A`Q`s`2`Q`2`l`C`V`V`K`v`M`V`V`V`t`4`d`#`c`l`#`#`k`8`B`8```8`8`8`8`8`8`8`8`8`8`8````",
"```8`8`8`8`8`8`8`8`8`8`8```#`c`q`#`#`Q`d`4`s`s`s`u`u`s`A`u`K`u`A`m`2`u`C`V`C`r`j`s`Q`I`V`V`V`v`v`4`c`c`#`k`8`8`w`L`T```8`8`8`8`8`8`8`8`8`8`8````",
"```8`8`8`8`8`8`8`8`8`8`8```f`a`#`q`d`#`4`u`Q`F`Q`4`m`u`4`s`f`2`K`4`m`#`#`#`#`#`#`a`K`w`l`V`V`L`.`2`c`e`T`T`L`L`T`J`B```8`8`8`8`8`8`8`8`8`8`8````",
"```8`8`8`8`8`8`8`8`8`8`8```V`K`n`#`#`e`d`6`2`2`Q`Q`Q`Q`Q`K`Q`K`Q`4`m`b`g`p`p`p`t`p`t`k`e`k`B`T`p`.`g`B`L`8`T`L`w`w`8```8`8`8`8`8`8`8`8`8`8`8````",
"```8`8`8`8`8`8`8`8`8`8`8```V`K`L`8`T`y`y`p`y`t`p`v`w`y`t`B`y`B`q`w`t`B`J`B`B`B`B`B`J`w`B`T`t`i`w`8`8`t`8`T`B`J`L`t`B```8`8`8`8`8`8`8`8`8`8`8````",
"```8`8`8`8`8`8`8`8`8`8`8```C`Q`B`8`8`8`8`8`8`B`J`L`B`T`w`B`L`w`g`M`B`T`T`T`8`8`8`8`8`L`k`L`p`8`8`8`8`8`p`g`T`B`L`k`T```8`8`8`8`8`8`8`8`8`8`8````",
"```8`8`8`8`8`8`8`8`8`8`8```V`Q`B`8`8`8`8`8`8`B`J`B`L`B`L`t`T`t`p`L`J`L`T`8`8`8`T`t`8`B`8`8`8`8`8`8`8`8`8`g`p`L`i`g`8```8`8`8`8`8`8`8`8`8`8`8````",
"```8`8`8`8`8`8`8`8`8`8`8```V`K`B`8`8`e`8`8`8`B`B`B`L`w`T`p`T`w`J`p`B`L`8`T`b`b`i`w`g`g`8`8`8`8`8`8`8`8`8`8`8`J`p`T`8```8`8`8`8`8`3`8`8`8`8`8````",
"```8`8`8`8`8`8`8`8`8`8`8```C`Q`B`8`8`n`w`8`8`L`w`J`B`B`B`J`B`L`B`w`8`8`8`t`8`T`b`b`i`k`8`8`8`8`8`8`8`8`8`8`8`8`8`8`8```8`8`8`8`8`V`8`8`8`8`8````",
"```8`8`8`8`8`8`8`8`8`8`8```V`Q`B`8`8`v`q`8`8`J`t`L`t`T`w`T`J`B`L`B`L`8`8`J`B`8`8`B`p`w`B`8`8`8`8`8`8`8`8`8`8`8`8`8`8```8`8`8`8`Z`V`Z`8`8`8`8````",
"```8`8`8`8`8`8`8`8`8`8`8```V`K`B`8`8`p`N`B`8`L`J`w`J`B`L`w`L`L`t`L`J`8`8`8`8`8`8`w`w`T`t`8`8`8`8`8`8`8`8`8`8`8`8`8`8```8`8`8`1`V`V`V`1`8`8`8````",
"```8`8`8`8`8`8`8`8`8`8`8```V`K`B`8`i`N`N`y`8`8`w`B`B`B`B`T`t`T`B`w`J`8`8`8`8`8`8`8`8`8`p`8`8`8`8`8`8`8`8`8`8`8`8`8`8```8`8`3`V`V`V`V`V`3`8`8````",
"```8`8`8`8`8`8`8`8`8`8`8```V`K`L`t`i`U`N`N`8`8`p`L`w`L`J`w`L`B`L`w`J`8`8`8`8`8`8`T`8`J`T`8`8`8`8`8`8`8`8`8`3`8`8`8`8```8`8`V`V`V`V`V`V`V`8`8````",
"```8`8`8`8`8`8`8`8`8`8`8```V`Q`h`B`i`5`B`5`L`8`B`t`L`t`L`t`L`t`B`w`J`8`8`T`w`B`i`b`8`p`8`8`8`8`8`8`8`8`8`8`V`8`8`8`8```8`8`3`V`V`V`V`V`3`8`8````",
"```8`8`8`8`8`8`8`8`8`8`8```V`K`p`t`B`p`N`y`J`8`B`w`L`w`T`w`J`w`w`L`L`8`8`8`B`w`p`.`8`T`8`8`8`8`8`8`8`8`8`Z`V`Z`8`8`8```8`8`8`1`V`V`V`1`8`8`8````",
"```8`8`8`8`8`8`8`8`8`8`8```V`K`p`w`t`B`y`5`L`8`T`i`B`w`L`B`B`w`B`t`8`8`B`k`M`8`J`t`p`8`8`8`8`8`8`8`8`8`1`V`V`V`1`8`8```8`8`8`8`Z`V`Z`8`8`8`8````",
"```8`8`8`8`8`8`8`8`8`8`8```V`K`t`w`i`5`5`Q`M`8`J`#`#`#`#`b`g`t`L`L`8`8`8`8`p`e`i`p`T`L`8`8`8`8`8`8`8`3`V`V`V`V`V`3`8```8`8`8`8`8`V`8`8`8`8`8````",
"```8`8`8`8`8`8`8`8`8`8`8```V`K`J`8`p`B`N`H`8`8`v`C`C`r`c`c`#`#`#`k`L`8`8`8`8`8`8`8`8`J`8`8`8`8`8`8`8`V`V`V`V`V`V`V`8```8`8`8`8`8`3`8`8`8`8`8````",
"```8`8`8`8`8`8`8`8`8`8`8```V`A`B`8`T`t`N`y`8`8`j`C`C`C`V`V`V`C`j`#`#`#`g`w`B`B`B`B`g`L`8`8`8`8`8`8`8`3`V`V`V`V`V`3`8```8`8`8`8`8`8`8`8`8`8`8````",
"```8`8`8`8`8`8`8`8`8`8`8```j`4`w`8`8`f`y`T`8`L`r`s`K`h`A`s`l`r`C`V`R`C`j`c`#`#`#`c`r`q`8`8`8`8`8`8`8`8`1`V`V`V`1`8`8```8`V`V`V`V`8`V`V`V`V`8````",
"```8`8`8`8`8`8`8`8`8`8`8```2`s`8`8`8`w`w`8`8`e`r`Q`s`s`A`K`m`C`X`E`c`x`x`C`C`C`C`C`r`r`M`8`8`8`8`8`8`8`8`Z`V`Z`8`8`8```8`V`V`V`V`8`V`V`V`V`8````",
"```8`8`8`8`8`8`8`8`8`8`8```K`M`8`8`8`8`8`8`M`r`F`K`4`4`6`K`Q`C`V`C`C`Q`K`A`K`A`Q`m`C`X`o`8`8`8`8`8`8`8`8`8`V`8`8`8`8```8`8`Z`Y`8`8`8`V`V`8`8````",
"```8`8`8`8`8`8`8`8`8`8`8```B`8`8`8`8`8`8`8`k`r`4`K`N`6`K`Q`6`C`x`V`u`K`K`K`2`Q`A`4`r`C`r`M`8`8`8`8`8`8`8`8`3`8`8`8`8```8`8`Z`V`Y`8`8`V`V`8`8````",
"```8`8`8`8`8`8`8`8`8`8`8```8`8`8`8`8`8`8`T`c`2`6`6`u`2`H`6`6`A`V`x`6`6`s`6`6`A`Q`6`6`u`C`n`8`8`8`8`8`8`8`8`8`8`8`8`8```8`8`8`Z`V`Y`8`V`V`8`8````",
"```8`8`8`8`8`8`8`8`8`8`8```````````````````````````````````````````````````````````````````````````````````````````````8`8`8`8`Z`V`Y`V`V`8`8````",
"```8`8`8`8`8`8`8`8`8`8`8`8`8`8`8`8`8`8`8`8`8`8`8`8`8`8`8`8`8`8`8`8`8`8`8`8`8`8`8`8`8`8`8`8`8`8`8`8`8`8`8`8`8`8`8`8`8`8`8`8`8`8`8`Z`V`V`V`8`8````",
"```8`8`8`8`8`8`8`8`8`8`8`8`8`8`8`8`8`8`8`8`8`8`8`8`8`8`8`8`8`8`8`8`8`8`8`8`8`8`8`8`8`8`8`8`8`8`8`8`8`8`8`8`8`8`8`8`8`8`8`8`8`8`Z`V`Y`V`V`8`8````",
"```8`8`8`8`8`8`8`8`8`8`8`8`8`8`8`8`8`8`8`8`8`8`8`8`8`8`8`8`8`8`8`8`8`8`8`8`8`8`8`8`8`8`8`8`8`8`8`8`8`8`8`8`8`8`8`8`8`8`8`8`8`Z`V`Y`8`V`V`8`8````",
"```8`8`8`8`8`8`8`8`8`8`8`8`8`8`8`8`8`8`8`8`8`8`8`8`8`8`8`8`8`8`8`8`8`8`8`8`8`8`8`8`8`8`8`8`8`8`8`8`8`8`8`8`8`8`8`8`8`8`8`8`Z`V`Z`8`8`V`V`8`8````",
"```8`8`8`8`8`8`8`8`8`8`8`8`8`8`8`8`8`8`8`8`8`8`8`8`8`8`8`8`8`8`8`8`8`8`8`8`8`8`8`8`8`8`8`8`8`8`8`8`8`8`8`8`8`8`8`8`8`8`8`V`V`V`V`8`V`V`V`V`8````",
"```8`8`8`8`8`8`8`8`8`8`8`8`8`8`8`8`8`8`8`8`8`8`8`8`8`8`8`8`8`8`8`8`8`8`8`8`8`8`8`8`8`8`8`8`8`8`8`8`8`8`8`8`8`8`8`8`8`8`8`V`V`V`V`8`V`V`V`V`8````",
"```8`8`8`8`8`8`8`8`8`8`8`8`8`8`8`8`8`8`8`8`8`8`8`8`8`8`8`8`8`8`8`8`8`8`8`8`8`8`8`8`8`8`8`8`8`8`8`8`8`8`8`8`8`8`8`8`8`8`8`8`8`8`8`8`8`8`8`8`8````",
"```8`8`8`8`8`8`8`8`8`8`8`8`8`8`8`8`8`8`8`8`8`8`8`8`8`8`8`8`8`8`8`8`8`8`8`8`8`8`8`8`8`8`8`8`8`8`8`8`8`8`8`8`8`8`8`8`8`8`8`8`8`8`8`8`8`8`8`8`8````",
"```y`8`8`8`8`8`8`8`8`8`8`8`8`8`8`8`8`8`8`8`8`8`8`8`8`8`8`8`8`8`8`8`8`8`8`8`8`8`8`8`8`8`8`8`8`8`8`8`8`8`8`8`8`8`8`8`8`8`8`8`8`8`8`8`8`8`8`8`y```q",
"`q```````````````````````````````````````````````````````````````````````````````````````````````````````````````````````````````````````````q``"
};
