/* XPM */
static char const *face_05_xpm[] = {
/* width height num_colors chars_per_pixel */
"    72    96       16            1",
/* colors */
"` c #ffffff",
". c #000000",
"# c #73735a",
"a c #394239",
"b c #ceceb5",
"c c #9c9473",
"d c #e7e7f7",
"e c #bdbdce",
"f c #947b84",
"g c #5a5221",
"h c #001084",
"i c #081018",
"j c #102129",
"k c #10298c",
"l c #291018",
"m c #293131",
/* pixels */
"#.....................................................................#.",
".c```````````````````````````````````````````````````````````````````c..",
".`````````````````````````````````````````````````````````````````````..",
".`````````````````````````````````````````````````````````````````````..",
".`````g...````````````````````````````````````````````````````````````..",
".````#....````````````````````````````````````````````````````````````..",
".```f.f```````````````````````````````````````````````````````````````..",
".```..````````````````````````````````````````````````````````````````..",
".```.....#````````````````````````````````````````````````````````````..",
".```......#```````````````````````````````````````````````````````````..",
".```..```..`````````b#a#b`````````````````````b#a#b```````````````````..",
".```..```..````````ba...ab```````````````````ba...ab``````````````````..",
".```..```..````````#.....#```````````````````#.....#``````````````````..",
".```..```..````````a.....a```````````````````a.....a``````````````````..",
".```#.....#````````#.....#```````````````````#.....#``````````````````..",
".````#...#``````````a...a`````````````````````a...a```````````````````..",
".```````````````b#ac`#.#`ca#b`````````````b#ac`#.#`ca#b```````````````..",
".``````````````ba...#...#...ab```````````ba...#...#...ab``````````````..",
".``````````````#.............#```````````#.............#``````````````..",
".`````aaa``````a.............a```````````a.............a``````````````..",
".````a...a`````#.....#.#.....#```````````#.....#.#.....#``````````````..",
".````a...a`````ba...ad.da...ab```````````ba...ad.da...ab``````````````..",
".```#d...d#`````b#a#b`.`b#a#b`````````````b#a#b`.`b#a#b```````````````..",
".``a.......a`````````#.#```````````````````````#.#````````````````````..",
".``.........````````e...e`````````````````````e...e```````````````````..",
".``a.......a``````````````````````````````````````````````````````````..",
".```aa`.`aa```````````````````````````````````````````````````````````..",
".`````b.b`````````````````````````````````````````````````````````````..",
".`````...`````````````````````````````````````````````````````````````..",
".`````````````````````````````````````````````````````````````````````..",
".`````````````````````````````````````````````````````````````````````..",
".`````````````````````````````````````````````````````````````````````..",
".`````````````````````````````````````````````````````````````````````..",
".`````````````````````````````````````````````````````````````````````..",
".`````````````````````````````````````````````````````````````````````..",
".`````````````````````````````````````````````````````````````````````..",
".`````````````````````````````````````````````````````````````````````..",
".`````````````````````````````````````````````````````````````````````..",
".`````````````````````````````````````````````````````````````````````..",
".`````````````````````````````````````````````````````````````````````..",
".```````````````````b#a#b`````````````````````b#a#b```````````````````..",
".``````````````````ba...ab```````````````````ba...ab``````````````````..",
".``````````````````#.....#```````````````````#.....#``````````````````..",
".``````````````````a.....a```````````````````a.....a``````````````````..",
".``````````````````#.....#```````````````````#.....#``````````````````..",
".```````````````````a...a`````````````````````a...a```````````````````..",
".```````````````b#ac`#.#`ca#b`````````````b#ac`#.#`ca#b```````````````..",
".``````````````ba...#...#...ab```````````ba...#...#...ab``````````````..",
".``````````````#.............#```````````#.............#``````````````..",
".``````````````a.............a```````````a.............a``````````````..",
".``````````````#.....#.#.....#```````````#.....#.#.....#``````````````..",
".``````````````ba...ad.da...ab```````````ba...ad.da...ab``````````````..",
".```````````````b#a#b`.`b#a#b`````````````b#a#b`.`b#a#b```````````````..",
".````````````````````#.#```````````````````````#.#````````````````````..",
".```````````````````e...e`````````````````````e...e```````````````````..",
".`````````````````````````````````````````````````````````````````````..",
".`````````````````````````````````````````````````````````````````````..",
".`````````````````````````````````````````````````````````````````````..",
".`````````````````````````````````````````````````````````````````````..",
".`````````````````````````````````````````````````````````````````````..",
".`````````````````````````````````````````````````````````````````````..",
".`````````````````````````````````````````````````````````````````````..",
".`````````````````````````````````````````````````````````````````````..",
".`````````````````````````````````````````````````````````````````````..",
".`````````````````````````````````````````````````````````````````````..",
".`````````````````````````````````````````````````````````````````````..",
".`````````````````````````````````````````````````````````````````````..",
".`````````````````````````````````````````````````````````````...`````..",
".`````````````````````````````````````````````````````````````b.b`````..",
".```````````````````````````````````````````````````````````aa`.`aa```..",
".``````````````````````````````````````````````````````````a.......a``..",
".```````````````````e...e`````````````````````e...e````````.........``..",
".````````````````````#.#```````````````````````#.#`````````a.......a``..",
".```````````````b#a#b`.`b#a#b`````````````b#a#b`.`b#a#b`````#d...d#```..",
".``````````````ba...ad.da...ab```````````ba...ad.da...ab`````a...a````..",
".``````````````#.....#.#.....#```````````#.....#.#.....#`````a...a````..",
".``````````````a.............a```````````a.............a``````aaa`````..",
".``````````````#.............#```````````#.............#``````````````..",
".``````````````ba...#...#...ab```````````ba...#...#...ab``````````````..",
".```````````````b#ac`#.#`ca#b`````````````b#ac`#.#`ca#b```````````````..",
".```````````````````a...a`````````````````````a...a``````````#...#````..",
".``````````````````#.....#```````````````````#.....#````````#.....#```..",
".``````````````````a.....a```````````````````a.....a````````..```..```..",
".``````````````````#.....#```````````````````#.....#````````..```..```..",
".``````````````````ba...ab```````````````````ba...ab````````..```..```..",
".```````````````````b#a#b`````````````````````b#a#b`````````..```..```..",
".```````````````````````````````````````````````````````````#......```..",
".````````````````````````````````````````````````````````````#.....```..",
".````````````````````````````````````````````````````````````````..```..",
".```````````````````````````````````````````````````````````````f.f```..",
".````````````````````````````````````````````````````````````....#````..",
".````````````````````````````````````````````````````````````...g`````..",
".`````````````````````````````````````````````````````````````````````..",
".`````````````````````````````````````````````````````````````````````..",
".c```````````````````````````````````````````````````````````````````c.#",
"#.....................................................................#."
};
