/* XPM */
static char *face_39_xpm[] = {
/* width height num_colors chars_per_pixel */
"    72    96       16            1",
/* colors */
"` c #ffffff",
". c #000000",
"# c #e7e7f7",
"a c #73735a",
"b c #293131",
"c c #5a5252",
"d c #947b84",
"e c #ceceb5",
"f c #081018",
"g c #bd9ca5",
"h c #bdbdce",
"i c #102129",
"j c #394239",
"k c #9c9473",
"l c #5a5221",
"m c #001084",
/* pixels */
"a.....................................................................a.",
".k```````````````````````````````````````````````````````````````````k..",
".`````````````````````````````````````````````````````````````````````..",
".``````e``````````````````````````````````````````````````````````````..",
".``````b``````````````````````````````````````````````````````````````..",
".`````e.e`````````````````````````````````````````````````````````````..",
".`````b.b`````````````````````````````````````````````````````````````..",
".````e...e````````````````````````````````````````````````````````````..",
".````b.`.b````````````````````````````````````````````````````````````..",
".```e.b`b.e```````````````````````````````````````````````````````````..",
".```b.```.b```````````````````````````````````````````````````````````..",
".``e.......e``````````````````````````````````````````````````````````..",
".``b.......b``````````````````````````````````````````````````````````..",
".``..`````..``````````````````````````````````````````````````````````..",
".`....```....`````````````````````````````````````````````````````````..",
".`....```....`````````````````````````````````````````````````````````..",
".`````````````````````````````````````````````````````````````````````..",
".`````````````````````````````````````````````````````````````````````..",
".``````d``````````````````````````````````````````````````````````````..",
".`````d.d`````````````````````````````````````````````````````````````..",
".````d...d````````````````````````````````````````````````````````````..",
".```d.....d```````````````````````````````````````````````````````````..",
".``d.......d``````````````````````````````````````````````````````````..",
".``.........``````````````````````````````````````````````````````````..",
".``.........``````````````````````````````````````````````````````````..",
".``a.......a``````````````````````````````````````````````````````````..",
".```aa`.`aa```````````````````````````````````````````````````````````..",
".`````e.e`````````````````````````````````````````````````````````````..",
".`````...`````````````````````````````````````````````````````````````..",
".`````````````````````````````````````````````````````````````````````..",
".`````````````````````````````````````````````````````````````````````..",
".`````````````````````````````````````````````````````````````````````..",
".`````````````````````````````````````````````````````````````````````..",
".``````````````````````````````````#``````````````````````````````````..",
".`````````````````````````````````#l#`````````````````````````````````..",
".````````````````````````````````#c.c#````````````````````````````````..",
".```````````````````````````````#c...c#```````````````````````````````..",
".``````````````````````````````#c.....c#``````````````````````````````..",
".`````````````````````````````#c.......c#`````````````````````````````..",
".````````````````````````````#c.........c#````````````````````````````..",
".```````````````````````````#c...........c#```````````````````````````..",
".``````````````````````````#c.............c#``````````````````````````..",
".`````````````````````````#c...............c#`````````````````````````..",
".````````````````````````#c.................c#````````````````````````..",
".```````````````````````#c...................c#```````````````````````..",
".```````````````````````df...................fd```````````````````````..",
".``````````````````````hb.....................bh``````````````````````..",
".`````````````````````#af.....................fa#`````````````````````..",
".`````````````````````hj.......................jh`````````````````````..",
".`````````````````````ai.......................ia`````````````````````..",
".`````````````````````a.........................a`````````````````````..",
".`````````````````````af.......................fa`````````````````````..",
".`````````````````````ab.......................ba`````````````````````..",
".`````````````````````hj.......................jh`````````````````````..",
".`````````````````````#ai........fb.bf........ia#`````````````````````..",
".``````````````````````ejf......fdg.gdf......fje``````````````````````..",
".```````````````````````ekcbf.fcd#h.h#dcf.fbcke```````````````````````..",
".`````````````````````````#gaag#``c.c``#gaag#`````````````````````````..",
".````````````````````````````````gi.ig````````````````````````````````..",
".```````````````````````````````#a...a#```````````````````````````````..",
".``````````````````````````````#df...fd#``````````````````````````````..",
".`````````````````````````````````````````````````````````````````````..",
".`````````````````````````````````````````````````````````````````````..",
".`````````````````````````````````````````````````````````````````````..",
".`````````````````````````````````````````````````````````````````````..",
".`````````````````````````````````````````````````````````````````````..",
".`````````````````````````````````````````````````````````````````````..",
".`````````````````````````````````````````````````````````````...`````..",
".`````````````````````````````````````````````````````````````e.e`````..",
".```````````````````````````````````````````````````````````aa`.`aa```..",
".``````````````````````````````````````````````````````````a.......a``..",
".``````````````````````````````````````````````````````````.........``..",
".``````````````````````````````````````````````````````````.........``..",
".``````````````````````````````````````````````````````````d.......d``..",
".```````````````````````````````````````````````````````````d.....d```..",
".````````````````````````````````````````````````````````````d...d````..",
".`````````````````````````````````````````````````````````````d.d`````..",
".``````````````````````````````````````````````````````````````d``````..",
".`````````````````````````````````````````````````````````````````````..",
".`````````````````````````````````````````````````````````````````````..",
".`````````````````````````````````````````````````````````....```....`..",
".`````````````````````````````````````````````````````````....```....`..",
".``````````````````````````````````````````````````````````..`````..``..",
".``````````````````````````````````````````````````````````b.......b``..",
".``````````````````````````````````````````````````````````e.......e``..",
".```````````````````````````````````````````````````````````b.```.b```..",
".```````````````````````````````````````````````````````````e.b`b.e```..",
".````````````````````````````````````````````````````````````b.`.b````..",
".````````````````````````````````````````````````````````````e...e````..",
".`````````````````````````````````````````````````````````````b.b`````..",
".`````````````````````````````````````````````````````````````e.e`````..",
".``````````````````````````````````````````````````````````````b``````..",
".``````````````````````````````````````````````````````````````e``````..",
".`````````````````````````````````````````````````````````````````````..",
".k```````````````````````````````````````````````````````````````````k.a",
"a.....................................................................a."
};
