/* XPM */
static char const *face_10_xpm[] = {
/* width height num_colors chars_per_pixel */
"    72    96      256            2",
/* colors */
"`` c #000000",
"`. c #001084",
"`# c #081018",
"`a c #102129",
"`b c #10298c",
"`c c #291018",
"`d c #293131",
"`e c #293184",
"`f c #394239",
"`g c #394aa5",
"`h c #425a52",
"`i c #4263bd",
"`j c #521021",
"`k c #525a9c",
"`l c #5a2929",
"`m c #5a5221",
"`n c #5a5252",
"`o c #633173",
"`p c #637bad",
"`q c #73735a",
"`r c #7b1018",
"`s c #7b7329",
"`t c #7b94c6",
"`u c #947b21",
"`v c #947b84",
"`w c #949cbd",
"`x c #9c2929",
"`y c #9c9473",
"`z c #a55221",
"`A c #a59429",
"`B c #a5b5de",
"`C c #ad1018",
"`D c #ad5263",
"`E c #b57384",
"`F c #b57b21",
"`G c #bd3129",
"`H c #bd9c5a",
"`I c #bd9ca5",
"`J c #bdbdce",
"`K c #c69c21",
"`L c #c6def7",
"`M c #c6f7ff",
"`N c #ceb563",
"`O c #ceceb5",
"`P c #de524a",
"`Q c #deb521",
"`R c #e72929",
"`S c #e77b21",
"`T c #e7e7f7",
"`U c #f7dea5",
"`V c #ff0008",
"`W c #ff00ff",
"`X c #ff3131",
"`Y c #ff4a4a",
"`Z c #ff737b",
"`0 c #ff9c31",
"`1 c #ff9c9c",
"`2 c #ffbd21",
"`3 c #ffbdbd",
"`4 c #ffde18",
"`5 c #ffde63",
"`6 c #ffff29",
"`7 c #ffffa5",
"`8 c #ffffff",
".` c #ffffff",
".. c #ffffff",
".# c #ffffff",
".a c #ffffff",
".b c #ffffff",
".c c #ffffff",
".d c #ffffff",
".e c #ffffff",
".f c #ffffff",
".g c #ffffff",
".h c #ffffff",
".i c #ffffff",
".j c #ffffff",
".k c #ffffff",
".l c #ffffff",
".m c #ffffff",
".n c #ffffff",
".o c #ffffff",
".p c #ffffff",
".q c #ffffff",
".r c #ffffff",
".s c #ffffff",
".t c #ffffff",
".u c #ffffff",
".v c #ffffff",
".w c #ffffff",
".x c #ffffff",
".y c #ffffff",
".z c #ffffff",
".A c #ffffff",
".B c #ffffff",
".C c #ffffff",
".D c #ffffff",
".E c #ffffff",
".F c #ffffff",
".G c #ffffff",
".H c #ffffff",
".I c #ffffff",
".J c #ffffff",
".K c #ffffff",
".L c #ffffff",
".M c #ffffff",
".N c #ffffff",
".O c #ffffff",
".P c #ffffff",
".Q c #ffffff",
".R c #ffffff",
".S c #ffffff",
".T c #ffffff",
".U c #ffffff",
".V c #ffffff",
".W c #ffffff",
".X c #ffffff",
".Y c #ffffff",
".Z c #ffffff",
".0 c #ffffff",
".1 c #ffffff",
".2 c #ffffff",
".3 c #ffffff",
".4 c #ffffff",
".5 c #ffffff",
".6 c #ffffff",
".7 c #ffffff",
".8 c #ffffff",
"#` c #ffffff",
"#. c #ffffff",
"## c #ffffff",
"#a c #ffffff",
"#b c #ffffff",
"#c c #ffffff",
"#d c #ffffff",
"#e c #ffffff",
"#f c #ffffff",
"#g c #ffffff",
"#h c #ffffff",
"#i c #ffffff",
"#j c #ffffff",
"#k c #ffffff",
"#l c #ffffff",
"#m c #ffffff",
"#n c #ffffff",
"#o c #ffffff",
"#p c #ffffff",
"#q c #ffffff",
"#r c #ffffff",
"#s c #ffffff",
"#t c #ffffff",
"#u c #ffffff",
"#v c #ffffff",
"#w c #ffffff",
"#x c #ffffff",
"#y c #ffffff",
"#z c #ffffff",
"#A c #ffffff",
"#B c #ffffff",
"#C c #ffffff",
"#D c #ffffff",
"#E c #ffffff",
"#F c #ffffff",
"#G c #ffffff",
"#H c #ffffff",
"#I c #ffffff",
"#J c #ffffff",
"#K c #ffffff",
"#L c #ffffff",
"#M c #ffffff",
"#N c #ffffff",
"#O c #ffffff",
"#P c #ffffff",
"#Q c #ffffff",
"#R c #ffffff",
"#S c #ffffff",
"#T c #ffffff",
"#U c #ffffff",
"#V c #ffffff",
"#W c #ffffff",
"#X c #ffffff",
"#Y c #ffffff",
"#Z c #ffffff",
"#0 c #ffffff",
"#1 c #ffffff",
"#2 c #ffffff",
"#3 c #ffffff",
"#4 c #ffffff",
"#5 c #ffffff",
"#6 c #ffffff",
"#7 c #ffffff",
"#8 c #ffffff",
"a` c #ffffff",
"a. c #ffffff",
"a# c #ffffff",
"aa c #ffffff",
"ab c #ffffff",
"ac c #ffffff",
"ad c #ffffff",
"ae c #ffffff",
"af c #ffffff",
"ag c #ffffff",
"ah c #ffffff",
"ai c #ffffff",
"aj c #ffffff",
"ak c #ffffff",
"al c #ffffff",
"am c #ffffff",
"an c #ffffff",
"ao c #ffffff",
"ap c #ffffff",
"aq c #ffffff",
"ar c #ffffff",
"as c #ffffff",
"at c #ffffff",
"au c #ffffff",
"av c #ffffff",
"aw c #ffffff",
"ax c #ffffff",
"ay c #ffffff",
"az c #ffffff",
"aA c #ffffff",
"aB c #ffffff",
"aC c #ffffff",
"aD c #ffffff",
"aE c #ffffff",
"aF c #ffffff",
"aG c #ffffff",
"aH c #ffffff",
"aI c #ffffff",
"aJ c #ffffff",
"aK c #ffffff",
"aL c #ffffff",
"aM c #ffffff",
"aN c #ffffff",
"aO c #ffffff",
"aP c #ffffff",
"aQ c #ffffff",
"aR c #ffffff",
"aS c #ffffff",
"aT c #ffffff",
"aU c #ffffff",
"aV c #ffffff",
"aW c #ffffff",
"aX c #ffffff",
"aY c #ffffff",
"aZ c #ffffff",
"a0 c #ffffff",
"a1 c #ffffff",
"a2 c #ffffff",
"a3 c #ffffff",
"a4 c #ffffff",
"a5 c #ffffff",
"a6 c #ffffff",
"a7 c #ffffff",
"a8 c #ffffff",
/* pixels */
"`q```````````````````````````````````````````````````````````````````````````````````````````````````````````````````````````````````````````q``",
"```y`8`8`8`8`8`8`8`8`8`8`8`8`8`8`8`8`8`8`8`8`8`8`8`8`8`8`8`8`8`8`8`8`8`8`8`8`8`8`8`8`8`8`8`8`8`8`8`8`8`8`8`8`8`8`8`8`8`8`8`8`8`8`8`8`8`8`8`y````",
"```8`8`8`8`8`8`8`8`8`8`8`8`8`8`8`8`8`8`8`8`8`8`8`8`8`8`8`8`8`8`8`8`8`8`8`8`8`8`8`8`8`8`8`8`8`8`8`8`8`8`8`8`8`8`8`8`8`8`8`8`8`8`8`8`8`8`8`8`8````",
"```8`8`8`8`8`8`8`8`8`8`8`8`8`8`8`8`8`8`8`8`8`8`8`8`8`8`8`8`8`8`8`8`8`8`8`8`8`8`8`8`8`8`8`8`8`8`8`8`8`8`8`8`8`8`8`8`8`8`8`8`8`8`8`8`8`8`8`8`8````",
"```8`8`8`8`8`````````8`8`8`8`8`8`8`8`8`8`8`8`8`8`8`8`8`8`8`8`8`8`8`8`8`8`8`8`8`8`8`8`8`8`8`8`8`8`8`8`8`8`8`8`8`8`8`8`8`8`8`8`8`8`8`8`8`8`8`8````",
"```8`8`8`8`8`````````8`8`8`8`8`8`8`8`8`8`8`8`8`8`8`8`8`8`8`8`8`8`8`8`8`8`8`8`8`8`8`8`8`8`8`8`8`8`8`8`8`8`8`8`8`8`8`8`8`8`8`8`8`8`8`8`8`8`8`8````",
"```8`8`8`8`8`8`````8`8`8`8`8`8`8`8`8`8`8`8`8`8`8`8`8`8`8`8`8`8`8`8`8`8`8`8`8`8`8`8`8`8`8`8`8`8`8`8`8`8`8`8`8`8`8`8`8`8`8`8`8`8`8`8`8`8`8`8`8````",
"```8`8`8`8`8`8`````8`8`8`8`8`8`8`8`8`8`8`8`8`8`8`8`8`8`8`8`8`8`8`8`8`8`8`8`8`8`8`8`8`8`8`8`8`8`8`8`8`8`8`8`8`8`8`8`8`8`8`8`8`8`8`8`8`8`8`8`8````",
"```8`8`8`8`8`8`````8`8`8`8`8`8`8`8`8`8`8`8`8`8`8`8`8`8`8`8`8`8`8`8`8`8`8`8`8`8`8`8`8`8`8`8`8`8`8`8`8`8`8`8`8`8`8`8`8`8`8`8`8`8`8`8`8`8`8`8`8````",
"```8`8`8`8`8`8`````8`8`8`8`8`8`8`8`8`8`8`8`8`8`8`8`8`8`8`8`8`8`8`8`8`8`8`8`8`8`8`8`8`8`8`8`8`8`8`8`8`8`8`8`8`8`8`8`8`8`8`8`8`8`8`8`8`8`8`8`8````",
"```8`8`8`8`8`8`````8`8`8`````````````````````````````````````````````````````````````````````````````````````````````````````8`8`8`8`8`8`8`8````",
"```8`8`8`8`8`8`````8`8`8```8`8`8`8`8`8`8`8`8`8`8`8`8`L`C`C`a`V`X`V`V`X`#`G`c`R`V`V`X`C`d`C`a`V`X`V`r`r`8`8`8`8`8`8`B```8`8`8`8`8`8`8`8`8`8`8````",
"```8`8`````8`8`````8`8`8```8`8`8`8`f`f`f`8`8`8`8`8`8`8`t`V`r`d`C`l`c`a`a`C`l`c`d`j`d`c`R`j`a`a`a`a`V`u`A`8`8`8`8`8`r```8`8`8`8`8`8`8`8`8`8`8````",
"```8`8`````8`8`````8`8`8```8`8`8`f```````f`8`8`8`8`8`8`8`f`V`C`l`V`R`V`V`V`V`V`V`V`V`V`V`X`V`V`V`C`G`s`Q`y`8`8`8`l`C```8`8`8`8`8`8`8`8`8`8`8````",
"```8`8`q`````````n`8`8`8```8`8`8`f```````f`8`8`8`8`8`8`8`8`j`V`V`C`r`j`d`c`a`#`a`a`a`a`#`a`c`l`j`x`q`K`m`K`8`8`v`C`C```8`8`8`8`8`8`8`8`8`8`8````",
"```8`8`8`n`````n`8`8`8`8```8`8`q`T```````T`q`8`8`8`8`8`8`8`T`#`#`#`#`#`#`#`a`d`a`#`a`#`#`#`#`#`#`#`8`K`a`A`8`8`j`C`C```8`8`8`8`8`8`8`8`8`8`8````",
"```8`8`8`8`8`8`8`8`8`8`8```8`f```````````````f`8`8`8`8`8`8`T`m`u`K`A`K`A`N`8`8`8`8`8`8`8`8`8`8`B`H`8`p`u`s`8`8`B`u`m```8`8`8`8`8`8`8`8`8`8`8````",
"```8`8`8`8`8`8`8`8`8`8`8```8```````````````````8`8`8`8`8`8`t`u`K`A`A`A`K`O`8`T`w`w`T`8`8`8`J`8`L`y`8`8`B`m`O`8`8`u`m```8`8`8`8`8`8`8`8`8`8`8````",
"```8`8`8`8`f`f`f`8`8`8`8```8`f```````````````f`8`8`8`8`8`8`h`A`K`A`A`A`u`8`w`L`8`8`t`8`L`w`8`T`i`y`8`8`8`T`T`8`8`s`u```8`8`8`8`8`8`8`8`8`8`8````",
"```8`8`8`f```````f`8`8`8```8`8`f`f`8```8`f`f`8`8`8`8`8`8`8`o`A`K`A`A`A`u`8`8`w`g`g`T`8`B`p`.`e`B`K`8`8`8`8`8`8`8`z`m```8`8`8`8`8`8`8`8`8`8`8````",
"```8`8`8`f```````f`8`8`8```8`8`8`8`O```O`8`8`8`8`8`8`8`8`8`m`A`A`K`K`K`u`8`B`p`i`w`e`8`t`t`t`g`k`H`8`8`8`8`8`8`8`m`A```8`8`8`8`8`8`8`8`8`8`8````",
"```8`8`q`T```````T`q`8`8```8`8`8`8```````8`8`8`8`8`8`8`8`L`m`K`K`A`Q`K`u`8`8`B`p`g`8`8`J`8`p`w`I`H`8`8`8`8`8`8`8`s`u```8`8`8`8`8`8`8`8`8`8`8````",
"```8`f```````````````f`8```8`8`8`8`8`8`8`8`8`8`8`8`8`8`8`t`u`A`K`A`Q`A`K`T`8`8`8`8`8`8`M`T`8`8`H`Q`B`T`8`8`8`8`T`u`m```8`8`8`8`8`8`8`8`8`8`8````",
"```8```````````````````8```L`8`8`8`8`8`8`8`8`8`8`8`8`8`t`F`A`s`K`A`2`A`K`J`8`8`8`B`8`8`8`w`8`8`q`u`u`s`8`8`8`8`8`s`s```8`8`8`8`8`8`8`8`8`8`8````",
"```8`f```````````````f`8```u`T`8`8`8`8`8`8`8`8`8`8`8`8`p`u`K`Q`u`u`2`K`K`N`8`8`8`T`w`J`t`8`8`T`F`L`y`T`8`8`8`8`8`u`f```8`8`8`8`8`8`8`8`8`8`8````",
"```8`8`f`f`8```8`f`f`8`8```u`u`8`8`8`8`8`8`8`8`8`8`8`8`t`s`u`u`K`Q`s`2`F`O`8`8`8`8`T`J`t`T`8`t`K`8`B`O`8`8`8`8`8`m`F```8`8`8`8`8`8`8`8`8`8`8````",
"```8`8`8`8`O```O`8`8`8`8```u`s`8`8`8`8`8`8`8`8`8`8`w`f`#`F`m`s`A`s`u`m`A`B`8`8`8`B`t`w`w`w`8`m`u`L`K`m`8`8`8`8`8`s`A```8`8`8`8`8`8`8`8`8`8`8````",
"```8`8`8`8```````8`8`8`8```s`u`T`8`8`8`8`8`8`8`t`g`#`m`K`#`H`m`s`m`2`A`u`J`8`8`8`8`8`J`8`8`n`u`u`v`m`s`8`8`8`L`v`m`A```8`8`8`8`8`8`8`8`8`8`8````",
"```8`8`8`8`8`8`8`8`8`8`8```m`u`8`8`8`8`8`8`q`j`8`8`#`s`f`u`K`2`f`s`s`m`t`k`p`T`8`8`8`8`L`#`u`u`s`f`u`q`8`T`t`T`8`T`#```8`8`8`8`8`8`8`8`8`8`8````",
"```8`8`8`8`8`8`8`8`8`8`8```m`F`8`8`8`8`t`r`V`T`B`L`#`c`s`4`4`m`F`a`u`K`v`i`t`e`k`B`B`p`.`q`k`d`h`T`8`8`8`t`8`t`.`B`e```8`8`8`8`8`8`8`8`8`8`8````",
"```8`8`8`8`8`8`8`8`8`8`8```s`A`g`8`T`B`L`L`I`L`8`V`#`j`#`#`F`u`d`u`Q`A`F`4`v`2`u`m`Q`t`O`v`h`T`F`f`m`y`p`8`8`b`.`k`B```8`8`8`8`8`8`8`8`8`8`8````",
"```8`8`8`8`8`8`8`8`8`8`8```a`K`.`B`#`G`8`J`8`L`D`V`#`C`V`r`#`a`u`4`4`f`A`d`Q`#`A`d`2`t`v`h`e`7`w`4`f`K`u`T`8`i`.`e`B```8`8`8`8`8`8`8`8`8`8`8````",
"```8`8`8`8`8`8`8`8`8`8`8```s`u`Q`#`c`V`D`8`k`8`C`V`c`x`V`X`V`r`#`#`K`s`a`2`Q`A`a`s`H`v`y`t`y`O`Q`m`s`s`Q`J`8`e`.`g`L```8`8`8`8`8`8`8`8`8`8`8````",
"```8`8`8`8`8`8`8`8`8`8`8```s`K`.`.`a`V`H`L`8`B`M`R`c`x`C`c`V`V`z`s`#`c`u`4`4`4`s`#`f`B`y`q`n`7`v`Q`u`m`Q`N`8`b`e`g`B```8`8`8`8`8`8`8`8`8`8`8````",
"```8`8`8`8`8`8`8`8`8`8`8```A`F`d`d`#`V`8`L`B`8`J`M`a`C`c`a`j`V`z`Q`K`m`#`#`s`#`#`r`C`N`y`e`.`7`7`H`u`m`Q`A`T`t`e`.`p```8`8`8`8`8`8`8`8`8`8`8````",
"```8`8`8`8`8`8`8`8`8`8`8```s`A`n`5`a`8`B`L`V`x`8`T`k`l`j`a`C`V`z`Q`s`K`A`m`#`c`V`V`C`O`v`y`h`7`w`K`m`u`f`#`#`#`v`u`a```8`8`8`8`8`8`8`8`8`8`8````",
"```8`8`8`8`8`8`8`8`8`8`8```d`K`n`.`5`L`y`v`P`z`o`8`b`l`V`r`V`V`z`K`4`m`2`2`K`r`j`c`C`N`f`p`p`U`v`K`4`#`d`N`O`U`U`s`s```8`8`8`8`8`8`8`8`8`8`8````",
"```8`8`8`8`8`8`8`8`8`8`8```s`A`h`q`e`N`F`u`A`Q`4`4`u`n`Y`V`V`V`x`Q`A`K`K`u`K`j`#`#`C`N`n`w`#`O`7`H`s`#`B`I`v`N`U`s`s```8`8`8`8`8`8`8`8`8`8`8````",
"```8`8`8`8`8`8`8`8`8`8`8```f`K`j`N`q`q`q`f`f`#`d`#`u`4`Q`v`X`V`G`Q`Q`m`Q`A`K`c`V`c`V`N`q`v`w`v`N`N`#`y`y`y`B`O`5`u`d```8`8`8`8`8`8`8`8`8`8`8````",
"```8`8`8`8`8`8`8`8`8`8`8```m`A`R`e`N`t`H`d`d`t`#`d`d`#`l`4`H`E`x`Q`Q`u`u`Q`Q`c`V`V`V`K`h`v`N`q`q`#`c`P`B`y`y`N`H`s`u```8`8`8`8`8`8`8`8`8`8`8````",
"```8`8`8`8`8`8`8`8`8`8`8```s`K`#`n`y`v`n`U`#`c`B`n`I`a`f`#`s`4`s`Q`A`u`u`s`2`c`V`r`V`P`y`y`b`.`#`c`C`r`y`y`w`U`y`A`A```8`8`8`8`8`8`8`8`8`8`8````",
"```8`8`8`8`8`8`8`8`8`8`8```K`H`#`C`q`H`B`d`H`n`J`a`q`#`d`d`#`#`5`u`2`A`2`Q`2`j`r`a`V`C`N`y`y`q`a`C`a`C`0`t`H`y`N`u`s```8`8`8`8`8`8`8`8`8`8`8````",
"```8`8`8`8`8`8`8`8`8`8`8```u`K`c`C`l`n`N`k`N`d`#`v`q`q`J`n`q`n`#`K`K`m`Q`s`2`j`c`a`C`C`N`a`J`y`a`C`#`C`r`N`t`B`N`u`u```8`8`8`8`8`8`8`8`8`8`8````",
"```8`8`8`8`8`8`8`8`8`8`8```a`Q`#`j`V`q`w`t`a`U`Q`F`#`f`v`#`v`t`#`#`E`Q`u`A`2`c`V`C`V`V`0`q`y`b`a`c`R`#`C`F`y`H`N`u`s```8`8`8`8`8`8`8`8`8`8`8````",
"```8`8`8`8`8`8`8`8`8`8`8```s`A`c`j`C`x`y`N`y`v`p`s`4`A`#`v`d`v`#`n`#`u`Q`A`2`#`V`X`V`j`k`t`y`y`p`d`V`#`C`C`B`N`N`u`s```8`8`8`8`8`8`8`8`8`8`8````",
"```8`8`8`8`8`8`8`8`8`8`8```m`H`#`C`#`C`a`e`J`a`7`.`.`n`4`d`f`v`f`q`w`#`F`H`Q`c`V`V`.`b`F`U`f`t`y`d`j`R`#`C`z`w`N`A`f```8`8`8`8`8`8`8`8`8`8`8````",
"```8`8`8`8`8`8`8`8`8`8`8```s`A`#`V`r`x`r`y`y`h`v`p`.`.`.`4`s`f`J`#`y`#`#`H`K`#`C`.`n`4`u`U`n`N`e`a`a`C`c`C`r`u`y`u`A```8`8`8`8`8`8`8`8`8`8`8````",
"```8`8`8`8`8`8`8`8`8`8`8```u`A`a`C`C`#`V`u`v`N`e`7`.`e`4`u`K`F`B`d`q`c`h`#`F`s`.`K`2`F`A`A`p`h`v`v`d`C`R`#`V`c`N`u`A```8`8`8`8`8`8`8`8`8`8`8````",
"```8`8`8`8`8`8`8`8`8`8`8```A`u`N`j`V`a`V`r`d`v`v`h`p`A`A`A`2`K`.`s`A`#`n`#`q`d`B`F`K`A`4`g`.`7`b`N`t`u`V`#`C`V`a`A`u```8`8`8`8`8`8`8`8`8`8`8````",
"```8`8`8`8`8`8`8`8`8`8`8```A`u`H`v`r`C`a`C`a`a`e`N`n`U`u`4`n`.`C`c`K`H`#`#`I`#`J`f`s`2`.`.`.`p`H`h`H`v`r`r`r`C`#`K`m```8`8`8`8`8`8`8`8`8`8`8````",
"```8`8`8`8`8`8`8`8`8`8`8```f`F`N`y`x`C`c`R`j`f`y`t`f`U`F`b`.`V`V`#`Q`K`y`#`w`q`n`q`f`l`4`q`.`.`7`.`N`e`a`C`a`R`#`A`n```8`8`8`8`8`8`8`8`8`8`8````",
"```8`8`8`8`8`8`8`8`8`8`8```s`u`N`J`N`r`C`#`V`d`n`w`y`t`q`j`V`V`V`c`2`A`Q`z`#`f`c`v`f`v`#`A`4`m`q`v`t`N`w`x`C`j`#`K`s```8`8`8`8`8`8`8`8`8`8`8````",
"```8`8`8`8`8`8`8`8`8`8`8```m`A`H`N`y`F`C`c`R`c`a`b`y`q`F`V`V`G`V`c`2`A`u`Q`u`#`#`v`t`#`q`f`#`F`Q`U`a`t`y`y`V`c`#`K`d```8`8`8`8`8`8`8`8`8`8`8````",
"```8`8`8`8`8`8`8`8`8`8`8```u`u`N`w`t`N`r`C`#`C`a`y`B`d`3`V`C`a`j`j`2`s`Q`m`Q`H`#`h`q`n`O`q`q`v`#`d`N`n`N`h`l`C`j`K`u```8`8`8`8`8`8`8`8`8`8`8````",
"```8`8`8`8`8`8`8`8`8`8`8```s`u`N`y`H`t`0`C`#`R`#`t`v`y`N`C`R`#`r`c`2`Q`2`A`2`u`2`c`#`d`d`#`q`a`J`f`H`f`w`y`q`C`#`K`K```8`8`8`8`8`8`8`8`8`8`8````",
"```8`8`8`8`8`8`8`8`8`8`8```A`A`y`7`w`y`y`r`C`#`#`#`e`y`y`z`V`r`V`c`2`s`u`u`u`Q`q`4`s`#`d`d`I`h`I`d`#`U`n`v`y`q`#`K`s```8`8`8`8`8`8`8`8`8`8`8````",
"```8`8`8`8`8`8`8`8`8`8`8```u`u`H`I`y`y`B`E`c`#`q`q`B`v`h`K`V`V`V`j`Q`Q`u`u`Q`2`x`E`H`4`o`#`a`d`#`v`d`d`H`w`N`e`R`A`f```8`8`8`8`8`8`8`8`8`8`8````",
"```8`8`8`8`8`8`8`8`8`8`8```d`u`U`O`B`y`y`y`#`Q`J`v`y`y`p`N`V`j`R`j`K`A`Q`m`0`N`G`V`X`v`Q`4`u`c`e`#`d`f`q`q`q`H`j`A`m```8`8`8`8`8`8`8`8`8`8`8````",
"```8`8`8`8`8`8`8`8`8`8`8```s`s`U`H`v`B`J`#`s`H`7`O`#`t`n`2`C`#`#`c`K`u`K`A`K`K`x`V`V`V`Y`f`u`4`4`K`A`A`u`N`e`q`k`A`s```8`8`8`8`8`8`8`8`8`8`8````",
"```8`8`8`8`8`8`8`8`8`8`8```s`s`U`7`O`N`d`#`2`K`v`U`p`v`f`B`C`c`j`r`K`Q`2`s`4`Q`z`V`V`r`V`x`b`M`n`P`F`E`y`T`5`.`f`K`d```8`8`8`8`8`8`8`8`8`8`8````",
"```8`8`8`8`8`8`8`8`8`8`8```a`u`v`#`#`#`d`u`m`Q`w`7`h`y`w`N`C`V`V`j`#`m`K`K`m`Q`z`V`r`c`c`x`h`T`8`C`V`J`B`8`#`5`n`K`s```8`8`8`8`8`8`8`8`8`8`8````",
"```8`8`8`8`8`8`8`8`8`8`8```p`.`f`t`T`A`Q`s`u`H`7`7`.`e`y`J`C`r`#`#`m`#`#`m`K`Q`z`V`r`a`c`r`a`8`B`8`B`L`8`R`#`f`d`A`A```8`8`8`8`8`8`8`8`8`8`8````",
"```8`8`8`8`8`8`8`8`8`8`8```B`g`e`b`8`N`Q`m`u`Q`v`U`q`q`y`B`f`#`s`4`4`6`u`#`#`s`z`V`V`a`R`x`c`R`M`J`8`L`I`V`c`.`#`K`m```8`8`8`8`8`8`8`8`8`8`8````",
"```8`8`8`8`8`8`8`8`8`8`8```L`g`.`e`8`J`K`s`s`m`Q`O`y`v`v`y`A`s`a`u`Q`0`a`u`K`#`#`r`V`V`V`C`#`V`C`8`k`8`z`V`c`#`H`F`s```8`8`8`8`8`8`8`8`8`8`8````",
"```8`8`8`8`8`8`8`8`8`8`8```B`e`.`i`8`T`A`K`d`4`w`7`e`k`t`t`2`d`K`#`Q`f`u`f`4`4`u`a`#`r`X`C`a`V`E`J`8`J`8`P`#`B`.`K`a```8`8`8`8`8`8`8`8`8`8`8````",
"```8`8`8`8`8`8`8`8`8`8`8```B`i`.`b`8`8`p`y`m`f`F`7`f`y`O`v`N`m`s`2`A`2`K`A`Q`u`a`u`F`#`#`c`c`V`M`L`I`L`L`t`T`8`g`A`s```8`8`8`8`8`8`8`8`8`8`8````",
"```8`8`8`8`8`8`8`8`8`8`8```e`B`.`t`8`t`8`8`8`T`h`d`k`k`#`p`B`B`q`e`t`i`v`K`s`d`F`s`4`4`s`c`#`O`B`8`V`r`t`8`8`8`8`F`m```8`8`8`8`8`8`8`8`8`8`8````",
"```8`8`8`8`8`8`8`8`8`8`8```#`T`8`T`t`T`8`q`u`f`s`u`u`a`L`8`8`8`8`T`k`i`v`m`s`s`d`2`K`s`m`s`#`8`8`c`q`8`8`8`8`8`8`s`s```8`8`8`8`8`8`8`8`8`8`8````",
"```8`8`8`8`8`8`8`8`8`8`8```A`m`t`T`8`8`8`s`m`u`u`u`n`8`8`B`8`8`8`8`8`J`u`A`2`s`s`m`K`#`K`m`#`e`t`8`8`8`8`8`8`8`T`u`s```8`8`8`8```````8`8`8`8````",
"```8`8`8`8`8`8`8`8`8`8`8```A`u`8`8`8`8`8`m`K`L`u`n`8`w`w`w`t`B`8`8`8`J`A`m`u`s`A`s`m`A`#`f`w`8`8`8`8`8`8`8`8`8`8`s`u```8`8`8`8`O```O`8`8`8`8````",
"```8`8`8`8`8`8`8`8`8`8`8```u`s`T`8`8`8`8`O`B`8`Q`t`8`T`t`J`T`8`8`8`8`N`A`2`s`Q`K`u`u`s`t`8`8`8`8`8`8`8`8`8`8`8`8`u`u```8`8`f`f`8```8`f`f`8`8````",
"```8`8`8`8`8`8`8`8`8`8`8```n`u`8`8`8`8`8`T`y`L`F`M`8`8`t`J`t`T`8`8`8`J`K`K`2`s`u`Q`K`u`p`8`8`8`8`8`8`8`8`8`8`8`8`T`u```8`f```````````````f`8````",
"```8`8`8`8`8`8`8`8`8`8`8```s`s`8`8`8`8`8`u`u`u`m`8`8`w`8`8`8`B`8`8`8`J`K`A`2`A`Q`s`F`u`t`8`8`8`8`8`8`8`8`8`8`8`8`8`L```8```````````````````8````",
"```8`8`8`8`8`8`8`8`8`8`8```m`s`8`8`8`8`8`T`w`Q`I`8`8`T`T`8`8`8`8`8`8`T`K`A`Q`A`F`K`u`t`8`8`8`8`8`8`8`8`8`8`8`8`8`8`8```8`f```````````````f`8````",
"```8`8`8`8`8`8`8`8`8`8`8```u`s`8`8`8`8`8`8`8`H`I`w`p`8`L`8`8`g`p`B`8`8`F`K`Q`A`K`A`m`M`8`8`8`8`8`8`8`8```````8`8`8`8```8`8`q`T```````T`q`8`8````",
"```8`8`8`8`8`8`8`8`8`8`8```A`s`T`8`8`8`8`8`8`H`q`g`t`t`t`8`e`t`k`p`B`8`s`K`K`K`A`A`m`8`8`8`8`8`8`8`8`8`O```O`8`8`8`8```8`8`8`f```````f`8`8`8````",
"```8`8`8`8`8`8`8`8`8`8`8```m`s`8`8`8`8`8`8`8`K`w`e`.`p`B`8`T`g`g`B`8`8`u`A`K`A`K`A`l`8`8`8`8`8`8`8`f`f`8```8`f`f`8`8```8`8`8`f```````f`8`8`8````",
"```8`8`8`8`8`8`8`8`8`8`8```u`s`8`8`T`T`8`8`8`y`p`M`8`w`L`8`t`8`8`J`w`8`u`A`A`F`H`A`k`8`8`8`8`8`8`f```````````````f`8```8`8`8`8`f`f`f`8`8`8`8````",
"```8`8`8`8`8`8`8`8`8`8`8```m`u`T`8`O`m`J`8`8`y`L`8`J`8`8`8`T`w`w`T`8`O`K`u`A`A`K`u`t`8`8`8`8`8`8```````````````````8```8`8`8`8`8`8`8`8`8`8`8````",
"```8`8`8`8`8`8`8`8`8`8`8```n`A`8`8`8`s`u`p`8`N`B`8`8`8`8`8`8`8`8`8`8`N`A`K`A`K`u`m`M`8`8`8`8`8`8`f```````````````f`8```8`8`8`8`8`8`8`8`8`8`8````",
"```8`8`8`8`8`8`8`8`8`8`8```C`C`j`8`8`F`a`K`M`#`#`#`#`#`#`.`#`.`a`b`a`c`#`#`#`#`#`#`T`8`8`8`8`8`8`8`q`T```````T`q`8`8```8`8`8`8`n`````n`8`8`8````",
"```8`8`8`8`8`8`8`8`8`8`8```x`C`v`8`8`K`m`K`v`C`r`c`c`#`#`a`#`a`#`#`a`#`c`d`r`x`V`V`r`8`8`8`8`8`8`8`8`f```````f`8`8`8```8`8`8`n`````````q`8`8````",
"```8`8`8`8`8`8`8`8`8`8`8```C`r`8`8`8`y`Q`s`G`C`R`V`V`X`V`V`V`V`X`V`V`V`X`V`V`V`l`C`V`f`8`8`8`8`8`8`8`f```````f`8`8`8```8`8`8`````8`8`````8`8````",
"```8`8`8`8`8`8`8`8`8`8`8```r`8`8`8`8`8`u`A`V`a`a`a`a`j`R`d`l`c`j`d`r`G`#`a`c`l`C`d`r`V`t`8`8`8`8`8`8`8`f`f`f`8`8`8`8```8`8`8`````8`8`````8`8````",
"```8`8`8`8`8`8`8`8`8`8`8```w`8`8`8`8`8`8`r`j`V`V`V`a`C`d`C`V`X`V`R`c`R`a`V`X`V`V`V`a`C`C`O`8`8`8`8`8`8`8`8`8`8`8`8`8```8`8`8`````8`8`8`8`8`8````",
"```8`8`8`8`8`8`8`8`8`8`8```````````````````````````````````````````````````````````````````````````````````````````````8`8`8`````8`8`8`8`8`8````",
"```8`8`8`8`8`8`8`8`8`8`8`8`8`8`8`8`8`8`8`8`8`8`8`8`8`8`8`8`8`8`8`8`8`8`8`8`8`8`8`8`8`8`8`8`8`8`8`8`8`8`8`8`8`8`8`8`8`8`8`8`8`````8`8`8`8`8`8````",
"```8`8`8`8`8`8`8`8`8`8`8`8`8`8`8`8`8`8`8`8`8`8`8`8`8`8`8`8`8`8`8`8`8`8`8`8`8`8`8`8`8`8`8`8`8`8`8`8`8`8`8`8`8`8`8`8`8`8`8`8`8`````8`8`8`8`8`8````",
"```8`8`8`8`8`8`8`8`8`8`8`8`8`8`8`8`8`8`8`8`8`8`8`8`8`8`8`8`8`8`8`8`8`8`8`8`8`8`8`8`8`8`8`8`8`8`8`8`8`8`8`8`8`8`8`8`8`8`8`8`8`````8`8`8`8`8`8````",
"```8`8`8`8`8`8`8`8`8`8`8`8`8`8`8`8`8`8`8`8`8`8`8`8`8`8`8`8`8`8`8`8`8`8`8`8`8`8`8`8`8`8`8`8`8`8`8`8`8`8`8`8`8`8`8`8`8`8`8`8`8`````8`8`8`8`8`8````",
"```8`8`8`8`8`8`8`8`8`8`8`8`8`8`8`8`8`8`8`8`8`8`8`8`8`8`8`8`8`8`8`8`8`8`8`8`8`8`8`8`8`8`8`8`8`8`8`8`8`8`8`8`8`8`8`8`8`8`8`8`````````8`8`8`8`8````",
"```8`8`8`8`8`8`8`8`8`8`8`8`8`8`8`8`8`8`8`8`8`8`8`8`8`8`8`8`8`8`8`8`8`8`8`8`8`8`8`8`8`8`8`8`8`8`8`8`8`8`8`8`8`8`8`8`8`8`8`8`````````8`8`8`8`8````",
"```8`8`8`8`8`8`8`8`8`8`8`8`8`8`8`8`8`8`8`8`8`8`8`8`8`8`8`8`8`8`8`8`8`8`8`8`8`8`8`8`8`8`8`8`8`8`8`8`8`8`8`8`8`8`8`8`8`8`8`8`8`8`8`8`8`8`8`8`8````",
"```8`8`8`8`8`8`8`8`8`8`8`8`8`8`8`8`8`8`8`8`8`8`8`8`8`8`8`8`8`8`8`8`8`8`8`8`8`8`8`8`8`8`8`8`8`8`8`8`8`8`8`8`8`8`8`8`8`8`8`8`8`8`8`8`8`8`8`8`8````",
"```y`8`8`8`8`8`8`8`8`8`8`8`8`8`8`8`8`8`8`8`8`8`8`8`8`8`8`8`8`8`8`8`8`8`8`8`8`8`8`8`8`8`8`8`8`8`8`8`8`8`8`8`8`8`8`8`8`8`8`8`8`8`8`8`8`8`8`8`y```q",
"`q```````````````````````````````````````````````````````````````````````````````````````````````````````````````````````````````````````````q``"
};
