/* XPM */
static char *face_22_xpm[] = {
/* width height num_colors chars_per_pixel */
"    72    96       16            1",
/* colors */
"` c #ffffff",
". c #ff0008",
"# c #000000",
"a c #ff4a4a",
"b c #ff737b",
"c c #ffbdbd",
"d c #ff9c9c",
"e c #73735a",
"f c #9c9473",
"g c #001084",
"h c #081018",
"i c #102129",
"j c #10298c",
"k c #291018",
"l c #293131",
"m c #293184",
/* pixels */
"e#####################################################################e#",
"#f```````````````````````````````````````````````````````````````````f##",
"#`````````````````````````````````````````````````````````````````````##",
"#`````````````````````````````````````````````````````````````````````##",
"#``..``b..b```````````````````````````````````````````````````````````##",
"#``..`b....b``````````````````````````````````````````````````````````##",
"#``..`..``..``````````````````````````````````````````````````````````##",
"#``..`..``..``````````````````````````````````````````````````````````##",
"#``..`..``..``````````````````````````````````````````````````````````##",
"#``..`..``..``````````b`````````````````````````b`````````````````````##",
"#``..`..``..`````````bab```````````````````````bab````````````````````##",
"#``..`..``..````````ca.ac`````````````````````ca.ac```````````````````##",
"#``..`..``..````````a...a`````````````````````a...a```````````````````##",
"#``..`..``..```````a.....a```````````````````a.....a``````````````````##",
"#``..`b....b``````b.......b`````````````````b.......b`````````````````##",
"#``..``b..b``````c.........c```````````````c.........c````````````````##",
"#````````````````a.........a```````````````a.........a````````````````##",
"#````````````````a.........a```````````````a.........a````````````````##",
"#``````c`````````c.........c```````````````c.........c````````````````##",
"#``````.``````````b.......b````````b````````b.......b`````````````````##",
"#`````b.b``````````a.....a````````bab````````a.....a``````````````````##",
"#````d...d``````````a...a````````ca.ac````````a...a```````````````````##",
"#```c.....c`````````ca.ac````````a...a````````ca.ac```````````````````##",
"#```.......``````````bab````````a.....a````````bab````````````````````##",
"#```c.....c```````````b````````b.......b````````b`````````````````````##",
"#````d...d````````````````````c.........c`````````````````````````````##",
"#`````b.b`````````````````````a.........a`````````````````````````````##",
"#``````.``````````````````````a.........a`````````````````````````````##",
"#``````c``````````````````````c.........c`````````````````````````````##",
"#``````````````````````````````b.......b``````````````````````````````##",
"#`````````````````````b`````````a.....a`````````b`````````````````````##",
"#````````````````````bab`````````a...a`````````bab````````````````````##",
"#```````````````````ca.ac````````ca.ac````````ca.ac```````````````````##",
"#```````````````````a...a`````````bab`````````a...a```````````````````##",
"#``````````````````a.....a`````````b`````````a.....a``````````````````##",
"#`````````````````b.......b`````````````````b.......b`````````````````##",
"#````````````````c.........c```````````````c.........c````````````````##",
"#````````````````a.........a```````````````a.........a````````````````##",
"#````````````````a.........a```````````````a.........a````````````````##",
"#````````````````c.........c```````````````c.........c````````````````##",
"#`````````````````b.......b`````````````````b.......b`````````````````##",
"#``````````````````a.....a```````````````````a.....a``````````````````##",
"#```````````````````a...a`````````````````````a...a```````````````````##",
"#```````````````````ca.ac`````````````````````ca.ac```````````````````##",
"#````````````````````bab```````````````````````bab````````````````````##",
"#`````````````````````b`````````````````````````b`````````````````````##",
"#`````````````````````````````````````````````````````````````````````##",
"#`````````````````````````````````````````````````````````````````````##",
"#`````````````````````````````````````````````````````````````````````##",
"#`````````````````````````````````````````````````````````````````````##",
"#`````````````````````b`````````````````````````b`````````````````````##",
"#````````````````````bab```````````````````````bab````````````````````##",
"#```````````````````ca.ac`````````````````````ca.ac```````````````````##",
"#```````````````````a...a`````````````````````a...a```````````````````##",
"#``````````````````a.....a```````````````````a.....a``````````````````##",
"#`````````````````b.......b`````````````````b.......b`````````````````##",
"#````````````````c.........c```````````````c.........c````````````````##",
"#````````````````a.........a```````````````a.........a````````````````##",
"#````````````````a.........a```````````````a.........a````````````````##",
"#````````````````c.........c```````````````c.........c````````````````##",
"#`````````````````b.......b`````````````````b.......b`````````````````##",
"#``````````````````a.....a`````````b`````````a.....a``````````````````##",
"#```````````````````a...a`````````bab`````````a...a```````````````````##",
"#```````````````````ca.ac````````ca.ac````````ca.ac```````````````````##",
"#````````````````````bab`````````a...a`````````bab````````````````````##",
"#`````````````````````b`````````a.....a`````````b`````````````````````##",
"#``````````````````````````````b.......b``````````````````````````````##",
"#`````````````````````````````c.........c``````````````````````c``````##",
"#`````````````````````````````a.........a``````````````````````.``````##",
"#`````````````````````````````a.........a`````````````````````b.b`````##",
"#`````````````````````````````c.........c````````````````````d...d````##",
"#`````````````````````b````````b.......b````````b```````````c.....c```##",
"#````````````````````bab````````a.....a````````bab``````````.......```##",
"#```````````````````ca.ac````````a...a````````ca.ac`````````c.....c```##",
"#```````````````````a...a````````ca.ac````````a...a``````````d...d````##",
"#``````````````````a.....a````````bab````````a.....a``````````b.b`````##",
"#`````````````````b.......b````````b````````b.......b``````````.``````##",
"#````````````````c.........c```````````````c.........c`````````c``````##",
"#````````````````a.........a```````````````a.........a````````````````##",
"#````````````````a.........a```````````````a.........a````````````````##",
"#````````````````c.........c```````````````c.........c``````b..b``..``##",
"#`````````````````b.......b`````````````````b.......b``````b....b`..``##",
"#``````````````````a.....a```````````````````a.....a```````..``..`..``##",
"#```````````````````a...a`````````````````````a...a````````..``..`..``##",
"#```````````````````ca.ac`````````````````````ca.ac````````..``..`..``##",
"#````````````````````bab```````````````````````bab`````````..``..`..``##",
"#`````````````````````b`````````````````````````b``````````..``..`..``##",
"#``````````````````````````````````````````````````````````..``..`..``##",
"#``````````````````````````````````````````````````````````..``..`..``##",
"#``````````````````````````````````````````````````````````..``..`..``##",
"#``````````````````````````````````````````````````````````b....b`..``##",
"#```````````````````````````````````````````````````````````b..b``..``##",
"#`````````````````````````````````````````````````````````````````````##",
"#`````````````````````````````````````````````````````````````````````##",
"#f```````````````````````````````````````````````````````````````````f#e",
"e#####################################################################e#"
};
