/* XPM */
static char *face_35_xpm[] = {
/* width height num_colors chars_per_pixel */
"    72    96       16            1",
/* colors */
"` c #ffffff",
". c #ff0008",
"# c #000000",
"a c #ff3131",
"b c #ffbdbd",
"c c #ff737b",
"d c #ff4a4a",
"e c #73735a",
"f c #9c9473",
"g c #001084",
"h c #081018",
"i c #102129",
"j c #10298c",
"k c #291018",
"l c #293131",
"m c #293184",
/* pixels */
"e#####################################################################e#",
"#f```````````````````````````````````````````````````````````````````f##",
"#`````````````````````````````````````````````````````````````````````##",
"#`````````````````````````````````````````````````````````````````````##",
"#``..``c..c```````````````````````````````````````````````````````````##",
"#``..`c....c``````````````````````````````````````````````````````````##",
"#``..`..``..``````````````````````````````````````````````````````````##",
"#``..`..``..``````````````````````````````````````````````````````````##",
"#``..`..``..``````````````````````````````````````````````````````````##",
"#``..`..``..``````````````````````````````````````````````````````````##",
"#``..`..``..`````caab```baac```````````````caab```baac````````````````##",
"#``..`..``..````c....c`c....c`````````````c....c`c....c```````````````##",
"#``..`..``..```b......b......b```````````b......b......b``````````````##",
"#``..`..``..```a......c......a```````````a......c......a``````````````##",
"#``..`c....c```...............```````````...............``````````````##",
"#``..``c..c````a.............a```````````a.............a``````````````##",
"#``````````````ca...........ac```````````ca...........ac``````````````##",
"#``````````````baa.........aab```````````baa.........aab``````````````##",
"#```````````````ba.........ab`````````````ba.........ab```````````````##",
"#```ddb`bdd``````ba.......ab```````````````ba.......ab````````````````##",
"#``d..dbd..d``````ba.....ab```caab```baac```ba.....ab`````````````````##",
"#``.........```````ba...ab```c....c`c....c```ba...ab``````````````````##",
"#``d.......d````````ba.ab```b......b......b```ba.ab```````````````````##",
"#``b.......b`````````b.b````a......c......a````b.b````````````````````##",
"#```d.....d```````````b`````...............`````b`````````````````````##",
"#```bd...db`````````````````a.............a```````````````````````````##",
"#````bd.db``````````````````ca...........ac```````````````````````````##",
"#`````bdb```````````````````baa.........aab```````````````````````````##",
"#``````b`````````````````````ba.........ab````````````````````````````##",
"#`````````````````````````````ba.......ab`````````````````````````````##",
"#``````````````````````````````ba.....ab``````````````````````````````##",
"#````````````````caab```baac````ba...ab````caab```baac````````````````##",
"#```````````````c....c`c....c````ba.ab````c....c`c....c```````````````##",
"#``````````````b......b......b````b.b````b......b......b``````````````##",
"#``````````````a......c......a`````b`````a......c......a``````````````##",
"#``````````````...............```````````...............``````````````##",
"#``````````````a.............a```````````a.............a``````````````##",
"#``````````````ca...........ac```````````ca...........ac``````````````##",
"#``````````````baa.........aab```````````baa.........aab``````````````##",
"#```````````````ba.........ab`````````````ba.........ab```````````````##",
"#````````````````ba.......ab```````````````ba.......ab````````````````##",
"#`````````````````ba.....ab`````````````````ba.....ab`````````````````##",
"#``````````````````ba...ab```````````````````ba...ab``````````````````##",
"#```````````````````ba.ab`````````````````````ba.ab```````````````````##",
"#````````````````````b.b```````````````````````b.b````````````````````##",
"#`````````````````````b`````````````````````````b`````````````````````##",
"#`````````````````````````````````````````````````````````````````````##",
"#`````````````````````````````````````````````````````````````````````##",
"#`````````````````````````````````````````````````````````````````````##",
"#`````````````````````````````````````````````````````````````````````##",
"#`````````````````````b`````````````````````````b`````````````````````##",
"#````````````````````b.b```````````````````````b.b````````````````````##",
"#```````````````````ba.ab`````````````````````ba.ab```````````````````##",
"#``````````````````ba...ab```````````````````ba...ab``````````````````##",
"#`````````````````ba.....ab`````````````````ba.....ab`````````````````##",
"#````````````````ba.......ab```````````````ba.......ab````````````````##",
"#```````````````ba.........ab`````````````ba.........ab```````````````##",
"#``````````````baa.........aab```````````baa.........aab``````````````##",
"#``````````````ca...........ac```````````ca...........ac``````````````##",
"#``````````````a.............a```````````a.............a``````````````##",
"#``````````````...............```````````...............``````````````##",
"#``````````````a......c......a`````b`````a......c......a``````````````##",
"#``````````````b......b......b````b.b````b......b......b``````````````##",
"#```````````````c....c`c....c````ba.ab````c....c`c....c```````````````##",
"#````````````````caab```baac````ba...ab````caab```baac````````````````##",
"#``````````````````````````````ba.....ab``````````````````````````````##",
"#`````````````````````````````ba.......ab`````````````````````````````##",
"#````````````````````````````ba.........ab`````````````````````b``````##",
"#```````````````````````````baa.........aab```````````````````bdb`````##",
"#```````````````````````````ca...........ac``````````````````bd.db````##",
"#```````````````````````````a.............a`````````````````bd...db```##",
"#`````````````````````b`````...............`````b```````````d.....d```##",
"#````````````````````b.b````a......c......a````b.b`````````b.......b``##",
"#```````````````````ba.ab```b......b......b```ba.ab````````d.......d``##",
"#``````````````````ba...ab```c....c`c....c```ba...ab```````.........``##",
"#`````````````````ba.....ab```caab```baac```ba.....ab``````d..dbd..d``##",
"#````````````````ba.......ab```````````````ba.......ab``````ddb`bdd```##",
"#```````````````ba.........ab`````````````ba.........ab```````````````##",
"#``````````````baa.........aab```````````baa.........aab``````````````##",
"#``````````````ca...........ac```````````ca...........ac``````````````##",
"#``````````````a.............a```````````a.............a````c..c``..``##",
"#``````````````...............```````````...............```c....c`..``##",
"#``````````````a......c......a```````````a......c......a```..``..`..``##",
"#``````````````b......b......b```````````b......b......b```..``..`..``##",
"#```````````````c....c`c....c`````````````c....c`c....c````..``..`..``##",
"#````````````````caab```baac```````````````caab```baac`````..``..`..``##",
"#``````````````````````````````````````````````````````````..``..`..``##",
"#``````````````````````````````````````````````````````````..``..`..``##",
"#``````````````````````````````````````````````````````````..``..`..``##",
"#``````````````````````````````````````````````````````````..``..`..``##",
"#``````````````````````````````````````````````````````````c....c`..``##",
"#```````````````````````````````````````````````````````````c..c``..``##",
"#`````````````````````````````````````````````````````````````````````##",
"#`````````````````````````````````````````````````````````````````````##",
"#f```````````````````````````````````````````````````````````````````f#e",
"e#####################################################################e#"
};
