/* XPM */
static char * green_arrow_right_xpm[] = {
"16 16 5 1",
" 	c None",
".	c #356B1A",
"+	c #FFFFFF",
"@	c #CDF9B7",
"#	c #6AEE27",
"                ",
"         .      ",
"         ..     ",
"         .+.    ",
"..........++.   ",
".++++++++++@+.  ",
".+##########@+. ",
".+###########@+.",
".+###########@+.",
".+##########@+. ",
".++++++++++@+.  ",
"..........++.   ",
"         .+.    ",
"         ..     ",
"         .      ",
"                "};
