/* XPM */
static char * green_arrow_bottom_xpm[] = {
"16 16 5 1",
" 	c None",
".	c #356B1A",
"+	c #FFFFFF",
"@	c #6AEE27",
"#	c #CDF9B7",
"    ........    ",
"    .++++++.    ",
"    .+@@@@+.    ",
"    .+@@@@+.    ",
"    .+@@@@+.    ",
"    .+@@@@+.    ",
"    .+@@@@+.    ",
"    .+@@@@+.    ",
"    .+@@@@+.    ",
" ....+@@@@+.... ",
"  .+++@@@@+++.  ",
"   .+#@@@@#+.   ",
"    .+#@@#+.    ",
"     .+##+.     ",
"      .++.      ",
"       ..       "};
