/* XPM */
static char const * help_xpm[] = {
"16 16 46 1",
" 	c None",
".	c #612E21",
"+	c #3E231C",
"@	c #D94623",
"#	c #DC5433",
"$	c #D63710",
"%	c #D63913",
"&	c #D94723",
"*	c #DC5533",
"=	c #DE6244",
"-	c #D63A13",
";	c #E37E66",
">	c #FFFFFF",
",	c #DF6345",
"'	c #E27055",
")	c #D6370F",
"!	c #E37D65",
"~	c #E47F67",
"{	c #E17156",
"]	c #E47F66",
"^	c #E37E65",
"/	c #D94925",
"(	c #DC5635",
"_	c #DF6445",
":	c #E27156",
"<	c #E57F66",
"[	c #E27458",
"}	c #D63B15",
"|	c #D94926",
"1	c #DC5736",
"2	c #DF6446",
"3	c #E27257",
"4	c #E48067",
"5	c #E27358",
"6	c #DF6548",
"7	c #D73C16",
"8	c #DC5737",
"9	c #DF6547",
"0	c #E27357",
"a	c #E58067",
"b	c #DA4A27",
"c	c #DD5837",
"d	c #DF6546",
"e	c #DD5838",
"f	c #DF6648",
"g	c #DF6649",
"      .+        ",
"    .+@#.       ",
"  .+$%&*=.      ",
".+$$$-;>,'.     ",
"+)$!!>>~~{].    ",
"..$$>^/(_:<[.   ",
"+..$$}|123456.  ",
"++..)7|890a098. ",
" ++..7bc65a3d.+ ",
"  ++..bef[].+>> ",
"   ++..eg.+>>>> ",
"    ++..+>>>>.+ ",
"     ++.>>>.+   ",
"      ++>.+     ",
"       ++       ",
"                "};
