/* XPM */
static char *joker_01_xpm[] = {
/* width height num_colors chars_per_pixel */
"    72    96      256            2",
/* colors */
"`` c #ffffff",
"`. c #000000",
"`# c #293131",
"`a c #947b84",
"`b c #e7e7f7",
"`c c #bdbdce",
"`d c #4263bd",
"`e c #e72929",
"`f c #633173",
"`g c #bd9ca5",
"`h c #10298c",
"`i c #394aa5",
"`j c #ceb563",
"`k c #bd3129",
"`l c #ad1018",
"`m c #949cbd",
"`n c #ad5263",
"`o c #293184",
"`p c #ff9c31",
"`q c #ffde63",
"`r c #9c2929",
"`s c #b57384",
"`t c #9c9473",
"`u c #ceceb5",
"`v c #bd9c5a",
"`w c #de524a",
"`x c #c6def7",
"`y c #73735a",
"`z c #525a9c",
"`A c #a5b5de",
"`B c #5a5252",
"`C c #637bad",
"`D c #521021",
"`E c #7b94c6",
"`F c #e77b21",
"`G c #5a2929",
"`H c #ff0008",
"`I c #394239",
"`J c #f7dea5",
"`K c #7b1018",
"`L c #ffbdbd",
"`M c #001084",
"`N c #b57b21",
"`O c #947b21",
"`P c #deb521",
"`Q c #ff3131",
"`R c #ff737b",
"`S c #ff9c9c",
"`T c #ffbd21",
"`U c #081018",
"`V c #102129",
"`W c #291018",
"`X c #425a52",
"`Y c #5a5221",
"`Z c #7b7329",
"`0 c #a55221",
"`1 c #a59429",
"`2 c #c69c21",
"`3 c #c6f7ff",
"`4 c #ff00ff",
"`5 c #ff4a4a",
"`6 c #ffde18",
"`7 c #ffff29",
"`8 c #ffffa5",
".` c #000000",
".. c #000000",
".# c #000000",
".a c #000000",
".b c #000000",
".c c #000000",
".d c #000000",
".e c #000000",
".f c #000000",
".g c #000000",
".h c #000000",
".i c #000000",
".j c #000000",
".k c #000000",
".l c #000000",
".m c #000000",
".n c #000000",
".o c #000000",
".p c #000000",
".q c #000000",
".r c #000000",
".s c #000000",
".t c #000000",
".u c #000000",
".v c #000000",
".w c #000000",
".x c #000000",
".y c #000000",
".z c #000000",
".A c #000000",
".B c #000000",
".C c #000000",
".D c #000000",
".E c #000000",
".F c #000000",
".G c #000000",
".H c #000000",
".I c #000000",
".J c #000000",
".K c #000000",
".L c #000000",
".M c #000000",
".N c #000000",
".O c #000000",
".P c #000000",
".Q c #000000",
".R c #000000",
".S c #000000",
".T c #000000",
".U c #000000",
".V c #000000",
".W c #000000",
".X c #000000",
".Y c #000000",
".Z c #000000",
".0 c #000000",
".1 c #000000",
".2 c #000000",
".3 c #000000",
".4 c #000000",
".5 c #000000",
".6 c #000000",
".7 c #000000",
".8 c #000000",
"#` c #000000",
"#. c #000000",
"## c #000000",
"#a c #000000",
"#b c #000000",
"#c c #000000",
"#d c #000000",
"#e c #000000",
"#f c #000000",
"#g c #000000",
"#h c #000000",
"#i c #000000",
"#j c #000000",
"#k c #000000",
"#l c #000000",
"#m c #000000",
"#n c #000000",
"#o c #000000",
"#p c #000000",
"#q c #000000",
"#r c #000000",
"#s c #000000",
"#t c #000000",
"#u c #000000",
"#v c #000000",
"#w c #000000",
"#x c #000000",
"#y c #000000",
"#z c #000000",
"#A c #000000",
"#B c #000000",
"#C c #000000",
"#D c #000000",
"#E c #000000",
"#F c #000000",
"#G c #000000",
"#H c #000000",
"#I c #000000",
"#J c #000000",
"#K c #000000",
"#L c #000000",
"#M c #000000",
"#N c #000000",
"#O c #000000",
"#P c #000000",
"#Q c #000000",
"#R c #000000",
"#S c #000000",
"#T c #000000",
"#U c #000000",
"#V c #000000",
"#W c #000000",
"#X c #000000",
"#Y c #000000",
"#Z c #000000",
"#0 c #000000",
"#1 c #000000",
"#2 c #000000",
"#3 c #000000",
"#4 c #000000",
"#5 c #000000",
"#6 c #000000",
"#7 c #000000",
"#8 c #000000",
"a` c #000000",
"a. c #000000",
"a# c #000000",
"aa c #000000",
"ab c #000000",
"ac c #000000",
"ad c #000000",
"ae c #000000",
"af c #000000",
"ag c #000000",
"ah c #000000",
"ai c #000000",
"aj c #000000",
"ak c #000000",
"al c #000000",
"am c #000000",
"an c #000000",
"ao c #000000",
"ap c #000000",
"aq c #000000",
"ar c #000000",
"as c #000000",
"at c #000000",
"au c #000000",
"av c #000000",
"aw c #000000",
"ax c #000000",
"ay c #000000",
"az c #000000",
"aA c #000000",
"aB c #000000",
"aC c #000000",
"aD c #000000",
"aE c #000000",
"aF c #000000",
"aG c #000000",
"aH c #000000",
"aI c #000000",
"aJ c #000000",
"aK c #000000",
"aL c #000000",
"aM c #000000",
"aN c #000000",
"aO c #000000",
"aP c #000000",
"aQ c #000000",
"aR c #000000",
"aS c #000000",
"aT c #000000",
"aU c #000000",
"aV c #000000",
"aW c #000000",
"aX c #000000",
"aY c #000000",
"aZ c #000000",
"a0 c #000000",
"a1 c #000000",
"a2 c #000000",
"a3 c #000000",
"a4 c #000000",
"a5 c #000000",
"a6 c #000000",
"a7 c #000000",
"a8 c #000000",
/* pixels */
"`y`.`.`.`.`.`.`.`.`.`.`.`.`.`.`.`.`.`.`.`.`.`.`.`.`.`.`.`.`.`.`.`.`.`.`.`.`.`.`.`.`.`.`.`.`.`.`.`.`.`.`.`.`.`.`.`.`.`.`.`.`.`.`.`.`.`.`.`.`.`y`.",
"`.`t```````````````````````````````````````````````````````````````````````````````````````````````````````````````````````````````````````t`.`.",
"`.```````````````````````````````````````````````````````````````````````````````````````````````````````````````````````````````````````````.`.",
"`.```````````````````````````````````````````````````````````````````````````````````````````````````````````````````````````````````````````.`.",
"`.`````````````a`#```````````````````````````````````````````````````````````````````````````````````````````````````````````````````````````.`.",
"`.`````````````a`#```````````````````````````````````````````````````````````````````````````````````````````````````````````````````````````.`.",
"`.`````````````a`#```````````````````````````````````````````````````````````````````````````````````````````````````````````````````````````.`.",
"`.`````````````a`#```````````````````````````````````````````````````````````````````````````````````````````````````````````````````````````.`.",
"`.```````#`a```a`#```````````````````````````````````````````````````````````````````````````````````````````````````````````````````````````.`.",
"`.```````#`a```a`#```````````````````````````````````````````````````````````````````````````````````````````````````````````````````````````.`.",
"`.```````c`#`#`#`c```````````````````````````````````````````````````````````````````````````````````````````````````````````````````````````.`.",
"`.`````````c`#`c`````````````````````````````````````````````````````````````````````````````````````````````````````````````````````````````.`.",
"`.`````````````````````````````````````````````````````````````````b`g`g`u```````````````````````````````````````````````````````````````````.`.",
"`.`````````c`#`c`````````````````````````````````````````````````J`l`e`e`r`x`````````````````````````````````````````````````````````````````.`.",
"`.```````c`#`#`#`c`````````````````````````````````````````b`L`b`n`e`l`e`k`n`````````````````````````````````````````````````````````````````.`.",
"`.```````#`a```a`#`````````````````````````````````````b`g`t`v`t`r`f`r`e`f`g`c`u`````````````````````````````````````````````````````````````.`.",
"`.```````#`a```a`#```````````````````````````````````b`t`j`p`j`z`d`d`i`a`p`z`d`d`o`c`````````````````````````````````````````````````````````.`.",
"`.```````#`a```a`#```````````````````````````````````c`v`t`m`t`i`d`m`E`C`c`y`i`h`d`i`b```````````````````````````````````````````````````````.`.",
"`.```````#`a```a`#```````````````````````````````````u`t`u```a`C`b`m`c`b`g`m`x`x`m`i`c```````````````````````````````````````````````````````.`.",
"`.```````c`#`#`#`c```````````````````````````````````b`O`x```z`m`b`g`g```a`a`b`````m`f`````````b`c`b`````````````````````````````````````````.`.",
"`.`````````c`#`c`````````````````````````````````````b`y`b```f`a```b`b```b`g`g`````c`z`````````g`a`g`b```````````````````````````````````````.`.",
"`.```````````````````````````````````````````````````b`g`````m`a`b`c`u`c`g`C`c```````B```````g`c`a`m`b```````````````````````````````````````.`.",
"`.```````#`a```c`#```````````````````````````````````u`m`````b`B`b`s`s`F`g`a`b`````b`a`c`````g`m`a`g`u```````````````````````````````````````.`.",
"`.```````#`a```a`#`````````````````````````````````````b`````b`f`m`b`b`c`L`a`````````b```````g`m`u`m`b```````````````````````````````````````.`.",
"`.```````#`a```#`a`````````````````````````````````````````b```t`h`B`a`a`n`a`t`c```````````b`g`u`b`u`b```````````````````````````````````````.`.",
"`.```````#`a`#`a```````````````````````````````````````g`a`z`a`o`d`i`h`t`B`v`j`n`B`s`J`b```b`g`c`u`g`````````````````````````````````````````.`.",
"`.```````#`a`#`a```````````````````````````````````c`B`I`o`d`h`d`d`d`h`q`v`p`q`p`F`n`k`G`c`b`g`b`a`x`````````````````````````````````````````.`.",
"`.```````#`a```#`a`````````````````````````````b`g`t`B`o`d`h`d`d`h`d`E`w`j`j`j`j`p`k`f`d`h`d`y```c`y`b```````````````````````````````````````.`.",
"`.```````#`a```a`#```````````````````````````b`a`B`p`j`i`h`o`d`h`E`C`i`n`J`P`p`w`w`w`i`d`d`h`v```c`v`c```````````````````````````````````````.`.",
"`.```````#`a```c`#`````````````````````````b`u`o`d`i`v`f`f`h`h`A`b`s`m`a`j`F`w`p`l`k`d`d`i`t`n`J`j`n`b```````````````````````````````````````.`.",
"`.`````````````````````````````````````````m`i`d`i`d`f`j`I`o`g`b`c`E`d`f`p`n`G`k`e`f`i`o`j`p`B`F`w`w`w`b`````````````````````````````````````.`.",
"`.```````#`#`#`#`#`````````````````````b`z`i`h`h`M`o`f`k`f`m`b```b`z`a`f`e`B`f`f`l`f`d`j`q`j`n`q`j`p`N`g`````````````````````````````````````.`.",
"`.```````#`a`a`a`a`````````````````````g`d`h`d`d`d`h`d`h`d`````c`n`n`K`f`l`f`#`f`l`f`o`F`p`j`F`j`q`j`q`s`````````````````````````````````````.`.",
"`.```````#`a```````````````````````````C`d`d`d`h`d`i`d`d`d`c`a`k`e`l`f`G`k`f`K`f`l`f`o`f`w`j`q`p`q`p`p`g`````````````````````````````````````.`.",
"`.```````#`a`c`c`c`````````````````````a`d`h`d`i`h`d`h`d`h`i`f`r`e`l`f`f`l`H`e`e`e`G`h`f`j`p`j`j`q`j`j```````````````````````````````````````.`.",
"`.```````#`#`#`#`a`````````````````````c`i`d`h`d`i`i`h`h`z`f`D`o`r`f`#`o`l`e`k`l`e`f`d`b`g`v`N`j`p`j`g```````````````````````````````````````.`.",
"`.```````#`a`````````````````````````````m`h`d`h`i`i`i`d`c`f`D`e`G`o`D`f`l`e`e`l`k`o`g`b```c`c`s`s`b`````````````````````````````````````````.`.",
"`.```````#`a`a`a`a```````````````````````b`z`h`d`h`h`h`A`b`f`f`r`f`D`o`f`K`k`e`e`e`f`b```````````````````````````````````````````````````````.`.",
"`.```````#`#`#`#`#`````````````````````````b`x`d`A`A`b`b```a`o`f`f`o`i`h`o`l`e`l`e`w`````````````````````````````````````````````````````````.`.",
"`.```````````````````````````````````````````````b`````````m`z`a`g`j`m`m`m`a`w`w`n`n`b```````````````````````````````````````````````````````.`.",
"`.```````#`#`#`a```````````````````````````````````````````c`n`k`e`k`e`e`r`f`f`f`s`c`````````````````````````````````````````````````````````.`.",
"`.```````#`a`a`#`a```````````````````````````````````````b`a`k`e`r`r`e`k`r`o`I`k`o`s`````````````````````````````````````````````````````````.`.",
"`.```````#`a```a`#```````````````````````````````````````g`n`e`r`o`f`l`e`r`f`f`H`r`f`b```````````````````````````````````````````````````````.`.",
"`.```````#`a```#`a`````````````````````````````````````c`a`r`k`l`f`G`f`l`e`#`r`k`k`G`c```````````````````````````````````````````````````````.`.",
"`.```````#`a`#`a```````````````````````````````````````a`c`k`l`f`#`f`#`k`e`f`l`e`e`r`m```````````````````````````````````````````````````````.`.",
"`.```````#`a```#`a```````````````````````````````````g`m`g`e`e`r`r`l`f`H`k`f`#`f`H`f`f```````````````````````````````````````````````````````.`.",
"`.```````#`a```a`#`````````````````````````````````b`a`b`n`l`e`l`e`e`e`l`e`f`D`o`l`f`I`b`````````````````````````````````````````````````````.`.",
"`.```````#`a```c`#```````````````````````````````b`a`c`u`r`e`k`e`l`e`e`e`e`#`o`f`#`o`f`c`````````````````````````````````````````````````````.`.",
"`.```````````````````````````````````````````````c`a`b`c`k`e`e`e`R`l`e`l`e`f`D`o`f`#`#`g`````````````````````````````````````#`c```a`#```````.`.",
"`.```````````````````````````````````````c`````b`t`b```g`l`r`r`l`p`e`k`l`e`f`h`D`o`f`#`a`b```````````````````````````````````#`a```a`#```````.`.",
"`.```````````````````````````````````b`a`g`c`a`g`c`b```m`e`f`Q`e`j`e`e`w`e`D`i`o`o`o`s`E`````````````````````````````````````a`#```a`#```````.`.",
"`.```````````````````````````````````b`a`c`c`a`a`x`````c`e`r`k`e`j`w`e`p`l`f`i`o`h`z`g`a```````````````````````````````````````a`#`a`#```````.`.",
"`.```````````````````````````````````b`g`c`g`c`y`c`````b`r`n`n`e`j`F`w`j`e`o`d`M`d`z`m`c`b```````````````````````````````````a`#```a`#```````.`.",
"`.`````````````````````````````````````t`a`m`u`c`g`````b`a`g`v`e`q`w`p`v`H`i`d`h`d`d`a`x`````````````````````````````````````#`a```a`#```````.`.",
"`.`````````````````````````````````````s`s`m`g`c`g`b`````g`c`v`n`T`j`p`v`a`d`i`d`h`m`g`b`````````````````````````````````````a`#`a`a`#```````.`.",
"`.`````````````````````````````````````x`c`b`g`a`t`c`````b`b`v`p`q`j`q`v`h`d`h`d`h`A`b`````````````````````````````````````````a`#`#`#```````.`.",
"`.`````````````````````````````````````s`u`g`s`n`m`b`````````a`q`j`p`q`n`d`d`i`i`h`b`b```````````````````````````````````````````````````````.`.",
"`.`````````````````````````````````````k`e`k`k`k`````````````a`j`q`j`q`y`d`h`d`h`d`b`````````````````````````````````````````#`#`#`#`#```````.`.",
"`.`````````````````````````````````````s`e`k`e`m`````````````a`j`p`q`p`o`d`i`i`d`A```````````````````````````````````````````a`a`a`a`#```````.`.",
"`.`````````````````````````````````````b`n`H`k`b`````````````g`v`q`j`j`h`d`i`h`d`b`````````````````````````````````````````````````a`#```````.`.",
"`.```````````````````````````````````````c`n`k`n`b```````````b`y`q`q`j`d`d`h`d`d`````````````````````````````````````````````a`#`#`#`#```````.`.",
"`.```````````````````````````````````````````b`a`L```````````b`a`q`j`p`h`d`i`i`A`````````````````````````````````````````````c`c`c`a`#```````.`.",
"`.`````````````````````````````````````````````x`b`b`````````b`t`p`q`j`h`d`i`i`E`b`````````````````````````````````````````````````a`#```````.`.",
"`.`````````````````````````````````````````````````````````````t`q`j`v`h`d`i`h`A`b```````````````````````````````````````````a`a`a`a`#```````.`.",
"`.```````````````````````````````````````````````````````````b`t`q`p`s`d`d`h`d`x`````````````````````````````````````````````#`#`#`#`#```````.`.",
"`.```````````````````````````````````````````````````````````b`t`p`q`t`h`d`i`h`A`b```````````````````````````````````````````````````````````.`.",
"`.```````````````````````````````````````````````````````````u`a`q`j`j`i`d`h`d`C`````````````````````````````````````````````#`c```a`#```````.`.",
"`.```````````````````````````````````````````````````````````c`v`q`q`j`h`d`i`i`E`b```````````````````````````````````````````#`a```a`#```````.`.",
"`.```````````````````````````````````````````````````````````c`v`q`j`p`f`d`h`d`C`````````````````````````````````````````````a`#```a`#```````.`.",
"`.```````````````````````````````````````````````````````````c`t`p`q`j`i`i`i`i`A`b`````````````````````````````````````````````a`#`a`#```````.`.",
"`.```````````````````````````````````````````````````````````b`t`j`q`p`h`d`h`d`A```````````````````````````````````````````````a`#`a`#```````.`.",
"`.`````````````````````````````````````````````````````````````y`q`p`v`C`d`h`i`x`b```````````````````````````````````````````a`#```a`#```````.`.",
"`.`````````````````````````````````````````````````````````````s`j`q`s`A`d`i`d`x`g```````````````````````````````````````````#`a```a`#```````.`.",
"`.`````````````````````````````````````````````````````````b`g`g`j`p`g`b`h`d`d`s`g```````````````````````````````````````````#`c```a`#```````.`.",
"`.```````````````````````````````````````````````````````````a`r`t`q`t`g`d`i`o`e`x```````````````````````````````````````````````````````````.`.",
"`.`````````````````````````````````````````````````````````````s`e`F`w`y`h`i`r`s`b`````````````````````````````````````````````c`#`c`````````.`.",
"`.`````````````````````````````````````````````````````````````x`r`e`B`g`f`l`e`s`b```````````````````````````````````````````c`#`#`#`c```````.`.",
"`.`````````````````````````````````````````````````````````````u`e`k`e`g`e`e`e`e`n`c`````````````````````````````````````````#`a```a`#```````.`.",
"`.```````````````````````````````````````````````````````````S`k`e`l`e`r`l`e`l`e`e`k`n`u`````````````````````````````````````#`a```a`#```````.`.",
"`.`````````````````````````````````````````````````````````a`k`l`e`e`l`z`n`f`r`k`e`e`e`l`n`g`b```````````````````````````````#`a```a`#```````.`.",
"`.```````````````````````````````````````````````````b`g`n`k`e`e`n`g`b`b```b`b`b`g`n`s`n`l`e`n`b`````````````````````````````#`a```a`#```````.`.",
"`.`````````````````````````````````````````````````u`s`k`k`k`s`m`b`````````````b```````b`c`s`w`k`g`g`g`u`````````````````````c`#`#`#`c```````.`.",
"`.`````````````````````````````````````````````b`s`k`r`n`m`b`````````````````````````````````b`c`f`C`E`m`b`````````````````````c`#`c`````````.`.",
"`.```````````````````````````````````````c`g`s`n`k`a`c```````````````````````````````````````````````````b```````````````````````````````````.`.",
"`.`````````````````````````````````````b`a`m`g`m```````````````````````````````````````````````````````````````````````````````c`#`c`````````.`.",
"`.```````````````````````````````````````````````````````````````````````````````````````````````````````````````````````````c`#`#`#`c```````.`.",
"`.```````````````````````````````````````````````````````````````````````````````````````````````````````````````````````````#`a```a`#```````.`.",
"`.```````````````````````````````````````````````````````````````````````````````````````````````````````````````````````````#`a```a`#```````.`.",
"`.```````````````````````````````````````````````````````````````````````````````````````````````````````````````````````````#`a`````````````.`.",
"`.```````````````````````````````````````````````````````````````````````````````````````````````````````````````````````````#`a`````````````.`.",
"`.```````````````````````````````````````````````````````````````````````````````````````````````````````````````````````````#`a`````````````.`.",
"`.```````````````````````````````````````````````````````````````````````````````````````````````````````````````````````````#`a`````````````.`.",
"`.```````````````````````````````````````````````````````````````````````````````````````````````````````````````````````````````````````````.`.",
"`.```````````````````````````````````````````````````````````````````````````````````````````````````````````````````````````````````````````.`.",
"`.`t```````````````````````````````````````````````````````````````````````````````````````````````````````````````````````````````````````t`.`y",
"`y`.`.`.`.`.`.`.`.`.`.`.`.`.`.`.`.`.`.`.`.`.`.`.`.`.`.`.`.`.`.`.`.`.`.`.`.`.`.`.`.`.`.`.`.`.`.`.`.`.`.`.`.`.`.`.`.`.`.`.`.`.`.`.`.`.`.`.`.`.`y`."
};
