/* XPM */
static char const *joker_02_xpm[] = {
/* width height num_colors chars_per_pixel */
"    72    96      256            2",
/* colors */
"`` c #ffffff",
"`. c #000000",
"`# c #ff0008",
"`a c #e7e7f7",
"`b c #ff737b",
"`c c #4263bd",
"`d c #e72929",
"`e c #633173",
"`f c #bd9ca5",
"`g c #10298c",
"`h c #bdbdce",
"`i c #947b84",
"`j c #394aa5",
"`k c #ceb563",
"`l c #bd3129",
"`m c #ad1018",
"`n c #ff9c9c",
"`o c #949cbd",
"`p c #ad5263",
"`q c #293184",
"`r c #ff9c31",
"`s c #ffde63",
"`t c #9c2929",
"`u c #b57384",
"`v c #9c9473",
"`w c #ceceb5",
"`x c #bd9c5a",
"`y c #de524a",
"`z c #c6def7",
"`A c #73735a",
"`B c #525a9c",
"`C c #a5b5de",
"`D c #293131",
"`E c #5a5252",
"`F c #637bad",
"`G c #521021",
"`H c #7b94c6",
"`I c #e77b21",
"`J c #5a2929",
"`K c #394239",
"`L c #f7dea5",
"`M c #7b1018",
"`N c #ffbdbd",
"`O c #001084",
"`P c #b57b21",
"`Q c #947b21",
"`R c #deb521",
"`S c #ff3131",
"`T c #ffbd21",
"`U c #081018",
"`V c #102129",
"`W c #291018",
"`X c #425a52",
"`Y c #5a5221",
"`Z c #7b7329",
"`0 c #a55221",
"`1 c #a59429",
"`2 c #c69c21",
"`3 c #c6f7ff",
"`4 c #ff00ff",
"`5 c #ff4a4a",
"`6 c #ffde18",
"`7 c #ffff29",
"`8 c #ffffa5",
".` c #000000",
".. c #000000",
".# c #000000",
".a c #000000",
".b c #000000",
".c c #000000",
".d c #000000",
".e c #000000",
".f c #000000",
".g c #000000",
".h c #000000",
".i c #000000",
".j c #000000",
".k c #000000",
".l c #000000",
".m c #000000",
".n c #000000",
".o c #000000",
".p c #000000",
".q c #000000",
".r c #000000",
".s c #000000",
".t c #000000",
".u c #000000",
".v c #000000",
".w c #000000",
".x c #000000",
".y c #000000",
".z c #000000",
".A c #000000",
".B c #000000",
".C c #000000",
".D c #000000",
".E c #000000",
".F c #000000",
".G c #000000",
".H c #000000",
".I c #000000",
".J c #000000",
".K c #000000",
".L c #000000",
".M c #000000",
".N c #000000",
".O c #000000",
".P c #000000",
".Q c #000000",
".R c #000000",
".S c #000000",
".T c #000000",
".U c #000000",
".V c #000000",
".W c #000000",
".X c #000000",
".Y c #000000",
".Z c #000000",
".0 c #000000",
".1 c #000000",
".2 c #000000",
".3 c #000000",
".4 c #000000",
".5 c #000000",
".6 c #000000",
".7 c #000000",
".8 c #000000",
"#` c #000000",
"#. c #000000",
"## c #000000",
"#a c #000000",
"#b c #000000",
"#c c #000000",
"#d c #000000",
"#e c #000000",
"#f c #000000",
"#g c #000000",
"#h c #000000",
"#i c #000000",
"#j c #000000",
"#k c #000000",
"#l c #000000",
"#m c #000000",
"#n c #000000",
"#o c #000000",
"#p c #000000",
"#q c #000000",
"#r c #000000",
"#s c #000000",
"#t c #000000",
"#u c #000000",
"#v c #000000",
"#w c #000000",
"#x c #000000",
"#y c #000000",
"#z c #000000",
"#A c #000000",
"#B c #000000",
"#C c #000000",
"#D c #000000",
"#E c #000000",
"#F c #000000",
"#G c #000000",
"#H c #000000",
"#I c #000000",
"#J c #000000",
"#K c #000000",
"#L c #000000",
"#M c #000000",
"#N c #000000",
"#O c #000000",
"#P c #000000",
"#Q c #000000",
"#R c #000000",
"#S c #000000",
"#T c #000000",
"#U c #000000",
"#V c #000000",
"#W c #000000",
"#X c #000000",
"#Y c #000000",
"#Z c #000000",
"#0 c #000000",
"#1 c #000000",
"#2 c #000000",
"#3 c #000000",
"#4 c #000000",
"#5 c #000000",
"#6 c #000000",
"#7 c #000000",
"#8 c #000000",
"a` c #000000",
"a. c #000000",
"a# c #000000",
"aa c #000000",
"ab c #000000",
"ac c #000000",
"ad c #000000",
"ae c #000000",
"af c #000000",
"ag c #000000",
"ah c #000000",
"ai c #000000",
"aj c #000000",
"ak c #000000",
"al c #000000",
"am c #000000",
"an c #000000",
"ao c #000000",
"ap c #000000",
"aq c #000000",
"ar c #000000",
"as c #000000",
"at c #000000",
"au c #000000",
"av c #000000",
"aw c #000000",
"ax c #000000",
"ay c #000000",
"az c #000000",
"aA c #000000",
"aB c #000000",
"aC c #000000",
"aD c #000000",
"aE c #000000",
"aF c #000000",
"aG c #000000",
"aH c #000000",
"aI c #000000",
"aJ c #000000",
"aK c #000000",
"aL c #000000",
"aM c #000000",
"aN c #000000",
"aO c #000000",
"aP c #000000",
"aQ c #000000",
"aR c #000000",
"aS c #000000",
"aT c #000000",
"aU c #000000",
"aV c #000000",
"aW c #000000",
"aX c #000000",
"aY c #000000",
"aZ c #000000",
"a0 c #000000",
"a1 c #000000",
"a2 c #000000",
"a3 c #000000",
"a4 c #000000",
"a5 c #000000",
"a6 c #000000",
"a7 c #000000",
"a8 c #000000",
/* pixels */
"`A`.`.`.`.`.`.`.`.`.`.`.`.`.`.`.`.`.`.`.`.`.`.`.`.`.`.`.`.`.`.`.`.`.`.`.`.`.`.`.`.`.`.`.`.`.`.`.`.`.`.`.`.`.`.`.`.`.`.`.`.`.`.`.`.`.`.`.`.`.`A`.",
"`.`v```````````````````````````````````````````````````````````````````````````````````````````````````````````````````````````````````````v`.`.",
"`.```````````````````````````````````````````````````````````````````````````````````````````````````````````````````````````````````````````.`.",
"`.```````````````````````````````````````````````````````````````````````````````````````````````````````````````````````````````````````````.`.",
"`.`````````````b`#```````````````````````````````````````````````````````````````````````````````````````````````````````````````````````````.`.",
"`.`````````````b`#```````````````````````````````````````````````````````````````````````````````````````````````````````````````````````````.`.",
"`.`````````````b`#```````````````````````````````````````````````````````````````````````````````````````````````````````````````````````````.`.",
"`.`````````````b`#```````````````````````````````````````````````````````````````````````````````````````````````````````````````````````````.`.",
"`.```````#`b```b`#```````````````````````````````````````````````````````````````````````````````````````````````````````````````````````````.`.",
"`.```````#`b```b`#```````````````````````````````````````````````````````````````````````````````````````````````````````````````````````````.`.",
"`.```````n`#`#`#`n```````````````````````````````````````````````````````````````````````````````````````````````````````````````````````````.`.",
"`.`````````n`#`n`````````````````````````````````````````````````````````````````````````````````````````````````````````````````````````````.`.",
"`.`````````````````````````````````````````````````````````````````a`f`f`w```````````````````````````````````````````````````````````````````.`.",
"`.`````````n`#`n`````````````````````````````````````````````````L`m`d`d`t`z`````````````````````````````````````````````````````````````````.`.",
"`.```````n`#`#`#`n`````````````````````````````````````````a`N`a`p`d`m`d`l`p`````````````````````````````````````````````````````````````````.`.",
"`.```````#`b```b`#`````````````````````````````````````a`f`v`x`v`t`e`t`d`e`f`h`w`````````````````````````````````````````````````````````````.`.",
"`.```````#`b```b`#```````````````````````````````````a`v`k`r`k`B`c`c`j`i`r`B`c`c`q`h`````````````````````````````````````````````````````````.`.",
"`.```````#`b```b`#```````````````````````````````````h`x`v`o`v`j`c`o`H`F`h`A`j`g`c`j`a```````````````````````````````````````````````````````.`.",
"`.```````#`b```b`#```````````````````````````````````w`v`w```i`F`a`o`h`a`f`o`z`z`o`j`h```````````````````````````````````````````````````````.`.",
"`.```````n`#`#`#`n```````````````````````````````````a`Q`z```B`o`a`f`f```i`i`a`````o`e`````````a`h`a`````````````````````````````````````````.`.",
"`.`````````n`#`n`````````````````````````````````````a`A`a```e`i```a`a```a`f`f`````h`B`````````f`i`f`a```````````````````````````````````````.`.",
"`.```````````````````````````````````````````````````a`f`````o`i`a`h`w`h`f`F`h```````E```````f`h`i`o`a```````````````````````````````````````.`.",
"`.```````#`b```n`#```````````````````````````````````w`o`````a`E`a`u`u`I`f`i`a`````a`i`h`````f`o`i`f`w```````````````````````````````````````.`.",
"`.```````#`b```b`#`````````````````````````````````````a`````a`e`o`a`a`h`N`i`````````a```````f`o`w`o`a```````````````````````````````````````.`.",
"`.```````#`b```#`n`````````````````````````````````````````a```v`g`E`i`i`p`i`v`h```````````a`f`w`a`w`a```````````````````````````````````````.`.",
"`.```````#`b`#`b```````````````````````````````````````f`i`B`i`q`c`j`g`v`E`x`k`p`E`u`L`a```a`f`h`w`f`````````````````````````````````````````.`.",
"`.```````#`b`#`b```````````````````````````````````h`E`K`q`c`g`c`c`c`g`s`x`r`s`r`I`p`l`J`h`a`f`a`i`z`````````````````````````````````````````.`.",
"`.```````#`b```#`b`````````````````````````````a`f`v`E`q`c`g`c`c`g`c`H`y`k`k`k`k`r`l`e`c`g`c`A```h`A`a```````````````````````````````````````.`.",
"`.```````#`b```b`#```````````````````````````a`i`E`r`k`j`g`q`c`g`H`F`j`p`L`R`r`y`y`y`j`c`c`g`x```h`x`h```````````````````````````````````````.`.",
"`.```````#`b```n`#`````````````````````````a`w`q`c`j`x`e`e`g`g`C`a`u`o`i`k`I`y`r`m`l`c`c`j`v`p`L`k`p`a```````````````````````````````````````.`.",
"`.`````````````````````````````````````````o`j`c`j`c`e`k`K`q`f`a`h`H`c`e`r`p`J`l`d`e`j`q`k`r`E`I`y`y`y`a`````````````````````````````````````.`.",
"`.```````#`#`#`#`#`````````````````````a`B`j`g`g`O`q`e`l`e`o`a```a`B`i`e`d`E`e`e`m`e`c`k`s`k`p`s`k`r`P`f`````````````````````````````````````.`.",
"`.```````#`#`b`b`b`````````````````````f`c`g`c`c`c`g`c`g`c`````h`p`p`M`e`m`e`D`e`m`e`q`I`r`k`I`k`s`k`s`u`````````````````````````````````````.`.",
"`.```````#`b```````````````````````````F`c`c`c`g`c`j`c`c`c`h`i`l`d`m`e`J`l`e`M`e`m`e`q`e`y`k`s`r`s`r`r`f`````````````````````````````````````.`.",
"`.```````#`b`n`n`n`````````````````````i`c`g`c`j`g`c`g`c`g`j`e`t`d`m`e`e`m`#`d`d`d`J`g`e`k`r`k`k`s`k`k```````````````````````````````````````.`.",
"`.```````#`#`#`#`b`````````````````````h`j`c`g`c`j`j`g`g`B`e`G`q`t`e`D`q`m`d`l`m`d`e`c`a`f`x`P`k`r`k`f```````````````````````````````````````.`.",
"`.```````#`b`````````````````````````````o`g`c`g`j`j`j`c`h`e`G`d`J`q`G`e`m`d`d`m`l`q`f`a```h`h`u`u`a`````````````````````````````````````````.`.",
"`.```````#`#`b`b`b```````````````````````a`B`g`c`g`g`g`C`a`e`e`t`e`G`q`e`M`l`d`d`d`e`a```````````````````````````````````````````````````````.`.",
"`.```````#`#`#`#`#`````````````````````````a`z`c`C`C`a`a```i`q`e`e`q`j`g`q`m`d`m`d`y`````````````````````````````````````````````````````````.`.",
"`.```````````````````````````````````````````````a`````````o`B`i`f`k`o`o`o`i`y`y`p`p`a```````````````````````````````````````````````````````.`.",
"`.```````#`#`#`b```````````````````````````````````````````h`p`l`d`l`d`d`t`e`e`e`u`h`````````````````````````````````````````````````````````.`.",
"`.```````#`b`b`#`b```````````````````````````````````````a`i`l`d`t`t`d`l`t`q`K`l`q`u`````````````````````````````````````````````````````````.`.",
"`.```````#`b```b`#```````````````````````````````````````f`p`d`t`q`e`m`d`t`e`e`#`t`e`a```````````````````````````````````````````````````````.`.",
"`.```````#`b```#`b`````````````````````````````````````h`i`t`l`m`e`J`e`m`d`D`t`l`l`J`h```````````````````````````````````````````````````````.`.",
"`.```````#`b`#`b```````````````````````````````````````i`h`l`m`e`D`e`D`l`d`e`m`d`d`t`o```````````````````````````````````````````````````````.`.",
"`.```````#`b```#`b```````````````````````````````````f`o`f`d`d`t`t`m`e`#`l`e`D`e`#`e`e```````````````````````````````````````````````````````.`.",
"`.```````#`b```b`#`````````````````````````````````a`i`a`p`m`d`m`d`d`d`m`d`e`G`q`m`e`K`a`````````````````````````````````````````````````````.`.",
"`.```````#`b```n`#```````````````````````````````a`i`h`w`t`d`l`d`m`d`d`d`d`D`q`e`D`q`e`h`````````````````````````````````````````````````````.`.",
"`.```````````````````````````````````````````````h`i`a`h`l`d`d`d`b`m`d`m`d`e`G`q`e`D`D`f`````````````````````````````````````#`n```b`#```````.`.",
"`.```````````````````````````````````````h`````a`v`a```f`m`t`t`m`r`d`l`m`d`e`g`G`q`e`D`i`a```````````````````````````````````#`b```b`#```````.`.",
"`.```````````````````````````````````a`i`f`h`i`f`h`a```o`d`e`S`d`k`d`d`y`d`G`j`q`q`q`u`H`````````````````````````````````````b`#```b`#```````.`.",
"`.```````````````````````````````````a`i`h`h`i`i`z`````h`d`t`l`d`k`y`d`r`m`e`j`q`g`B`f`i```````````````````````````````````````b`#`b`#```````.`.",
"`.```````````````````````````````````a`f`h`f`h`A`h`````a`t`p`p`d`k`I`y`k`d`q`c`O`c`B`o`h`a```````````````````````````````````b`#```b`#```````.`.",
"`.`````````````````````````````````````v`i`o`w`h`f`````a`i`f`x`d`s`y`r`x`#`j`c`g`c`c`i`z`````````````````````````````````````#`b```b`#```````.`.",
"`.`````````````````````````````````````u`u`o`f`h`f`a`````f`h`x`p`T`k`r`x`i`c`j`c`g`o`f`a`````````````````````````````````````b`#`b`b`#```````.`.",
"`.`````````````````````````````````````z`h`a`f`i`v`h`````a`a`x`r`s`k`s`x`g`c`g`c`g`C`a`````````````````````````````````````````b`#`#`#```````.`.",
"`.`````````````````````````````````````u`w`f`u`p`o`a`````````i`s`k`r`s`p`c`c`j`j`g`a`a```````````````````````````````````````````````````````.`.",
"`.`````````````````````````````````````l`d`l`l`l`````````````i`k`s`k`s`A`c`g`c`g`c`a`````````````````````````````````````````#`#`#`#`#```````.`.",
"`.`````````````````````````````````````u`d`l`d`o`````````````i`k`r`s`r`q`c`j`j`c`C```````````````````````````````````````````b`b`b`#`#```````.`.",
"`.`````````````````````````````````````a`p`#`l`a`````````````f`x`s`k`k`g`c`j`g`c`a`````````````````````````````````````````````````b`#```````.`.",
"`.```````````````````````````````````````h`p`l`p`a```````````a`A`s`s`k`c`c`g`c`c`````````````````````````````````````````````b`#`#`#`#```````.`.",
"`.```````````````````````````````````````````a`i`N```````````a`i`s`k`r`g`c`j`j`C`````````````````````````````````````````````n`n`n`b`#```````.`.",
"`.`````````````````````````````````````````````z`a`a`````````a`v`r`s`k`g`c`j`j`H`a`````````````````````````````````````````````````b`#```````.`.",
"`.`````````````````````````````````````````````````````````````v`s`k`x`g`c`j`g`C`a```````````````````````````````````````````b`b`b`#`#```````.`.",
"`.```````````````````````````````````````````````````````````a`v`s`r`u`c`c`g`c`z`````````````````````````````````````````````#`#`#`#`#```````.`.",
"`.```````````````````````````````````````````````````````````a`v`r`s`v`g`c`j`g`C`a```````````````````````````````````````````````````````````.`.",
"`.```````````````````````````````````````````````````````````w`i`s`k`k`j`c`g`c`F`````````````````````````````````````````````#`n```b`#```````.`.",
"`.```````````````````````````````````````````````````````````h`x`s`s`k`g`c`j`j`H`a```````````````````````````````````````````#`b```b`#```````.`.",
"`.```````````````````````````````````````````````````````````h`x`s`k`r`e`c`g`c`F`````````````````````````````````````````````b`#```b`#```````.`.",
"`.```````````````````````````````````````````````````````````h`v`r`s`k`j`j`j`j`C`a`````````````````````````````````````````````b`#`b`#```````.`.",
"`.```````````````````````````````````````````````````````````a`v`k`s`r`g`c`g`c`C```````````````````````````````````````````````b`#`b`#```````.`.",
"`.`````````````````````````````````````````````````````````````A`s`r`x`F`c`g`j`z`a```````````````````````````````````````````n`#```b`#```````.`.",
"`.`````````````````````````````````````````````````````````````u`k`s`u`C`c`j`c`z`f```````````````````````````````````````````#`b```b`#```````.`.",
"`.`````````````````````````````````````````````````````````a`f`f`k`r`f`a`g`c`c`u`f```````````````````````````````````````````#`n```b`#```````.`.",
"`.```````````````````````````````````````````````````````````i`t`v`s`v`f`c`j`q`d`z```````````````````````````````````````````````````````````.`.",
"`.`````````````````````````````````````````````````````````````u`d`I`y`A`g`j`t`u`a`````````````````````````````````````````````n`#`n`````````.`.",
"`.`````````````````````````````````````````````````````````````z`t`d`E`f`e`m`d`u`a```````````````````````````````````````````n`#`#`#`n```````.`.",
"`.`````````````````````````````````````````````````````````````w`d`l`d`f`d`d`d`d`p`h`````````````````````````````````````````#`b```b`#```````.`.",
"`.```````````````````````````````````````````````````````````n`l`d`m`d`t`m`d`m`d`d`l`p`w`````````````````````````````````````#`b```b`#```````.`.",
"`.`````````````````````````````````````````````````````````i`l`m`d`d`m`B`p`e`t`l`d`d`d`m`p`f`a```````````````````````````````#`b```b`#```````.`.",
"`.```````````````````````````````````````````````````a`f`p`l`d`d`p`f`a`a```a`a`a`f`p`u`p`m`d`p`a`````````````````````````````#`b```b`#```````.`.",
"`.`````````````````````````````````````````````````w`u`l`l`l`u`o`a`````````````a```````a`h`u`y`l`f`f`f`w`````````````````````n`#`#`#`n```````.`.",
"`.`````````````````````````````````````````````a`u`l`t`p`o`a`````````````````````````````````a`h`e`F`H`o`a`````````````````````n`#`n`````````.`.",
"`.```````````````````````````````````````h`f`u`p`l`i`h```````````````````````````````````````````````````a```````````````````````````````````.`.",
"`.`````````````````````````````````````a`i`o`f`o```````````````````````````````````````````````````````````````````````````````n`#`n`````````.`.",
"`.```````````````````````````````````````````````````````````````````````````````````````````````````````````````````````````n`#`#`#`n```````.`.",
"`.```````````````````````````````````````````````````````````````````````````````````````````````````````````````````````````#`b```b`#```````.`.",
"`.```````````````````````````````````````````````````````````````````````````````````````````````````````````````````````````#`b```b`#```````.`.",
"`.```````````````````````````````````````````````````````````````````````````````````````````````````````````````````````````#`b`````````````.`.",
"`.```````````````````````````````````````````````````````````````````````````````````````````````````````````````````````````#`b`````````````.`.",
"`.```````````````````````````````````````````````````````````````````````````````````````````````````````````````````````````#`b`````````````.`.",
"`.```````````````````````````````````````````````````````````````````````````````````````````````````````````````````````````#`b`````````````.`.",
"`.```````````````````````````````````````````````````````````````````````````````````````````````````````````````````````````````````````````.`.",
"`.```````````````````````````````````````````````````````````````````````````````````````````````````````````````````````````````````````````.`.",
"`.`v```````````````````````````````````````````````````````````````````````````````````````````````````````````````````````````````````````v`.`A",
"`A`.`.`.`.`.`.`.`.`.`.`.`.`.`.`.`.`.`.`.`.`.`.`.`.`.`.`.`.`.`.`.`.`.`.`.`.`.`.`.`.`.`.`.`.`.`.`.`.`.`.`.`.`.`.`.`.`.`.`.`.`.`.`.`.`.`.`.`.`.`A`."
};
