/* XPM */
static char const * last_trick_xpm[] = {
"16 16 57 1",
" 	c None",
".	c #254A6A",
"+	c #ECF2F6",
"@	c #EFF4F7",
"#	c #F2F6F9",
"$	c #F5F8FA",
"%	c #F8FAFC",
"&	c #FBFCFD",
"*	c #F3F7F9",
"=	c #F6F9FB",
"-	c #F9FBFC",
";	c #FAFCFD",
">	c #FDFEFE",
",	c #FCFDFE",
"'	c #FEFEFE",
")	c #F7F9FB",
"!	c #F4F7FA",
"~	c #FCFCFE",
"{	c #F0F4F8",
"]	c #EDF2F6",
"^	c #F4F8FA",
"/	c #F1F6F8",
"(	c #FAFCFC",
"_	c #7E3E23",
":	c #E9F0F4",
"<	c #E6EEF3",
"[	c #EDF3F7",
"}	c #EAF1F5",
"|	c #F6F9FA",
"1	c #E2EBF1",
"2	c #DFE9F0",
"3	c #E3ECF2",
"4	c #EFF3F7",
"5	c #ECF1F6",
"6	c #FF8100",
"7	c #FF7100",
"8	c #DCE7EF",
"9	c #E7EFF4",
"0	c #FF8800",
"a	c #FF8000",
"b	c #FF7000",
"c	c #FF6100",
"d	c #FF5000",
"e	c #FF4D00",
"f	c #D7E4ED",
"g	c #D6E3EC",
"h	c #FF7900",
"i	c #FF8900",
"j	c #FF6F00",
"k	c #FF5F00",
"l	c #FF4C00",
"m	c #D9E5ED",
"n	c #FF8A00",
"o	c #FF7F00",
"p	c #FF6E00",
"q	c #FF4F00",
"r	c #FF7E00",
"    ......      ",
"   .+@#$%&.     ",
" ...*=-......   ",
".+@.;>.+@#$%&.  ",
".*=.......,'&.  ",
".;>.+@#$%&.)!.  ",
".~-.*=-,'&.{].  ",
".^/.;>>()!_:<.  ",
".[}.~-|#{__12.  ",
".<3.^/45_67____ ",
".28.[}9_0abcdee_",
".fg.<3_hiajkdll_",
" ...28m_nopkqee_",
"   .fggg_rp____ ",
"    .....__     ",
"          _     "};
