/* XPM */
static char * main_icon_16_xpm[] = {
"16 16 91 1",
" 	c None",
".	c #5F7281",
"+	c #F3F4F5",
"@	c #FAFBFB",
"#	c #5E7180",
"$	c #FFFFFF",
"%	c #DFE1E5",
"&	c #E3D5E0",
"*	c #E4E7EA",
"=	c #E6E9EC",
"-	c #FBFCFC",
";	c #EAECED",
">	c #485C6B",
",	c #E6CCDB",
"'	c #FA2B82",
")	c #F93688",
"!	c #F75A9C",
"~	c #EFBAD3",
"{	c #F1BAD2",
"]	c #EFF0F2",
"^	c #F9267F",
"/	c #F1F4F5",
"(	c #F4F3F4",
"_	c #FB5EA0",
":	c #F678AE",
"<	c #DEE2E5",
"[	c #D4DADE",
"}	c #EEF0F1",
"|	c #F8EBF2",
"1	c #FD4793",
"2	c #FD86B8",
"3	c #F9DDEB",
"4	c #DADFE3",
"5	c #5B6B78",
"6	c #60707D",
"7	c #707F8A",
"8	c #EDEFF2",
"9	c #EFF1F4",
"0	c #F1F3F4",
"a	c #475A6A",
"b	c #FF73AD",
"c	c #FE0A70",
"d	c #FE3287",
"e	c #F91072",
"f	c #C5CAD0",
"g	c #788590",
"h	c #EEF0F2",
"i	c #596976",
"j	c #F0F2F2",
"k	c #F6F7F8",
"l	c #F1F2F3",
"m	c #F8F9F9",
"n	c #F5F6F7",
"o	c #ECEFF0",
"p	c #EEF1F3",
"q	c #526471",
"r	c #4A5C6A",
"s	c #798691",
"t	c #FBFBFC",
"u	c #FEFEFE",
"v	c #EEF0F3",
"w	c #ECEEF1",
"x	c #E6E8EB",
"y	c #C0C7CC",
"z	c #88949E",
"A	c #FCFCFC",
"B	c #657480",
"C	c #EAEDEE",
"D	c #E7EAED",
"E	c #E5E8EB",
"F	c #DEE2E6",
"G	c #EAECEE",
"H	c #546573",
"I	c #697884",
"J	c #62727E",
"K	c #F1F3F5",
"L	c #F3F4F6",
"M	c #ECEEEF",
"N	c #E0E3E5",
"O	c #F0F3F4",
"P	c #EBEEF1",
"Q	c #EAECEF",
"R	c #F0F1F3",
"S	c #475B6A",
"T	c #E2E6E9",
"U	c #E0E4E8",
"V	c #FDFDFD",
"W	c #DDE1E3",
"X	c #495C6B",
"Y	c #EFF1F2",
"Z	c #495D6D",
" ........       ",
"..+@@@@+.#      ",
".+$%&*=-;>      ",
".@,')!*........ ",
".@~{]^..+@@@@+.#",
".@/(_:.+$<[*=$}>",
".@|123.@4567890a",
".@bcde.@fghijkla",
".@mn+o.@pqrstula",
".@0vwx.@yzABC@la",
".+$DEF.@GHIJKLla",
"..}0lM.@m0NOhPla",
" #>aaa.@0vwQDERS",
"      .+$DETUVWX",
"      ..}0llYWZ>",
"       #>aaaS>> "};
