/* XPM */
static char const * new_game_xpm[] = {
"16 16 60 1",
" 	c None",
".	c #588700",
"+	c #5F7281",
"@	c #B0FD20",
"#	c #B1C788",
"$	c #FFFFFF",
"%	c #3F5262",
"&	c #A1BA7C",
"*	c #E3E8EB",
"=	c #E5E9EC",
"-	c #E6EAEC",
";	c #E8ECEE",
">	c #EAEDEF",
",	c #EDF0F2",
"'	c #EFF1F3",
")	c #F0F2F4",
"!	c #ABC183",
"~	c #F5F6F8",
"{	c #F6F8F8",
"]	c #AEC485",
"^	c #FBFCFC",
"/	c #FDFEFD",
"(	c #B0C686",
"_	c #FCFCFD",
":	c #FBFBFB",
"<	c #ACC384",
"[	c #F6F7F8",
"}	c #F4F6F6",
"|	c #ABC284",
"1	c #ABC283",
"2	c #AAC183",
"3	c #A9C082",
"4	c #EEF0F2",
"5	c #A8BF81",
"6	c #EEF0F1",
"7	c #ECEEF0",
"8	c #E7EBED",
"9	c #A4BC7E",
"0	c #E7EAED",
"a	c #E5E8EB",
"b	c #E4E7EB",
"c	c #E3E6EA",
"d	c #E0E5E8",
"e	c #5B7B44",
"f	c #A3BA7D",
"g	c #A2BA7C",
"h	c #A1B97C",
"i	c #E0E4E7",
"j	c #DEE3E6",
"k	c #DDE2E5",
"l	c #DCE1E5",
"m	c #DADFE3",
"n	c #DCE2E5",
"o	c #DCE1E4",
"p	c #DADFE2",
"q	c #D8DEE2",
"r	c #D7DCE0",
"s	c #D6DCE0",
"t	c #D5DBDF",
"u	c #D8DDE2",
"   .....+++++++ ",
"   .@@@.#$$$$$$%",
"   .@@@.&*=-;>$%",
"....@@@....,')$%",
".@@@@@@@@@.!~{$%",
".@@@@@@@@@.]^/$%",
".@@@@@@@@@.(_:$%",
"....@@@....<[}$%",
"   .@@@.|123'4$%",
"   .@@@.567>;8$%",
"   .....90abcd$%",
"    e#fghijklm$%",
"    +$jnopqrst$%",
"    +$ustttttt$%",
"    +$$$$$$$$$$%",
"     %%%%%%%%%% "};
