/* XPM */
static char * options_xpm[] = {
"16 16 58 1",
" 	c None",
".	c #495FAE",
"+	c #96ACFE",
"@	c #FFFFFF",
"#	c #2A3764",
"$	c #BC310E",
"%	c #FF9D00",
"&	c #D6DFFF",
"*	c #C5D1FF",
"=	c #A3B7FF",
"-	c #9AB0FE",
";	c #ACBDFE",
">	c #FF9E00",
",	c #A1B5FF",
"'	c #B2C3FE",
")	c #97AEFE",
"!	c #A8BBFE",
"~	c #B9C8FF",
"{	c #FFA20B",
"]	c #FFA512",
"^	c #9EB3FF",
"/	c #AFC0FE",
"(	c #C0CEFE",
"_	c #FFA617",
":	c #FFAB26",
"<	c #EDF2FF",
"[	c #DDE4FF",
"}	c #CBD7FE",
"|	c #C8D4FE",
"1	c #FFA618",
"2	c #FFAE2D",
"3	c #FFB53E",
"4	c #E6ECFF",
"5	c #C4D1FE",
"6	c #FF9F04",
"7	c #CED8FE",
"8	c #FFB43D",
"9	c #FFBD53",
"0	c #E0E7FF",
"a	c #CFD9FE",
"b	c #BDCCFE",
"c	c #FFA30F",
"d	c #D6DEFF",
"e	c #FFC262",
"f	c #FFCC7A",
"g	c #FFAF30",
"h	c #FFA516",
"i	c #FFC363",
"j	c #FFCC7C",
"k	c #FFCE7F",
"l	c #FFC566",
"m	c #FFBA4B",
"n	c #FFB031",
"o	c #FFA616",
"p	c #FFB53F",
"q	c #FFBF58",
"r	c #FFB642",
"s	c #FFB742",
"................",
".+++.+.+....@.@#",
"...............#",
".@@@@$$$@@@@@@@#",
".@$@@$%$&*$=-;@#",
".$%$$>%%$$>$,'@#",
".@$%%%>%%%$)!~@#",
".@${]$$$%%$^/(@#",
"$$_:$<[}$%%$$|@#",
"$123$4&5$6%%$7@#",
"$$89$0ab$c%$$d@#",
".@$ef$$$gh$@@@@#",
"##$ijklmno$#####",
" $p$$lqr$$%$    ",
"  $  $s$  $     ",
"     $$$        "};
