/* XPM */
static char const * rules_xpm[] = {
"16 16 42 1",
" 	c None",
".	c #678094",
"+	c #2B4E6A",
"@	c #6B8396",
"#	c #7B91A2",
"$	c #9FAFBB",
"%	c #DC0C55",
"&	c #33546F",
"*	c #2B4D6A",
"=	c #C8D1D9",
"-	c #7C92A2",
";	c #FF0051",
">	c #2A4E6A",
",	c #7C92A3",
"'	c #7D92A3",
")	c #9EAEBB",
"!	c #31536F",
"~	c #7D92A4",
"{	c #7B90A2",
"]	c #536F86",
"^	c #31536E",
"/	c #7E93A4",
"(	c #9DADBA",
"_	c #DCE166",
":	c #30536E",
"<	c #2A4D6A",
"[	c #FFFF66",
"}	c #7F94A4",
"|	c #9CACB9",
"1	c #2F516D",
"2	c #7F94A5",
"3	c #9BACB9",
"4	c #788FA0",
"5	c #516E84",
"6	c #2F526E",
"7	c #9BABB9",
"8	c #47E160",
"9	c #8094A6",
"0	c #4DFF5F",
"a	c #8095A6",
"b	c #9AABB8",
"c	c #2D506C",
"    .++++++.    ",
"@@@@+#$%%&*+@@@@",
" +==+-%;;%>+==+ ",
"  +.+,%;;%++.+  ",
"  +++')%%!++++  ",
"    +~){]^++    ",
"@@@@+/(__:<+@@@@",
" +==+/_[[_<+==+ ",
"  +.+/_[[_*+.+  ",
"  +++}|__1++++  ",
"    +23456++    ",
"@@@@+27881*+@@@@",
" +==+98008*+==+ ",
"  +.+a8008++.+  ",
"  +++ab88c*+++  ",
"    .++++++.    "};
