/* XPM */
static char * tile_xpm[] = {
"64 64 3 1",
" 	c None",
".	c #87B0C1",
"+	c #427991",
"................................................................",
".++..++..++..++..++..++..++..++..++..++..++..++..++..++..++..++.",
".++..++..++..++..++..++..++..++..++..++..++..++..++..++..++..++.",
"................................................................",
"................................................................",
".++..++..++..++..++..++..++..++..++..++..++..++..++..++..++..++.",
".++..++..++..++..++..++..++..++..++..++..++..++..++..++..++..++.",
"................................................................",
"................................................................",
".++..++..++..++..++..++..++..++..++..++..++..++..++..++..++..++.",
".++..++..++..++..++..++..++..++..++..++..++..++..++..++..++..++.",
"................................................................",
"................................................................",
".++..++..++..++..++..++..++..++..++..++..++..++..++..++..++..++.",
".++..++..++..++..++..++..++..++..++..++..++..++..++..++..++..++.",
"................................................................",
"................................................................",
".++..++..++..++..++..++..++..++..++..++..++..++..++..++..++..++.",
".++..++..++..++..++..++..++..++..++..++..++..++..++..++..++..++.",
"................................................................",
"................................................................",
".++..++..++..++..++..++..++..++..++..++..++..++..++..++..++..++.",
".++..++..++..++..++..++..++..++..++..++..++..++..++..++..++..++.",
"................................................................",
"................................................................",
".++..++..++..++..++..++..++..++..++..++..++..++..++..++..++..++.",
".++..++..++..++..++..++..++..++..++..++..++..++..++..++..++..++.",
"................................................................",
"................................................................",
".++..++..++..++..++..++..++..++..++..++..++..++..++..++..++..++.",
".++..++..++..++..++..++..++..++..++..++..++..++..++..++..++..++.",
"................................................................",
"................................................................",
".++..++..++..++..++..++..++..++..++..++..++..++..++..++..++..++.",
".++..++..++..++..++..++..++..++..++..++..++..++..++..++..++..++.",
"................................................................",
"................................................................",
".++..++..++..++..++..++..++..++..++..++..++..++..++..++..++..++.",
".++..++..++..++..++..++..++..++..++..++..++..++..++..++..++..++.",
"................................................................",
"................................................................",
".++..++..++..++..++..++..++..++..++..++..++..++..++..++..++..++.",
".++..++..++..++..++..++..++..++..++..++..++..++..++..++..++..++.",
"................................................................",
"................................................................",
".++..++..++..++..++..++..++..++..++..++..++..++..++..++..++..++.",
".++..++..++..++..++..++..++..++..++..++..++..++..++..++..++..++.",
"................................................................",
"................................................................",
".++..++..++..++..++..++..++..++..++..++..++..++..++..++..++..++.",
".++..++..++..++..++..++..++..++..++..++..++..++..++..++..++..++.",
"................................................................",
"................................................................",
".++..++..++..++..++..++..++..++..++..++..++..++..++..++..++..++.",
".++..++..++..++..++..++..++..++..++..++..++..++..++..++..++..++.",
"................................................................",
"................................................................",
".++..++..++..++..++..++..++..++..++..++..++..++..++..++..++..++.",
".++..++..++..++..++..++..++..++..++..++..++..++..++..++..++..++.",
"................................................................",
"................................................................",
".++..++..++..++..++..++..++..++..++..++..++..++..++..++..++..++.",
".++..++..++..++..++..++..++..++..++..++..++..++..++..++..++..++.",
"................................................................"};
